<?xml version="1.0" encoding="utf-8"?>
<!-- Generator: Adobe Illustrator 24.0.3, SVG Export Plug-In . SVG Version: 6.00 Build 0)  -->
<svg version="1.1" id="Layer_1" xmlns="http://www.w3.org/2000/svg" xmlns:xlink="http://www.w3.org/1999/xlink" x="0px" y="0px"
	 viewBox="0 0 3300 2200" style="enable-background:new 0 0 3300 2200;" xml:space="preserve">
<style type="text/css">
	.st0{fill:#FFFFFF;}
	.st1{fill:none;stroke:#000000;stroke-width:0.5;}
	.st2{font-family:'Arial-BoldMT';}
	.st3{font-size:12px;}
	.st4{font-family:'ArialMT';}
	.st5{opacity:0.4;fill:#00AEEF;enable-background:new    ;}
	.st6{fill:#27AAE1;}
	.st7{fill:none;stroke:#27AAE1;stroke-width:0.577;}
	.st8{stroke:#000000;stroke-width:3;stroke-miterlimit:10;}
	.st9{stroke:#000000;stroke-width:2.75;stroke-miterlimit:10;}
	.st10{stroke:#000000;stroke-width:2.5;stroke-miterlimit:10;}
	.st11{stroke:#000000;stroke-width:2.25;stroke-miterlimit:10;}
	.st12{stroke:#000000;stroke-width:2;stroke-miterlimit:10;}
	.st13{stroke:#000000;stroke-width:1.75;stroke-miterlimit:10;}
	.st14{stroke:#000000;stroke-width:1.5;stroke-miterlimit:10;}
	.st15{stroke:#000000;stroke-width:1.25;stroke-miterlimit:10;}
	.st16{stroke:#000000;stroke-miterlimit:10;}
</style>
<g id="Notes">
	<rect id="artboard" y="0" class="st0" width="3300" height="2200"/>
	<line class="st1" x1="263" y1="292" x2="3036" y2="292"/>
	<text transform="matrix(1 0 0 1 263 322)" class="st2 st3">Weight/Scale Variations</text>
	<text transform="matrix(1 0 0 1 536.0362 322)" class="st4 st3">Ultralight</text>
	<text transform="matrix(1 0 0 1 844.7501 322)" class="st4 st3">Thin</text>
	<text transform="matrix(1 0 0 1 1140.1193 322)" class="st4 st3">Light</text>
	<text transform="matrix(1 0 0 1 1428.8282 322)" class="st4 st3">Regular</text>
	<text transform="matrix(1 0 0 1 1725.2202 322)" class="st4 st3">Medium</text>
	<text transform="matrix(1 0 0 1 2018.2563 322)" class="st4 st3">Semibold</text>
	<text transform="matrix(1 0 0 1 2327.9712 322)" class="st4 st3">Bold</text>
	<text transform="matrix(1 0 0 1 2619.6831 322)" class="st4 st3">Heavy</text>
	<text transform="matrix(1 0 0 1 2918.728 322)" class="st4 st3">Black</text>
	<line class="st1" x1="263" y1="1903" x2="3036" y2="1903"/>
	<g transform="matrix(1 0 0 1 263 1933)">
		<path d="M9.2,0.8c4.3,0,7.9-3.6,7.9-7.9c0-4.3-3.6-7.9-7.9-7.9c-4.3,0-7.9,3.6-7.9,7.9C1.4-2.7,5,0.8,9.2,0.8z M9.2-0.7
			c-3.5,0-6.4-2.8-6.4-6.4c0-3.6,2.8-6.4,6.4-6.4c3.6,0,6.4,2.8,6.4,6.4C15.7-3.5,12.8-0.7,9.2-0.7z M9.2-3.4c0.5,0,0.7-0.3,0.7-0.8
			v-2.1h2.2C12.7-6.3,13-6.6,13-7c0-0.5-0.3-0.7-0.8-0.7H10V-10c0-0.5-0.3-0.8-0.7-0.8S8.5-10.5,8.5-10v2.2H6.3
			C5.8-7.8,5.4-7.5,5.4-7c0,0.5,0.4,0.7,0.8,0.7h2.2v2.1C8.5-3.8,8.8-3.4,9.2-3.4z"/>
	</g>
	<g transform="matrix(1 0 0 1 281.506 1933)">
		<path d="M11.7,2.9c5.4,0,10-4.5,10-10c0-5.4-4.5-10-10-10c-5.4,0-10,4.5-10,10C1.7-1.6,6.3,2.9,11.7,2.9z M11.7,1.2
			c-4.6,0-8.3-3.7-8.3-8.3c0-4.6,3.7-8.3,8.3-8.3c4.6,0,8.3,3.7,8.3,8.3C20-2.4,16.3,1.2,11.7,1.2z M11.7-2.4c0.5,0,0.8-0.4,0.8-0.9
			v-2.9h3.1c0.5,0,0.9-0.3,0.9-0.8c0-0.5-0.4-0.8-0.9-0.8h-3.1v-3.1c0-0.6-0.3-0.9-0.8-0.9c-0.5,0-0.8,0.4-0.8,0.9v3.1h-3
			C7.3-7.9,6.9-7.6,6.9-7c0,0.5,0.4,0.8,0.9,0.8h3v2.9C10.9-2.8,11.2-2.4,11.7-2.4z"/>
	</g>
	<g transform="matrix(1 0 0 1 304.924 1933)">
		<path d="M15,5.7c7,0,12.7-5.8,12.7-12.7c0-7-5.8-12.7-12.7-12.7C8-19.8,2.3-14,2.3-7C2.3-0.1,8,5.7,15,5.7z M15,3.9
			C8.9,3.9,4.1-1,4.1-7c0-6,4.8-10.9,10.9-10.9c6,0,10.9,4.9,10.9,10.9C25.9-1,21,3.9,15,3.9z M15-1.1c0.6,0,0.9-0.4,0.9-1v-4.1h4.2
			c0.6,0,1-0.3,1-0.9c0-0.6-0.4-0.9-1-0.9h-4.2v-4.2c0-0.6-0.4-1-0.9-1c-0.6,0-0.9,0.4-0.9,1v4.2H9.8c-0.6,0-1,0.3-1,0.9
			c0,0.6,0.4,0.9,1,0.9h4.2v4.1C14.1-1.5,14.4-1.1,15-1.1z"/>
	</g>
	<text transform="matrix(1 0 0 1 263 1953)" class="st2 st3">Design Variations</text>
	<text transform="matrix(1 0 0 1 263 1971)" class="st4 st3">Symbols are supported in up to nine weights and three scales.</text>
	<text transform="matrix(1 0 0 1 263 1989)" class="st4 st3">For optimal layout with text and other symbols, vertically align</text>
	<text transform="matrix(1 0 0 1 263 2007)" class="st4 st3">symbols with the adjacent text.</text>
	<rect x="776" y="1919" class="st5" width="3" height="14"/>
	<g transform="matrix(1 0 0 1 779 1933)">
		<path d="M10.5,0h1.8L7.2-14.1H5.4L0.2,0h1.8l1.4-4h5.6L10.5,0z M6.3-12L6.3-12l2.3,6.4H4L6.3-12z"/>
	</g>
	<rect x="791.6" y="1919" class="st5" width="3" height="14"/>
	<text transform="matrix(1 0 0 1 776 1953)" class="st2 st3">Margins</text>
	<text transform="matrix(1 0 0 1 776 1971)" class="st4 st3">Leading and trailing margins on the left and right side of each symbol</text>
	<text transform="matrix(1 0 0 1 776 1989)" class="st4 st3">can be adjusted by modifying the width of the blue rectangles.</text>
	<text transform="matrix(1 0 0 1 776 2007)" class="st4 st3">Modifications are automatically applied proportionally to all</text>
	<text transform="matrix(1 0 0 1 776 2025)" class="st4 st3">scales and weights.</text>
	<g transform="matrix(1 0 0 1 1289 1933)">
		<path d="M2.8,3.1l1.5,1.5c0.8,0.8,1.8,0.8,2.7-0.2L17.3-6.7c0.4,0.3,0.8,0.3,1.3,0.2l1-0.2L20.3-6l0,0.5C20.2-5,20.4-4.5,20.8-4
			l0.8,0.8c0.5,0.5,1.2,0.5,1.6,0.1l3.3-3.3c0.5-0.5,0.5-1.1,0-1.6l-0.8-0.8c-0.5-0.5-0.9-0.7-1.4-0.6l-0.5,0.1l-0.7-0.7l0.3-1.1
			c0.1-0.6,0-1-0.6-1.6l-2.4-2.4c-3.5-3.5-8.1-3.4-11.2-0.3c-0.4,0.4-0.5,1-0.2,1.4c0.2,0.4,0.7,0.6,1.4,0.4c1.5-0.4,3-0.3,4.5,0.7
			l-0.6,1.6c-0.2,0.6-0.2,1.1,0,1.5L3,0.4C2.1,1.3,2,2.3,2.8,3.1z M10.7-15.1c2.7-2,6-1.7,8.4,0.7l2.6,2.6c0.2,0.2,0.3,0.4,0.2,0.7
			l-0.4,1.6L23.1-8L24-8c0.3,0,0.4,0,0.6,0.2l0.6,0.6l-2.8,2.7l-0.6-0.6c-0.2-0.2-0.2-0.3-0.2-0.6l0.1-1l-1.6-1.6l-1.6,0.3
			c-0.3,0.1-0.4,0.1-0.7-0.2l-2.2-2.2c-0.2-0.2-0.3-0.4-0.1-0.7l0.9-2.3c-1.6-1.5-3.7-2.4-5.8-1.7c-0.1,0-0.2,0-0.2,0
			C10.6-15,10.6-15.1,10.7-15.1z M4.1,2.4c-0.5-0.5-0.3-0.8,0-1.1l11-10.1l1.2,1.2L6.2,3.3c-0.3,0.3-0.7,0.4-1.1,0L4.1,2.4z"/>
	</g>
	<text transform="matrix(1 0 0 1 1289 1953)" class="st2 st3">Exporting</text>
	<text transform="matrix(1 0 0 1 1289 1971)" class="st4 st3">Symbols should be outlined when exporting to ensure the</text>
	<text transform="matrix(1 0 0 1 1289 1989)" class="st4 st3">design is preserved when submitting to Xcode.</text>
	<text id="template-version" transform="matrix(1 0 0 1 2958.8496 1933)" class="st4 st3">Template v.1.0</text>
	<text transform="matrix(1 0 0 1 2913.4863 1951)" class="st4 st3">Generated from shuffle</text>
	<text transform="matrix(1 0 0 1 2921.9238 1969)" class="st4 st3">Typeset at 100 points</text>
	<text transform="matrix(1 0 0 1 263 726)" class="st4 st3">Small</text>
	<text transform="matrix(1 0 0 1 263 1156)" class="st4 st3">Medium</text>
	<text transform="matrix(1 0 0 1 263 1586)" class="st4 st3">Large</text>
</g>
<g id="Guides">
	<g id="H-reference" transform="matrix(1 0 0 1 339 696)">
		<path class="st6" d="M54.9,0h2.7L30.6-70.5h-2.5L1,0h2.7l9.3-24.5h32.8L54.9,0z M29.2-67.1h0.2l15.4,40.4h-31L29.2-67.1z"/>
	</g>
	<line id="Baseline-S" class="st7" x1="263" y1="696" x2="3036" y2="696"/>
	<line id="Capline-S" class="st7" x1="263" y1="625.5" x2="3036" y2="625.5"/>
	<g id="H-reference_1_" transform="matrix(1 0 0 1 339 1126)">
		<path class="st6" d="M54.9,0h2.7L30.6-70.5h-2.5L1,0h2.7l9.3-24.5h32.8L54.9,0z M29.2-67.1h0.2l15.4,40.4h-31L29.2-67.1z"/>
	</g>
	<line id="Baseline-M" class="st7" x1="263" y1="1126" x2="3036" y2="1126"/>
	<line id="Capline-M" class="st7" x1="263" y1="1055.5" x2="3036" y2="1055.5"/>
	<g id="H-reference_2_" transform="matrix(1 0 0 1 339 1556)">
		<path class="st6" d="M54.9,0h2.7L30.6-70.5h-2.5L1,0h2.7l9.3-24.5h32.8L54.9,0z M29.2-67.1h0.2l15.4,40.4h-31L29.2-67.1z"/>
	</g>
	<line id="Baseline-L" class="st7" x1="263" y1="1556" x2="3036" y2="1556"/>
	<line id="Capline-L" class="st7" x1="263" y1="1485.5" x2="3036" y2="1485.5"/>
	<rect id="left-margin" x="1380" y="1030.8" class="st5" width="12.5" height="119.3"/>
	<rect id="right-margin" x="1507.2" y="1030.8" class="st5" width="12.5" height="119.3"/>
</g>
<g id="Symbols">
	<g id="Black-L" transform="matrix(1 0 0 1 2833.06 1556)">
		<path id="_x3C_Path_x3E__26_" class="st8" d="M117.6-31.1l1.9-12.7h-12.1V-52c0-3.5,1.7-6.8,7.1-6.8h5.5v-10.8c0,0-5-0.9-9.8-0.9
			c-10,0-16.5,6.1-16.5,17v9.6H82.6v12.7h11.1v30.6c4.5,0.7,9.1,0.7,13.7,0v-30.6H117.6z"/>
	</g>
	<g id="Heavy-L" transform="matrix(1 0 0 1 2539.2 1556)">
		<path id="_x3C_Path_x3E__25_" class="st9" d="M114.8-31.1l1.9-12.7h-12.1V-52c0-3.5,1.7-6.8,7.1-6.8h5.5v-10.8c0,0-5-0.9-9.8-0.9
			c-10,0-16.5,6.1-16.5,17v9.6H79.8v12.7h11.1v30.6c4.5,0.7,9.1,0.7,13.7,0v-30.6H114.8z"/>
	</g>
	<g id="Bold-L" transform="matrix(1 0 0 1 2245.69 1556)">
		<path id="_x3C_Path_x3E__24_" class="st10" d="M111.5-31.1l1.9-12.7h-12.1V-52c0-3.5,1.7-6.8,7.1-6.8h5.5v-10.8c0,0-5-0.9-9.8-0.9
			c-10,0-16.5,6.1-16.5,17v9.6H76.5v12.7h11.1v30.6c4.5,0.7,9.1,0.7,13.7,0v-30.6H111.5z"/>
	</g>
	<g id="Semibold-L" transform="matrix(1 0 0 1 1951.2 1556)">
		<path id="_x3C_Path_x3E__23_" class="st11" d="M107.1-31.1l1.9-12.7H96.9V-52c0-3.5,1.7-6.8,7.1-6.8h5.5v-10.8c0,0-5-0.9-9.8-0.9
			c-10,0-16.5,6.1-16.5,17v9.6H72.1v12.7h11.1v30.6c4.5,0.7,9.1,0.7,13.7,0v-30.6H107.1z"/>
	</g>
	<g id="Medium-L" transform="matrix(1 0 0 1 1656.15 1556)">
		<path id="_x3C_Path_x3E__22_" class="st12" d="M107.7-31.1l1.9-12.7H97.5V-52c0-3.5,1.7-6.8,7.1-6.8h5.5v-10.8c0,0-5-0.9-9.8-0.9
			c-10,0-16.5,6.1-16.5,17v9.6H72.7v12.7h11.1v30.6c4.5,0.7,9.1,0.7,13.7,0v-30.6H107.7z"/>
	</g>
	<g id="Regular-L" transform="matrix(1 0 0 1 1361.64 1556)">
		<path id="_x3C_Path_x3E__21_" class="st13" d="M105.5-31.1l1.9-12.7H95.3V-52c0-3.5,1.7-6.8,7.1-6.8h5.5v-10.8c0,0-5-0.9-9.8-0.9
			c-10,0-16.5,6.1-16.5,17v9.6H70.5v12.7h11.1v30.6c4.5,0.7,9.1,0.7,13.7,0v-30.6H105.5z"/>
	</g>
	<g id="Light-L" transform="matrix(1 0 0 1 1067.42 1556)">
		<path id="_x3C_Path_x3E__20_" class="st14" d="M121.6-31.1l1.9-12.7h-12.1V-52c0-3.5,1.7-6.8,7.1-6.8h5.5v-10.8c0,0-5-0.9-9.8-0.9
			c-10,0-16.5,6.1-16.5,17v9.6H86.6v12.7h11.1v30.6c4.5,0.7,9.1,0.7,13.7,0v-30.6H121.6z"/>
	</g>
	<g id="Thin-L" transform="matrix(1 0 0 1 774 1556)">
		<path id="_x3C_Path_x3E__19_" class="st15" d="M98.7-31.1l1.9-12.7H88.5V-52c0-3.5,1.7-6.8,7.1-6.8h5.5v-10.8c0,0-5-0.9-9.8-0.9
			c-10,0-16.5,6.1-16.5,17v9.6H63.7v12.7h11.1v30.6c4.5,0.7,9.1,0.7,13.7,0v-30.6H98.7z"/>
	</g>
	<g id="Ultralight-L" transform="matrix(1 0 0 1 478.974 1556)">
		<path id="_x3C_Path_x3E__3_" class="st16" d="M98-31.1l1.9-12.7H87.8V-52c0-3.5,1.7-6.8,7.1-6.8h5.5v-10.8c0,0-5-0.9-9.8-0.9
			c-10,0-16.5,6.1-16.5,17v9.6H63v12.7h11.1v30.6c4.5,0.7,9.1,0.7,13.7,0v-30.6H98z"/>
	</g>
	<g id="Black-M" transform="matrix(1 0 0 1 2853.1 1126)">
		<path id="_x3C_Path_x3E__18_" class="st8" d="M97.6-31.1l1.9-12.7H87.4V-52c0-3.5,1.7-6.8,7.1-6.8h5.5v-10.8c0,0-5-0.9-9.8-0.9
			c-10,0-16.5,6.1-16.5,17v9.6H62.6v12.7h11.1v30.6c4.5,0.7,9.1,0.7,13.7,0v-30.6H97.6z"/>
	</g>
	<g id="Heavy-M" transform="matrix(1 0 0 1 2558.88 1126)">
		<path id="_x3C_Path_x3E__17_" class="st9" d="M95.1-31.1L97-43.8H84.9V-52c0-3.5,1.7-6.8,7.1-6.8h5.5v-10.8c0,0-5-0.9-9.8-0.9
			c-10,0-16.5,6.1-16.5,17v9.6H60.1v12.7h11.1v30.6c4.5,0.7,9.1,0.7,13.7,0v-30.6H95.1z"/>
	</g>
	<g id="Bold-M" transform="matrix(1 0 0 1 2264.93 1126)">
		<path id="_x3C_Path_x3E__16_" class="st10" d="M92.3-31.1l1.9-12.7H82.1V-52c0-3.5,1.7-6.8,7.1-6.8h5.5v-10.8c0,0-5-0.9-9.8-0.9
			c-10,0-16.5,6.1-16.5,17v9.6H57.3v12.7h11.1v30.6c4.5,0.7,9.1,0.7,13.7,0v-30.6H92.3z"/>
	</g>
	<g id="Semibold-M" transform="matrix(1 0 0 1 1970.15 1126)">
		<path id="_x3C_Path_x3E__15_" class="st11" d="M88.1-31.1L90-43.8H77.9V-52c0-3.5,1.7-6.8,7.1-6.8h5.5v-10.8c0,0-5-0.9-9.8-0.9
			c-10,0-16.5,6.1-16.5,17v9.6H53.1v12.7h11.1v30.6c4.5,0.7,9.1,0.7,13.7,0v-30.6H88.1z"/>
	</g>
	<g id="Medium-M" transform="matrix(1 0 0 1 1674.88 1126)">
		<path id="_x3C_Path_x3E__14_" class="st12" d="M88.9-31.1l1.9-12.7H78.7V-52c0-3.5,1.7-6.8,7.1-6.8h5.5v-10.8c0,0-5-0.9-9.8-0.9
			c-10,0-16.5,6.1-16.5,17v9.6H53.9v12.7h11.1v30.6c4.5,0.7,9.1,0.7,13.7,0v-30.6H88.9z"/>
	</g>
	<g id="Regular-M" transform="matrix(1 0 0 1 1380.04 1126)">
		<path id="_x3C_Path_x3E__13_" class="st13" d="M87.1-31.1L89-43.8H76.9V-52c0-3.5,1.7-6.8,7.1-6.8h5.5v-10.8c0,0-5-0.9-9.8-0.9
			c-10,0-16.5,6.1-16.5,17v9.6H52.1v12.7h11.1v30.6c4.5,0.7,9.1,0.7,13.7,0v-30.6H87.1z"/>
	</g>
	<g id="Light-M" transform="matrix(1 0 0 1 1085.58 1126)">
		<path id="_x3C_Path_x3E__12_" class="st14" d="M103.4-31.1l1.9-12.7H93.2V-52c0-3.5,1.7-6.8,7.1-6.8h5.5v-10.8c0,0-5-0.9-9.8-0.9
			c-10,0-16.5,6.1-16.5,17v9.6H68.4v12.7h11.1v30.6c4.5,0.7,9.1,0.7,13.7,0v-30.6H103.4z"/>
	</g>
	<g id="Thin-M" transform="matrix(1 0 0 1 791.847 1126)">
		<path id="_x3C_Path_x3E__11_" class="st15" d="M81.9-31.1l1.9-12.7H71.7V-52c0-3.5,1.7-6.8,7.1-6.8h5.5v-10.8c0,0-5-0.9-9.8-0.9
			c-10,0-16.5,6.1-16.5,17v9.6H46.9v12.7H58v30.6c4.5,0.7,9.1,0.7,13.7,0v-30.6H81.9z"/>
	</g>
	<g id="Ultralight-M" transform="matrix(1 0 0 1 496.65 1126)">
		<path id="_x3C_Path_x3E__1_" class="st16" d="M80.4-31.1l1.9-12.7H70.2V-52c0-3.5,1.7-6.8,7.1-6.8h5.5v-10.8c0,0-5-0.9-9.8-0.9
			c-10,0-16.5,6.1-16.5,17v9.6H45.4v12.7h11.1v30.6c4.5,0.7,9.1,0.7,13.7,0v-30.6H80.4z"/>
	</g>
	<g id="Black-S" transform="matrix(1 0 0 1 2870.66 696)">
		<path id="_x3C_Path_x3E__9_" class="st8" d="M80-31.1L82-43.7H69.8v-8.2c0-3.5,1.7-6.8,7.1-6.8h5.5v-10.8c0,0-5-0.9-9.8-0.9
			c-10,0-16.5,6.1-16.5,17v9.6H45v12.7h11.1v30.6c4.5,0.7,9.1,0.7,13.7,0v-30.6H80z"/>
	</g>
	<g id="Heavy-S" transform="matrix(1 0 0 1 2575.58 696)">
		<path id="_x3C_Path_x3E__10_" class="st9" d="M78.4-31.1l1.9-12.7H68.2v-8.2c0-3.5,1.7-6.8,7.1-6.8h5.5v-10.8c0,0-5-0.9-9.8-0.9
			c-10,0-16.5,6.1-16.5,17v9.6H43.4v12.7h11.1v30.6c4.5,0.7,9.1,0.7,13.7,0v-30.6H78.4z"/>
	</g>
	<g id="Bold-S" transform="matrix(1 0 0 1 2280.7 696)">
		<path id="_x3C_Path_x3E__8_" class="st10" d="M76.5-31.1l1.9-12.7H66.3v-8.2c0-3.5,1.7-6.8,7.1-6.8H79v-10.8c0,0-5-0.9-9.8-0.9
			c-10,0-16.5,6.1-16.5,17v9.6H41.5v12.7h11.1v30.6c4.5,0.7,9.1,0.7,13.7,0v-30.6H76.5z"/>
	</g>
	<g id="Semibold-S" transform="matrix(1 0 0 1 1985.26 696)">
		<path id="_x3C_Path_x3E__7_" class="st11" d="M73-31.1l1.9-12.7H62.8v-8.2c0-3.5,1.7-6.8,7.1-6.8h5.5v-10.8c0,0-5-0.9-9.8-0.9
			c-10,0-16.5,6.1-16.5,17v9.6H38v12.7h11.1v30.6c4.5,0.7,9.1,0.7,13.7,0v-30.6H73z"/>
	</g>
	<g id="Medium-S" transform="matrix(1 0 0 1 1689.52 696)">
		<path id="_x3C_Path_x3E__6_" class="st12" d="M74.3-31.1l1.9-12.7H64.1v-8.2c0-3.5,1.7-6.8,7.1-6.8h5.5v-10.8c0,0-5-0.9-9.8-0.9
			c-10,0-16.5,6.1-16.5,17v9.6H39.3v12.7h11.1v30.6c4.5,0.7,9.1,0.7,13.7,0v-30.6H74.3z"/>
	</g>
	<g id="Regular-S" transform="matrix(1 0 0 1 1394.06 696)">
		<path id="_x3C_Path_x3E__5_" class="st13" d="M73.1-31.1L75-43.7H62.9v-8.2c0-3.5,1.7-6.8,7.1-6.8h5.5v-10.8c0,0-5-0.9-9.8-0.9
			c-10,0-16.5,6.1-16.5,17v9.6H38.1v12.7h11.1v30.6c4.5,0.7,9.1,0.7,13.7,0v-30.6H73.1z"/>
	</g>
	<g id="Light-S" transform="matrix(1 0 0 1 1099.35 696)">
		<path id="_x3C_Path_x3E__2_" class="st14" d="M89.6-31.1l1.9-12.7H79.4V-52c0-3.5,1.7-6.8,7.1-6.8h5.5v-10.8c0,0-5-0.9-9.8-0.9
			c-10,0-16.5,6.1-16.5,17v9.6H54.6v12.7h11.1v30.6c4.5,0.7,9.1,0.7,13.7,0v-30.6H89.6z"/>
	</g>
	<g id="Thin-S" transform="matrix(1 0 0 1 805.25 696)">
		<path id="_x3C_Path_x3E__4_" class="st15" d="M67.4-31.1l1.9-12.7H57.2V-52c0-3.5,1.7-6.8,7.1-6.8h5.5v-10.8c0,0-5-0.9-9.8-0.9
			c-10,0-16.5,6.1-16.5,17v9.6H32.4v12.7h11.1v30.6c4.5,0.7,9.1,0.7,13.7,0v-30.6H67.4z"/>
	</g>
	<g id="Ultralight-S" transform="matrix(1 0 0 1 509.906 696)">
		<path id="_x3C_Path_x3E_" class="st16" d="M67.1-31.1L69-43.8H56.9V-52c0-3.5,1.7-6.8,7.1-6.8h5.5v-10.8c0,0-5-0.9-9.8-0.9
			c-10,0-16.5,6.1-16.5,17v9.6H32.1v12.7h11.1v30.6c4.5,0.7,9.1,0.7,13.7,0v-30.6H67.1z"/>
	</g>
</g>
</svg>
