<?xml version="1.0" encoding="utf-8"?>
<!-- Generator: Adobe Illustrator 24.0.3, SVG Export Plug-In . SVG Version: 6.00 Build 0)  -->
<svg version="1.1" id="Layer_1" xmlns="http://www.w3.org/2000/svg" xmlns:xlink="http://www.w3.org/1999/xlink" x="0px" y="0px"
	 viewBox="0 0 3300 2200" style="enable-background:new 0 0 3300 2200;" xml:space="preserve">
<style type="text/css">
	.st0{fill:#FFFFFF;}
	.st1{fill:none;stroke:#000000;stroke-width:0.5;}
	.st2{font-family:'Arial-BoldMT';}
	.st3{font-size:12px;}
	.st4{font-family:'ArialMT';}
	.st5{opacity:0.4;fill:#00AEEF;enable-background:new    ;}
	.st6{fill:#27AAE1;}
	.st7{fill:none;stroke:#27AAE1;stroke-width:0.577;}
	.st8{fill-rule:evenodd;clip-rule:evenodd;stroke:#000000;stroke-width:2;stroke-miterlimit:10;}
	.st9{fill-rule:evenodd;clip-rule:evenodd;stroke:#000000;stroke-width:1.75;stroke-miterlimit:10;}
	.st10{fill-rule:evenodd;clip-rule:evenodd;stroke:#000000;stroke-width:1.5;stroke-miterlimit:10;}
	.st11{fill-rule:evenodd;clip-rule:evenodd;stroke:#000000;stroke-width:1.25;stroke-miterlimit:10;}
	.st12{fill-rule:evenodd;clip-rule:evenodd;stroke:#000000;stroke-miterlimit:10;}
	.st13{fill-rule:evenodd;clip-rule:evenodd;stroke:#000000;stroke-width:0.75;stroke-miterlimit:10;}
	.st14{fill-rule:evenodd;clip-rule:evenodd;stroke:#000000;stroke-width:0.5;stroke-miterlimit:10;}
	.st15{fill-rule:evenodd;clip-rule:evenodd;stroke:#000000;stroke-width:0.25;stroke-miterlimit:10;}
	.st16{fill-rule:evenodd;clip-rule:evenodd;}
</style>
<g id="Notes">
	<rect id="artboard" y="0" class="st0" width="3300" height="2200"/>
	<line class="st1" x1="263" y1="292" x2="3036" y2="292"/>
	<text transform="matrix(1 0 0 1 263 322)" class="st2 st3">Weight/Scale Variations</text>
	<text transform="matrix(1 0 0 1 536.0362 322)" class="st4 st3">Ultralight</text>
	<text transform="matrix(1 0 0 1 844.7501 322)" class="st4 st3">Thin</text>
	<text transform="matrix(1 0 0 1 1140.1193 322)" class="st4 st3">Light</text>
	<text transform="matrix(1 0 0 1 1428.8282 322)" class="st4 st3">Regular</text>
	<text transform="matrix(1 0 0 1 1725.2202 322)" class="st4 st3">Medium</text>
	<text transform="matrix(1 0 0 1 2018.2563 322)" class="st4 st3">Semibold</text>
	<text transform="matrix(1 0 0 1 2327.9712 322)" class="st4 st3">Bold</text>
	<text transform="matrix(1 0 0 1 2619.6831 322)" class="st4 st3">Heavy</text>
	<text transform="matrix(1 0 0 1 2918.728 322)" class="st4 st3">Black</text>
	<line class="st1" x1="263" y1="1903" x2="3036" y2="1903"/>
	<g transform="matrix(1 0 0 1 263 1933)">
		<path d="M9.2,0.8c4.3,0,7.9-3.6,7.9-7.9c0-4.3-3.6-7.9-7.9-7.9c-4.3,0-7.9,3.6-7.9,7.9C1.4-2.7,5,0.8,9.2,0.8z M9.2-0.7
			c-3.5,0-6.4-2.8-6.4-6.4c0-3.6,2.8-6.4,6.4-6.4c3.6,0,6.4,2.8,6.4,6.4C15.7-3.5,12.8-0.7,9.2-0.7z M9.2-3.4c0.5,0,0.7-0.3,0.7-0.8
			v-2.1h2.2C12.7-6.3,13-6.6,13-7c0-0.5-0.3-0.7-0.8-0.7H10V-10c0-0.5-0.3-0.8-0.7-0.8S8.5-10.5,8.5-10v2.2H6.3
			C5.8-7.8,5.4-7.5,5.4-7c0,0.5,0.4,0.7,0.8,0.7h2.2v2.1C8.5-3.8,8.8-3.4,9.2-3.4z"/>
	</g>
	<g transform="matrix(1 0 0 1 281.506 1933)">
		<path d="M11.7,2.9c5.4,0,10-4.5,10-10c0-5.4-4.5-10-10-10c-5.4,0-10,4.5-10,10C1.7-1.6,6.3,2.9,11.7,2.9z M11.7,1.2
			c-4.6,0-8.3-3.7-8.3-8.3c0-4.6,3.7-8.3,8.3-8.3c4.6,0,8.3,3.7,8.3,8.3C20-2.4,16.3,1.2,11.7,1.2z M11.7-2.4c0.5,0,0.8-0.4,0.8-0.9
			v-2.9h3.1c0.5,0,0.9-0.3,0.9-0.8c0-0.5-0.4-0.8-0.9-0.8h-3.1v-3.1c0-0.6-0.3-0.9-0.8-0.9c-0.5,0-0.8,0.4-0.8,0.9v3.1h-3
			C7.3-7.9,6.9-7.6,6.9-7c0,0.5,0.4,0.8,0.9,0.8h3v2.9C10.9-2.8,11.2-2.4,11.7-2.4z"/>
	</g>
	<g transform="matrix(1 0 0 1 304.924 1933)">
		<path d="M15,5.7c7,0,12.7-5.8,12.7-12.7c0-7-5.8-12.7-12.7-12.7C8-19.8,2.3-14,2.3-7C2.3-0.1,8,5.7,15,5.7z M15,3.9
			C8.9,3.9,4.1-1,4.1-7c0-6,4.8-10.9,10.9-10.9c6,0,10.9,4.9,10.9,10.9C25.9-1,21,3.9,15,3.9z M15-1.1c0.6,0,0.9-0.4,0.9-1v-4.1h4.2
			c0.6,0,1-0.3,1-0.9c0-0.6-0.4-0.9-1-0.9h-4.2v-4.2c0-0.6-0.4-1-0.9-1c-0.6,0-0.9,0.4-0.9,1v4.2H9.8c-0.6,0-1,0.3-1,0.9
			c0,0.6,0.4,0.9,1,0.9h4.2v4.1C14.1-1.5,14.4-1.1,15-1.1z"/>
	</g>
	<text transform="matrix(1 0 0 1 263 1953)" class="st2 st3">Design Variations</text>
	<text transform="matrix(1 0 0 1 263 1971)" class="st4 st3">Symbols are supported in up to nine weights and three scales.</text>
	<text transform="matrix(1 0 0 1 263 1989)" class="st4 st3">For optimal layout with text and other symbols, vertically align</text>
	<text transform="matrix(1 0 0 1 263 2007)" class="st4 st3">symbols with the adjacent text.</text>
	<rect x="776" y="1919" class="st5" width="3" height="14"/>
	<g transform="matrix(1 0 0 1 779 1933)">
		<path d="M10.5,0h1.8L7.2-14.1H5.4L0.2,0h1.8l1.4-4h5.6L10.5,0z M6.3-12L6.3-12l2.3,6.4H4L6.3-12z"/>
	</g>
	<rect x="791.6" y="1919" class="st5" width="3" height="14"/>
	<text transform="matrix(1 0 0 1 776 1953)" class="st2 st3">Margins</text>
	<text transform="matrix(1 0 0 1 776 1971)" class="st4 st3">Leading and trailing margins on the left and right side of each symbol</text>
	<text transform="matrix(1 0 0 1 776 1989)" class="st4 st3">can be adjusted by modifying the width of the blue rectangles.</text>
	<text transform="matrix(1 0 0 1 776 2007)" class="st4 st3">Modifications are automatically applied proportionally to all</text>
	<text transform="matrix(1 0 0 1 776 2025)" class="st4 st3">scales and weights.</text>
	<g transform="matrix(1 0 0 1 1289 1933)">
		<path d="M2.8,3.1l1.5,1.5c0.8,0.8,1.8,0.8,2.7-0.2L17.3-6.7c0.4,0.3,0.8,0.3,1.3,0.2l1-0.2L20.3-6l0,0.5C20.2-5,20.4-4.5,20.8-4
			l0.8,0.8c0.5,0.5,1.2,0.5,1.6,0.1l3.3-3.3c0.5-0.5,0.5-1.1,0-1.6l-0.8-0.8c-0.5-0.5-0.9-0.7-1.4-0.6l-0.5,0.1l-0.7-0.7l0.3-1.1
			c0.1-0.6,0-1-0.6-1.6l-2.4-2.4c-3.5-3.5-8.1-3.4-11.2-0.3c-0.4,0.4-0.5,1-0.2,1.4c0.2,0.4,0.7,0.6,1.4,0.4c1.5-0.4,3-0.3,4.5,0.7
			l-0.6,1.6c-0.2,0.6-0.2,1.1,0,1.5L3,0.4C2.1,1.3,2,2.3,2.8,3.1z M10.7-15.1c2.7-2,6-1.7,8.4,0.7l2.6,2.6c0.2,0.2,0.3,0.4,0.2,0.7
			l-0.4,1.6L23.1-8L24-8c0.3,0,0.4,0,0.6,0.2l0.6,0.6l-2.8,2.7l-0.6-0.6c-0.2-0.2-0.2-0.3-0.2-0.6l0.1-1l-1.6-1.6l-1.6,0.3
			c-0.3,0.1-0.4,0.1-0.7-0.2l-2.2-2.2c-0.2-0.2-0.3-0.4-0.1-0.7l0.9-2.3c-1.6-1.5-3.7-2.4-5.8-1.7c-0.1,0-0.2,0-0.2,0
			C10.6-15,10.6-15.1,10.7-15.1z M4.1,2.4c-0.5-0.5-0.3-0.8,0-1.1l11-10.1l1.2,1.2L6.2,3.3c-0.3,0.3-0.7,0.4-1.1,0L4.1,2.4z"/>
	</g>
	<text transform="matrix(1 0 0 1 1289 1953)" class="st2 st3">Exporting</text>
	<text transform="matrix(1 0 0 1 1289 1971)" class="st4 st3">Symbols should be outlined when exporting to ensure the</text>
	<text transform="matrix(1 0 0 1 1289 1989)" class="st4 st3">design is preserved when submitting to Xcode.</text>
	<text id="template-version" transform="matrix(1 0 0 1 2958.8496 1933)" class="st4 st3">Template v.1.0</text>
	<text transform="matrix(1 0 0 1 2913.4863 1951)" class="st4 st3">Generated from shuffle</text>
	<text transform="matrix(1 0 0 1 2921.9238 1969)" class="st4 st3">Typeset at 100 points</text>
	<text transform="matrix(1 0 0 1 263 726)" class="st4 st3">Small</text>
	<text transform="matrix(1 0 0 1 263 1156)" class="st4 st3">Medium</text>
	<text transform="matrix(1 0 0 1 263 1586)" class="st4 st3">Large</text>
</g>
<g id="Guides">
	<g id="H-reference" transform="matrix(1 0 0 1 339 696)">
		<path class="st6" d="M54.9,0h2.7L30.6-70.5h-2.5L1,0h2.7l9.3-24.5h32.8L54.9,0z M29.2-67.1h0.2l15.4,40.4h-31L29.2-67.1z"/>
	</g>
	<line id="Baseline-S" class="st7" x1="263" y1="696" x2="3036" y2="696"/>
	<line id="Capline-S" class="st7" x1="263" y1="625.5" x2="3036" y2="625.5"/>
	<g id="H-reference_1_" transform="matrix(1 0 0 1 339 1126)">
		<path class="st6" d="M54.9,0h2.7L30.6-70.5h-2.5L1,0h2.7l9.3-24.5h32.8L54.9,0z M29.2-67.1h0.2l15.4,40.4h-31L29.2-67.1z"/>
	</g>
	<line id="Baseline-M" class="st7" x1="263" y1="1126" x2="3036" y2="1126"/>
	<line id="Capline-M" class="st7" x1="263" y1="1055.5" x2="3036" y2="1055.5"/>
	<g id="H-reference_2_" transform="matrix(1 0 0 1 339 1556)">
		<path class="st6" d="M54.9,0h2.7L30.6-70.5h-2.5L1,0h2.7l9.3-24.5h32.8L54.9,0z M29.2-67.1h0.2l15.4,40.4h-31L29.2-67.1z"/>
	</g>
	<line id="Baseline-L" class="st7" x1="263" y1="1556" x2="3036" y2="1556"/>
	<line id="Capline-L" class="st7" x1="263" y1="1485.5" x2="3036" y2="1485.5"/>
	<rect id="left-margin" x="1380" y="1030.8" class="st5" width="12.5" height="119.3"/>
	<rect id="right-margin" x="1507.2" y="1030.8" class="st5" width="12.5" height="119.3"/>
</g>
<g id="Symbols">
	<g id="Black-L" transform="matrix(1 0 0 1 2833.06 1556)">
		<path class="st8" d="M80.8,0v-46.6H66.4V0H80.8z M80.8-63.1c-0.1-4.2-2.9-7.3-7.4-7.3c-4.5,0-7.5,3.2-7.5,7.3
			c0,4.1,2.9,7.3,7.3,7.3h0.1C78-55.8,80.8-59,80.8-63.1z M104.3,0v-26.5c0-1.4,0.1-2.8,0.5-3.9c1.1-2.8,3.7-5.8,8.1-5.8
			c5.7,0,9.3,3.2,9.3,9.6V0h14.5v-27.3c0-14.6-7.8-21.4-18.2-21.4c-8.5,0-12.3,4.8-14.3,8l0.1-6.2H89.8c0.2,4.5,0,46.9,0,46.9H104.3
			z"/>
	</g>
	<g id="Heavy-L" transform="matrix(1 0 0 1 2539.2 1556)">
		<path class="st9" d="M78,0v-46.6H63.6V0H78z M78-63.1c-0.1-4.2-2.9-7.3-7.4-7.3c-4.5,0-7.5,3.2-7.5,7.3c0,4.1,2.9,7.3,7.3,7.3h0.1
			C75.1-55.8,78-59,78-63.1z M101.4,0v-26.5c0-1.4,0.1-2.8,0.5-3.9c1.1-2.8,3.7-5.8,8.1-5.8c5.7,0,9.3,3.2,9.3,9.6V0h14.5v-27.3
			c0-14.6-7.8-21.4-18.2-21.4c-8.5,0-12.3,4.8-14.3,8l0.1-6.2H87C87.2-42.4,87,0,87,0H101.4z"/>
	</g>
	<g id="Bold-L" transform="matrix(1 0 0 1 2245.69 1556)">
		<path class="st10" d="M75.2,0v-46.6H60.8V0H75.2z M75.2-63.1c-0.1-4.2-2.9-7.3-7.4-7.3c-4.5,0-7.5,3.2-7.5,7.3
			c0,4.1,2.9,7.3,7.3,7.3h0.1C72.3-55.8,75.2-59,75.2-63.1z M98.7,0v-26.5c0-1.4,0.1-2.8,0.5-3.9c1.1-2.8,3.7-5.8,8.1-5.8
			c5.7,0,9.3,3.2,9.3,9.6V0h14.5v-27.3c0-14.6-7.8-21.4-18.2-21.4c-8.5,0-12.3,4.8-14.3,8l0.1-6.2H84.2c0.2,4.5,0,46.9,0,46.9H98.7z
			"/>
	</g>
	<g id="Semibold-L" transform="matrix(1 0 0 1 1951.2 1556)">
		<path class="st11" d="M70.7,0v-46.6H56.3V0H70.7z M70.7-63.1c-0.1-4.2-2.9-7.3-7.4-7.3c-4.5,0-7.5,3.2-7.5,7.3
			c0,4.1,2.9,7.3,7.3,7.3h0.1C67.8-55.8,70.7-59,70.7-63.1z M94.2,0v-26.5c0-1.4,0.1-2.8,0.5-3.9c1.1-2.8,3.7-5.8,8.1-5.8
			c5.7,0,9.3,3.2,9.3,9.6V0h14.5v-27.3c0-14.6-7.8-21.4-18.2-21.4c-8.5,0-12.3,4.8-14.3,8l0.1-6.2H79.7c0.2,4.5,0,46.9,0,46.9H94.2z
			"/>
	</g>
	<g id="Medium-L" transform="matrix(1 0 0 1 1656.15 1556)">
		<path class="st12" d="M70.9,0v-46.6H56.5V0H70.9z M70.9-63.1c-0.1-4.2-2.9-7.3-7.4-7.3c-4.5,0-7.5,3.2-7.5,7.3
			c0,4.1,2.9,7.3,7.3,7.3h0.1C68-55.8,70.9-59,70.9-63.1z M94.4,0v-26.5c0-1.4,0.1-2.8,0.5-3.9c1.1-2.8,3.7-5.8,8.1-5.8
			c5.7,0,9.3,3.2,9.3,9.6V0h14.5v-27.3c0-14.6-7.8-21.4-18.2-21.4c-8.5,0-12.3,4.8-14.3,8l0.1-6.2H79.9c0.2,4.5,0,46.9,0,46.9H94.4z
			"/>
	</g>
	<g id="Regular-L" transform="matrix(1 0 0 1 1361.64 1556)">
		<path class="st13" d="M69.8,0v-46.6H55.4V0H69.8z M69.8-63.1c-0.1-4.2-2.9-7.3-7.4-7.3c-4.5,0-7.5,3.2-7.5,7.3
			c0,4.1,2.9,7.3,7.3,7.3h0.1C66.9-55.8,69.8-59,69.8-63.1z M93.3,0v-26.5c0-1.4,0.1-2.8,0.5-3.9c1.1-2.8,3.7-5.8,8.1-5.8
			c5.7,0,9.3,3.2,9.3,9.6V0h14.5v-27.3c0-14.6-7.8-21.4-18.2-21.4c-8.5,0-12.3,4.8-14.3,8l0.1-6.2H78.8c0.2,4.5,0,46.9,0,46.9H93.3z
			"/>
	</g>
	<g id="Light-L" transform="matrix(1 0 0 1 1067.42 1556)">
		<path class="st14" d="M84.7,0v-46.6H70.3V0H84.7z M84.7-63.1c-0.1-4.2-2.9-7.3-7.4-7.3c-4.5,0-7.5,3.2-7.5,7.3
			c0,4.1,2.9,7.3,7.3,7.3h0.1C81.9-55.8,84.7-59,84.7-63.1z M108.2,0v-26.5c0-1.4,0.1-2.8,0.5-3.9c1.1-2.8,3.7-5.8,8.1-5.8
			c5.7,0,9.3,3.2,9.3,9.6V0h14.5v-27.3c0-14.6-7.8-21.4-18.2-21.4c-8.5,0-12.3,4.8-14.3,8l0.1-6.2H93.8c0.2,4.5,0,46.9,0,46.9H108.2
			z"/>
	</g>
	<g id="Thin-L" transform="matrix(1 0 0 1 774 1556)">
		<path class="st15" d="M62.8,0v-46.6H48.4V0H62.8z M62.8-63.1c-0.1-4.2-2.9-7.3-7.4-7.3c-4.5,0-7.5,3.2-7.5,7.3
			c0,4.1,2.9,7.3,7.3,7.3h0.1C59.9-55.8,62.8-59,62.8-63.1z M86.3,0v-26.5c0-1.4,0.1-2.8,0.5-3.9c1.1-2.8,3.7-5.8,8.1-5.8
			c5.7,0,9.3,3.2,9.3,9.6V0h14.5v-27.3c0-14.6-7.8-21.4-18.2-21.4c-8.5,0-12.3,4.8-14.3,8l0.1-6.2H71.8c0.2,4.5,0,46.9,0,46.9H86.3z
			"/>
	</g>
	<g id="Ultralight-L" transform="matrix(1 0 0 1 478.974 1556)">
		<path class="st16" d="M61.2,0v-46.6H46.8V0H61.2z M61.2-63.1c-0.1-4.2-2.9-7.3-7.4-7.3c-4.5,0-7.5,3.2-7.5,7.3
			c0,4.1,2.9,7.3,7.3,7.3h0.1C58.4-55.8,61.2-59,61.2-63.1z M84.7,0v-26.5c0-1.4,0.1-2.8,0.5-3.9c1.1-2.8,3.7-5.8,8.1-5.8
			c5.7,0,9.3,3.2,9.3,9.6V0h14.5v-27.3c0-14.6-7.8-21.4-18.2-21.4c-8.5,0-12.3,4.8-14.3,8l0.1-6.2H70.2c0.2,4.5,0,46.9,0,46.9H84.7z
			"/>
	</g>
	<g id="Black-M" transform="matrix(1 0 0 1 2853.1 1126)">
		<path class="st8" d="M60.8-0.3v-46.6H46.4v46.6H60.8z M60.8-63.4c-0.1-4.2-2.9-7.3-7.4-7.3c-4.5,0-7.5,3.2-7.5,7.3
			c0,4.1,2.9,7.3,7.3,7.3h0.1C57.9-56.1,60.8-59.3,60.8-63.4z M84.3-0.3v-26.5c0-1.4,0.1-2.8,0.5-3.9c1.1-2.8,3.7-5.8,8.1-5.8
			c5.7,0,9.3,3.2,9.3,9.6v26.5h14.5v-27.3c0-14.6-7.8-21.4-18.2-21.4c-8.5,0-12.3,4.8-14.3,8l0.1-6.2H69.8c0.2,4.5,0,46.9,0,46.9
			H84.3z"/>
	</g>
	<g id="Heavy-M" transform="matrix(1 0 0 1 2558.88 1126)">
		<path class="st9" d="M58.3-0.3v-46.6H43.9v46.6H58.3z M58.3-63.4c-0.1-4.2-2.9-7.3-7.4-7.3c-4.5,0-7.5,3.2-7.5,7.3
			c0,4.1,2.9,7.3,7.3,7.3h0.1C55.4-56.1,58.3-59.3,58.3-63.4z M81.8-0.3v-26.5c0-1.4,0.1-2.8,0.5-3.9c1.1-2.8,3.7-5.8,8.1-5.8
			c5.7,0,9.3,3.2,9.3,9.6v26.5h14.5v-27.3c0-14.6-7.8-21.4-18.2-21.4c-8.5,0-12.3,4.8-14.3,8l0.1-6.2H67.3c0.2,4.5,0,46.9,0,46.9
			H81.8z"/>
	</g>
	<g id="Bold-M" transform="matrix(1 0 0 1 2264.93 1126)">
		<path class="st10" d="M55.5-0.3v-46.6H41.1v46.6H55.5z M55.5-63.4c-0.1-4.2-2.9-7.3-7.4-7.3c-4.5,0-7.5,3.2-7.5,7.3
			c0,4.1,2.9,7.3,7.3,7.3H48C52.6-56.1,55.5-59.3,55.5-63.4z M79-0.3v-26.5c0-1.4,0.1-2.8,0.5-3.9c1.1-2.8,3.7-5.8,8.1-5.8
			c5.7,0,9.3,3.2,9.3,9.6v26.5h14.5v-27.3c0-14.6-7.8-21.4-18.2-21.4c-8.5,0-12.3,4.8-14.3,8l0.1-6.2H64.5c0.2,4.5,0,46.9,0,46.9H79
			z"/>
	</g>
	<g id="Semibold-M" transform="matrix(1 0 0 1 1970.15 1126)">
		<path class="st11" d="M51.3-0.3v-46.6H36.9v46.6H51.3z M51.3-63.4c-0.1-4.2-2.9-7.3-7.4-7.3c-4.5,0-7.5,3.2-7.5,7.3
			c0,4.1,2.9,7.3,7.3,7.3h0.1C48.4-56.1,51.3-59.3,51.3-63.4z M74.8-0.3v-26.5c0-1.4,0.1-2.8,0.5-3.9c1.1-2.8,3.7-5.8,8.1-5.8
			c5.7,0,9.3,3.2,9.3,9.6v26.5h14.5v-27.3C107.2-42.2,99.4-49,89-49c-8.5,0-12.3,4.8-14.3,8l0.1-6.2H60.3c0.2,4.5,0,46.9,0,46.9
			H74.8z"/>
	</g>
	<g id="Medium-M" transform="matrix(1 0 0 1 1674.88 1126)">
		<path class="st12" d="M52.1-0.3v-46.6H37.7v46.6H52.1z M52.1-63.4c-0.1-4.2-2.9-7.3-7.4-7.3c-4.5,0-7.5,3.2-7.5,7.3
			c0,4.1,2.9,7.3,7.3,7.3h0.1C49.3-56.1,52.1-59.3,52.1-63.4z M75.6-0.3v-26.5c0-1.4,0.1-2.8,0.5-3.9c1.1-2.8,3.7-5.8,8.1-5.8
			c5.7,0,9.3,3.2,9.3,9.6v26.5h14.5v-27.3c0-14.6-7.8-21.4-18.2-21.4c-8.5,0-12.3,4.8-14.3,8l0.1-6.2H61.2c0.2,4.5,0,46.9,0,46.9
			H75.6z"/>
	</g>
	<g id="Regular-M" transform="matrix(1 0 0 1 1380.04 1126)">
		<path class="st13" d="M50.3-0.3v-46.6H35.9v46.6H50.3z M50.3-63.4c-0.1-4.2-2.9-7.3-7.4-7.3c-4.5,0-7.5,3.2-7.5,7.3
			c0,4.1,2.9,7.3,7.3,7.3h0.1C47.4-56.1,50.3-59.3,50.3-63.4z M73.8-0.3v-26.5c0-1.4,0.1-2.8,0.5-3.9c1.1-2.8,3.7-5.8,8.1-5.8
			c5.7,0,9.3,3.2,9.3,9.6v26.5h14.5v-27.3C106.2-42.2,98.4-49,88-49c-8.5,0-12.3,4.8-14.3,8l0.1-6.2H59.3c0.2,4.5,0,46.9,0,46.9
			H73.8z"/>
	</g>
	<g id="Light-M" transform="matrix(1 0 0 1 1085.58 1126)">
		<path class="st14" d="M66.6-0.3v-46.6H52.2v46.6H66.6z M66.6-63.4c-0.1-4.2-2.9-7.3-7.4-7.3c-4.5,0-7.5,3.2-7.5,7.3
			c0,4.1,2.9,7.3,7.3,7.3h0.1C63.7-56.1,66.6-59.3,66.6-63.4z M90.1-0.3v-26.5c0-1.4,0.1-2.8,0.5-3.9c1.1-2.8,3.7-5.8,8.1-5.8
			c5.7,0,9.3,3.2,9.3,9.6v26.5h14.5v-27.3c0-14.6-7.8-21.4-18.2-21.4C95.8-49,92-44.2,90-41l0.1-6.2H75.6c0.2,4.5,0,46.9,0,46.9
			H90.1z"/>
	</g>
	<g id="Thin-M" transform="matrix(1 0 0 1 791.847 1126)">
		<path class="st15" d="M45.1-0.3v-46.6H30.7v46.6H45.1z M45.1-63.4c-0.1-4.2-2.9-7.3-7.4-7.3c-4.5,0-7.5,3.2-7.5,7.3
			c0,4.1,2.9,7.3,7.3,7.3h0.1C42.2-56.1,45.1-59.3,45.1-63.4z M68.6-0.3v-26.5c0-1.4,0.1-2.8,0.5-3.9c1.1-2.8,3.7-5.8,8.1-5.8
			c5.7,0,9.3,3.2,9.3,9.6v26.5H101v-27.3C101-42.2,93.2-49,82.8-49c-8.5,0-12.3,4.8-14.3,8l0.1-6.2H54.1c0.2,4.5,0,46.9,0,46.9H68.6
			z"/>
	</g>
	<g id="Ultralight-M" transform="matrix(1 0 0 1 496.65 1126)">
		<path class="st16" d="M43.5-0.3v-46.6H29.1v46.6H43.5z M43.5-63.4c-0.1-4.2-2.9-7.3-7.4-7.3c-4.5,0-7.5,3.2-7.5,7.3
			c0,4.1,2.9,7.3,7.3,7.3h0.1C40.7-56.1,43.5-59.3,43.5-63.4z M67-0.3v-26.5c0-1.4,0.1-2.8,0.5-3.9c1.1-2.8,3.7-5.8,8.1-5.8
			c5.7,0,9.3,3.2,9.3,9.6v26.5h14.5v-27.3c0-14.6-7.8-21.4-18.2-21.4c-8.5,0-12.3,4.8-14.3,8l0.1-6.2H52.6c0.2,4.5,0,46.9,0,46.9H67
			z"/>
	</g>
	<g id="Black-S" transform="matrix(1 0 0 1 2870.66 696)">
		<path class="st8" d="M43.2,0v-46.6H28.8V0H43.2z M43.2-63.1c-0.1-4.2-2.9-7.3-7.4-7.3c-4.5,0-7.5,3.2-7.5,7.3
			c0,4.1,2.9,7.3,7.3,7.3h0.1C40.4-55.8,43.2-59,43.2-63.1z M66.7,0v-26.5c0-1.4,0.1-2.8,0.5-3.9c1.1-2.8,3.7-5.8,8.1-5.8
			c5.7,0,9.3,3.2,9.3,9.6V0h14.5v-27.3c0-14.6-7.8-21.4-18.2-21.4c-8.5,0-12.3,4.8-14.3,8l0.1-6.2H52.2c0.2,4.5,0,46.9,0,46.9H66.7z
			"/>
	</g>
	<g id="Heavy-S" transform="matrix(1 0 0 1 2575.58 696)">
		<path class="st9" d="M41.6,0v-46.6H27.2V0H41.6z M41.6-63.1c-0.1-4.2-2.9-7.3-7.4-7.3c-4.5,0-7.5,3.2-7.5,7.3
			c0,4.1,2.9,7.3,7.3,7.3h0.1C38.7-55.8,41.6-59,41.6-63.1z M65.1,0v-26.5c0-1.4,0.1-2.8,0.5-3.9c1.1-2.8,3.7-5.8,8.1-5.8
			c5.7,0,9.3,3.2,9.3,9.6V0h14.5v-27.3c0-14.6-7.8-21.4-18.2-21.4c-8.5,0-12.3,4.8-14.3,8l0.1-6.2H50.6c0.2,4.5,0,46.9,0,46.9H65.1z
			"/>
	</g>
	<g id="Bold-S" transform="matrix(1 0 0 1 2280.7 696)">
		<path class="st10" d="M39.7,0v-46.6H25.3V0H39.7z M39.7-63.1c-0.1-4.2-2.9-7.3-7.4-7.3c-4.5,0-7.5,3.2-7.5,7.3
			c0,4.1,2.9,7.3,7.3,7.3h0.1C36.9-55.8,39.7-59,39.7-63.1z M63.2,0v-26.5c0-1.4,0.1-2.8,0.5-3.9c1.1-2.8,3.7-5.8,8.1-5.8
			c5.7,0,9.3,3.2,9.3,9.6V0h14.5v-27.3c0-14.6-7.8-21.4-18.2-21.4c-8.5,0-12.3,4.8-14.3,8l0.1-6.2H48.8c0.2,4.5,0,46.9,0,46.9H63.2z
			"/>
	</g>
	<g id="Semibold-S" transform="matrix(1 0 0 1 1985.26 696)">
		<path class="st11" d="M36.2,0v-46.6H21.8V0H36.2z M36.2-63.1c-0.1-4.2-2.9-7.3-7.4-7.3c-4.5,0-7.5,3.2-7.5,7.3
			c0,4.1,2.9,7.3,7.3,7.3h0.1C33.3-55.8,36.2-59,36.2-63.1z M59.7,0v-26.5c0-1.4,0.1-2.8,0.5-3.9c1.1-2.8,3.7-5.8,8.1-5.8
			c5.7,0,9.3,3.2,9.3,9.6V0h14.5v-27.3c0-14.6-7.8-21.4-18.2-21.4c-8.5,0-12.3,4.8-14.3,8l0.1-6.2H45.2c0.2,4.5,0,46.9,0,46.9H59.7z
			"/>
	</g>
	<g id="Medium-S" transform="matrix(1 0 0 1 1689.52 696)">
		<path class="st12" d="M37.5,0v-46.6H23.1V0H37.5z M37.5-63.1c-0.1-4.2-2.9-7.3-7.4-7.3c-4.5,0-7.5,3.2-7.5,7.3
			c0,4.1,2.9,7.3,7.3,7.3H30C34.6-55.8,37.5-59,37.5-63.1z M61,0v-26.5c0-1.4,0.1-2.8,0.5-3.9c1.1-2.8,3.7-5.8,8.1-5.8
			c5.7,0,9.3,3.2,9.3,9.6V0h14.5v-27.3c0-14.6-7.8-21.4-18.2-21.4c-8.5,0-12.3,4.8-14.3,8l0.1-6.2H46.5c0.2,4.5,0,46.9,0,46.9H61z"
			/>
	</g>
	<g id="Regular-S" transform="matrix(1 0 0 1 1394.06 696)">
		<path class="st13" d="M36.2,0v-46.6H21.8V0H36.2z M36.2-63.1c-0.1-4.2-2.9-7.3-7.4-7.3c-4.5,0-7.5,3.2-7.5,7.3
			c0,4.1,2.9,7.3,7.3,7.3h0.1C33.4-55.8,36.2-59,36.2-63.1z M59.7,0v-26.5c0-1.4,0.1-2.8,0.5-3.9c1.1-2.8,3.7-5.8,8.1-5.8
			c5.7,0,9.3,3.2,9.3,9.6V0h14.5v-27.3c0-14.6-7.8-21.4-18.2-21.4c-8.5,0-12.3,4.8-14.3,8l0.1-6.2H45.3c0.2,4.5,0,46.9,0,46.9H59.7z
			"/>
	</g>
	<g id="Light-S" transform="matrix(1 0 0 1 1099.35 696)">
		<path class="st14" d="M52.8,0v-46.6H38.4V0H52.8z M52.8-63.1c-0.1-4.2-2.9-7.3-7.4-7.3c-4.5,0-7.5,3.2-7.5,7.3
			c0,4.1,2.9,7.3,7.3,7.3h0.1C49.9-55.8,52.8-59,52.8-63.1z M76.3,0v-26.5c0-1.4,0.1-2.8,0.5-3.9c1.1-2.8,3.7-5.8,8.1-5.8
			c5.7,0,9.3,3.2,9.3,9.6V0h14.5v-27.3c0-14.6-7.8-21.4-18.2-21.4c-8.5,0-12.3,4.8-14.3,8l0.1-6.2H61.8c0.2,4.5,0,46.9,0,46.9H76.3z
			"/>
	</g>
	<g id="Thin-S" transform="matrix(1 0 0 1 805.25 696)">
		<path class="st15" d="M31.7,0v-46.6H17.3V0H31.7z M31.7-63.1c-0.1-4.2-2.9-7.3-7.4-7.3c-4.5,0-7.5,3.2-7.5,7.3
			c0,4.1,2.9,7.3,7.3,7.3h0.1C28.8-55.8,31.7-59,31.7-63.1z M55.2,0v-26.5c0-1.4,0.1-2.8,0.5-3.9c1.1-2.8,3.7-5.8,8.1-5.8
			c5.7,0,9.3,3.2,9.3,9.6V0h14.5v-27.3c0-14.6-7.8-21.4-18.2-21.4c-8.5,0-12.3,4.8-14.3,8l0.1-6.2H40.7c0.2,4.5,0,46.9,0,46.9H55.2z
			"/>
	</g>
	<g id="Ultralight-S" transform="matrix(1 0 0 1 509.906 696)">
		<path class="st16" d="M30.3,0v-46.6H15.9V0H30.3z M30.3-63.1c-0.1-4.2-2.9-7.3-7.4-7.3c-4.5,0-7.5,3.2-7.5,7.3
			c0,4.1,2.9,7.3,7.3,7.3h0.1C27.4-55.8,30.3-59,30.3-63.1z M53.8,0v-26.5c0-1.4,0.1-2.8,0.5-3.9c1.1-2.8,3.7-5.8,8.1-5.8
			c5.7,0,9.3,3.2,9.3,9.6V0h14.5v-27.3c0-14.6-7.8-21.4-18.2-21.4c-8.5,0-12.3,4.8-14.3,8l0.1-6.2H39.3c0.2,4.5,0,46.9,0,46.9H53.8z
			"/>
	</g>
</g>
</svg>
