<?xml version="1.0" encoding="utf-8"?>
<!-- Generator: Adobe Illustrator 24.0.3, SVG Export Plug-In . SVG Version: 6.00 Build 0)  -->
<svg version="1.1" id="Layer_1" xmlns="http://www.w3.org/2000/svg" xmlns:xlink="http://www.w3.org/1999/xlink" x="0px" y="0px"
	 viewBox="0 0 3300 2200" style="enable-background:new 0 0 3300 2200;" xml:space="preserve">
<style type="text/css">
	.st0{fill:#FFFFFF;}
	.st1{fill:none;stroke:#000000;stroke-width:0.5;}
	.st2{font-family:'Arial-BoldMT';}
	.st3{font-size:12px;}
	.st4{font-family:'ArialMT';}
	.st5{opacity:0.4;fill:#00AEEF;enable-background:new    ;}
	.st6{fill:#27AAE1;}
	.st7{fill:none;stroke:#27AAE1;stroke-width:0.577;}
	.st8{stroke:#000000;stroke-width:2;stroke-miterlimit:10;}
	.st9{stroke:#000000;stroke-width:1.75;stroke-miterlimit:10;}
	.st10{stroke:#000000;stroke-width:1.5;stroke-miterlimit:10;}
	.st11{stroke:#000000;stroke-width:1.25;stroke-miterlimit:10;}
	.st12{stroke:#000000;stroke-miterlimit:10;}
	.st13{stroke:#000000;stroke-width:0.75;stroke-miterlimit:10;}
	.st14{stroke:#000000;stroke-width:0.5;stroke-miterlimit:10;}
	.st15{stroke:#000000;stroke-width:0.25;stroke-miterlimit:10;}
</style>
<g id="Notes">
	<rect id="artboard" y="0" class="st0" width="3300" height="2200"/>
	<line class="st1" x1="263" y1="292" x2="3036" y2="292"/>
	<text transform="matrix(1 0 0 1 263 322)" class="st2 st3">Weight/Scale Variations</text>
	<text transform="matrix(1 0 0 1 536.0362 322)" class="st4 st3">Ultralight</text>
	<text transform="matrix(1 0 0 1 844.7501 322)" class="st4 st3">Thin</text>
	<text transform="matrix(1 0 0 1 1140.1193 322)" class="st4 st3">Light</text>
	<text transform="matrix(1 0 0 1 1428.8282 322)" class="st4 st3">Regular</text>
	<text transform="matrix(1 0 0 1 1725.2202 322)" class="st4 st3">Medium</text>
	<text transform="matrix(1 0 0 1 2018.2563 322)" class="st4 st3">Semibold</text>
	<text transform="matrix(1 0 0 1 2327.9712 322)" class="st4 st3">Bold</text>
	<text transform="matrix(1 0 0 1 2619.6831 322)" class="st4 st3">Heavy</text>
	<text transform="matrix(1 0 0 1 2918.728 322)" class="st4 st3">Black</text>
	<line class="st1" x1="263" y1="1903" x2="3036" y2="1903"/>
	<g transform="matrix(1 0 0 1 263 1933)">
		<path d="M9.2,0.8c4.3,0,7.9-3.6,7.9-7.9c0-4.3-3.6-7.9-7.9-7.9c-4.3,0-7.9,3.6-7.9,7.9C1.4-2.7,5,0.8,9.2,0.8z M9.2-0.7
			c-3.5,0-6.4-2.8-6.4-6.4c0-3.6,2.8-6.4,6.4-6.4c3.6,0,6.4,2.8,6.4,6.4C15.7-3.5,12.8-0.7,9.2-0.7z M9.2-3.4c0.5,0,0.7-0.3,0.7-0.8
			v-2.1h2.2C12.7-6.3,13-6.6,13-7c0-0.5-0.3-0.7-0.8-0.7H10V-10c0-0.5-0.3-0.8-0.7-0.8S8.5-10.5,8.5-10v2.2H6.3
			C5.8-7.8,5.4-7.5,5.4-7c0,0.5,0.4,0.7,0.8,0.7h2.2v2.1C8.5-3.8,8.8-3.4,9.2-3.4z"/>
	</g>
	<g transform="matrix(1 0 0 1 281.506 1933)">
		<path d="M11.7,2.9c5.4,0,10-4.5,10-10c0-5.4-4.5-10-10-10c-5.4,0-10,4.5-10,10C1.7-1.6,6.3,2.9,11.7,2.9z M11.7,1.2
			c-4.6,0-8.3-3.7-8.3-8.3c0-4.6,3.7-8.3,8.3-8.3c4.6,0,8.3,3.7,8.3,8.3C20-2.4,16.3,1.2,11.7,1.2z M11.7-2.4c0.5,0,0.8-0.4,0.8-0.9
			v-2.9h3.1c0.5,0,0.9-0.3,0.9-0.8c0-0.5-0.4-0.8-0.9-0.8h-3.1v-3.1c0-0.6-0.3-0.9-0.8-0.9c-0.5,0-0.8,0.4-0.8,0.9v3.1h-3
			C7.3-7.9,6.9-7.6,6.9-7c0,0.5,0.4,0.8,0.9,0.8h3v2.9C10.9-2.8,11.2-2.4,11.7-2.4z"/>
	</g>
	<g transform="matrix(1 0 0 1 304.924 1933)">
		<path d="M15,5.7c7,0,12.7-5.8,12.7-12.7c0-7-5.8-12.7-12.7-12.7C8-19.8,2.3-14,2.3-7C2.3-0.1,8,5.7,15,5.7z M15,3.9
			C8.9,3.9,4.1-1,4.1-7c0-6,4.8-10.9,10.9-10.9c6,0,10.9,4.9,10.9,10.9C25.9-1,21,3.9,15,3.9z M15-1.1c0.6,0,0.9-0.4,0.9-1v-4.1h4.2
			c0.6,0,1-0.3,1-0.9c0-0.6-0.4-0.9-1-0.9h-4.2v-4.2c0-0.6-0.4-1-0.9-1c-0.6,0-0.9,0.4-0.9,1v4.2H9.8c-0.6,0-1,0.3-1,0.9
			c0,0.6,0.4,0.9,1,0.9h4.2v4.1C14.1-1.5,14.4-1.1,15-1.1z"/>
	</g>
	<text transform="matrix(1 0 0 1 263 1953)" class="st2 st3">Design Variations</text>
	<text transform="matrix(1 0 0 1 263 1971)" class="st4 st3">Symbols are supported in up to nine weights and three scales.</text>
	<text transform="matrix(1 0 0 1 263 1989)" class="st4 st3">For optimal layout with text and other symbols, vertically align</text>
	<text transform="matrix(1 0 0 1 263 2007)" class="st4 st3">symbols with the adjacent text.</text>
	<rect x="776" y="1919" class="st5" width="3" height="14"/>
	<g transform="matrix(1 0 0 1 779 1933)">
		<path d="M10.5,0h1.8L7.2-14.1H5.4L0.2,0h1.8l1.4-4h5.6L10.5,0z M6.3-12L6.3-12l2.3,6.4H4L6.3-12z"/>
	</g>
	<rect x="791.6" y="1919" class="st5" width="3" height="14"/>
	<text transform="matrix(1 0 0 1 776 1953)" class="st2 st3">Margins</text>
	<text transform="matrix(1 0 0 1 776 1971)" class="st4 st3">Leading and trailing margins on the left and right side of each symbol</text>
	<text transform="matrix(1 0 0 1 776 1989)" class="st4 st3">can be adjusted by modifying the width of the blue rectangles.</text>
	<text transform="matrix(1 0 0 1 776 2007)" class="st4 st3">Modifications are automatically applied proportionally to all</text>
	<text transform="matrix(1 0 0 1 776 2025)" class="st4 st3">scales and weights.</text>
	<g transform="matrix(1 0 0 1 1289 1933)">
		<path d="M2.8,3.1l1.5,1.5c0.8,0.8,1.8,0.8,2.7-0.2L17.3-6.7c0.4,0.3,0.8,0.3,1.3,0.2l1-0.2L20.3-6l0,0.5C20.2-5,20.4-4.5,20.8-4
			l0.8,0.8c0.5,0.5,1.2,0.5,1.6,0.1l3.3-3.3c0.5-0.5,0.5-1.1,0-1.6l-0.8-0.8c-0.5-0.5-0.9-0.7-1.4-0.6l-0.5,0.1l-0.7-0.7l0.3-1.1
			c0.1-0.6,0-1-0.6-1.6l-2.4-2.4c-3.5-3.5-8.1-3.4-11.2-0.3c-0.4,0.4-0.5,1-0.2,1.4c0.2,0.4,0.7,0.6,1.4,0.4c1.5-0.4,3-0.3,4.5,0.7
			l-0.6,1.6c-0.2,0.6-0.2,1.1,0,1.5L3,0.4C2.1,1.3,2,2.3,2.8,3.1z M10.7-15.1c2.7-2,6-1.7,8.4,0.7l2.6,2.6c0.2,0.2,0.3,0.4,0.2,0.7
			l-0.4,1.6L23.1-8L24-8c0.3,0,0.4,0,0.6,0.2l0.6,0.6l-2.8,2.7l-0.6-0.6c-0.2-0.2-0.2-0.3-0.2-0.6l0.1-1l-1.6-1.6l-1.6,0.3
			c-0.3,0.1-0.4,0.1-0.7-0.2l-2.2-2.2c-0.2-0.2-0.3-0.4-0.1-0.7l0.9-2.3c-1.6-1.5-3.7-2.4-5.8-1.7c-0.1,0-0.2,0-0.2,0
			C10.6-15,10.6-15.1,10.7-15.1z M4.1,2.4c-0.5-0.5-0.3-0.8,0-1.1l11-10.1l1.2,1.2L6.2,3.3c-0.3,0.3-0.7,0.4-1.1,0L4.1,2.4z"/>
	</g>
	<text transform="matrix(1 0 0 1 1289 1953)" class="st2 st3">Exporting</text>
	<text transform="matrix(1 0 0 1 1289 1971)" class="st4 st3">Symbols should be outlined when exporting to ensure the</text>
	<text transform="matrix(1 0 0 1 1289 1989)" class="st4 st3">design is preserved when submitting to Xcode.</text>
	<text id="template-version" transform="matrix(1 0 0 1 2958.8496 1933)" class="st4 st3">Template v.1.0</text>
	<text transform="matrix(1 0 0 1 2913.4863 1951)" class="st4 st3">Generated from shuffle</text>
	<text transform="matrix(1 0 0 1 2921.9238 1969)" class="st4 st3">Typeset at 100 points</text>
	<text transform="matrix(1 0 0 1 263 726)" class="st4 st3">Small</text>
	<text transform="matrix(1 0 0 1 263 1156)" class="st4 st3">Medium</text>
	<text transform="matrix(1 0 0 1 263 1586)" class="st4 st3">Large</text>
</g>
<g id="Guides">
	<g id="H-reference" transform="matrix(1 0 0 1 339 696)">
		<path class="st6" d="M54.9,0h2.7L30.6-70.5h-2.5L1,0h2.7l9.3-24.5h32.8L54.9,0z M29.2-67.1h0.2l15.4,40.4h-31L29.2-67.1z"/>
	</g>
	<line id="Baseline-S" class="st7" x1="263" y1="696" x2="3036" y2="696"/>
	<line id="Capline-S" class="st7" x1="263" y1="625.5" x2="3036" y2="625.5"/>
	<g id="H-reference_1_" transform="matrix(1 0 0 1 339 1126)">
		<path class="st6" d="M54.9,0h2.7L30.6-70.5h-2.5L1,0h2.7l9.3-24.5h32.8L54.9,0z M29.2-67.1h0.2l15.4,40.4h-31L29.2-67.1z"/>
	</g>
	<line id="Baseline-M" class="st7" x1="263" y1="1126" x2="3036" y2="1126"/>
	<line id="Capline-M" class="st7" x1="263" y1="1055.5" x2="3036" y2="1055.5"/>
	<g id="H-reference_2_" transform="matrix(1 0 0 1 339 1556)">
		<path class="st6" d="M54.9,0h2.7L30.6-70.5h-2.5L1,0h2.7l9.3-24.5h32.8L54.9,0z M29.2-67.1h0.2l15.4,40.4h-31L29.2-67.1z"/>
	</g>
	<line id="Baseline-L" class="st7" x1="263" y1="1556" x2="3036" y2="1556"/>
	<line id="Capline-L" class="st7" x1="263" y1="1485.5" x2="3036" y2="1485.5"/>
	<rect id="left-margin" x="1380" y="1030.8" class="st5" width="12.5" height="119.3"/>
	<rect id="right-margin" x="1507.2" y="1030.8" class="st5" width="12.5" height="119.3"/>
</g>
<g id="Symbols">
	<g id="Black-L" transform="matrix(1 0 0 1 2833.06 1556)">
		<path class="st8" d="M103.5-70.5c-19.2,0-28.9,13.8-28.9,25.3c0,7,2.6,13.2,8.3,15.5c0.9,0.4,1.8,0,2-1c0.2-0.7,0.6-2.5,0.8-3.3
			c0.3-1,0.2-1.4-0.6-2.3c-1.6-1.9-2.7-4.4-2.7-7.9c0-10.2,7.7-19.4,19.9-19.4c10.9,0,16.8,6.6,16.8,15.5c0,11.7-5.2,21.5-12.8,21.5
			c-4.2,0-7.4-3.5-6.4-7.8c1.2-5.1,3.6-10.7,3.6-14.4c0-3.3-1.8-6.1-5.5-6.1c-4.3,0-7.8,4.5-7.8,10.5c0,3.8,1.3,6.4,1.3,6.4
			s-4.4,18.8-5.2,22.1c-1.5,6.5-0.2,14.6-0.1,15.4c0.1,0.5,0.7,0.6,1,0.2c0.4-0.5,5.6-6.9,7.3-13.2c0.5-1.8,2.8-11.1,2.8-11.1
			c1.4,2.7,5.5,5,9.9,5c13,0,21.8-11.9,21.8-27.7C129.2-59.3,119-70.5,103.5-70.5z"/>
	</g>
	<g id="Heavy-L" transform="matrix(1 0 0 1 2539.2 1556)">
		<path class="st9" d="M100.9-70.5C81.6-70.5,72-56.7,72-45.2c0,7,2.6,13.2,8.3,15.5c0.9,0.4,1.8,0,2-1c0.2-0.7,0.6-2.5,0.8-3.3
			c0.3-1,0.2-1.4-0.6-2.3c-1.6-1.9-2.7-4.4-2.7-7.9c0-10.2,7.7-19.4,19.9-19.4c10.9,0,16.8,6.6,16.8,15.5c0,11.7-5.2,21.5-12.8,21.5
			c-4.2,0-7.4-3.5-6.4-7.8c1.2-5.1,3.6-10.7,3.6-14.4c0-3.3-1.8-6.1-5.5-6.1c-4.3,0-7.8,4.5-7.8,10.5c0,3.8,1.3,6.4,1.3,6.4
			s-4.4,18.8-5.2,22.1c-1.5,6.5-0.2,14.6-0.1,15.4c0.1,0.5,0.7,0.6,1,0.2c0.4-0.5,5.6-6.9,7.3-13.2c0.5-1.8,2.8-11.1,2.8-11.1
			c1.4,2.7,5.5,5,9.9,5c13,0,21.8-11.9,21.8-27.7C126.5-59.3,116.3-70.5,100.9-70.5z"/>
	</g>
	<g id="Bold-L" transform="matrix(1 0 0 1 2245.69 1556)">
		<path class="st10" d="M97.5-70.5c-19.2,0-28.9,13.8-28.9,25.3c0,7,2.6,13.2,8.3,15.5c0.9,0.4,1.8,0,2-1c0.2-0.7,0.6-2.5,0.8-3.3
			c0.3-1,0.2-1.4-0.6-2.3c-1.6-1.9-2.7-4.4-2.7-7.9c0-10.2,7.7-19.4,19.9-19.4c10.9,0,16.8,6.6,16.8,15.5c0,11.7-5.2,21.5-12.8,21.5
			c-4.2,0-7.4-3.5-6.4-7.8c1.2-5.1,3.6-10.7,3.6-14.4c0-3.3-1.8-6.1-5.5-6.1c-4.3,0-7.8,4.5-7.8,10.5c0,3.8,1.3,6.4,1.3,6.4
			s-4.4,18.8-5.2,22.1c-1.5,6.5-0.2,14.6-0.1,15.4c0.1,0.5,0.7,0.6,1,0.2c0.4-0.5,5.6-6.9,7.3-13.2c0.5-1.8,2.8-11.1,2.8-11.1
			c1.4,2.7,5.5,5,9.9,5c13,0,21.8-11.9,21.8-27.7C123.1-59.3,112.9-70.5,97.5-70.5z"/>
	</g>
	<g id="Semibold-L" transform="matrix(1 0 0 1 1951.2 1556)">
		<path class="st11" d="M93-70.5C73.7-70.5,64-56.7,64-45.2c0,7,2.6,13.2,8.3,15.5c0.9,0.4,1.8,0,2-1c0.2-0.7,0.6-2.5,0.8-3.3
			c0.3-1,0.2-1.4-0.6-2.3c-1.6-1.9-2.7-4.4-2.7-7.9c0-10.2,7.7-19.4,19.9-19.4c10.9,0,16.8,6.6,16.8,15.5c0,11.7-5.2,21.5-12.8,21.5
			c-4.2,0-7.4-3.5-6.4-7.8c1.2-5.1,3.6-10.7,3.6-14.4c0-3.3-1.8-6.1-5.5-6.1c-4.3,0-7.8,4.5-7.8,10.5c0,3.8,1.3,6.4,1.3,6.4
			s-4.4,18.8-5.2,22.1c-1.5,6.5-0.2,14.6-0.1,15.4c0.1,0.5,0.7,0.6,1,0.2c0.4-0.5,5.6-6.9,7.3-13.2c0.5-1.8,2.8-11.1,2.8-11.1
			c1.4,2.7,5.5,5,9.9,5c13,0,21.8-11.9,21.8-27.7C118.6-59.3,108.4-70.5,93-70.5z"/>
	</g>
	<g id="Medium-L" transform="matrix(1 0 0 1 1656.15 1556)">
		<path class="st12" d="M93.6-70.5c-19.2,0-28.9,13.8-28.9,25.3c0,7,2.6,13.2,8.3,15.5c0.9,0.4,1.8,0,2-1c0.2-0.7,0.6-2.5,0.8-3.3
			c0.3-1,0.2-1.4-0.6-2.3c-1.6-1.9-2.7-4.4-2.7-7.9c0-10.2,7.7-19.4,19.9-19.4c10.9,0,16.8,6.6,16.8,15.5c0,11.7-5.2,21.5-12.8,21.5
			c-4.2,0-7.4-3.5-6.4-7.8c1.2-5.1,3.6-10.7,3.6-14.4c0-3.3-1.8-6.1-5.5-6.1c-4.3,0-7.8,4.5-7.8,10.5c0,3.8,1.3,6.4,1.3,6.4
			s-4.4,18.8-5.2,22.1c-1.5,6.5-0.2,14.6-0.1,15.4c0.1,0.5,0.7,0.6,1,0.2c0.4-0.5,5.6-6.9,7.3-13.2c0.5-1.8,2.8-11.1,2.8-11.1
			c1.4,2.7,5.5,5,9.9,5c13,0,21.8-11.9,21.8-27.7C119.2-59.3,109-70.5,93.6-70.5z"/>
	</g>
	<g id="Regular-L" transform="matrix(1 0 0 1 1361.64 1556)">
		<path class="st13" d="M91.8-70.5c-19.2,0-28.9,13.8-28.9,25.3c0,7,2.6,13.2,8.3,15.5c0.9,0.4,1.8,0,2-1c0.2-0.7,0.6-2.5,0.8-3.3
			c0.3-1,0.2-1.4-0.6-2.3c-1.6-1.9-2.7-4.4-2.7-7.9c0-10.2,7.7-19.4,19.9-19.4c10.9,0,16.8,6.6,16.8,15.5c0,11.7-5.2,21.5-12.8,21.5
			c-4.2,0-7.4-3.5-6.4-7.8c1.2-5.1,3.6-10.7,3.6-14.4c0-3.3-1.8-6.1-5.5-6.1c-4.3,0-7.8,4.5-7.8,10.5c0,3.8,1.3,6.4,1.3,6.4
			s-4.4,18.8-5.2,22.1c-1.5,6.5-0.2,14.6-0.1,15.4c0.1,0.5,0.7,0.6,1,0.2c0.4-0.5,5.6-6.9,7.3-13.2c0.5-1.8,2.8-11.1,2.8-11.1
			c1.4,2.7,5.5,5,9.9,5c13,0,21.8-11.9,21.8-27.7C117.4-59.3,107.2-70.5,91.8-70.5z"/>
	</g>
	<g id="Light-L" transform="matrix(1 0 0 1 1067.42 1556)">
		<path class="st14" d="M107.5-70.5c-19.2,0-28.9,13.8-28.9,25.3c0,7,2.6,13.2,8.3,15.5c0.9,0.4,1.8,0,2-1c0.2-0.7,0.6-2.5,0.8-3.3
			c0.3-1,0.2-1.4-0.6-2.3c-1.6-1.9-2.7-4.4-2.7-7.9c0-10.2,7.7-19.4,19.9-19.4c10.9,0,16.8,6.6,16.8,15.5c0,11.7-5.2,21.5-12.8,21.5
			c-4.2,0-7.4-3.5-6.4-7.8c1.2-5.1,3.6-10.7,3.6-14.4c0-3.3-1.8-6.1-5.5-6.1c-4.3,0-7.8,4.5-7.8,10.5c0,3.8,1.3,6.4,1.3,6.4
			s-4.4,18.8-5.2,22.1c-1.5,6.5-0.2,14.6-0.1,15.4c0.1,0.5,0.7,0.6,1,0.2c0.4-0.5,5.6-6.9,7.3-13.2c0.5-1.8,2.8-11.1,2.8-11.1
			c1.4,2.7,5.5,5,9.9,5c13,0,21.8-11.9,21.8-27.7C133.1-59.3,122.9-70.5,107.5-70.5z"/>
	</g>
	<g id="Thin-L" transform="matrix(1 0 0 1 774 1556)">
		<path class="st15" d="M85.6-70.5c-19.2,0-28.9,13.8-28.9,25.3c0,7,2.6,13.2,8.3,15.5c0.9,0.4,1.8,0,2-1c0.2-0.7,0.6-2.5,0.8-3.3
			c0.3-1,0.2-1.4-0.6-2.3c-1.6-1.9-2.7-4.4-2.7-7.9c0-10.2,7.7-19.4,19.9-19.4c10.9,0,16.8,6.6,16.8,15.5c0,11.7-5.2,21.5-12.8,21.5
			c-4.2,0-7.4-3.5-6.4-7.8c1.2-5.1,3.6-10.7,3.6-14.4c0-3.3-1.8-6.1-5.5-6.1c-4.3,0-7.8,4.5-7.8,10.5c0,3.8,1.3,6.4,1.3,6.4
			s-4.4,18.8-5.2,22.1C67-9.3,68.3-1.3,68.4-0.4c0.1,0.5,0.7,0.6,1,0.2c0.4-0.5,5.6-6.9,7.3-13.2c0.5-1.8,2.8-11.1,2.8-11.1
			c1.4,2.7,5.5,5,9.9,5c13,0,21.8-11.9,21.8-27.7C111.3-59.3,101.1-70.5,85.6-70.5z"/>
	</g>
	<g id="Ultralight-L" transform="matrix(1 0 0 1 478.974 1556)">
		<path d="M83.9-70.5C64.7-70.5,55-56.7,55-45.2c0,7,2.6,13.2,8.3,15.5c0.9,0.4,1.8,0,2-1c0.2-0.7,0.6-2.5,0.8-3.3
			c0.3-1,0.2-1.4-0.6-2.3c-1.6-1.9-2.7-4.4-2.7-7.9c0-10.2,7.7-19.4,19.9-19.4c10.9,0,16.8,6.6,16.8,15.5c0,11.7-5.2,21.5-12.8,21.5
			c-4.2,0-7.4-3.5-6.4-7.8C81.7-39.5,84-45,84-48.7c0-3.3-1.8-6.1-5.5-6.1c-4.3,0-7.8,4.5-7.8,10.5c0,3.8,1.3,6.4,1.3,6.4
			s-4.4,18.8-5.2,22.1c-1.5,6.5-0.2,14.6-0.1,15.4c0.1,0.5,0.7,0.6,1,0.2c0.4-0.5,5.6-6.9,7.3-13.2c0.5-1.8,2.8-11.1,2.8-11.1
			c1.4,2.7,5.5,5,9.9,5c13,0,21.8-11.9,21.8-27.7C109.6-59.3,99.4-70.5,83.9-70.5z"/>
	</g>
	<g id="Black-M" transform="matrix(1 0 0 1 2853.1 1126)">
		<path class="st8" d="M83.5-70.5c-19.2,0-28.9,13.8-28.9,25.3c0,7,2.6,13.2,8.3,15.5c0.9,0.4,1.8,0,2-1c0.2-0.7,0.6-2.5,0.8-3.3
			c0.3-1,0.2-1.4-0.6-2.3c-1.6-1.9-2.7-4.4-2.7-7.9c0-10.2,7.7-19.4,19.9-19.4c10.9,0,16.8,6.6,16.8,15.5c0,11.7-5.2,21.5-12.8,21.5
			c-4.2,0-7.4-3.5-6.4-7.8c1.2-5.1,3.6-10.7,3.6-14.4c0-3.3-1.8-6.1-5.5-6.1c-4.3,0-7.8,4.5-7.8,10.5c0,3.8,1.3,6.4,1.3,6.4
			s-4.4,18.8-5.2,22.1c-1.5,6.5-0.2,14.6-0.1,15.4c0.1,0.5,0.7,0.6,1,0.2c0.4-0.5,5.6-6.9,7.3-13.2c0.5-1.8,2.8-11.1,2.8-11.1
			c1.4,2.7,5.5,5,9.9,5c13,0,21.8-11.9,21.8-27.7C109.1-59.3,99-70.5,83.5-70.5z"/>
	</g>
	<g id="Heavy-M" transform="matrix(1 0 0 1 2558.88 1126)">
		<path class="st9" d="M81.2-70.5c-19.2,0-28.9,13.8-28.9,25.3c0,7,2.6,13.2,8.3,15.5c0.9,0.4,1.8,0,2-1c0.2-0.7,0.6-2.5,0.8-3.3
			c0.3-1,0.2-1.4-0.6-2.3c-1.6-1.9-2.7-4.4-2.7-7.9c0-10.2,7.7-19.4,19.9-19.4c10.9,0,16.8,6.6,16.8,15.5c0,11.7-5.2,21.5-12.8,21.5
			c-4.2,0-7.4-3.5-6.4-7.8c1.2-5.1,3.6-10.7,3.6-14.4c0-3.3-1.8-6.1-5.5-6.1c-4.3,0-7.8,4.5-7.8,10.5c0,3.8,1.3,6.4,1.3,6.4
			s-4.4,18.8-5.2,22.1C62.6-9.3,63.9-1.3,64-0.4c0.1,0.5,0.7,0.6,1,0.2c0.4-0.5,5.6-6.9,7.3-13.2c0.5-1.8,2.8-11.1,2.8-11.1
			c1.4,2.7,5.5,5,9.9,5c13,0,21.8-11.9,21.8-27.7C106.8-59.3,96.7-70.5,81.2-70.5z"/>
	</g>
	<g id="Bold-M" transform="matrix(1 0 0 1 2264.93 1126)">
		<path class="st10" d="M78.2-70.5c-19.2,0-28.9,13.8-28.9,25.3c0,7,2.6,13.2,8.3,15.5c0.9,0.4,1.8,0,2-1c0.2-0.7,0.6-2.5,0.8-3.3
			c0.3-1,0.2-1.4-0.6-2.3c-1.6-1.9-2.7-4.4-2.7-7.9c0-10.2,7.7-19.4,19.9-19.4C88-63.6,94-56.9,94-48c0,11.7-5.2,21.5-12.8,21.5
			c-4.2,0-7.4-3.5-6.4-7.8c1.2-5.1,3.6-10.7,3.6-14.4c0-3.3-1.8-6.1-5.5-6.1c-4.3,0-7.8,4.5-7.8,10.5c0,3.8,1.3,6.4,1.3,6.4
			s-4.4,18.8-5.2,22.1C59.6-9.3,60.9-1.3,61-0.4c0.1,0.5,0.7,0.6,1,0.2c0.4-0.5,5.6-6.9,7.3-13.2c0.5-1.8,2.8-11.1,2.8-11.1
			c1.4,2.7,5.5,5,9.9,5c13,0,21.8-11.9,21.8-27.7C103.9-59.3,93.7-70.5,78.2-70.5z"/>
	</g>
	<g id="Semibold-M" transform="matrix(1 0 0 1 1970.15 1126)">
		<path class="st11" d="M74-70.5c-19.2,0-28.9,13.8-28.9,25.3c0,7,2.6,13.2,8.3,15.5c0.9,0.4,1.8,0,2-1c0.2-0.7,0.6-2.5,0.8-3.3
			c0.3-1,0.2-1.4-0.6-2.3C54-38.2,53-40.6,53-44.2c0-10.2,7.7-19.4,19.9-19.4c10.9,0,16.8,6.6,16.8,15.5c0,11.7-5.2,21.5-12.8,21.5
			c-4.2,0-7.4-3.5-6.4-7.8c1.2-5.1,3.6-10.7,3.6-14.4c0-3.3-1.8-6.1-5.5-6.1c-4.3,0-7.8,4.5-7.8,10.5c0,3.8,1.3,6.4,1.3,6.4
			s-4.4,18.8-5.2,22.1c-1.5,6.5-0.2,14.6-0.1,15.4c0.1,0.5,0.7,0.6,1,0.2c0.4-0.5,5.6-6.9,7.3-13.2c0.5-1.8,2.8-11.1,2.8-11.1
			c1.4,2.7,5.5,5,9.9,5c13,0,21.8-11.9,21.8-27.7C99.6-59.3,89.5-70.5,74-70.5z"/>
	</g>
	<g id="Medium-M" transform="matrix(1 0 0 1 1674.88 1126)">
		<path class="st12" d="M74.9-70.5c-19.2,0-28.9,13.8-28.9,25.3c0,7,2.6,13.2,8.3,15.5c0.9,0.4,1.8,0,2-1c0.2-0.7,0.6-2.5,0.8-3.3
			c0.3-1,0.2-1.4-0.6-2.3c-1.6-1.9-2.7-4.4-2.7-7.9c0-10.2,7.7-19.4,19.9-19.4c10.9,0,16.8,6.6,16.8,15.5c0,11.7-5.2,21.5-12.8,21.5
			c-4.2,0-7.4-3.5-6.4-7.8c1.2-5.1,3.6-10.7,3.6-14.4c0-3.3-1.8-6.1-5.5-6.1c-4.3,0-7.8,4.5-7.8,10.5c0,3.8,1.3,6.4,1.3,6.4
			s-4.4,18.8-5.2,22.1c-1.5,6.5-0.2,14.6-0.1,15.4c0.1,0.5,0.7,0.6,1,0.2c0.4-0.5,5.6-6.9,7.3-13.2c0.5-1.8,2.8-11.1,2.8-11.1
			c1.4,2.7,5.5,5,9.9,5c13,0,21.8-11.9,21.8-27.7C100.5-59.3,90.3-70.5,74.9-70.5z"/>
	</g>
	<g id="Regular-M" transform="matrix(1 0 0 1 1380.04 1126)">
		<path class="st13" d="M73.4-70.5c-19.2,0-28.9,13.8-28.9,25.3c0,7,2.6,13.2,8.3,15.5c0.9,0.4,1.8,0,2-1c0.2-0.7,0.6-2.5,0.8-3.3
			c0.3-1,0.2-1.4-0.6-2.3c-1.6-1.9-2.7-4.4-2.7-7.9c0-10.2,7.7-19.4,19.9-19.4c10.9,0,16.8,6.6,16.8,15.5c0,11.7-5.2,21.5-12.8,21.5
			c-4.2,0-7.4-3.5-6.4-7.8c1.2-5.1,3.6-10.7,3.6-14.4c0-3.3-1.8-6.1-5.5-6.1c-4.3,0-7.8,4.5-7.8,10.5c0,3.8,1.3,6.4,1.3,6.4
			s-4.4,18.8-5.2,22.1c-1.5,6.5-0.2,14.6-0.1,15.4c0.1,0.5,0.7,0.6,1,0.2c0.4-0.5,5.6-6.9,7.3-13.2c0.5-1.8,2.8-11.1,2.8-11.1
			c1.4,2.7,5.5,5,9.9,5c13,0,21.8-11.9,21.8-27.7C99-59.3,88.8-70.5,73.4-70.5z"/>
	</g>
	<g id="Light-M" transform="matrix(1 0 0 1 1085.58 1126)">
		<path class="st14" d="M89.3-70.5c-19.2,0-28.9,13.8-28.9,25.3c0,7,2.6,13.2,8.3,15.5c0.9,0.4,1.8,0,2-1c0.2-0.7,0.6-2.5,0.8-3.3
			c0.3-1,0.2-1.4-0.6-2.3c-1.6-1.9-2.7-4.4-2.7-7.9c0-10.2,7.7-19.4,19.9-19.4c10.9,0,16.8,6.6,16.8,15.5c0,11.7-5.2,21.5-12.8,21.5
			c-4.2,0-7.4-3.5-6.4-7.8c1.2-5.1,3.6-10.7,3.6-14.4c0-3.3-1.8-6.1-5.5-6.1c-4.3,0-7.8,4.5-7.8,10.5c0,3.8,1.3,6.4,1.3,6.4
			S73-19.1,72.2-15.8C70.7-9.3,72-1.3,72.1-0.4c0.1,0.5,0.7,0.6,1,0.2c0.4-0.5,5.6-6.9,7.3-13.2c0.5-1.8,2.8-11.1,2.8-11.1
			c1.4,2.7,5.5,5,9.9,5c13,0,21.8-11.9,21.8-27.7C114.9-59.3,104.8-70.5,89.3-70.5z"/>
	</g>
	<g id="Thin-M" transform="matrix(1 0 0 1 791.847 1126)">
		<path class="st15" d="M67.8-70.5c-19.2,0-28.9,13.8-28.9,25.3c0,7,2.6,13.2,8.3,15.5c0.9,0.4,1.8,0,2-1c0.2-0.7,0.6-2.5,0.8-3.3
			c0.3-1,0.2-1.4-0.6-2.3c-1.6-1.9-2.7-4.4-2.7-7.9c0-10.2,7.7-19.4,19.9-19.4c10.9,0,16.8,6.6,16.8,15.5c0,11.7-5.2,21.5-12.8,21.5
			c-4.2,0-7.4-3.5-6.4-7.8c1.2-5.1,3.6-10.7,3.6-14.4c0-3.3-1.8-6.1-5.5-6.1c-4.3,0-7.8,4.5-7.8,10.5c0,3.8,1.3,6.4,1.3,6.4
			s-4.4,18.8-5.2,22.1c-1.5,6.5-0.2,14.6-0.1,15.4c0.1,0.5,0.7,0.6,1,0.2c0.4-0.5,5.6-6.9,7.3-13.2c0.5-1.8,2.8-11.1,2.8-11.1
			c1.4,2.7,5.5,5,9.9,5c13,0,21.8-11.9,21.8-27.7C93.4-59.3,83.2-70.5,67.8-70.5z"/>
	</g>
	<g id="Ultralight-M" transform="matrix(1 0 0 1 496.65 1126)">
		<path d="M66.3-70.5c-19.2,0-28.9,13.8-28.9,25.3c0,7,2.6,13.2,8.3,15.5c0.9,0.4,1.8,0,2-1c0.2-0.7,0.6-2.5,0.8-3.3
			c0.3-1,0.2-1.4-0.6-2.3c-1.6-1.9-2.7-4.4-2.7-7.9c0-10.2,7.7-19.4,19.9-19.4C76-63.6,82-56.9,82-48c0,11.7-5.2,21.5-12.8,21.5
			c-4.2,0-7.4-3.5-6.4-7.8c1.2-5.1,3.6-10.7,3.6-14.4c0-3.3-1.8-6.1-5.5-6.1c-4.3,0-7.8,4.5-7.8,10.5c0,3.8,1.3,6.4,1.3,6.4
			s-4.4,18.8-5.2,22.1c-1.5,6.5-0.2,14.6-0.1,15.4c0.1,0.5,0.7,0.6,1,0.2c0.4-0.5,5.6-6.9,7.3-13.2c0.5-1.8,2.8-11.1,2.8-11.1
			c1.4,2.7,5.5,5,9.9,5c13,0,21.8-11.9,21.8-27.7C91.9-59.3,81.7-70.5,66.3-70.5z"/>
	</g>
	<g id="Black-S" transform="matrix(1 0 0 1 2870.66 696)">
		<path class="st8" d="M65.9-70.5C46.7-70.5,37-56.7,37-45.2c0,7,2.6,13.2,8.3,15.5c0.9,0.4,1.8,0,2-1c0.2-0.7,0.6-2.5,0.8-3.3
			c0.3-1,0.2-1.4-0.6-2.3c-1.6-1.9-2.7-4.4-2.7-7.9c0-10.2,7.7-19.4,19.9-19.4c10.9,0,16.8,6.6,16.8,15.5c0,11.7-5.2,21.5-12.8,21.5
			c-4.2,0-7.4-3.5-6.4-7.8C63.7-39.5,66-45,66-48.7c0-3.3-1.8-6.1-5.5-6.1c-4.3,0-7.8,4.5-7.8,10.5c0,3.8,1.3,6.4,1.3,6.4
			s-4.4,18.8-5.2,22.1c-1.5,6.5-0.2,14.6-0.1,15.4c0.1,0.5,0.7,0.6,1,0.2c0.4-0.5,5.6-6.9,7.3-13.2c0.5-1.8,2.8-11.1,2.8-11.1
			c1.4,2.7,5.5,5,9.9,5c13,0,21.8-11.9,21.8-27.7C91.6-59.3,81.4-70.5,65.9-70.5z"/>
	</g>
	<g id="Heavy-S" transform="matrix(1 0 0 1 2575.58 696)">
		<path class="st9" d="M64.5-70.5c-19.2,0-28.9,13.8-28.9,25.3c0,7,2.6,13.2,8.3,15.5c0.9,0.4,1.8,0,2-1c0.2-0.7,0.6-2.5,0.8-3.3
			c0.3-1,0.2-1.4-0.6-2.3c-1.6-1.9-2.7-4.4-2.7-7.9c0-10.2,7.7-19.4,19.9-19.4c10.9,0,16.8,6.6,16.8,15.5c0,11.7-5.2,21.5-12.8,21.5
			c-4.2,0-7.4-3.5-6.4-7.8c1.2-5.1,3.6-10.7,3.6-14.4c0-3.3-1.8-6.1-5.5-6.1c-4.3,0-7.8,4.5-7.8,10.5c0,3.8,1.3,6.4,1.3,6.4
			s-4.4,18.8-5.2,22.1c-1.5,6.5-0.2,14.6-0.1,15.4c0.1,0.5,0.7,0.6,1,0.2c0.4-0.5,5.6-6.9,7.3-13.2c0.5-1.8,2.8-11.1,2.8-11.1
			c1.4,2.7,5.5,5,9.9,5c13,0,21.8-11.9,21.8-27.7C90.1-59.3,80-70.5,64.5-70.5z"/>
	</g>
	<g id="Bold-S" transform="matrix(1 0 0 1 2280.7 696)">
		<path class="st10" d="M62.5-70.5c-19.2,0-28.9,13.8-28.9,25.3c0,7,2.6,13.2,8.3,15.5c0.9,0.4,1.8,0,2-1c0.2-0.7,0.6-2.5,0.8-3.3
			c0.3-1,0.2-1.4-0.6-2.3c-1.6-1.9-2.7-4.4-2.7-7.9c0-10.2,7.7-19.4,19.9-19.4c10.9,0,16.8,6.6,16.8,15.5c0,11.7-5.2,21.5-12.8,21.5
			c-4.2,0-7.4-3.5-6.4-7.8c1.2-5.1,3.6-10.7,3.6-14.4c0-3.3-1.8-6.1-5.5-6.1c-4.3,0-7.8,4.5-7.8,10.5c0,3.8,1.3,6.4,1.3,6.4
			s-4.4,18.8-5.2,22.1c-1.5,6.5-0.2,14.6-0.1,15.4c0.1,0.5,0.7,0.6,1,0.2c0.4-0.5,5.6-6.9,7.3-13.2c0.5-1.8,2.8-11.1,2.8-11.1
			c1.4,2.7,5.5,5,9.9,5c13,0,21.8-11.9,21.8-27.7C88.1-59.3,77.9-70.5,62.5-70.5z"/>
	</g>
	<g id="Semibold-S" transform="matrix(1 0 0 1 1985.26 696)">
		<path class="st11" d="M58.9-70.5C39.7-70.5,30-56.7,30-45.2c0,7,2.6,13.2,8.3,15.5c0.9,0.4,1.8,0,2-1c0.2-0.7,0.6-2.5,0.8-3.3
			c0.3-1,0.2-1.4-0.6-2.3c-1.6-1.9-2.7-4.4-2.7-7.9c0-10.2,7.7-19.4,19.9-19.4c10.9,0,16.8,6.6,16.8,15.5c0,11.7-5.2,21.5-12.8,21.5
			c-4.2,0-7.4-3.5-6.4-7.8C56.6-39.5,59-45,59-48.7c0-3.3-1.8-6.1-5.5-6.1c-4.3,0-7.8,4.5-7.8,10.5c0,3.8,1.3,6.4,1.3,6.4
			s-4.4,18.8-5.2,22.1c-1.5,6.5-0.2,14.6-0.1,15.4c0.1,0.5,0.7,0.6,1,0.2c0.4-0.5,5.6-6.9,7.3-13.2c0.5-1.8,2.8-11.1,2.8-11.1
			c1.4,2.7,5.5,5,9.9,5c13,0,21.8-11.9,21.8-27.7C84.5-59.3,74.4-70.5,58.9-70.5z"/>
	</g>
	<g id="Medium-S" transform="matrix(1 0 0 1 1689.52 696)">
		<path class="st12" d="M60.2-70.5c-19.2,0-28.9,13.8-28.9,25.3c0,7,2.6,13.2,8.3,15.5c0.9,0.4,1.8,0,2-1c0.2-0.7,0.6-2.5,0.8-3.3
			c0.3-1,0.2-1.4-0.6-2.3c-1.6-1.9-2.7-4.4-2.7-7.9c0-10.2,7.7-19.4,19.9-19.4C70-63.6,76-56.9,76-48c0,11.7-5.2,21.5-12.8,21.5
			c-4.2,0-7.4-3.5-6.4-7.8c1.2-5.1,3.6-10.7,3.6-14.4c0-3.3-1.8-6.1-5.5-6.1c-4.3,0-7.8,4.5-7.8,10.5c0,3.8,1.3,6.4,1.3,6.4
			s-4.4,18.8-5.2,22.1C41.6-9.3,42.9-1.3,43-0.4c0.1,0.5,0.7,0.6,1,0.2c0.4-0.5,5.6-6.9,7.3-13.2c0.5-1.8,2.8-11.1,2.8-11.1
			c1.4,2.7,5.5,5,9.9,5c13,0,21.8-11.9,21.8-27.7C85.8-59.3,75.7-70.5,60.2-70.5z"/>
	</g>
	<g id="Regular-S" transform="matrix(1 0 0 1 1394.06 696)">
		<path class="st13" d="M59.4-70.5c-19.2,0-28.9,13.8-28.9,25.3c0,7,2.6,13.2,8.3,15.5c0.9,0.4,1.8,0,2-1c0.2-0.7,0.6-2.5,0.8-3.3
			c0.3-1,0.2-1.4-0.6-2.3c-1.6-1.9-2.7-4.4-2.7-7.9c0-10.2,7.7-19.4,19.9-19.4c10.9,0,16.8,6.6,16.8,15.5c0,11.7-5.2,21.5-12.8,21.5
			c-4.2,0-7.4-3.5-6.4-7.8c1.2-5.1,3.6-10.7,3.6-14.4c0-3.3-1.8-6.1-5.5-6.1c-4.3,0-7.8,4.5-7.8,10.5c0,3.8,1.3,6.4,1.3,6.4
			S43-19.1,42.3-15.8C40.7-9.3,42-1.3,42.2-0.4c0.1,0.5,0.7,0.6,1,0.2c0.4-0.5,5.6-6.9,7.3-13.2c0.5-1.8,2.8-11.1,2.8-11.1
			c1.4,2.7,5.5,5,9.9,5c13,0,21.8-11.9,21.8-27.7C85-59.3,74.8-70.5,59.4-70.5z"/>
	</g>
	<g id="Light-S" transform="matrix(1 0 0 1 1099.35 696)">
		<path class="st14" d="M75.5-70.5c-19.2,0-28.9,13.8-28.9,25.3c0,7,2.6,13.2,8.3,15.5c0.9,0.4,1.8,0,2-1c0.2-0.7,0.6-2.5,0.8-3.3
			c0.3-1,0.2-1.4-0.6-2.3c-1.6-1.9-2.7-4.4-2.7-7.9c0-10.2,7.7-19.4,19.9-19.4c10.9,0,16.8,6.6,16.8,15.5c0,11.7-5.2,21.5-12.8,21.5
			c-4.2,0-7.4-3.5-6.4-7.8c1.2-5.1,3.6-10.7,3.6-14.4c0-3.3-1.8-6.1-5.5-6.1c-4.3,0-7.8,4.5-7.8,10.5c0,3.8,1.3,6.4,1.3,6.4
			s-4.4,18.8-5.2,22.1c-1.5,6.5-0.2,14.6-0.1,15.4c0.1,0.5,0.7,0.6,1,0.2c0.4-0.5,5.6-6.9,7.3-13.2c0.5-1.8,2.8-11.1,2.8-11.1
			c1.4,2.7,5.5,5,9.9,5c13,0,21.8-11.9,21.8-27.7C101.2-59.3,91-70.5,75.5-70.5z"/>
	</g>
	<g id="Thin-S" transform="matrix(1 0 0 1 805.25 696)">
		<path class="st15" d="M54.4-70.5c-19.2,0-28.9,13.8-28.9,25.3c0,7,2.6,13.2,8.3,15.5c0.9,0.4,1.8,0,2-1c0.2-0.7,0.6-2.5,0.8-3.3
			c0.3-1,0.2-1.4-0.6-2.3c-1.6-1.9-2.7-4.4-2.7-7.9c0-10.2,7.7-19.4,19.9-19.4c10.9,0,16.8,6.6,16.8,15.5c0,11.7-5.2,21.5-12.8,21.5
			c-4.2,0-7.4-3.5-6.4-7.8c1.2-5.1,3.6-10.7,3.6-14.4c0-3.3-1.8-6.1-5.5-6.1c-4.3,0-7.8,4.5-7.8,10.5c0,3.8,1.3,6.4,1.3,6.4
			s-4.4,18.8-5.2,22.1c-1.5,6.5-0.2,14.6-0.1,15.4c0.1,0.5,0.7,0.6,1,0.2c0.4-0.5,5.6-6.9,7.3-13.2c0.5-1.8,2.8-11.1,2.8-11.1
			c1.4,2.7,5.5,5,9.9,5c13,0,21.8-11.9,21.8-27.7C80-59.3,69.8-70.5,54.4-70.5z"/>
	</g>
	<g id="Ultralight-S" transform="matrix(1 0 0 1 509.906 696)">
		<path d="M53-70.5c-19.2,0-28.9,13.8-28.9,25.3c0,7,2.6,13.2,8.3,15.5c0.9,0.4,1.8,0,2-1c0.2-0.7,0.6-2.5,0.8-3.3
			c0.3-1,0.2-1.4-0.6-2.3C33-38.2,32-40.6,32-44.2c0-10.2,7.7-19.4,19.9-19.4c10.9,0,16.8,6.6,16.8,15.5c0,11.7-5.2,21.5-12.8,21.5
			c-4.2,0-7.4-3.5-6.4-7.8c1.2-5.1,3.6-10.7,3.6-14.4c0-3.3-1.8-6.1-5.5-6.1c-4.3,0-7.8,4.5-7.8,10.5c0,3.8,1.3,6.4,1.3,6.4
			s-4.4,18.8-5.2,22.1c-1.5,6.5-0.2,14.6-0.1,15.4c0.1,0.5,0.7,0.6,1,0.2c0.4-0.5,5.6-6.9,7.3-13.2c0.5-1.8,2.8-11.1,2.8-11.1
			c1.4,2.7,5.5,5,9.9,5c13,0,21.8-11.9,21.8-27.7C78.6-59.3,68.5-70.5,53-70.5z"/>
	</g>
</g>
</svg>
