<?xml version="1.0" encoding="utf-8"?>
<!-- Generator: Adobe Illustrator 24.0.3, SVG Export Plug-In . SVG Version: 6.00 Build 0)  -->
<svg version="1.1" id="Layer_1" xmlns="http://www.w3.org/2000/svg" xmlns:xlink="http://www.w3.org/1999/xlink" x="0px" y="0px"
	 viewBox="0 0 3300 2200" style="enable-background:new 0 0 3300 2200;" xml:space="preserve">
<style type="text/css">
	.st0{fill:#FFFFFF;}
	.st1{fill:none;stroke:#000000;stroke-width:0.5;}
	.st2{font-family:'Arial-BoldMT';}
	.st3{font-size:12px;}
	.st4{font-family:'ArialMT';}
	.st5{opacity:0.4;fill:#00AEEF;enable-background:new    ;}
	.st6{fill:#27AAE1;}
	.st7{fill:none;stroke:#27AAE1;stroke-width:0.577;}
	.st8{stroke:#000000;stroke-width:3;stroke-miterlimit:10;}
	.st9{stroke:#000000;stroke-width:2.66;stroke-miterlimit:10;}
	.st10{stroke:#000000;stroke-width:2.33;stroke-miterlimit:10;}
	.st11{stroke:#000000;stroke-width:2;stroke-miterlimit:10;}
	.st12{stroke:#000000;stroke-width:1.66;stroke-miterlimit:10;}
	.st13{stroke:#000000;stroke-width:1.33;stroke-miterlimit:10;}
	.st14{stroke:#000000;stroke-miterlimit:10;}
	.st15{stroke:#000000;stroke-width:0.5;stroke-miterlimit:10;}
</style>
<g id="Notes">
	<rect id="artboard" y="0" class="st0" width="3300" height="2200"/>
	<line class="st1" x1="263" y1="292" x2="3036" y2="292"/>
	<text transform="matrix(1 0 0 1 263 322)" class="st2 st3">Weight/Scale Variations</text>
	<text transform="matrix(1 0 0 1 536.0362 322)" class="st4 st3">Ultralight</text>
	<text transform="matrix(1 0 0 1 844.7501 322)" class="st4 st3">Thin</text>
	<text transform="matrix(1 0 0 1 1140.1193 322)" class="st4 st3">Light</text>
	<text transform="matrix(1 0 0 1 1428.8282 322)" class="st4 st3">Regular</text>
	<text transform="matrix(1 0 0 1 1725.2202 322)" class="st4 st3">Medium</text>
	<text transform="matrix(1 0 0 1 2018.2563 322)" class="st4 st3">Semibold</text>
	<text transform="matrix(1 0 0 1 2327.9712 322)" class="st4 st3">Bold</text>
	<text transform="matrix(1 0 0 1 2619.6831 322)" class="st4 st3">Heavy</text>
	<text transform="matrix(1 0 0 1 2918.728 322)" class="st4 st3">Black</text>
	<line class="st1" x1="263" y1="1903" x2="3036" y2="1903"/>
	<g transform="matrix(1 0 0 1 263 1933)">
		<path d="M9.2,0.8c4.3,0,7.9-3.6,7.9-7.9S13.5-15,9.2-15s-7.9,3.6-7.9,7.9C1.4-2.7,5,0.8,9.2,0.8z M9.2-0.7c-3.5,0-6.4-2.8-6.4-6.4
			s2.8-6.4,6.4-6.4s6.4,2.8,6.4,6.4C15.7-3.5,12.8-0.7,9.2-0.7z M9.2-3.4c0.5,0,0.7-0.3,0.7-0.8v-2.1h2.2C12.7-6.3,13-6.6,13-7
			c0-0.5-0.3-0.7-0.8-0.7H10V-10c0-0.5-0.3-0.8-0.7-0.8S8.5-10.5,8.5-10v2.2H6.3C5.8-7.8,5.4-7.5,5.4-7s0.4,0.7,0.8,0.7h2.2v2.1
			C8.5-3.8,8.8-3.4,9.2-3.4z"/>
	</g>
	<g transform="matrix(1 0 0 1 281.506 1933)">
		<path d="M11.7,2.9c5.4,0,10-4.5,10-10c0-5.4-4.5-10-10-10c-5.4,0-10,4.5-10,10C1.7-1.6,6.3,2.9,11.7,2.9z M11.7,1.2
			c-4.6,0-8.3-3.7-8.3-8.3s3.7-8.3,8.3-8.3S20-11.7,20-7.1C20-2.4,16.3,1.2,11.7,1.2z M11.7-2.4c0.5,0,0.8-0.4,0.8-0.9v-2.9h3.1
			c0.5,0,0.9-0.3,0.9-0.8s-0.4-0.8-0.9-0.8h-3.1v-3.1c0-0.6-0.3-0.9-0.8-0.9s-0.8,0.4-0.8,0.9v3.1h-3c-0.6-0.1-1,0.2-1,0.8
			c0,0.5,0.4,0.8,0.9,0.8h3v2.9C10.9-2.8,11.2-2.4,11.7-2.4z"/>
	</g>
	<g transform="matrix(1 0 0 1 304.924 1933)">
		<path d="M15,5.7c7,0,12.7-5.8,12.7-12.7c0-7-5.8-12.7-12.7-12.7C8-19.8,2.3-14,2.3-7C2.3-0.1,8,5.7,15,5.7z M15,3.9
			C8.9,3.9,4.1-1,4.1-7S8.9-17.9,15-17.9c6,0,10.9,4.9,10.9,10.9S21,3.9,15,3.9z M15-1.1c0.6,0,0.9-0.4,0.9-1v-4.1h4.2
			c0.6,0,1-0.3,1-0.9S20.7-8,20.1-8h-4.2v-4.2c0-0.6-0.4-1-0.9-1c-0.6,0-0.9,0.4-0.9,1V-8H9.8c-0.6,0-1,0.3-1,0.9s0.4,0.9,1,0.9H14
			v4.1C14.1-1.5,14.4-1.1,15-1.1z"/>
	</g>
	<text transform="matrix(1 0 0 1 263 1953)" class="st2 st3">Design Variations</text>
	<text transform="matrix(1 0 0 1 263 1971)" class="st4 st3">Symbols are supported in up to nine weights and three scales.</text>
	<text transform="matrix(1 0 0 1 263 1989)" class="st4 st3">For optimal layout with text and other symbols, vertically align</text>
	<text transform="matrix(1 0 0 1 263 2007)" class="st4 st3">symbols with the adjacent text.</text>
	<rect x="776" y="1919" class="st5" width="3" height="14"/>
	<g transform="matrix(1 0 0 1 779 1933)">
		<path d="M10.5,0h1.8L7.2-14.1H5.4L0.2,0H2l1.4-4H9L10.5,0z M6.3-12L6.3-12l2.3,6.4H4L6.3-12z"/>
	</g>
	<rect x="791.6" y="1919" class="st5" width="3" height="14"/>
	<text transform="matrix(1 0 0 1 776 1953)" class="st2 st3">Margins</text>
	<text transform="matrix(1 0 0 1 776 1971)" class="st4 st3">Leading and trailing margins on the left and right side of each symbol</text>
	<text transform="matrix(1 0 0 1 776 1989)" class="st4 st3">can be adjusted by modifying the width of the blue rectangles.</text>
	<text transform="matrix(1 0 0 1 776 2007)" class="st4 st3">Modifications are automatically applied proportionally to all</text>
	<text transform="matrix(1 0 0 1 776 2025)" class="st4 st3">scales and weights.</text>
	<g transform="matrix(1 0 0 1 1289 1933)">
		<path d="M2.8,3.1l1.5,1.5C5.1,5.4,6.1,5.4,7,4.4L17.3-6.7c0.4,0.3,0.8,0.3,1.3,0.2l1-0.2L20.3-6v0.5c-0.1,0.5,0.1,1,0.5,1.5
			l0.8,0.8c0.5,0.5,1.2,0.5,1.6,0.1l3.3-3.3C27-6.9,27-7.5,26.5-8l-0.8-0.8c-0.5-0.5-0.9-0.7-1.4-0.6l-0.5,0.1L23.1-10l0.3-1.1
			c0.1-0.6,0-1-0.6-1.6l-2.4-2.4c-3.5-3.5-8.1-3.4-11.2-0.3C8.8-15,8.7-14.4,9-14c0.2,0.4,0.7,0.6,1.4,0.4c1.5-0.4,3-0.3,4.5,0.7
			l-0.6,1.6c-0.2,0.6-0.2,1.1,0,1.5L3,0.4C2.1,1.3,2,2.3,2.8,3.1z M10.7-15.1c2.7-2,6-1.7,8.4,0.7l2.6,2.6c0.2,0.2,0.3,0.4,0.2,0.7
			l-0.4,1.6L23.1-8H24c0.3,0,0.4,0,0.6,0.2l0.6,0.6l-2.8,2.7l-0.6-0.6c-0.2-0.2-0.2-0.3-0.2-0.6l0.1-1l-1.6-1.6L18.5-8
			c-0.3,0.1-0.4,0.1-0.7-0.2l-2.2-2.2c-0.2-0.2-0.3-0.4-0.1-0.7l0.9-2.3c-1.6-1.5-3.7-2.4-5.8-1.7c-0.1,0-0.2,0-0.2,0
			C10.6-15,10.6-15.1,10.7-15.1z M4.1,2.4c-0.5-0.5-0.3-0.8,0-1.1l11-10.1l1.2,1.2L6.2,3.3c-0.3,0.3-0.7,0.4-1.1,0L4.1,2.4z"/>
	</g>
	<text transform="matrix(1 0 0 1 1289 1953)" class="st2 st3">Exporting</text>
	<text transform="matrix(1 0 0 1 1289 1971)" class="st4 st3">Symbols should be outlined when exporting to ensure the</text>
	<text transform="matrix(1 0 0 1 1289 1989)" class="st4 st3">design is preserved when submitting to Xcode.</text>
	<text id="template-version" transform="matrix(1 0 0 1 2958.8496 1933)" class="st4 st3">Template v.1.0</text>
	<text transform="matrix(1 0 0 1 2913.4863 1951)" class="st4 st3">Generated from shuffle</text>
	<text transform="matrix(1 0 0 1 2921.9238 1969)" class="st4 st3">Typeset at 100 points</text>
	<text transform="matrix(1 0 0 1 263 726)" class="st4 st3">Small</text>
	<text transform="matrix(1 0 0 1 263 1156)" class="st4 st3">Medium</text>
	<text transform="matrix(1 0 0 1 263 1586)" class="st4 st3">Large</text>
</g>
<g id="Guides">
	<g id="H-reference" transform="matrix(1 0 0 1 339 696)">
		<path class="st6" d="M54.9,0h2.7l-27-70.5h-2.5L1,0h2.7L13-24.5h32.8L54.9,0z M29.2-67.1h0.2l15.4,40.4h-31L29.2-67.1z"/>
	</g>
	<line id="Baseline-S" class="st7" x1="263" y1="696" x2="3036" y2="696"/>
	<line id="Capline-S" class="st7" x1="263" y1="625.5" x2="3036" y2="625.5"/>
	<g id="H-reference_1_" transform="matrix(1 0 0 1 339 1126)">
		<path class="st6" d="M54.9,0h2.7l-27-70.5h-2.5L1,0h2.7L13-24.5h32.8L54.9,0z M29.2-67.1h0.2l15.4,40.4h-31L29.2-67.1z"/>
	</g>
	<line id="Baseline-M" class="st7" x1="263" y1="1126" x2="3036" y2="1126"/>
	<line id="Capline-M" class="st7" x1="263" y1="1055.5" x2="3036" y2="1055.5"/>
	<g id="H-reference_2_" transform="matrix(1 0 0 1 339 1556)">
		<path class="st6" d="M54.9,0h2.7l-27-70.5h-2.5L1,0h2.7L13-24.5h32.8L54.9,0z M29.2-67.1h0.2l15.4,40.4h-31L29.2-67.1z"/>
	</g>
	<line id="Baseline-L" class="st7" x1="263" y1="1556" x2="3036" y2="1556"/>
	<line id="Capline-L" class="st7" x1="263" y1="1485.5" x2="3036" y2="1485.5"/>
	<rect id="left-margin" x="1380" y="1030.8" class="st5" width="12.5" height="119.3"/>
	<rect id="right-margin" x="1507.2" y="1030.8" class="st5" width="12.5" height="119.3"/>
</g>
<g id="Symbols">
	<g id="Black-L" transform="matrix(1 0 0 1 2833.06 1556)">
		<path class="st8" d="M97.8-70.5H70.6c-2,0-3.5,1.6-3.5,3.5v26.5c0,2,1.6,3.5,3.5,3.5h26.5c2,0,3.5-1.6,3.5-3.5v-27.1
			C100.6-69.1,99.2-70.5,97.8-70.5z M96.6-40.8H70.9v-25.7h25.7V-40.8z M135.9-70.5h-27.2c-2,0-3.6,1.6-3.6,3.5v26.5
			c0,2,1.6,3.5,3.6,3.5h26.5c2,0,3.6-1.6,3.6-3.5v-27.1C138.7-69.1,137.4-70.5,135.9-70.5z M134.8-40.8h-25.7v-25.7h25.7
			C134.8-66.5,134.8-40.8,134.8-40.8z M97.8-33.4H70.6c-2,0-3.5,1.6-3.5,3.5v26.5c0,2,1.6,3.5,3.5,3.5h26.5c2,0,3.5-1.6,3.5-3.5
			v-27.1C100.6-32.1,99.2-33.4,97.8-33.4z M96.6-3.8H70.9v-25.7h25.7V-3.8z M135.9-33.4h-27.2c-2,0-3.6,1.6-3.6,3.5v26.5
			c0,2,1.6,3.5,3.6,3.5h26.5c2,0,3.6-1.6,3.6-3.5v-27.1C138.7-32.1,137.4-33.4,135.9-33.4z M134.8-3.8h-25.7v-25.7h25.7
			C134.8-29.5,134.8-3.8,134.8-3.8z"/>
	</g>
	<g id="Heavy-L" transform="matrix(1 0 0 1 2539.2 1556)">
		<path class="st9" d="M95.2-70.5H68c-2,0-3.5,1.6-3.5,3.5v26.5c0,2,1.6,3.5,3.5,3.5h26.5c2,0,3.5-1.6,3.5-3.5v-27.1
			C98-69.1,96.6-70.5,95.2-70.5z M94-40.8H68.3v-25.7H94V-40.8z M133.3-70.5h-27.2c-2,0-3.6,1.6-3.6,3.5v26.5c0,2,1.6,3.5,3.6,3.5
			h26.5c2,0,3.6-1.6,3.6-3.5v-27.1C136.1-69.1,134.8-70.5,133.3-70.5z M132.2-40.8h-25.7v-25.7h25.7
			C132.2-66.5,132.2-40.8,132.2-40.8z M95.2-33.4H68c-2,0-3.5,1.6-3.5,3.5v26.5c0,2,1.6,3.5,3.5,3.5h26.5c2,0,3.5-1.6,3.5-3.5v-27.1
			C98-32.1,96.6-33.4,95.2-33.4z M94-3.8H68.3v-25.7H94V-3.8z M133.3-33.4h-27.2c-2,0-3.6,1.6-3.6,3.5v26.5c0,2,1.6,3.5,3.6,3.5
			h26.5c2,0,3.6-1.6,3.6-3.5v-27.1C136.1-32.1,134.8-33.4,133.3-33.4z M132.2-3.8h-25.7v-25.7h25.7C132.2-29.5,132.2-3.8,132.2-3.8z
			"/>
	</g>
	<g id="Bold-L" transform="matrix(1 0 0 1 2245.69 1556)">
		<path class="st10" d="M91.2-70.5H64c-2,0-3.5,1.6-3.5,3.5v26.5c0,2,1.6,3.5,3.5,3.5h26.5c2,0,3.5-1.6,3.5-3.5v-27.1
			C94-69.1,92.6-70.5,91.2-70.5z M90-40.8H64.3v-25.7H90V-40.8z M129.3-70.5h-27.2c-2,0-3.6,1.6-3.6,3.5v26.5c0,2,1.6,3.5,3.6,3.5
			h26.5c2,0,3.6-1.6,3.6-3.5v-27.1C132.1-69.1,130.8-70.5,129.3-70.5z M128.2-40.8h-25.7v-25.7h25.7
			C128.2-66.5,128.2-40.8,128.2-40.8z M91.2-33.4H64c-2,0-3.5,1.6-3.5,3.5v26.5c0,2,1.6,3.5,3.5,3.5h26.5c2,0,3.5-1.6,3.5-3.5v-27.1
			C94-32.1,92.6-33.4,91.2-33.4z M90-3.8H64.3v-25.7H90V-3.8z M129.3-33.4h-27.2c-2,0-3.6,1.6-3.6,3.5v26.5c0,2,1.6,3.5,3.6,3.5
			h26.5c2,0,3.6-1.6,3.6-3.5v-27.1C132.1-32.1,130.8-33.4,129.3-33.4z M128.2-3.8h-25.7v-25.7h25.7C128.2-29.5,128.2-3.8,128.2-3.8z
			"/>
	</g>
	<g id="Semibold-L" transform="matrix(1 0 0 1 1951.2 1556)">
		<path class="st11" d="M87.7-70.5H60.6c-2,0-3.5,1.6-3.5,3.5v26.5c0,2,1.6,3.5,3.5,3.5H87c2,0,3.5-1.6,3.5-3.5v-27.1
			C90.5-69.1,89.2-70.5,87.7-70.5z M86.6-40.8H60.9v-25.7h25.7V-40.8z M125.9-70.5H98.7c-2,0-3.6,1.6-3.6,3.5v26.5
			c0,2,1.6,3.5,3.6,3.5h26.5c2,0,3.6-1.6,3.6-3.5v-27.1C128.7-69.1,127.3-70.5,125.9-70.5z M124.8-40.8H99.1v-25.7h25.7
			C124.8-66.5,124.8-40.8,124.8-40.8z M87.7-33.4H60.6c-2,0-3.5,1.6-3.5,3.5v26.5c0,2,1.6,3.5,3.5,3.5H87c2,0,3.5-1.6,3.5-3.5v-27.1
			C90.5-32.1,89.2-33.4,87.7-33.4z M86.6-3.8H60.9v-25.7h25.7V-3.8z M125.9-33.4H98.7c-2,0-3.6,1.6-3.6,3.5v26.5
			c0,2,1.6,3.5,3.6,3.5h26.5c2,0,3.6-1.6,3.6-3.5v-27.1C128.7-32.1,127.3-33.4,125.9-33.4z M124.8-3.8H99.1v-25.7h25.7
			C124.8-29.5,124.8-3.8,124.8-3.8z"/>
	</g>
	<g id="Medium-L" transform="matrix(1 0 0 1 1656.15 1556)">
		<path class="st12" d="M87.9-70.5H60.7c-2,0-3.5,1.6-3.5,3.5v26.5c0,2,1.6,3.5,3.5,3.5h26.5c2,0,3.5-1.6,3.5-3.5v-27.1
			C90.7-69.1,89.3-70.5,87.9-70.5z M86.7-40.8H61v-25.7h25.7V-40.8z M126-70.5H98.9c-2,0-3.6,1.6-3.6,3.5v26.5c0,2,1.6,3.5,3.6,3.5
			h26.5c2,0,3.6-1.6,3.6-3.5v-27.1C128.8-69.1,127.5-70.5,126-70.5z M124.9-40.8H99.2v-25.7h25.7C124.9-66.5,124.9-40.8,124.9-40.8z
			 M87.9-33.4H60.7c-2,0-3.5,1.6-3.5,3.5v26.5c0,2,1.6,3.5,3.5,3.5h26.5c2,0,3.5-1.6,3.5-3.5v-27.1C90.7-32.1,89.3-33.4,87.9-33.4z
			 M86.7-3.8H61v-25.7h25.7V-3.8z M126-33.4H98.9c-2,0-3.6,1.6-3.6,3.5v26.5c0,2,1.6,3.5,3.6,3.5h26.5c2,0,3.6-1.6,3.6-3.5v-27.1
			C128.8-32.1,127.5-33.4,126-33.4z M124.9-3.8H99.2v-25.7h25.7C124.9-29.5,124.9-3.8,124.9-3.8z"/>
	</g>
	<g id="Regular-L" transform="matrix(1 0 0 1 1361.64 1556)">
		<path class="st13" d="M86.1-70.5H58.9c-2,0-3.5,1.6-3.5,3.5v26.5c0,2,1.6,3.5,3.5,3.5h26.5c2,0,3.5-1.6,3.5-3.5v-27.1
			C88.9-69.1,87.5-70.5,86.1-70.5z M84.9-40.8H59.2v-25.7h25.7V-40.8z M124.2-70.5H97.1c-2,0-3.6,1.6-3.6,3.5v26.5
			c0,2,1.6,3.5,3.6,3.5h26.5c2,0,3.6-1.6,3.6-3.5v-27.1C127-69.1,125.7-70.5,124.2-70.5z M123.1-40.8H97.4v-25.7h25.7
			C123.1-66.5,123.1-40.8,123.1-40.8z M86.1-33.4H58.9c-2,0-3.5,1.6-3.5,3.5v26.5c0,2,1.6,3.5,3.5,3.5h26.5c2,0,3.5-1.6,3.5-3.5
			v-27.1C88.9-32.1,87.5-33.4,86.1-33.4z M84.9-3.8H59.2v-25.7h25.7V-3.8z M124.2-33.4H97.1c-2,0-3.6,1.6-3.6,3.5v26.5
			c0,2,1.6,3.5,3.6,3.5h26.5c2,0,3.6-1.6,3.6-3.5v-27.1C127-32.1,125.7-33.4,124.2-33.4z M123.1-3.8H97.4v-25.7h25.7
			C123.1-29.5,123.1-3.8,123.1-3.8z"/>
	</g>
	<g id="Light-L" transform="matrix(1 0 0 1 1067.42 1556)">
		<path class="st14" d="M101.8-70.5H74.6c-2,0-3.5,1.6-3.5,3.5v26.5c0,2,1.6,3.5,3.5,3.5h26.5c2,0,3.5-1.6,3.5-3.5v-27.1
			C104.6-69.1,103.2-70.5,101.8-70.5z M100.6-40.8H74.9v-25.7h25.7V-40.8z M139.9-70.5h-27.2c-2,0-3.6,1.6-3.6,3.5v26.5
			c0,2,1.6,3.5,3.6,3.5h26.5c2,0,3.6-1.6,3.6-3.5v-27.1C142.7-69.1,141.4-70.5,139.9-70.5z M138.8-40.8h-25.7v-25.7h25.7
			C138.8-66.5,138.8-40.8,138.8-40.8z M101.8-33.4H74.6c-2,0-3.5,1.6-3.5,3.5v26.5c0,2,1.6,3.5,3.5,3.5h26.5c2,0,3.5-1.6,3.5-3.5
			v-27.1C104.6-32.1,103.2-33.4,101.8-33.4z M100.6-3.8H74.9v-25.7h25.7V-3.8z M139.9-33.4h-27.2c-2,0-3.6,1.6-3.6,3.5v26.5
			c0,2,1.6,3.5,3.6,3.5h26.5c2,0,3.6-1.6,3.6-3.5v-27.1C142.7-32.1,141.4-33.4,139.9-33.4z M138.8-3.8h-25.7v-25.7h25.7
			C138.8-29.5,138.8-3.8,138.8-3.8z"/>
	</g>
	<g id="Thin-L" transform="matrix(1 0 0 1 774 1556)">
		<path class="st15" d="M79.9-70.5H52.8c-2,0-3.5,1.6-3.5,3.5v26.5c0,2,1.6,3.5,3.5,3.5h26.5c2,0,3.5-1.6,3.5-3.5v-27.1
			C82.7-69.1,81.4-70.5,79.9-70.5z M78.8-40.8H53.1v-25.7h25.7V-40.8z M118.1-70.5H90.9c-2,0-3.6,1.6-3.6,3.5v26.5
			c0,2,1.6,3.5,3.6,3.5h26.5c2,0,3.6-1.6,3.6-3.5v-27.1C120.9-69.1,119.5-70.5,118.1-70.5z M117-40.8H91.3v-25.7H117
			C117-66.5,117-40.8,117-40.8z M79.9-33.4H52.8c-2,0-3.5,1.6-3.5,3.5v26.5c0,2,1.6,3.5,3.5,3.5h26.5c2,0,3.5-1.6,3.5-3.5v-27.1
			C82.7-32.1,81.4-33.4,79.9-33.4z M78.8-3.8H53.1v-25.7h25.7V-3.8z M118.1-33.4H90.9c-2,0-3.6,1.6-3.6,3.5v26.5
			c0,2,1.6,3.5,3.6,3.5h26.5c2,0,3.6-1.6,3.6-3.5v-27.1C120.9-32.1,119.5-33.4,118.1-33.4z M117-3.8H91.3v-25.7H117
			C117-29.5,117-3.8,117-3.8z"/>
	</g>
	<g id="Ultralight-L" transform="matrix(1 0 0 1 478.974 1556)">
		<path d="M77.1-70.5H49.9c-2,0-3.5,1.6-3.5,3.5v26.5c0,2,1.6,3.5,3.5,3.5h26.5c2,0,3.5-1.6,3.5-3.5v-27.1
			C79.9-69.1,78.5-70.5,77.1-70.5z M75.9-40.8H50.2v-25.7h25.7V-40.8z M115.2-70.5H88.1c-2,0-3.6,1.6-3.6,3.5v26.5
			c0,2,1.6,3.5,3.6,3.5h26.5c2,0,3.6-1.6,3.6-3.5v-27.1C118-69.1,116.7-70.5,115.2-70.5z M114.1-40.8H88.4v-25.7h25.7
			C114.1-66.5,114.1-40.8,114.1-40.8z M77.1-33.4H49.9c-2,0-3.5,1.6-3.5,3.5v26.5c0,2,1.6,3.5,3.5,3.5h26.5c2,0,3.5-1.6,3.5-3.5
			v-27.1C79.9-32.1,78.5-33.4,77.1-33.4z M75.9-3.8H50.2v-25.7h25.7V-3.8z M115.2-33.4H88.1c-2,0-3.6,1.6-3.6,3.5v26.5
			c0,2,1.6,3.5,3.6,3.5h26.5c2,0,3.6-1.6,3.6-3.5v-27.1C118-32.1,116.7-33.4,115.2-33.4z M114.1-3.8H88.4v-25.7h25.7
			C114.1-29.5,114.1-3.8,114.1-3.8z"/>
	</g>
	<g id="Black-M" transform="matrix(1 0 0 1 2853.1 1126)">
		<path class="st8" d="M76.5-70.5H49.4c-2,0-3.5,1.6-3.5,3.5v26.5c0,2,1.6,3.5,3.5,3.5h26.5c2,0,3.5-1.6,3.5-3.5v-27.1
			C79.3-69.1,78-70.5,76.5-70.5z M75.4-40.8H49.7v-25.7h25.7V-40.8z M114.7-70.5H87.5c-2,0-3.6,1.6-3.6,3.5v26.5
			c0,2,1.6,3.5,3.6,3.5H114c2,0,3.6-1.6,3.6-3.5v-27.1C117.5-69.1,116.2-70.5,114.7-70.5z M113.6-40.8H87.9v-25.7h25.7
			C113.6-66.5,113.6-40.8,113.6-40.8z M76.5-33.4H49.4c-2,0-3.5,1.6-3.5,3.5v26.5c0,2,1.6,3.5,3.5,3.5h26.5c2,0,3.5-1.6,3.5-3.5
			v-27.1C79.3-32.1,78-33.4,76.5-33.4z M75.4-3.8H49.7v-25.7h25.7V-3.8z M114.7-33.4H87.5c-2,0-3.6,1.6-3.6,3.5v26.5
			c0,2,1.6,3.5,3.6,3.5H114c2,0,3.6-1.6,3.6-3.5v-27.1C117.5-32.1,116.2-33.4,114.7-33.4z M113.6-3.8H87.9v-25.7h25.7
			C113.6-29.5,113.6-3.8,113.6-3.8z"/>
	</g>
	<g id="Heavy-M" transform="matrix(1 0 0 1 2558.88 1126)">
		<path class="st9" d="M74.3-70.5H47.1c-2,0-3.5,1.6-3.5,3.5v26.5c0,2,1.6,3.5,3.5,3.5h26.5c2,0,3.5-1.6,3.5-3.5v-27.1
			C77.1-69.1,75.8-70.5,74.3-70.5z M73.2-40.8H47.5v-25.7h25.7V-40.8z M112.5-70.5H85.3c-2,0-3.6,1.6-3.6,3.5v26.5
			c0,2,1.6,3.5,3.6,3.5h26.5c2,0,3.6-1.6,3.6-3.5v-27.1C115.3-69.1,113.9-70.5,112.5-70.5z M111.3-40.8H85.6v-25.7h25.7
			C111.3-66.5,111.3-40.8,111.3-40.8z M74.3-33.4H47.1c-2,0-3.5,1.6-3.5,3.5v26.5c0,2,1.6,3.5,3.5,3.5h26.5c2,0,3.5-1.6,3.5-3.5
			v-27.1C77.1-32.1,75.8-33.4,74.3-33.4z M73.2-3.8H47.5v-25.7h25.7V-3.8z M112.5-33.4H85.3c-2,0-3.6,1.6-3.6,3.5v26.5
			c0,2,1.6,3.5,3.6,3.5h26.5c2,0,3.6-1.6,3.6-3.5v-27.1C115.3-32.1,113.9-33.4,112.5-33.4z M111.3-3.8H85.6v-25.7h25.7
			C111.3-29.5,111.3-3.8,111.3-3.8z"/>
	</g>
	<g id="Bold-M" transform="matrix(1 0 0 1 2264.93 1126)">
		<path class="st10" d="M71.3-70.5H44.2c-2,0-3.5,1.6-3.5,3.5v26.5c0,2,1.6,3.5,3.5,3.5h26.5c2,0,3.5-1.6,3.5-3.5v-27.1
			C74.1-69.1,72.8-70.5,71.3-70.5z M70.2-40.8H44.5v-25.7h25.7V-40.8z M109.5-70.5H82.3c-2,0-3.6,1.6-3.6,3.5v26.5
			c0,2,1.6,3.5,3.6,3.5h26.5c2,0,3.6-1.6,3.6-3.5v-27.1C112.3-69.1,111-70.5,109.5-70.5z M108.4-40.8H82.7v-25.7h25.7
			C108.4-66.5,108.4-40.8,108.4-40.8z M71.3-33.4H44.2c-2,0-3.5,1.6-3.5,3.5v26.5c0,2,1.6,3.5,3.5,3.5h26.5c2,0,3.5-1.6,3.5-3.5
			v-27.1C74.1-32.1,72.8-33.4,71.3-33.4z M70.2-3.8H44.5v-25.7h25.7V-3.8z M109.5-33.4H82.3c-2,0-3.6,1.6-3.6,3.5v26.5
			c0,2,1.6,3.5,3.6,3.5h26.5c2,0,3.6-1.6,3.6-3.5v-27.1C112.3-32.1,111-33.4,109.5-33.4z M108.4-3.8H82.7v-25.7h25.7
			C108.4-29.5,108.4-3.8,108.4-3.8z"/>
	</g>
	<g id="Semibold-M" transform="matrix(1 0 0 1 1970.15 1126)">
		<path class="st11" d="M69.2-70.5H42c-2,0-3.5,1.6-3.5,3.5v26.5c0,2,1.6,3.5,3.5,3.5h26.5c2,0,3.5-1.6,3.5-3.5v-27.1
			C72-69.1,70.6-70.5,69.2-70.5z M68.1-40.8H42.3v-25.7h25.7V-40.8z M107.3-70.5H80.2c-2,0-3.6,1.6-3.6,3.5v26.5
			c0,2,1.6,3.5,3.6,3.5h26.5c2,0,3.6-1.6,3.6-3.5v-27.1C110.1-69.1,108.8-70.5,107.3-70.5z M106.2-40.8H80.5v-25.7h25.7
			C106.2-66.5,106.2-40.8,106.2-40.8z M69.2-33.4H42c-2,0-3.5,1.6-3.5,3.5v26.5c0,2,1.6,3.5,3.5,3.5h26.5c2,0,3.5-1.6,3.5-3.5v-27.1
			C72-32.1,70.6-33.4,69.2-33.4z M68.1-3.8H42.3v-25.7h25.7V-3.8z M107.3-33.4H80.2c-2,0-3.6,1.6-3.6,3.5v26.5c0,2,1.6,3.5,3.6,3.5
			h26.5c2,0,3.6-1.6,3.6-3.5v-27.1C110.1-32.1,108.8-33.4,107.3-33.4z M106.2-3.8H80.5v-25.7h25.7C106.2-29.5,106.2-3.8,106.2-3.8z"
			/>
	</g>
	<g id="Medium-M" transform="matrix(1 0 0 1 1674.88 1126)">
		<path class="st12" d="M68-70.5H40.8c-2,0-3.5,1.6-3.5,3.5v26.5c0,2,1.6,3.5,3.5,3.5h26.5c2,0,3.5-1.6,3.5-3.5v-27.1
			C70.8-69.1,69.4-70.5,68-70.5z M66.8-40.8H41.1v-25.7h25.7V-40.8z M106.1-70.5H79c-2,0-3.6,1.6-3.6,3.5v26.5c0,2,1.6,3.5,3.6,3.5
			h26.5c2,0,3.6-1.6,3.6-3.5v-27.1C108.9-69.1,107.6-70.5,106.1-70.5z M105-40.8H79.3v-25.7H105C105-66.5,105-40.8,105-40.8z
			 M68-33.4H40.8c-2,0-3.5,1.6-3.5,3.5v26.5c0,2,1.6,3.5,3.5,3.5h26.5c2,0,3.5-1.6,3.5-3.5v-27.1C70.8-32.1,69.4-33.4,68-33.4z
			 M66.8-3.8H41.1v-25.7h25.7V-3.8z M106.1-33.4H79c-2,0-3.6,1.6-3.6,3.5v26.5c0,2,1.6,3.5,3.6,3.5h26.5c2,0,3.6-1.6,3.6-3.5v-27.1
			C108.9-32.1,107.6-33.4,106.1-33.4z M105-3.8H79.3v-25.7H105C105-29.5,105-3.8,105-3.8z"/>
	</g>
	<g id="Regular-M" transform="matrix(1 0 0 1 1380.04 1126)">
		<path class="st13" d="M66.5-70.5H39.3c-2,0-3.5,1.6-3.5,3.5v26.5c0,2,1.6,3.5,3.5,3.5h26.5c2,0,3.5-1.6,3.5-3.5v-27.1
			C69.3-69.1,67.9-70.5,66.5-70.5z M65.4-40.8H39.6v-25.7h25.7V-40.8z M104.6-70.5H77.5c-2,0-3.6,1.6-3.6,3.5v26.5
			c0,2,1.6,3.5,3.6,3.5H104c2,0,3.6-1.6,3.6-3.5v-27.1C107.5-69.1,106.1-70.5,104.6-70.5z M103.5-40.8H77.8v-25.7h25.7
			C103.5-66.5,103.5-40.8,103.5-40.8z M66.5-33.4H39.3c-2,0-3.5,1.6-3.5,3.5v26.5c0,2,1.6,3.5,3.5,3.5h26.5c2,0,3.5-1.6,3.5-3.5
			v-27.1C69.3-32.1,67.9-33.4,66.5-33.4z M65.4-3.8H39.6v-25.7h25.7V-3.8z M104.6-33.4H77.5c-2,0-3.6,1.6-3.6,3.5v26.5
			c0,2,1.6,3.5,3.6,3.5H104c2,0,3.6-1.6,3.6-3.5v-27.1C107.5-32.1,106.1-33.4,104.6-33.4z M103.5-3.8H77.8v-25.7h25.7
			C103.5-29.5,103.5-3.8,103.5-3.8z"/>
	</g>
	<g id="Light-M" transform="matrix(1 0 0 1 1085.58 1126)">
		<path class="st14" d="M82.4-70.5H55.3c-2,0-3.5,1.6-3.5,3.5v26.5c0,2,1.6,3.5,3.5,3.5h26.5c2,0,3.5-1.6,3.5-3.5v-27.1
			C85.2-69.1,83.9-70.5,82.4-70.5z M81.3-40.8H55.6v-25.7h25.7V-40.8z M120.6-70.5H93.4c-2,0-3.6,1.6-3.6,3.5v26.5
			c0,2,1.6,3.5,3.6,3.5h26.5c2,0,3.6-1.6,3.6-3.5v-27.1C123.4-69.1,122-70.5,120.6-70.5z M119.5-40.8H93.8v-25.7h25.7
			C119.5-66.5,119.5-40.8,119.5-40.8z M82.4-33.4H55.3c-2,0-3.5,1.6-3.5,3.5v26.5c0,2,1.6,3.5,3.5,3.5h26.5c2,0,3.5-1.6,3.5-3.5
			v-27.1C85.2-32.1,83.9-33.4,82.4-33.4z M81.3-3.8H55.6v-25.7h25.7V-3.8z M120.6-33.4H93.4c-2,0-3.6,1.6-3.6,3.5v26.5
			c0,2,1.6,3.5,3.6,3.5h26.5c2,0,3.6-1.6,3.6-3.5v-27.1C123.4-32.1,122-33.4,120.6-33.4z M119.5-3.8H93.8v-25.7h25.7
			C119.5-29.5,119.5-3.8,119.5-3.8z"/>
	</g>
	<g id="Thin-M" transform="matrix(1 0 0 1 791.847 1126)">
		<path class="st15" d="M60.9-70.5H33.7c-2,0-3.5,1.6-3.5,3.5v26.5c0,2,1.6,3.5,3.5,3.5h26.5c2,0,3.5-1.6,3.5-3.5v-27.1
			C63.7-69.1,62.3-70.5,60.9-70.5z M59.8-40.8H34.1v-25.7h25.7V-40.8z M99.1-70.5H71.9c-2,0-3.6,1.6-3.6,3.5v26.5
			c0,2,1.6,3.5,3.6,3.5h26.5c2,0,3.6-1.6,3.6-3.5v-27.1C101.9-69.1,100.5-70.5,99.1-70.5z M97.9-40.8H72.2v-25.7h25.7
			C97.9-66.5,97.9-40.8,97.9-40.8z M60.9-33.4H33.7c-2,0-3.5,1.6-3.5,3.5v26.5c0,2,1.6,3.5,3.5,3.5h26.5c2,0,3.5-1.6,3.5-3.5v-27.1
			C63.7-32.1,62.3-33.4,60.9-33.4z M59.8-3.8H34.1v-25.7h25.7V-3.8z M99.1-33.4H71.9c-2,0-3.6,1.6-3.6,3.5v26.5c0,2,1.6,3.5,3.6,3.5
			h26.5c2,0,3.6-1.6,3.6-3.5v-27.1C101.9-32.1,100.5-33.4,99.1-33.4z M97.9-3.8H72.2v-25.7h25.7C97.9-29.5,97.9-3.8,97.9-3.8z"/>
	</g>
	<g id="Ultralight-M" transform="matrix(1 0 0 1 496.65 1126)">
		<path d="M59.4-70.5H32.2c-2,0-3.5,1.6-3.5,3.5v26.5c0,2,1.6,3.5,3.5,3.5h26.5c2,0,3.5-1.6,3.5-3.5v-27.1
			C62.2-69.1,60.8-70.5,59.4-70.5z M58.3-40.8H32.6v-25.7h25.7V-40.8z M97.6-70.5H70.4c-2,0-3.6,1.6-3.6,3.5v26.5
			c0,2,1.6,3.5,3.6,3.5h26.5c2,0,3.6-1.6,3.6-3.5v-27.1C100.4-69.1,99-70.5,97.6-70.5z M96.4-40.8H70.7v-25.7h25.7
			C96.4-66.5,96.4-40.8,96.4-40.8z M59.4-33.4H32.2c-2,0-3.5,1.6-3.5,3.5v26.5c0,2,1.6,3.5,3.5,3.5h26.5c2,0,3.5-1.6,3.5-3.5v-27.1
			C62.2-32.1,60.8-33.4,59.4-33.4z M58.3-3.8H32.6v-25.7h25.7V-3.8z M97.6-33.4H70.4c-2,0-3.6,1.6-3.6,3.5v26.5c0,2,1.6,3.5,3.6,3.5
			h26.5c2,0,3.6-1.6,3.6-3.5v-27.1C100.4-32.1,99-33.4,97.6-33.4z M96.4-3.8H70.7v-25.7h25.7C96.4-29.5,96.4-3.8,96.4-3.8z"/>
	</g>
	<g id="Black-S" transform="matrix(1 0 0 1 2870.66 696)">
		<path class="st8" d="M59-70.5H31.9c-2,0-3.5,1.6-3.5,3.5v26.5c0,2,1.6,3.5,3.5,3.5h26.5c2,0,3.5-1.6,3.5-3.5v-27.1
			C61.8-69.2,60.5-70.5,59-70.5z M57.9-40.9H32.2v-25.7h25.7V-40.9z M97.2-70.5H70c-2,0-3.6,1.6-3.6,3.5v26.5c0,2,1.6,3.5,3.6,3.5
			h26.5c2,0,3.6-1.6,3.6-3.5v-27.1C100-69.2,98.6-70.5,97.2-70.5z M96.1-40.9H70.4v-25.7h25.7C96.1-66.6,96.1-40.9,96.1-40.9z
			 M59-33.5H31.9c-2,0-3.5,1.6-3.5,3.5v26.5c0,2,1.6,3.5,3.5,3.5h26.5c2,0,3.5-1.6,3.5-3.5v-27.1C61.8-32.1,60.5-33.5,59-33.5z
			 M57.9-3.8H32.2v-25.7h25.7V-3.8z M97.2-33.5H70c-2,0-3.6,1.6-3.6,3.5v26.5C66.4-1.5,68,0,70,0h26.5c2,0,3.6-1.6,3.6-3.5v-27.1
			C100-32.1,98.6-33.5,97.2-33.5z M96.1-3.8H70.4v-25.7h25.7C96.1-29.5,96.1-3.8,96.1-3.8z"/>
	</g>
	<g id="Heavy-S" transform="matrix(1 0 0 1 2575.58 696)">
		<path class="st9" d="M57.6-70.5H30.5c-2,0-3.5,1.6-3.5,3.5v26.5c0,2,1.6,3.5,3.5,3.5H57c2,0,3.5-1.6,3.5-3.5v-27.1
			C60.4-69.2,59.1-70.5,57.6-70.5z M56.5-40.9H30.8v-25.7h25.7V-40.9z M95.8-70.5H68.6c-2,0-3.6,1.6-3.6,3.5v26.5
			c0,2,1.6,3.5,3.6,3.5h26.5c2,0,3.6-1.6,3.6-3.5v-27.1C98.6-69.2,97.3-70.5,95.8-70.5z M94.7-40.9H69v-25.7h25.7
			C94.7-66.6,94.7-40.9,94.7-40.9z M57.6-33.5H30.5c-2,0-3.5,1.6-3.5,3.5v26.5c0,2,1.6,3.5,3.5,3.5H57c2,0,3.5-1.6,3.5-3.5v-27.1
			C60.4-32.1,59.1-33.5,57.6-33.5z M56.5-3.8H30.8v-25.7h25.7V-3.8z M95.8-33.5H68.6c-2,0-3.6,1.6-3.6,3.5v26.5c0,2,1.6,3.5,3.6,3.5
			h26.5c2,0,3.6-1.6,3.6-3.5v-27.1C98.6-32.1,97.3-33.5,95.8-33.5z M94.7-3.8H69v-25.7h25.7C94.7-29.5,94.7-3.8,94.7-3.8z"/>
	</g>
	<g id="Bold-S" transform="matrix(1 0 0 1 2280.7 696)">
		<path class="st10" d="M55.6-70.5H28.4c-2,0-3.5,1.6-3.5,3.5v26.5c0,2,1.6,3.5,3.5,3.5h26.5c2,0,3.5-1.6,3.5-3.5v-27.1
			C58.4-69.2,57-70.5,55.6-70.5z M54.4-40.9H28.7v-25.7h25.7V-40.9z M93.7-70.5H66.6c-2,0-3.6,1.6-3.6,3.5v26.5c0,2,1.6,3.5,3.6,3.5
			h26.5c2,0,3.6-1.6,3.6-3.5v-27.1C96.5-69.2,95.2-70.5,93.7-70.5z M92.6-40.9H66.9v-25.7h25.7C92.6-66.6,92.6-40.9,92.6-40.9z
			 M55.6-33.5H28.4c-2,0-3.5,1.6-3.5,3.5v26.5c0,2,1.6,3.5,3.5,3.5h26.5c2,0,3.5-1.6,3.5-3.5v-27.1C58.4-32.1,57-33.5,55.6-33.5z
			 M54.4-3.8H28.7v-25.7h25.7V-3.8z M93.7-33.5H66.6c-2,0-3.6,1.6-3.6,3.5v26.5c0,2,1.6,3.5,3.6,3.5h26.5c2,0,3.6-1.6,3.6-3.5v-27.1
			C96.5-32.1,95.2-33.5,93.7-33.5z M92.6-3.8H66.9v-25.7h25.7C92.6-29.5,92.6-3.8,92.6-3.8z"/>
	</g>
	<g id="Semibold-S" transform="matrix(1 0 0 1 1985.26 696)">
		<path class="st11" d="M52-70.5H24.9c-2,0-3.5,1.6-3.5,3.5v26.5c0,2,1.6,3.5,3.5,3.5h26.5c2,0,3.5-1.6,3.5-3.5v-27.1
			C54.8-69.2,53.5-70.5,52-70.5z M50.9-40.9H25.2v-25.7h25.7V-40.9z M90.2-70.5H63c-2,0-3.6,1.6-3.6,3.5v26.5c0,2,1.6,3.5,3.6,3.5
			h26.5c2,0,3.6-1.6,3.6-3.5v-27.1C93-69.2,91.6-70.5,90.2-70.5z M89.1-40.9H63.4v-25.7h25.7C89.1-66.6,89.1-40.9,89.1-40.9z
			 M52-33.5H24.9c-2,0-3.5,1.6-3.5,3.5v26.5c0,2,1.6,3.5,3.5,3.5h26.5c2,0,3.5-1.6,3.5-3.5v-27.1C54.8-32.1,53.5-33.5,52-33.5z
			 M50.9-3.8H25.2v-25.7h25.7V-3.8z M90.2-33.5H63c-2,0-3.6,1.6-3.6,3.5v26.5C59.4-1.5,61,0,63,0h26.5c2,0,3.6-1.6,3.6-3.5v-27.1
			C93-32.1,91.6-33.5,90.2-33.5z M89.1-3.8H63.4v-25.7h25.7C89.1-29.5,89.1-3.8,89.1-3.8z"/>
	</g>
	<g id="Medium-S" transform="matrix(1 0 0 1 1689.52 696)">
		<path class="st12" d="M53.3-70.5H26.2c-2,0-3.5,1.6-3.5,3.5v26.5c0,2,1.6,3.5,3.5,3.5h26.5c2,0,3.5-1.6,3.5-3.5v-27.1
			C56.1-69.2,54.8-70.5,53.3-70.5z M52.2-40.9H26.5v-25.7h25.7V-40.9z M91.5-70.5H64.3c-2,0-3.6,1.6-3.6,3.5v26.5
			c0,2,1.6,3.5,3.6,3.5h26.5c2,0,3.6-1.6,3.6-3.5v-27.1C94.3-69.2,93-70.5,91.5-70.5z M90.4-40.9H64.7v-25.7h25.7
			C90.4-66.6,90.4-40.9,90.4-40.9z M53.3-33.5H26.2c-2,0-3.5,1.6-3.5,3.5v26.5c0,2,1.6,3.5,3.5,3.5h26.5c2,0,3.5-1.6,3.5-3.5v-27.1
			C56.1-32.1,54.8-33.5,53.3-33.5z M52.2-3.8H26.5v-25.7h25.7V-3.8z M91.5-33.5H64.3c-2,0-3.6,1.6-3.6,3.5v26.5c0,2,1.6,3.5,3.6,3.5
			h26.5c2,0,3.6-1.6,3.6-3.5v-27.1C94.3-32.1,93-33.5,91.5-33.5z M90.4-3.8H64.7v-25.7h25.7C90.4-29.5,90.4-3.8,90.4-3.8z"/>
	</g>
	<g id="Regular-S" transform="matrix(1 0 0 1 1394.06 696)">
		<path class="st13" d="M52.5-70.5H25.3c-2,0-3.5,1.6-3.5,3.5v26.5c0,2,1.6,3.5,3.5,3.5h26.5c2,0,3.5-1.6,3.5-3.5v-27.1
			C55.3-69.2,53.9-70.5,52.5-70.5z M51.3-40.9H25.6v-25.7h25.7V-40.9z M90.6-70.5H63.5c-2,0-3.6,1.6-3.6,3.5v26.5
			c0,2,1.6,3.5,3.6,3.5H90c2,0,3.6-1.6,3.6-3.5v-27.1C93.4-69.2,92.1-70.5,90.6-70.5z M89.5-40.9H63.8v-25.7h25.7
			C89.5-66.6,89.5-40.9,89.5-40.9z M52.5-33.5H25.3c-2,0-3.5,1.6-3.5,3.5v26.5c0,2,1.6,3.5,3.5,3.5h26.5c2,0,3.5-1.6,3.5-3.5v-27.1
			C55.3-32.1,53.9-33.5,52.5-33.5z M51.3-3.8H25.6v-25.7h25.7V-3.8z M90.6-33.5H63.5c-2,0-3.6,1.6-3.6,3.5v26.5c0,2,1.6,3.5,3.6,3.5
			H90c2,0,3.6-1.6,3.6-3.5v-27.1C93.4-32.1,92.1-33.5,90.6-33.5z M89.5-3.8H63.8v-25.7h25.7C89.5-29.5,89.5-3.8,89.5-3.8z"/>
	</g>
	<g id="Light-S" transform="matrix(1 0 0 1 1099.35 696)">
		<path class="st14" d="M68.7-70.5H41.5c-2,0-3.5,1.6-3.5,3.5v26.5c0,2,1.6,3.5,3.5,3.5H68c2,0,3.5-1.6,3.5-3.5v-27.1
			C71.5-69.2,70.1-70.5,68.7-70.5z M67.5-40.9H41.8v-25.7h25.7V-40.9z M106.8-70.5H79.7c-2,0-3.6,1.6-3.6,3.5v26.5
			c0,2,1.6,3.5,3.6,3.5h26.5c2,0,3.6-1.6,3.6-3.5v-27.1C109.6-69.2,108.3-70.5,106.8-70.5z M105.7-40.9H80v-25.7h25.7
			C105.7-66.6,105.7-40.9,105.7-40.9z M68.7-33.5H41.5c-2,0-3.5,1.6-3.5,3.5v26.5c0,2,1.6,3.5,3.5,3.5H68c2,0,3.5-1.6,3.5-3.5v-27.1
			C71.5-32.1,70.1-33.5,68.7-33.5z M67.5-3.8H41.8v-25.7h25.7V-3.8z M106.8-33.5H79.7c-2,0-3.6,1.6-3.6,3.5v26.5
			c0,2,1.6,3.5,3.6,3.5h26.5c2,0,3.6-1.6,3.6-3.5v-27.1C109.6-32.1,108.3-33.5,106.8-33.5z M105.7-3.8H80v-25.7h25.7
			C105.7-29.5,105.7-3.8,105.7-3.8z"/>
	</g>
	<g id="Thin-S" transform="matrix(1 0 0 1 805.25 696)">
		<path class="st15" d="M47.5-70.5H20.3c-2,0-3.5,1.6-3.5,3.5v26.5c0,2,1.6,3.5,3.5,3.5h26.5c2,0,3.5-1.6,3.5-3.5v-27.1
			C50.3-69.2,48.9-70.5,47.5-70.5z M46.4-40.9H20.6v-25.7h25.7V-40.9z M85.6-70.5H58.5c-2,0-3.6,1.6-3.6,3.5v26.5
			c0,2,1.6,3.5,3.6,3.5H85c2,0,3.6-1.6,3.6-3.5v-27.1C88.5-69.2,87.1-70.5,85.6-70.5z M84.5-40.9H58.8v-25.7h25.7
			C84.5-66.6,84.5-40.9,84.5-40.9z M47.5-33.5H20.3c-2,0-3.5,1.6-3.5,3.5v26.5c0,2,1.6,3.5,3.5,3.5h26.5c2,0,3.5-1.6,3.5-3.5v-27.1
			C50.3-32.1,48.9-33.5,47.5-33.5z M46.4-3.8H20.6v-25.7h25.7V-3.8z M85.6-33.5H58.5c-2,0-3.6,1.6-3.6,3.5v26.5c0,2,1.6,3.5,3.6,3.5
			H85c2,0,3.6-1.6,3.6-3.5v-27.1C88.5-32.1,87.1-33.5,85.6-33.5z M84.5-3.8H58.8v-25.7h25.7C84.5-29.5,84.5-3.8,84.5-3.8z"/>
	</g>
	<g id="Ultralight-S" transform="matrix(1 0 0 1 509.906 696)">
		<path d="M46.1-70.5H19c-2,0-3.5,1.6-3.5,3.5v26.5c0,2,1.6,3.5,3.5,3.5h26.5c2,0,3.5-1.6,3.5-3.5v-27.1
			C48.9-69.2,47.6-70.5,46.1-70.5z M45-40.9H19.3v-25.7H45V-40.9z M84.3-70.5H57.1c-2,0-3.6,1.6-3.6,3.5v26.5c0,2,1.6,3.5,3.6,3.5
			h26.5c2,0,3.6-1.6,3.6-3.5v-27.1C87.1-69.2,85.8-70.5,84.3-70.5z M83.2-40.9H57.5v-25.7h25.7C83.2-66.6,83.2-40.9,83.2-40.9z
			 M46.1-33.5H19c-2,0-3.5,1.6-3.5,3.5v26.5c0,2,1.6,3.5,3.5,3.5h26.5c2,0,3.5-1.6,3.5-3.5v-27.1C48.9-32.1,47.6-33.5,46.1-33.5z
			 M45-3.8H19.3v-25.7H45V-3.8z M84.3-33.5H57.1c-2,0-3.6,1.6-3.6,3.5v26.5c0,2,1.6,3.5,3.6,3.5h26.5c2,0,3.6-1.6,3.6-3.5v-27.1
			C87.1-32.1,85.8-33.5,84.3-33.5z M83.2-3.8H57.5v-25.7h25.7C83.2-29.5,83.2-3.8,83.2-3.8z"/>
	</g>
</g>
</svg>
