<?xml version="1.0" encoding="utf-8"?>
<!-- Generator: Adobe Illustrator 24.0.3, SVG Export Plug-In . SVG Version: 6.00 Build 0)  -->
<svg version="1.1" id="Layer_1" xmlns="http://www.w3.org/2000/svg" xmlns:xlink="http://www.w3.org/1999/xlink" x="0px" y="0px"
	 viewBox="0 0 3300 2200" style="enable-background:new 0 0 3300 2200;" xml:space="preserve">
<style type="text/css">
	.st0{fill:#FFFFFF;}
	.st1{fill:none;stroke:#000000;stroke-width:0.5;}
	.st2{font-family:'Arial-BoldMT';}
	.st3{font-size:12px;}
	.st4{font-family:'ArialMT';}
	.st5{opacity:0.4;fill:#00AEEF;enable-background:new    ;}
	.st6{fill:#27AAE1;}
	.st7{fill:none;stroke:#27AAE1;stroke-width:0.577;}
	.st8{stroke:#000000;stroke-width:2;stroke-miterlimit:10;}
	.st9{stroke:#000000;stroke-width:1.75;stroke-miterlimit:10;}
	.st10{stroke:#000000;stroke-width:1.5;stroke-miterlimit:10;}
	.st11{stroke:#000000;stroke-width:1.25;stroke-miterlimit:10;}
	.st12{stroke:#000000;stroke-miterlimit:10;}
	.st13{stroke:#000000;stroke-width:0.75;stroke-miterlimit:10;}
	.st14{stroke:#000000;stroke-width:0.5;stroke-miterlimit:10;}
	.st15{stroke:#000000;stroke-width:0.25;stroke-miterlimit:10;}
</style>
<g id="Notes">
	<rect id="artboard" y="0" class="st0" width="3300" height="2200"/>
	<line class="st1" x1="263" y1="292" x2="3036" y2="292"/>
	<text transform="matrix(1 0 0 1 263 322)" class="st2 st3">Weight/Scale Variations</text>
	<text transform="matrix(1 0 0 1 536.0362 322)" class="st4 st3">Ultralight</text>
	<text transform="matrix(1 0 0 1 844.7501 322)" class="st4 st3">Thin</text>
	<text transform="matrix(1 0 0 1 1140.1193 322)" class="st4 st3">Light</text>
	<text transform="matrix(1 0 0 1 1428.8282 322)" class="st4 st3">Regular</text>
	<text transform="matrix(1 0 0 1 1725.2202 322)" class="st4 st3">Medium</text>
	<text transform="matrix(1 0 0 1 2018.2563 322)" class="st4 st3">Semibold</text>
	<text transform="matrix(1 0 0 1 2327.9712 322)" class="st4 st3">Bold</text>
	<text transform="matrix(1 0 0 1 2619.6831 322)" class="st4 st3">Heavy</text>
	<text transform="matrix(1 0 0 1 2918.728 322)" class="st4 st3">Black</text>
	<line class="st1" x1="263" y1="1903" x2="3036" y2="1903"/>
	<g transform="matrix(1 0 0 1 263 1933)">
		<path d="M9.2,0.8c4.3,0,7.9-3.6,7.9-7.9c0-4.3-3.6-7.9-7.9-7.9c-4.3,0-7.9,3.6-7.9,7.9C1.4-2.7,5,0.8,9.2,0.8z M9.2-0.7
			c-3.5,0-6.4-2.8-6.4-6.4c0-3.6,2.8-6.4,6.4-6.4c3.6,0,6.4,2.8,6.4,6.4C15.7-3.5,12.8-0.7,9.2-0.7z M9.2-3.4c0.5,0,0.7-0.3,0.7-0.8
			v-2.1h2.2C12.7-6.3,13-6.6,13-7c0-0.5-0.3-0.7-0.8-0.7H10V-10c0-0.5-0.3-0.8-0.7-0.8S8.5-10.5,8.5-10v2.2H6.3
			C5.8-7.8,5.4-7.5,5.4-7c0,0.5,0.4,0.7,0.8,0.7h2.2v2.1C8.5-3.8,8.8-3.4,9.2-3.4z"/>
	</g>
	<g transform="matrix(1 0 0 1 281.506 1933)">
		<path d="M11.7,2.9c5.4,0,10-4.5,10-10c0-5.4-4.5-10-10-10c-5.4,0-10,4.5-10,10C1.7-1.6,6.3,2.9,11.7,2.9z M11.7,1.2
			c-4.6,0-8.3-3.7-8.3-8.3c0-4.6,3.7-8.3,8.3-8.3c4.6,0,8.3,3.7,8.3,8.3C20-2.4,16.3,1.2,11.7,1.2z M11.7-2.4c0.5,0,0.8-0.4,0.8-0.9
			v-2.9h3.1c0.5,0,0.9-0.3,0.9-0.8c0-0.5-0.4-0.8-0.9-0.8h-3.1v-3.1c0-0.6-0.3-0.9-0.8-0.9c-0.5,0-0.8,0.4-0.8,0.9v3.1h-3
			C7.3-7.9,6.9-7.6,6.9-7c0,0.5,0.4,0.8,0.9,0.8h3v2.9C10.9-2.8,11.2-2.4,11.7-2.4z"/>
	</g>
	<g transform="matrix(1 0 0 1 304.924 1933)">
		<path d="M15,5.7c7,0,12.7-5.8,12.7-12.7c0-7-5.8-12.7-12.7-12.7C8-19.8,2.3-14,2.3-7C2.3-0.1,8,5.7,15,5.7z M15,3.9
			C8.9,3.9,4.1-1,4.1-7c0-6,4.8-10.9,10.9-10.9c6,0,10.9,4.9,10.9,10.9C25.9-1,21,3.9,15,3.9z M15-1.1c0.6,0,0.9-0.4,0.9-1v-4.1h4.2
			c0.6,0,1-0.3,1-0.9c0-0.6-0.4-0.9-1-0.9h-4.2v-4.2c0-0.6-0.4-1-0.9-1c-0.6,0-0.9,0.4-0.9,1v4.2H9.8c-0.6,0-1,0.3-1,0.9
			c0,0.6,0.4,0.9,1,0.9h4.2v4.1C14.1-1.5,14.4-1.1,15-1.1z"/>
	</g>
	<text transform="matrix(1 0 0 1 263 1953)" class="st2 st3">Design Variations</text>
	<text transform="matrix(1 0 0 1 263 1971)" class="st4 st3">Symbols are supported in up to nine weights and three scales.</text>
	<text transform="matrix(1 0 0 1 263 1989)" class="st4 st3">For optimal layout with text and other symbols, vertically align</text>
	<text transform="matrix(1 0 0 1 263 2007)" class="st4 st3">symbols with the adjacent text.</text>
	<rect x="776" y="1919" class="st5" width="3" height="14"/>
	<g transform="matrix(1 0 0 1 779 1933)">
		<path d="M10.5,0h1.8L7.2-14.1H5.4L0.2,0h1.8l1.4-4h5.6L10.5,0z M6.3-12L6.3-12l2.3,6.4H4L6.3-12z"/>
	</g>
	<rect x="791.6" y="1919" class="st5" width="3" height="14"/>
	<text transform="matrix(1 0 0 1 776 1953)" class="st2 st3">Margins</text>
	<text transform="matrix(1 0 0 1 776 1971)" class="st4 st3">Leading and trailing margins on the left and right side of each symbol</text>
	<text transform="matrix(1 0 0 1 776 1989)" class="st4 st3">can be adjusted by modifying the width of the blue rectangles.</text>
	<text transform="matrix(1 0 0 1 776 2007)" class="st4 st3">Modifications are automatically applied proportionally to all</text>
	<text transform="matrix(1 0 0 1 776 2025)" class="st4 st3">scales and weights.</text>
	<g transform="matrix(1 0 0 1 1289 1933)">
		<path d="M2.8,3.1l1.5,1.5c0.8,0.8,1.8,0.8,2.7-0.2L17.3-6.7c0.4,0.3,0.8,0.3,1.3,0.2l1-0.2L20.3-6l0,0.5C20.2-5,20.4-4.5,20.8-4
			l0.8,0.8c0.5,0.5,1.2,0.5,1.6,0.1l3.3-3.3c0.5-0.5,0.5-1.1,0-1.6l-0.8-0.8c-0.5-0.5-0.9-0.7-1.4-0.6l-0.5,0.1l-0.7-0.7l0.3-1.1
			c0.1-0.6,0-1-0.6-1.6l-2.4-2.4c-3.5-3.5-8.1-3.4-11.2-0.3c-0.4,0.4-0.5,1-0.2,1.4c0.2,0.4,0.7,0.6,1.4,0.4c1.5-0.4,3-0.3,4.5,0.7
			l-0.6,1.6c-0.2,0.6-0.2,1.1,0,1.5L3,0.4C2.1,1.3,2,2.3,2.8,3.1z M10.7-15.1c2.7-2,6-1.7,8.4,0.7l2.6,2.6c0.2,0.2,0.3,0.4,0.2,0.7
			l-0.4,1.6L23.1-8L24-8c0.3,0,0.4,0,0.6,0.2l0.6,0.6l-2.8,2.7l-0.6-0.6c-0.2-0.2-0.2-0.3-0.2-0.6l0.1-1l-1.6-1.6l-1.6,0.3
			c-0.3,0.1-0.4,0.1-0.7-0.2l-2.2-2.2c-0.2-0.2-0.3-0.4-0.1-0.7l0.9-2.3c-1.6-1.5-3.7-2.4-5.8-1.7c-0.1,0-0.2,0-0.2,0
			C10.6-15,10.6-15.1,10.7-15.1z M4.1,2.4c-0.5-0.5-0.3-0.8,0-1.1l11-10.1l1.2,1.2L6.2,3.3c-0.3,0.3-0.7,0.4-1.1,0L4.1,2.4z"/>
	</g>
	<text transform="matrix(1 0 0 1 1289 1953)" class="st2 st3">Exporting</text>
	<text transform="matrix(1 0 0 1 1289 1971)" class="st4 st3">Symbols should be outlined when exporting to ensure the</text>
	<text transform="matrix(1 0 0 1 1289 1989)" class="st4 st3">design is preserved when submitting to Xcode.</text>
	<text id="template-version" transform="matrix(1 0 0 1 2958.8496 1933)" class="st4 st3">Template v.1.0</text>
	<text transform="matrix(1 0 0 1 2913.4863 1951)" class="st4 st3">Generated from shuffle</text>
	<text transform="matrix(1 0 0 1 2921.9238 1969)" class="st4 st3">Typeset at 100 points</text>
	<text transform="matrix(1 0 0 1 263 726)" class="st4 st3">Small</text>
	<text transform="matrix(1 0 0 1 263 1156)" class="st4 st3">Medium</text>
	<text transform="matrix(1 0 0 1 263 1586)" class="st4 st3">Large</text>
</g>
<g id="Guides">
	<g id="H-reference" transform="matrix(1 0 0 1 339 696)">
		<path class="st6" d="M54.9,0h2.7L30.6-70.5h-2.5L1,0h2.7l9.3-24.5h32.8L54.9,0z M29.2-67.1h0.2l15.4,40.4h-31L29.2-67.1z"/>
	</g>
	<line id="Baseline-S" class="st7" x1="263" y1="696" x2="3036" y2="696"/>
	<line id="Capline-S" class="st7" x1="263" y1="625.5" x2="3036" y2="625.5"/>
	<g id="H-reference_1_" transform="matrix(1 0 0 1 339 1126)">
		<path class="st6" d="M54.9,0h2.7L30.6-70.5h-2.5L1,0h2.7l9.3-24.5h32.8L54.9,0z M29.2-67.1h0.2l15.4,40.4h-31L29.2-67.1z"/>
	</g>
	<line id="Baseline-M" class="st7" x1="263" y1="1126" x2="3036" y2="1126"/>
	<line id="Capline-M" class="st7" x1="263" y1="1055.5" x2="3036" y2="1055.5"/>
	<g id="H-reference_2_" transform="matrix(1 0 0 1 339 1556)">
		<path class="st6" d="M54.9,0h2.7L30.6-70.5h-2.5L1,0h2.7l9.3-24.5h32.8L54.9,0z M29.2-67.1h0.2l15.4,40.4h-31L29.2-67.1z"/>
	</g>
	<line id="Baseline-L" class="st7" x1="263" y1="1556" x2="3036" y2="1556"/>
	<line id="Capline-L" class="st7" x1="263" y1="1485.5" x2="3036" y2="1485.5"/>
	<rect id="left-margin" x="1380" y="1030.8" class="st5" width="12.5" height="119.3"/>
	<rect id="right-margin" x="1507.2" y="1030.8" class="st5" width="12.5" height="119.3"/>
</g>
<g id="Symbols">
	<g id="Black-L" transform="matrix(1 0 0 1 2833.06 1556)">
		<path class="st8" d="M101.4-70.5c-9.6,0-10.8,0-14.5,0.2c-3.8,0.2-6.3,0.8-8.6,1.6C76-67.7,74-66.5,72-64.5c-2,2-3.2,3.9-4.1,6.2
			c-0.9,2.2-1.5,4.8-1.6,8.6c-0.2,3.8-0.2,5-0.2,14.5c0,9.6,0,10.8,0.2,14.5c0.2,3.8,0.8,6.3,1.6,8.6c0.9,2.3,2.1,4.3,4.1,6.2
			c2,2,3.9,3.2,6.2,4.1c2.2,0.9,4.8,1.5,8.6,1.6C90.6,0,91.8,0,101.4,0c9.6,0,10.8,0,14.5-0.2c3.8-0.2,6.3-0.8,8.6-1.6
			c2.3-0.9,4.3-2.1,6.2-4.1c2-2,3.2-3.9,4.1-6.2c0.9-2.2,1.5-4.8,1.6-8.6c0.2-3.8,0.2-5,0.2-14.5c0-9.6,0-10.8-0.2-14.5
			c-0.2-3.8-0.8-6.3-1.6-8.6c-0.9-2.3-2.1-4.3-4.1-6.2c-2-2-3.9-3.2-6.2-4.1c-2.2-0.9-4.8-1.5-8.6-1.6
			C112.1-70.4,110.9-70.5,101.4-70.5z M101.4-64.1c9.4,0,10.5,0,14.2,0.2c3.4,0.2,5.3,0.7,6.5,1.2c1.6,0.6,2.8,1.4,4.1,2.6
			c1.2,1.2,2,2.4,2.6,4.1c0.5,1.2,1.1,3.1,1.2,6.5c0.2,3.7,0.2,4.8,0.2,14.2s0,10.5-0.2,14.2c-0.2,3.4-0.7,5.3-1.2,6.5
			c-0.6,1.6-1.4,2.8-2.6,4.1s-2.4,2-4.1,2.6c-1.2,0.5-3.1,1.1-6.5,1.2c-3.7,0.2-4.8,0.2-14.2,0.2s-10.5,0-14.2-0.2
			c-3.4-0.2-5.3-0.7-6.5-1.2c-1.6-0.6-2.8-1.4-4.1-2.6c-1.2-1.2-2-2.4-2.6-4.1c-0.5-1.2-1.1-3.1-1.2-6.5c-0.2-3.7-0.2-4.8-0.2-14.2
			s0-10.5,0.2-14.2c0.2-3.4,0.7-5.3,1.2-6.5c0.6-1.6,1.4-2.8,2.6-4.1c1.2-1.2,2.4-2,4.1-2.6c1.2-0.5,3.1-1.1,6.5-1.2
			C90.8-64.1,91.9-64.1,101.4-64.1z M101.4-23.5c-6.5,0-11.7-5.3-11.7-11.7S94.9-47,101.4-47c6.5,0,11.7,5.3,11.7,11.7
			S107.8-23.5,101.4-23.5z M101.4-53.3c-10,0-18.1,8.1-18.1,18.1c0,10,8.1,18.1,18.1,18.1c10,0,18.1-8.1,18.1-18.1
			C119.5-45.2,111.3-53.3,101.4-53.3z M124.4-54c0,2.3-1.9,4.2-4.2,4.2s-4.2-1.9-4.2-4.2s1.9-4.2,4.2-4.2
			C122.5-58.3,124.4-56.4,124.4-54z"/>
	</g>
	<g id="Heavy-L" transform="matrix(1 0 0 1 2539.2 1556)">
		<path class="st9" d="M98.5-70.5c-9.6,0-10.8,0-14.5,0.2c-3.8,0.2-6.3,0.8-8.6,1.6c-2.3,0.9-4.3,2.1-6.2,4.1c-2,2-3.2,3.9-4.1,6.2
			c-0.9,2.2-1.5,4.8-1.6,8.6c-0.2,3.8-0.2,5-0.2,14.5c0,9.6,0,10.8,0.2,14.5c0.2,3.8,0.8,6.3,1.6,8.6c0.9,2.3,2.1,4.3,4.1,6.2
			c2,2,3.9,3.2,6.2,4.1C77.7-1,80.2-0.4,84-0.2C87.7,0,88.9,0,98.5,0c9.6,0,10.8,0,14.5-0.2c3.8-0.2,6.3-0.8,8.6-1.6
			c2.3-0.9,4.3-2.1,6.2-4.1c2-2,3.2-3.9,4.1-6.2c0.9-2.2,1.5-4.8,1.6-8.6c0.2-3.8,0.2-5,0.2-14.5c0-9.6,0-10.8-0.2-14.5
			c-0.2-3.8-0.8-6.3-1.6-8.6c-0.9-2.3-2.1-4.3-4.1-6.2c-2-2-3.9-3.2-6.2-4.1c-2.2-0.9-4.8-1.5-8.6-1.6
			C109.3-70.4,108.1-70.5,98.5-70.5z M98.5-64.1c9.4,0,10.5,0,14.2,0.2c3.4,0.2,5.3,0.7,6.5,1.2c1.6,0.6,2.8,1.4,4.1,2.6
			c1.2,1.2,2,2.4,2.6,4.1c0.5,1.2,1.1,3.1,1.2,6.5c0.2,3.7,0.2,4.8,0.2,14.2s0,10.5-0.2,14.2c-0.2,3.4-0.7,5.3-1.2,6.5
			c-0.6,1.6-1.4,2.8-2.6,4.1s-2.4,2-4.1,2.6c-1.2,0.5-3.1,1.1-6.5,1.2c-3.7,0.2-4.8,0.2-14.2,0.2S88-6.4,84.3-6.5
			c-3.4-0.2-5.3-0.7-6.5-1.2c-1.6-0.6-2.8-1.4-4.1-2.6c-1.2-1.2-2-2.4-2.6-4.1c-0.5-1.2-1.1-3.1-1.2-6.5c-0.2-3.7-0.2-4.8-0.2-14.2
			s0-10.5,0.2-14.2c0.2-3.4,0.7-5.3,1.2-6.5c0.6-1.6,1.4-2.8,2.6-4.1c1.2-1.2,2.4-2,4.1-2.6c1.2-0.5,3.1-1.1,6.5-1.2
			C88-64.1,89.1-64.1,98.5-64.1z M98.5-23.5c-6.5,0-11.7-5.3-11.7-11.7S92-47,98.5-47c6.5,0,11.7,5.3,11.7,11.7S105-23.5,98.5-23.5z
			 M98.5-53.3c-10,0-18.1,8.1-18.1,18.1c0,10,8.1,18.1,18.1,18.1c10,0,18.1-8.1,18.1-18.1C116.6-45.2,108.5-53.3,98.5-53.3z
			 M121.5-54c0,2.3-1.9,4.2-4.2,4.2s-4.2-1.9-4.2-4.2s1.9-4.2,4.2-4.2C119.6-58.3,121.5-56.4,121.5-54z"/>
	</g>
	<g id="Bold-L" transform="matrix(1 0 0 1 2245.69 1556)">
		<path class="st10" d="M95.3-70.5c-9.6,0-10.8,0-14.5,0.2c-3.8,0.2-6.3,0.8-8.6,1.6c-2.3,0.9-4.3,2.1-6.2,4.1c-2,2-3.2,3.9-4.1,6.2
			c-0.9,2.2-1.5,4.8-1.6,8.6c-0.2,3.8-0.2,5-0.2,14.5c0,9.6,0,10.8,0.2,14.5c0.2,3.8,0.8,6.3,1.6,8.6C62.8-9.8,64-7.9,66-5.9
			c2,2,3.9,3.2,6.2,4.1C74.5-1,77-0.4,80.8-0.2C84.5,0,85.7,0,95.3,0c9.6,0,10.8,0,14.5-0.2c3.8-0.2,6.3-0.8,8.6-1.6
			c2.3-0.9,4.3-2.1,6.2-4.1c2-2,3.2-3.9,4.1-6.2c0.9-2.2,1.5-4.8,1.6-8.6c0.2-3.8,0.2-5,0.2-14.5c0-9.6,0-10.8-0.2-14.5
			c-0.2-3.8-0.8-6.3-1.6-8.6c-0.9-2.3-2.1-4.3-4.1-6.2c-2-2-3.9-3.2-6.2-4.1c-2.2-0.9-4.8-1.5-8.6-1.6
			C106.1-70.4,104.9-70.5,95.3-70.5z M95.3-64.1c9.4,0,10.5,0,14.2,0.2c3.4,0.2,5.3,0.7,6.5,1.2c1.6,0.6,2.8,1.4,4.1,2.6
			c1.2,1.2,2,2.4,2.6,4.1c0.5,1.2,1.1,3.1,1.2,6.5c0.2,3.7,0.2,4.8,0.2,14.2s0,10.5-0.2,14.2c-0.2,3.4-0.7,5.3-1.2,6.5
			c-0.6,1.6-1.4,2.8-2.6,4.1s-2.4,2-4.1,2.6c-1.2,0.5-3.1,1.1-6.5,1.2c-3.7,0.2-4.8,0.2-14.2,0.2S84.8-6.4,81-6.5
			c-3.4-0.2-5.3-0.7-6.5-1.2c-1.6-0.6-2.8-1.4-4.1-2.6c-1.2-1.2-2-2.4-2.6-4.1c-0.5-1.2-1.1-3.1-1.2-6.5c-0.2-3.7-0.2-4.8-0.2-14.2
			s0-10.5,0.2-14.2c0.2-3.4,0.7-5.3,1.2-6.5c0.6-1.6,1.4-2.8,2.6-4.1c1.2-1.2,2.4-2,4.1-2.6c1.2-0.5,3.1-1.1,6.5-1.2
			C84.8-64.1,85.9-64.1,95.3-64.1z M95.3-23.5c-6.5,0-11.7-5.3-11.7-11.7S88.8-47,95.3-47c6.5,0,11.7,5.3,11.7,11.7
			S101.8-23.5,95.3-23.5z M95.3-53.3c-10,0-18.1,8.1-18.1,18.1c0,10,8.1,18.1,18.1,18.1c10,0,18.1-8.1,18.1-18.1
			C113.4-45.2,105.3-53.3,95.3-53.3z M118.3-54c0,2.3-1.9,4.2-4.2,4.2s-4.2-1.9-4.2-4.2s1.9-4.2,4.2-4.2
			C116.4-58.3,118.3-56.4,118.3-54z"/>
	</g>
	<g id="Semibold-L" transform="matrix(1 0 0 1 1951.2 1556)">
		<path class="st11" d="M90.8-70.5c-9.6,0-10.8,0-14.5,0.2c-3.8,0.2-6.3,0.8-8.6,1.6c-2.3,0.9-4.3,2.1-6.2,4.1c-2,2-3.2,3.9-4.1,6.2
			c-0.9,2.2-1.5,4.8-1.6,8.6c-0.2,3.8-0.2,5-0.2,14.5c0,9.6,0,10.8,0.2,14.5c0.2,3.8,0.8,6.3,1.6,8.6c0.9,2.3,2.1,4.3,4.1,6.2
			c2,2,3.9,3.2,6.2,4.1c2.2,0.9,4.8,1.5,8.6,1.6C80,0,81.2,0,90.8,0c9.6,0,10.8,0,14.5-0.2c3.8-0.2,6.3-0.8,8.6-1.6
			c2.3-0.9,4.3-2.1,6.2-4.1c2-2,3.2-3.9,4.1-6.2c0.9-2.2,1.5-4.8,1.6-8.6c0.2-3.8,0.2-5,0.2-14.5c0-9.6,0-10.8-0.2-14.5
			c-0.2-3.8-0.8-6.3-1.6-8.6c-0.9-2.3-2.1-4.3-4.1-6.2c-2-2-3.9-3.2-6.2-4.1c-2.2-0.9-4.8-1.5-8.6-1.6
			C101.6-70.4,100.4-70.5,90.8-70.5z M90.8-64.1c9.4,0,10.5,0,14.2,0.2c3.4,0.2,5.3,0.7,6.5,1.2c1.6,0.6,2.8,1.4,4.1,2.6
			c1.2,1.2,2,2.4,2.6,4.1c0.5,1.2,1.1,3.1,1.2,6.5c0.2,3.7,0.2,4.8,0.2,14.2s0,10.5-0.2,14.2c-0.2,3.4-0.7,5.3-1.2,6.5
			c-0.6,1.6-1.4,2.8-2.6,4.1s-2.4,2-4.1,2.6c-1.2,0.5-3.1,1.1-6.5,1.2c-3.7,0.2-4.8,0.2-14.2,0.2s-10.5,0-14.2-0.2
			c-3.4-0.2-5.3-0.7-6.5-1.2c-1.6-0.6-2.8-1.4-4.1-2.6c-1.2-1.2-2-2.4-2.6-4.1c-0.5-1.2-1.1-3.1-1.2-6.5c-0.2-3.7-0.2-4.8-0.2-14.2
			s0-10.5,0.2-14.2c0.2-3.4,0.7-5.3,1.2-6.5c0.6-1.6,1.4-2.8,2.6-4.1c1.2-1.2,2.4-2,4.1-2.6c1.2-0.5,3.1-1.1,6.5-1.2
			C80.3-64.1,81.4-64.1,90.8-64.1z M90.8-23.5c-6.5,0-11.7-5.3-11.7-11.7S84.3-47,90.8-47c6.5,0,11.7,5.3,11.7,11.7
			S97.3-23.5,90.8-23.5z M90.8-53.3c-10,0-18.1,8.1-18.1,18.1c0,10,8.1,18.1,18.1,18.1c10,0,18.1-8.1,18.1-18.1
			C108.9-45.2,100.8-53.3,90.8-53.3z M113.8-54c0,2.3-1.9,4.2-4.2,4.2c-2.3,0-4.2-1.9-4.2-4.2s1.9-4.2,4.2-4.2
			C111.9-58.3,113.8-56.4,113.8-54z"/>
	</g>
	<g id="Medium-L" transform="matrix(1 0 0 1 1656.15 1556)">
		<path class="st12" d="M91.4-70.5c-9.6,0-10.8,0-14.5,0.2c-3.8,0.2-6.3,0.8-8.6,1.6c-2.3,0.9-4.3,2.1-6.2,4.1c-2,2-3.2,3.9-4.1,6.2
			c-0.9,2.2-1.5,4.8-1.6,8.6c-0.2,3.8-0.2,5-0.2,14.5c0,9.6,0,10.8,0.2,14.5c0.2,3.8,0.8,6.3,1.6,8.6c0.9,2.3,2.1,4.3,4.1,6.2
			c2,2,3.9,3.2,6.2,4.1c2.2,0.9,4.8,1.5,8.6,1.6C80.6,0,81.8,0,91.4,0c9.6,0,10.8,0,14.5-0.2c3.8-0.2,6.3-0.8,8.6-1.6
			c2.3-0.9,4.3-2.1,6.2-4.1c2-2,3.2-3.9,4.1-6.2c0.9-2.2,1.5-4.8,1.6-8.6c0.2-3.8,0.2-5,0.2-14.5c0-9.6,0-10.8-0.2-14.5
			c-0.2-3.8-0.8-6.3-1.6-8.6c-0.9-2.3-2.1-4.3-4.1-6.2c-2-2-3.9-3.2-6.2-4.1c-2.2-0.9-4.8-1.5-8.6-1.6
			C102.2-70.4,101-70.5,91.4-70.5z M91.4-64.1c9.4,0,10.5,0,14.2,0.2c3.4,0.2,5.3,0.7,6.5,1.2c1.6,0.6,2.8,1.4,4.1,2.6
			c1.2,1.2,2,2.4,2.6,4.1c0.5,1.2,1.1,3.1,1.2,6.5c0.2,3.7,0.2,4.8,0.2,14.2s0,10.5-0.2,14.2c-0.2,3.4-0.7,5.3-1.2,6.5
			c-0.6,1.6-1.4,2.8-2.6,4.1s-2.4,2-4.1,2.6c-1.2,0.5-3.1,1.1-6.5,1.2c-3.7,0.2-4.8,0.2-14.2,0.2s-10.5,0-14.2-0.2
			c-3.4-0.2-5.3-0.7-6.5-1.2c-1.6-0.6-2.8-1.4-4.1-2.6c-1.2-1.2-2-2.4-2.6-4.1c-0.5-1.2-1.1-3.1-1.2-6.5c-0.2-3.7-0.2-4.8-0.2-14.2
			s0-10.5,0.2-14.2c0.2-3.4,0.7-5.3,1.2-6.5c0.6-1.6,1.4-2.8,2.6-4.1c1.2-1.2,2.4-2,4.1-2.6c1.2-0.5,3.1-1.1,6.5-1.2
			C80.9-64.1,82-64.1,91.4-64.1z M91.4-23.5c-6.5,0-11.7-5.3-11.7-11.7S84.9-47,91.4-47s11.7,5.3,11.7,11.7S97.9-23.5,91.4-23.5z
			 M91.4-53.3c-10,0-18.1,8.1-18.1,18.1c0,10,8.1,18.1,18.1,18.1c10,0,18.1-8.1,18.1-18.1C109.5-45.2,101.4-53.3,91.4-53.3z
			 M114.4-54c0,2.3-1.9,4.2-4.2,4.2c-2.3,0-4.2-1.9-4.2-4.2s1.9-4.2,4.2-4.2C112.5-58.3,114.4-56.4,114.4-54z"/>
	</g>
	<g id="Regular-L" transform="matrix(1 0 0 1 1361.64 1556)">
		<path class="st13" d="M89.2-70.5c-9.6,0-10.8,0-14.5,0.2c-3.8,0.2-6.3,0.8-8.6,1.6c-2.3,0.9-4.3,2.1-6.2,4.1c-2,2-3.2,3.9-4.1,6.2
			c-0.9,2.2-1.5,4.8-1.6,8.6C54-46,54-44.8,54-35.2c0,9.6,0,10.8,0.2,14.5c0.2,3.8,0.8,6.3,1.6,8.6c0.9,2.3,2.1,4.3,4.1,6.2
			c2,2,3.9,3.2,6.2,4.1c2.2,0.9,4.8,1.5,8.6,1.6C78.4,0,79.6,0,89.2,0c9.6,0,10.8,0,14.5-0.2c3.8-0.2,6.3-0.8,8.6-1.6
			c2.3-0.9,4.3-2.1,6.2-4.1c2-2,3.2-3.9,4.1-6.2c0.9-2.2,1.5-4.8,1.6-8.6c0.2-3.8,0.2-5,0.2-14.5c0-9.6,0-10.8-0.2-14.5
			c-0.2-3.8-0.8-6.3-1.6-8.6c-0.9-2.3-2.1-4.3-4.1-6.2c-2-2-3.9-3.2-6.2-4.1c-2.2-0.9-4.8-1.5-8.6-1.6C100-70.4,98.8-70.5,89.2-70.5
			z M89.2-64.1c9.4,0,10.5,0,14.2,0.2c3.4,0.2,5.3,0.7,6.5,1.2c1.6,0.6,2.8,1.4,4.1,2.6c1.2,1.2,2,2.4,2.6,4.1
			c0.5,1.2,1.1,3.1,1.2,6.5c0.2,3.7,0.2,4.8,0.2,14.2s0,10.5-0.2,14.2c-0.2,3.4-0.7,5.3-1.2,6.5c-0.6,1.6-1.4,2.8-2.6,4.1
			s-2.4,2-4.1,2.6c-1.2,0.5-3.1,1.1-6.5,1.2c-3.7,0.2-4.8,0.2-14.2,0.2S78.7-6.4,75-6.5c-3.4-0.2-5.3-0.7-6.5-1.2
			c-1.6-0.6-2.8-1.4-4.1-2.6c-1.2-1.2-2-2.4-2.6-4.1c-0.5-1.2-1.1-3.1-1.2-6.5c-0.2-3.7-0.2-4.8-0.2-14.2s0-10.5,0.2-14.2
			c0.2-3.4,0.7-5.3,1.2-6.5c0.6-1.6,1.4-2.8,2.6-4.1c1.2-1.2,2.4-2,4.1-2.6c1.2-0.5,3.1-1.1,6.5-1.2C78.7-64.1,79.8-64.1,89.2-64.1z
			 M89.2-23.5c-6.5,0-11.7-5.3-11.7-11.7S82.7-47,89.2-47c6.5,0,11.7,5.3,11.7,11.7S95.7-23.5,89.2-23.5z M89.2-53.3
			c-10,0-18.1,8.1-18.1,18.1c0,10,8.1,18.1,18.1,18.1c10,0,18.1-8.1,18.1-18.1C107.3-45.2,99.2-53.3,89.2-53.3z M112.2-54
			c0,2.3-1.9,4.2-4.2,4.2s-4.2-1.9-4.2-4.2s1.9-4.2,4.2-4.2C110.3-58.3,112.2-56.4,112.2-54z"/>
	</g>
	<g id="Light-L" transform="matrix(1 0 0 1 1067.42 1556)">
		<path class="st14" d="M105.3-70.5c-9.6,0-10.8,0-14.5,0.2c-3.8,0.2-6.3,0.8-8.6,1.6c-2.3,0.9-4.3,2.1-6.2,4.1
			c-2,2-3.2,3.9-4.1,6.2c-0.9,2.2-1.5,4.8-1.6,8.6c-0.2,3.8-0.2,5-0.2,14.5c0,9.6,0,10.8,0.2,14.5c0.2,3.8,0.8,6.3,1.6,8.6
			C72.8-9.8,74-7.9,76-5.9c2,2,3.9,3.2,6.2,4.1C84.4-1,87-0.4,90.8-0.2C94.5,0,95.7,0,105.3,0c9.6,0,10.8,0,14.5-0.2
			c3.8-0.2,6.3-0.8,8.6-1.6c2.3-0.9,4.3-2.1,6.2-4.1c2-2,3.2-3.9,4.1-6.2c0.9-2.2,1.5-4.8,1.6-8.6c0.2-3.8,0.2-5,0.2-14.5
			c0-9.6,0-10.8-0.2-14.5c-0.2-3.8-0.8-6.3-1.6-8.6c-0.9-2.3-2.1-4.3-4.1-6.2c-2-2-3.9-3.2-6.2-4.1c-2.2-0.9-4.8-1.5-8.6-1.6
			C116-70.4,114.8-70.5,105.3-70.5z M105.3-64.1c9.4,0,10.5,0,14.2,0.2c3.4,0.2,5.3,0.7,6.5,1.2c1.6,0.6,2.8,1.4,4.1,2.6
			c1.2,1.2,2,2.4,2.6,4.1c0.5,1.2,1.1,3.1,1.2,6.5c0.2,3.7,0.2,4.8,0.2,14.2s0,10.5-0.2,14.2c-0.2,3.4-0.7,5.3-1.2,6.5
			c-0.6,1.6-1.4,2.8-2.6,4.1c-1.2,1.2-2.4,2-4.1,2.6c-1.2,0.5-3.1,1.1-6.5,1.2c-3.7,0.2-4.8,0.2-14.2,0.2S94.8-6.4,91-6.5
			c-3.4-0.2-5.3-0.7-6.5-1.2c-1.6-0.6-2.8-1.4-4.1-2.6c-1.2-1.2-2-2.4-2.6-4.1c-0.5-1.2-1.1-3.1-1.2-6.5c-0.2-3.7-0.2-4.8-0.2-14.2
			s0-10.5,0.2-14.2c0.2-3.4,0.7-5.3,1.2-6.5c0.6-1.6,1.4-2.8,2.6-4.1c1.2-1.2,2.4-2,4.1-2.6c1.2-0.5,3.1-1.1,6.5-1.2
			C94.8-64.1,95.9-64.1,105.3-64.1z M105.3-23.5c-6.5,0-11.7-5.3-11.7-11.7S98.8-47,105.3-47c6.5,0,11.7,5.3,11.7,11.7
			S111.8-23.5,105.3-23.5z M105.3-53.3c-10,0-18.1,8.1-18.1,18.1c0,10,8.1,18.1,18.1,18.1c10,0,18.1-8.1,18.1-18.1
			C123.4-45.2,115.3-53.3,105.3-53.3z M128.3-54c0,2.3-1.9,4.2-4.2,4.2c-2.3,0-4.2-1.9-4.2-4.2s1.9-4.2,4.2-4.2
			C126.4-58.3,128.3-56.4,128.3-54z"/>
	</g>
	<g id="Thin-L" transform="matrix(1 0 0 1 774 1556)">
		<path class="st15" d="M83.4-70.5c-9.6,0-10.8,0-14.5,0.2c-3.8,0.2-6.3,0.8-8.6,1.6c-2.3,0.9-4.3,2.1-6.2,4.1c-2,2-3.2,3.9-4.1,6.2
			c-0.9,2.2-1.5,4.8-1.6,8.6c-0.2,3.8-0.2,5-0.2,14.5c0,9.6,0,10.8,0.2,14.5c0.2,3.8,0.8,6.3,1.6,8.6c0.9,2.3,2.1,4.3,4.1,6.2
			c2,2,3.9,3.2,6.2,4.1c2.2,0.9,4.8,1.5,8.6,1.6C72.7,0,73.9,0,83.4,0C93,0,94.2,0,98-0.2c3.8-0.2,6.3-0.8,8.6-1.6
			c2.3-0.9,4.3-2.1,6.2-4.1c2-2,3.2-3.9,4.1-6.2c0.9-2.2,1.5-4.8,1.6-8.6c0.2-3.8,0.2-5,0.2-14.5c0-9.6,0-10.8-0.2-14.5
			c-0.2-3.8-0.8-6.3-1.6-8.6c-0.9-2.3-2.1-4.3-4.1-6.2c-2-2-3.9-3.2-6.2-4.1c-2.2-0.9-4.8-1.5-8.6-1.6C94.2-70.4,93-70.5,83.4-70.5z
			 M83.4-64.1c9.4,0,10.5,0,14.2,0.2c3.4,0.2,5.3,0.7,6.5,1.2c1.6,0.6,2.8,1.4,4.1,2.6c1.2,1.2,2,2.4,2.6,4.1
			c0.5,1.2,1.1,3.1,1.2,6.5c0.2,3.7,0.2,4.8,0.2,14.2s0,10.5-0.2,14.2c-0.2,3.4-0.7,5.3-1.2,6.5c-0.6,1.6-1.4,2.8-2.6,4.1
			s-2.4,2-4.1,2.6c-1.2,0.5-3.1,1.1-6.5,1.2C94-6.4,92.9-6.3,83.4-6.3s-10.5,0-14.2-0.2c-3.4-0.2-5.3-0.7-6.5-1.2
			c-1.6-0.6-2.8-1.4-4.1-2.6c-1.2-1.2-2-2.4-2.6-4.1c-0.5-1.2-1.1-3.1-1.2-6.5c-0.2-3.7-0.2-4.8-0.2-14.2s0-10.5,0.2-14.2
			c0.2-3.4,0.7-5.3,1.2-6.5c0.6-1.6,1.4-2.8,2.6-4.1c1.2-1.2,2.4-2,4.1-2.6c1.2-0.5,3.1-1.1,6.5-1.2C72.9-64.1,74-64.1,83.4-64.1z
			 M83.4-23.5c-6.5,0-11.7-5.3-11.7-11.7S77-47,83.4-47c6.5,0,11.7,5.3,11.7,11.7S89.9-23.5,83.4-23.5z M83.4-53.3
			c-10,0-18.1,8.1-18.1,18.1c0,10,8.1,18.1,18.1,18.1c10,0,18.1-8.1,18.1-18.1C101.5-45.2,93.4-53.3,83.4-53.3z M106.5-54
			c0,2.3-1.9,4.2-4.2,4.2S98-51.7,98-54s1.9-4.2,4.2-4.2C104.6-58.3,106.5-56.4,106.5-54z"/>
	</g>
	<g id="Ultralight-L" transform="matrix(1 0 0 1 478.974 1556)">
		<path d="M81.8-70.5c-9.6,0-10.8,0-14.5,0.2c-3.8,0.2-6.3,0.8-8.6,1.6c-2.3,0.9-4.3,2.1-6.2,4.1c-2,2-3.2,3.9-4.1,6.2
			c-0.9,2.2-1.5,4.8-1.6,8.6c-0.2,3.8-0.2,5-0.2,14.5c0,9.6,0,10.8,0.2,14.5c0.2,3.8,0.8,6.3,1.6,8.6c0.9,2.3,2.1,4.3,4.1,6.2
			c2,2,3.9,3.2,6.2,4.1c2.2,0.9,4.8,1.5,8.6,1.6C71,0,72.2,0,81.8,0c9.6,0,10.8,0,14.5-0.2c3.8-0.2,6.3-0.8,8.6-1.6
			c2.3-0.9,4.3-2.1,6.2-4.1c2-2,3.2-3.9,4.1-6.2c0.9-2.2,1.5-4.8,1.6-8.6c0.2-3.8,0.2-5,0.2-14.5c0-9.6,0-10.8-0.2-14.5
			c-0.2-3.8-0.8-6.3-1.6-8.6c-0.9-2.3-2.1-4.3-4.1-6.2c-2-2-3.9-3.2-6.2-4.1c-2.2-0.9-4.8-1.5-8.6-1.6
			C92.5-70.4,91.3-70.5,81.8-70.5z M81.8-64.1c9.4,0,10.5,0,14.2,0.2c3.4,0.2,5.3,0.7,6.5,1.2c1.6,0.6,2.8,1.4,4.1,2.6
			c1.2,1.2,2,2.4,2.6,4.1c0.5,1.2,1.1,3.1,1.2,6.5c0.2,3.7,0.2,4.8,0.2,14.2s0,10.5-0.2,14.2c-0.2,3.4-0.7,5.3-1.2,6.5
			c-0.6,1.6-1.4,2.8-2.6,4.1s-2.4,2-4.1,2.6c-1.2,0.5-3.1,1.1-6.5,1.2c-3.7,0.2-4.8,0.2-14.2,0.2s-10.5,0-14.2-0.2
			c-3.4-0.2-5.3-0.7-6.5-1.2c-1.6-0.6-2.8-1.4-4.1-2.6s-2-2.4-2.6-4.1c-0.5-1.2-1.1-3.1-1.2-6.5c-0.2-3.7-0.2-4.8-0.2-14.2
			s0-10.5,0.2-14.2c0.2-3.4,0.7-5.3,1.2-6.5c0.6-1.6,1.4-2.8,2.6-4.1c1.2-1.2,2.4-2,4.1-2.6c1.2-0.5,3.1-1.1,6.5-1.2
			C71.2-64.1,72.3-64.1,81.8-64.1z M81.8-23.5c-6.5,0-11.7-5.3-11.7-11.7S75.3-47,81.8-47s11.7,5.3,11.7,11.7S88.2-23.5,81.8-23.5z
			 M81.8-53.3c-10,0-18.1,8.1-18.1,18.1c0,10,8.1,18.1,18.1,18.1c10,0,18.1-8.1,18.1-18.1C99.9-45.2,91.7-53.3,81.8-53.3z M104.8-54
			c0,2.3-1.9,4.2-4.2,4.2c-2.3,0-4.2-1.9-4.2-4.2s1.9-4.2,4.2-4.2C102.9-58.3,104.8-56.4,104.8-54z"/>
	</g>
	<g id="Black-M" transform="matrix(1 0 0 1 2853.1 1126)">
		<path class="st8" d="M81.3-70.5c-9.6,0-10.8,0-14.5,0.2c-3.8,0.2-6.3,0.8-8.6,1.6c-2.3,0.9-4.3,2.1-6.2,4.1c-2,2-3.2,3.9-4.1,6.2
			c-0.9,2.2-1.5,4.8-1.6,8.6c-0.2,3.8-0.2,5-0.2,14.5c0,9.6,0,10.8,0.2,14.5c0.2,3.8,0.8,6.3,1.6,8.6C48.8-9.8,50-7.9,52-5.9
			c2,2,3.9,3.2,6.2,4.1C60.5-1,63-0.4,66.8-0.2C70.5,0,71.7,0,81.3,0c9.6,0,10.8,0,14.5-0.2c3.8-0.2,6.3-0.8,8.6-1.6
			c2.3-0.9,4.3-2.1,6.2-4.1c2-2,3.2-3.9,4.1-6.2c0.9-2.2,1.5-4.8,1.6-8.6c0.2-3.8,0.2-5,0.2-14.5c0-9.6,0-10.8-0.2-14.5
			c-0.2-3.8-0.8-6.3-1.6-8.6c-0.9-2.3-2.1-4.3-4.1-6.2c-2-2-3.9-3.2-6.2-4.1c-2.2-0.9-4.8-1.5-8.6-1.6
			C92.1-70.4,90.9-70.5,81.3-70.5z M81.3-64.1c9.4,0,10.5,0,14.2,0.2c3.4,0.2,5.3,0.7,6.5,1.2c1.6,0.6,2.8,1.4,4.1,2.6
			c1.2,1.2,2,2.4,2.6,4.1c0.5,1.2,1.1,3.1,1.2,6.5c0.2,3.7,0.2,4.8,0.2,14.2s0,10.5-0.2,14.2c-0.2,3.4-0.7,5.3-1.2,6.5
			c-0.6,1.6-1.4,2.8-2.6,4.1s-2.4,2-4.1,2.6c-1.2,0.5-3.1,1.1-6.5,1.2c-3.7,0.2-4.8,0.2-14.2,0.2s-10.5,0-14.2-0.2
			c-3.4-0.2-5.3-0.7-6.5-1.2c-1.6-0.6-2.8-1.4-4.1-2.6s-2-2.4-2.6-4.1c-0.5-1.2-1.1-3.1-1.2-6.5c-0.2-3.7-0.2-4.8-0.2-14.2
			s0-10.5,0.2-14.2c0.2-3.4,0.7-5.3,1.2-6.5c0.6-1.6,1.4-2.8,2.6-4.1c1.2-1.2,2.4-2,4.1-2.6c1.2-0.5,3.1-1.1,6.5-1.2
			C70.8-64.1,71.9-64.1,81.3-64.1z M81.3-23.5c-6.5,0-11.7-5.3-11.7-11.7S74.8-47,81.3-47s11.7,5.3,11.7,11.7S87.8-23.5,81.3-23.5z
			 M81.3-53.3c-10,0-18.1,8.1-18.1,18.1c0,10,8.1,18.1,18.1,18.1c10,0,18.1-8.1,18.1-18.1C99.4-45.2,91.3-53.3,81.3-53.3z M104.4-54
			c0,2.3-1.9,4.2-4.2,4.2s-4.2-1.9-4.2-4.2s1.9-4.2,4.2-4.2C102.5-58.3,104.4-56.4,104.4-54z"/>
	</g>
	<g id="Heavy-M" transform="matrix(1 0 0 1 2558.88 1126)">
		<path class="st9" d="M78.8-70.5c-9.6,0-10.8,0-14.5,0.2c-3.8,0.2-6.3,0.8-8.6,1.6c-2.3,0.9-4.3,2.1-6.2,4.1c-2,2-3.2,3.9-4.1,6.2
			c-0.9,2.2-1.5,4.8-1.6,8.6c-0.2,3.8-0.2,5-0.2,14.5c0,9.6,0,10.8,0.2,14.5c0.2,3.8,0.8,6.3,1.6,8.6c0.9,2.3,2.1,4.3,4.1,6.2
			c2,2,3.9,3.2,6.2,4.1C58-1,60.5-0.4,64.3-0.2C68,0,69.2,0,78.8,0c9.6,0,10.8,0,14.5-0.2c3.8-0.2,6.3-0.8,8.6-1.6
			c2.3-0.9,4.3-2.1,6.2-4.1c2-2,3.2-3.9,4.1-6.2c0.9-2.2,1.5-4.8,1.6-8.6c0.2-3.8,0.2-5,0.2-14.5c0-9.6,0-10.8-0.2-14.5
			c-0.2-3.8-0.8-6.3-1.6-8.6c-0.9-2.3-2.1-4.3-4.1-6.2c-2-2-3.9-3.2-6.2-4.1c-2.2-0.9-4.8-1.5-8.6-1.6
			C89.6-70.4,88.4-70.5,78.8-70.5z M78.8-64.1c9.4,0,10.5,0,14.2,0.2c3.4,0.2,5.3,0.7,6.5,1.2c1.6,0.6,2.8,1.4,4.1,2.6
			c1.2,1.2,2,2.4,2.6,4.1c0.5,1.2,1.1,3.1,1.2,6.5c0.2,3.7,0.2,4.8,0.2,14.2s0,10.5-0.2,14.2c-0.2,3.4-0.7,5.3-1.2,6.5
			c-0.6,1.6-1.4,2.8-2.6,4.1s-2.4,2-4.1,2.6c-1.2,0.5-3.1,1.1-6.5,1.2c-3.7,0.2-4.8,0.2-14.2,0.2s-10.5,0-14.2-0.2
			c-3.4-0.2-5.3-0.7-6.5-1.2c-1.6-0.6-2.8-1.4-4.1-2.6s-2-2.4-2.6-4.1c-0.5-1.2-1.1-3.1-1.2-6.5c-0.2-3.7-0.2-4.8-0.2-14.2
			s0-10.5,0.2-14.2c0.2-3.4,0.7-5.3,1.2-6.5c0.6-1.6,1.4-2.8,2.6-4.1c1.2-1.2,2.4-2,4.1-2.6c1.2-0.5,3.1-1.1,6.5-1.2
			C68.3-64.1,69.4-64.1,78.8-64.1z M78.8-23.5c-6.5,0-11.7-5.3-11.7-11.7S72.3-47,78.8-47s11.7,5.3,11.7,11.7S85.3-23.5,78.8-23.5z
			 M78.8-53.3c-10,0-18.1,8.1-18.1,18.1c0,10,8.1,18.1,18.1,18.1c10,0,18.1-8.1,18.1-18.1C96.9-45.2,88.8-53.3,78.8-53.3z M101.9-54
			c0,2.3-1.9,4.2-4.2,4.2c-2.3,0-4.2-1.9-4.2-4.2s1.9-4.2,4.2-4.2C100-58.3,101.9-56.4,101.9-54z"/>
	</g>
	<g id="Bold-M" transform="matrix(1 0 0 1 2264.93 1126)">
		<path class="st10" d="M76-70.5c-9.6,0-10.8,0-14.5,0.2c-3.8,0.2-6.3,0.8-8.6,1.6c-2.3,0.9-4.3,2.1-6.2,4.1c-2,2-3.2,3.9-4.1,6.2
			c-0.9,2.2-1.5,4.8-1.6,8.6c-0.2,3.8-0.2,5-0.2,14.5c0,9.6,0,10.8,0.2,14.5c0.2,3.8,0.8,6.3,1.6,8.6c0.9,2.3,2.1,4.3,4.1,6.2
			c2,2,3.9,3.2,6.2,4.1c2.2,0.9,4.8,1.5,8.6,1.6C65.3,0,66.5,0,76,0c9.6,0,10.8,0,14.5-0.2c3.8-0.2,6.3-0.8,8.6-1.6
			c2.3-0.9,4.3-2.1,6.2-4.1c2-2,3.2-3.9,4.1-6.2c0.9-2.2,1.5-4.8,1.6-8.6c0.2-3.8,0.2-5,0.2-14.5c0-9.6,0-10.8-0.2-14.5
			c-0.2-3.8-0.8-6.3-1.6-8.6c-0.9-2.3-2.1-4.3-4.1-6.2c-2-2-3.9-3.2-6.2-4.1c-2.2-0.9-4.8-1.5-8.6-1.6C86.8-70.4,85.6-70.5,76-70.5z
			 M76-64.1c9.4,0,10.5,0,14.2,0.2c3.4,0.2,5.3,0.7,6.5,1.2c1.6,0.6,2.8,1.4,4.1,2.6c1.2,1.2,2,2.4,2.6,4.1c0.5,1.2,1.1,3.1,1.2,6.5
			c0.2,3.7,0.2,4.8,0.2,14.2s0,10.5-0.2,14.2c-0.2,3.4-0.7,5.3-1.2,6.5c-0.6,1.6-1.4,2.8-2.6,4.1s-2.4,2-4.1,2.6
			c-1.2,0.5-3.1,1.1-6.5,1.2C86.6-6.4,85.5-6.3,76-6.3s-10.5,0-14.2-0.2c-3.4-0.2-5.3-0.7-6.5-1.2c-1.6-0.6-2.8-1.4-4.1-2.6
			s-2-2.4-2.6-4.1c-0.5-1.2-1.1-3.1-1.2-6.5c-0.2-3.7-0.2-4.8-0.2-14.2s0-10.5,0.2-14.2c0.2-3.4,0.7-5.3,1.2-6.5
			c0.6-1.6,1.4-2.8,2.6-4.1c1.2-1.2,2.4-2,4.1-2.6c1.2-0.5,3.1-1.1,6.5-1.2C65.5-64.1,66.6-64.1,76-64.1z M76-23.5
			c-6.5,0-11.7-5.3-11.7-11.7S69.6-47,76-47c6.5,0,11.7,5.3,11.7,11.7S82.5-23.5,76-23.5z M76-53.3c-10,0-18.1,8.1-18.1,18.1
			c0,10,8.1,18.1,18.1,18.1c10,0,18.1-8.1,18.1-18.1C94.1-45.2,86-53.3,76-53.3z M99.1-54c0,2.3-1.9,4.2-4.2,4.2s-4.2-1.9-4.2-4.2
			s1.9-4.2,4.2-4.2C97.2-58.3,99.1-56.4,99.1-54z"/>
	</g>
	<g id="Semibold-M" transform="matrix(1 0 0 1 1970.15 1126)">
		<path class="st11" d="M71.8-70.5c-9.6,0-10.8,0-14.5,0.2c-3.8,0.2-6.3,0.8-8.6,1.6c-2.3,0.9-4.3,2.1-6.2,4.1c-2,2-3.2,3.9-4.1,6.2
			c-0.9,2.2-1.5,4.8-1.6,8.6c-0.2,3.8-0.2,5-0.2,14.5c0,9.6,0,10.8,0.2,14.5c0.2,3.8,0.8,6.3,1.6,8.6c0.9,2.3,2.1,4.3,4.1,6.2
			c2,2,3.9,3.2,6.2,4.1C51-1,53.6-0.4,57.3-0.2C61.1,0,62.3,0,71.8,0c9.6,0,10.8,0,14.5-0.2c3.8-0.2,6.3-0.8,8.6-1.6
			c2.3-0.9,4.3-2.1,6.2-4.1c2-2,3.2-3.9,4.1-6.2c0.9-2.2,1.5-4.8,1.6-8.6c0.2-3.8,0.2-5,0.2-14.5c0-9.6,0-10.8-0.2-14.5
			c-0.2-3.8-0.8-6.3-1.6-8.6c-0.9-2.3-2.1-4.3-4.1-6.2c-2-2-3.9-3.2-6.2-4.1c-2.2-0.9-4.8-1.5-8.6-1.6
			C82.6-70.4,81.4-70.5,71.8-70.5z M71.8-64.1c9.4,0,10.5,0,14.2,0.2c3.4,0.2,5.3,0.7,6.5,1.2c1.6,0.6,2.8,1.4,4.1,2.6
			c1.2,1.2,2,2.4,2.6,4.1c0.5,1.2,1.1,3.1,1.2,6.5c0.2,3.7,0.2,4.8,0.2,14.2s0,10.5-0.2,14.2c-0.2,3.4-0.7,5.3-1.2,6.5
			c-0.6,1.6-1.4,2.8-2.6,4.1s-2.4,2-4.1,2.6c-1.2,0.5-3.1,1.1-6.5,1.2c-3.7,0.2-4.8,0.2-14.2,0.2s-10.5,0-14.2-0.2
			c-3.4-0.2-5.3-0.7-6.5-1.2c-1.6-0.6-2.8-1.4-4.1-2.6s-2-2.4-2.6-4.1c-0.5-1.2-1.1-3.1-1.2-6.5c-0.2-3.7-0.2-4.8-0.2-14.2
			s0-10.5,0.2-14.2c0.2-3.4,0.7-5.3,1.2-6.5c0.6-1.6,1.4-2.8,2.6-4.1c1.2-1.2,2.4-2,4.1-2.6c1.2-0.5,3.1-1.1,6.5-1.2
			C61.3-64.1,62.4-64.1,71.8-64.1z M71.8-23.5c-6.5,0-11.7-5.3-11.7-11.7S65.3-47,71.8-47c6.5,0,11.7,5.3,11.7,11.7
			S78.3-23.5,71.8-23.5z M71.8-53.3c-10,0-18.1,8.1-18.1,18.1c0,10,8.1,18.1,18.1,18.1c10,0,18.1-8.1,18.1-18.1
			C89.9-45.2,81.8-53.3,71.8-53.3z M94.9-54c0,2.3-1.9,4.2-4.2,4.2s-4.2-1.9-4.2-4.2s1.9-4.2,4.2-4.2C93-58.3,94.9-56.4,94.9-54z"/>
	</g>
	<g id="Medium-M" transform="matrix(1 0 0 1 1674.88 1126)">
		<path class="st12" d="M72.7-70.5c-9.6,0-10.8,0-14.5,0.2c-3.8,0.2-6.3,0.8-8.6,1.6c-2.3,0.9-4.3,2.1-6.2,4.1c-2,2-3.2,3.9-4.1,6.2
			c-0.9,2.2-1.5,4.8-1.6,8.6c-0.2,3.8-0.2,5-0.2,14.5c0,9.6,0,10.8,0.2,14.5c0.2,3.8,0.8,6.3,1.6,8.6c0.9,2.3,2.1,4.3,4.1,6.2
			c2,2,3.9,3.2,6.2,4.1c2.2,0.9,4.8,1.5,8.6,1.6C61.9,0,63.1,0,72.7,0c9.6,0,10.8,0,14.5-0.2c3.8-0.2,6.3-0.8,8.6-1.6
			C98.1-2.7,100-4,102-5.9c2-2,3.2-3.9,4.1-6.2c0.9-2.2,1.5-4.8,1.6-8.6c0.2-3.8,0.2-5,0.2-14.5c0-9.6,0-10.8-0.2-14.5
			c-0.2-3.8-0.8-6.3-1.6-8.6c-0.9-2.3-2.1-4.3-4.1-6.2c-2-2-3.9-3.2-6.2-4.1c-2.2-0.9-4.8-1.5-8.6-1.6
			C83.4-70.4,82.2-70.5,72.7-70.5z M72.7-64.1c9.4,0,10.5,0,14.2,0.2c3.4,0.2,5.3,0.7,6.5,1.2c1.6,0.6,2.8,1.4,4.1,2.6
			c1.2,1.2,2,2.4,2.6,4.1c0.5,1.2,1.1,3.1,1.2,6.5c0.2,3.7,0.2,4.8,0.2,14.2s0,10.5-0.2,14.2c-0.2,3.4-0.7,5.3-1.2,6.5
			c-0.6,1.6-1.4,2.8-2.6,4.1c-1.2,1.2-2.4,2-4.1,2.6c-1.2,0.5-3.1,1.1-6.5,1.2c-3.7,0.2-4.8,0.2-14.2,0.2s-10.5,0-14.2-0.2
			c-3.4-0.2-5.3-0.7-6.5-1.2c-1.6-0.6-2.8-1.4-4.1-2.6s-2-2.4-2.6-4.1c-0.5-1.2-1.1-3.1-1.2-6.5c-0.2-3.7-0.2-4.8-0.2-14.2
			s0-10.5,0.2-14.2c0.2-3.4,0.7-5.3,1.2-6.5c0.6-1.6,1.4-2.8,2.6-4.1c1.2-1.2,2.4-2,4.1-2.6c1.2-0.5,3.1-1.1,6.5-1.2
			C62.1-64.1,63.3-64.1,72.7-64.1z M72.7-23.5c-6.5,0-11.7-5.3-11.7-11.7S66.2-47,72.7-47c6.5,0,11.7,5.3,11.7,11.7
			S79.2-23.5,72.7-23.5z M72.7-53.3c-10,0-18.1,8.1-18.1,18.1c0,10,8.1,18.1,18.1,18.1c10,0,18.1-8.1,18.1-18.1
			C90.8-45.2,82.7-53.3,72.7-53.3z M95.7-54c0,2.3-1.9,4.2-4.2,4.2s-4.2-1.9-4.2-4.2s1.9-4.2,4.2-4.2C93.8-58.3,95.7-56.4,95.7-54z"
			/>
	</g>
	<g id="Regular-M" transform="matrix(1 0 0 1 1380.04 1126)">
		<path class="st13" d="M70.8-70.5c-9.6,0-10.8,0-14.5,0.2c-3.8,0.2-6.3,0.8-8.6,1.6c-2.3,0.9-4.3,2.1-6.2,4.1c-2,2-3.2,3.9-4.1,6.2
			c-0.9,2.2-1.5,4.8-1.6,8.6c-0.2,3.8-0.2,5-0.2,14.5c0,9.6,0,10.8,0.2,14.5c0.2,3.8,0.8,6.3,1.6,8.6c0.9,2.3,2.1,4.3,4.1,6.2
			c2,2,3.9,3.2,6.2,4.1C50-1,52.5-0.4,56.3-0.2C60,0,61.2,0,70.8,0c9.6,0,10.8,0,14.5-0.2c3.8-0.2,6.3-0.8,8.6-1.6
			c2.3-0.9,4.3-2.1,6.2-4.1c2-2,3.2-3.9,4.1-6.2c0.9-2.2,1.5-4.8,1.6-8.6c0.2-3.8,0.2-5,0.2-14.5c0-9.6,0-10.8-0.2-14.5
			c-0.2-3.8-0.8-6.3-1.6-8.6c-0.9-2.3-2.1-4.3-4.1-6.2c-2-2-3.9-3.2-6.2-4.1c-2.2-0.9-4.8-1.5-8.6-1.6
			C81.6-70.4,80.4-70.5,70.8-70.5z M70.8-64.1c9.4,0,10.5,0,14.2,0.2c3.4,0.2,5.3,0.7,6.5,1.2c1.6,0.6,2.8,1.4,4.1,2.6
			c1.2,1.2,2,2.4,2.6,4.1c0.5,1.2,1.1,3.1,1.2,6.5c0.2,3.7,0.2,4.8,0.2,14.2s0,10.5-0.2,14.2c-0.2,3.4-0.7,5.3-1.2,6.5
			c-0.6,1.6-1.4,2.8-2.6,4.1c-1.2,1.2-2.4,2-4.1,2.6c-1.2,0.5-3.1,1.1-6.5,1.2c-3.7,0.2-4.8,0.2-14.2,0.2s-10.5,0-14.2-0.2
			c-3.4-0.2-5.3-0.7-6.5-1.2c-1.6-0.6-2.8-1.4-4.1-2.6s-2-2.4-2.6-4.1c-0.5-1.2-1.1-3.1-1.2-6.5c-0.2-3.7-0.2-4.8-0.2-14.2
			s0-10.5,0.2-14.2c0.2-3.4,0.7-5.3,1.2-6.5c0.6-1.6,1.4-2.8,2.6-4.1c1.2-1.2,2.4-2,4.1-2.6c1.2-0.5,3.1-1.1,6.5-1.2
			C60.3-64.1,61.4-64.1,70.8-64.1z M70.8-23.5c-6.5,0-11.7-5.3-11.7-11.7S64.3-47,70.8-47c6.5,0,11.7,5.3,11.7,11.7
			S77.3-23.5,70.8-23.5z M70.8-53.3c-10,0-18.1,8.1-18.1,18.1c0,10,8.1,18.1,18.1,18.1c10,0,18.1-8.1,18.1-18.1
			C88.9-45.2,80.8-53.3,70.8-53.3z M93.8-54c0,2.3-1.9,4.2-4.2,4.2s-4.2-1.9-4.2-4.2s1.9-4.2,4.2-4.2C91.9-58.3,93.8-56.4,93.8-54z"
			/>
	</g>
	<g id="Light-M" transform="matrix(1 0 0 1 1085.58 1126)">
		<path class="st14" d="M87.1-70.5c-9.6,0-10.8,0-14.5,0.2c-3.8,0.2-6.3,0.8-8.6,1.6c-2.3,0.9-4.3,2.1-6.2,4.1c-2,2-3.2,3.9-4.1,6.2
			c-0.9,2.2-1.5,4.8-1.6,8.6c-0.2,3.8-0.2,5-0.2,14.5c0,9.6,0,10.8,0.2,14.5c0.2,3.8,0.8,6.3,1.6,8.6c0.9,2.3,2.1,4.3,4.1,6.2
			c2,2,3.9,3.2,6.2,4.1c2.2,0.9,4.8,1.5,8.6,1.6C76.4,0,77.6,0,87.1,0c9.6,0,10.8,0,14.5-0.2c3.8-0.2,6.3-0.8,8.6-1.6
			c2.3-0.9,4.3-2.1,6.2-4.1c2-2,3.2-3.9,4.1-6.2c0.9-2.2,1.5-4.8,1.6-8.6c0.2-3.8,0.2-5,0.2-14.5c0-9.6,0-10.8-0.2-14.5
			c-0.2-3.8-0.8-6.3-1.6-8.6c-0.9-2.3-2.1-4.3-4.1-6.2c-2-2-3.9-3.2-6.2-4.1c-2.2-0.9-4.8-1.5-8.6-1.6
			C97.9-70.4,96.7-70.5,87.1-70.5z M87.1-64.1c9.4,0,10.5,0,14.2,0.2c3.4,0.2,5.3,0.7,6.5,1.2c1.6,0.6,2.8,1.4,4.1,2.6
			c1.2,1.2,2,2.4,2.6,4.1c0.5,1.2,1.1,3.1,1.2,6.5c0.2,3.7,0.2,4.8,0.2,14.2s0,10.5-0.2,14.2c-0.2,3.4-0.7,5.3-1.2,6.5
			c-0.6,1.6-1.4,2.8-2.6,4.1s-2.4,2-4.1,2.6c-1.2,0.5-3.1,1.1-6.5,1.2c-3.7,0.2-4.8,0.2-14.2,0.2s-10.5,0-14.2-0.2
			c-3.4-0.2-5.3-0.7-6.5-1.2c-1.6-0.6-2.8-1.4-4.1-2.6s-2-2.4-2.6-4.1c-0.5-1.2-1.1-3.1-1.2-6.5c-0.2-3.7-0.2-4.8-0.2-14.2
			s0-10.5,0.2-14.2c0.2-3.4,0.7-5.3,1.2-6.5c0.6-1.6,1.4-2.8,2.6-4.1c1.2-1.2,2.4-2,4.1-2.6c1.2-0.5,3.1-1.1,6.5-1.2
			C76.6-64.1,77.7-64.1,87.1-64.1z M87.1-23.5c-6.5,0-11.7-5.3-11.7-11.7S80.6-47,87.1-47c6.5,0,11.7,5.3,11.7,11.7
			S93.6-23.5,87.1-23.5z M87.1-53.3c-10,0-18.1,8.1-18.1,18.1c0,10,8.1,18.1,18.1,18.1c10,0,18.1-8.1,18.1-18.1
			C105.2-45.2,97.1-53.3,87.1-53.3z M110.2-54c0,2.3-1.9,4.2-4.2,4.2s-4.2-1.9-4.2-4.2s1.9-4.2,4.2-4.2
			C108.3-58.3,110.2-56.4,110.2-54z"/>
	</g>
	<g id="Thin-M" transform="matrix(1 0 0 1 791.847 1126)">
		<path class="st15" d="M65.6-70.5c-9.6,0-10.8,0-14.5,0.2c-3.8,0.2-6.3,0.8-8.6,1.6c-2.3,0.9-4.3,2.1-6.2,4.1c-2,2-3.2,3.9-4.1,6.2
			c-0.9,2.2-1.5,4.8-1.6,8.6c-0.2,3.8-0.2,5-0.2,14.5c0,9.6,0,10.8,0.2,14.5c0.2,3.8,0.8,6.3,1.6,8.6c0.9,2.3,2.1,4.3,4.1,6.2
			c2,2,3.9,3.2,6.2,4.1c2.2,0.9,4.8,1.5,8.6,1.6C54.8,0,56,0,65.6,0c9.6,0,10.8,0,14.5-0.2c3.8-0.2,6.3-0.8,8.6-1.6
			C91-2.7,93-4,94.9-5.9c2-2,3.2-3.9,4.1-6.2c0.9-2.2,1.5-4.8,1.6-8.6c0.2-3.8,0.2-5,0.2-14.5c0-9.6,0-10.8-0.2-14.5
			c-0.2-3.8-0.8-6.3-1.6-8.6c-0.9-2.3-2.1-4.3-4.1-6.2c-2-2-3.9-3.2-6.2-4.1c-2.2-0.9-4.8-1.5-8.6-1.6
			C76.4-70.4,75.2-70.5,65.6-70.5z M65.6-64.1c9.4,0,10.5,0,14.2,0.2c3.4,0.2,5.3,0.7,6.5,1.2c1.6,0.6,2.8,1.4,4.1,2.6
			c1.2,1.2,2,2.4,2.6,4.1c0.5,1.2,1.1,3.1,1.2,6.5c0.2,3.7,0.2,4.8,0.2,14.2s0,10.5-0.2,14.2c-0.2,3.4-0.7,5.3-1.2,6.5
			c-0.6,1.6-1.4,2.8-2.6,4.1s-2.4,2-4.1,2.6c-1.2,0.5-3.1,1.1-6.5,1.2C76.1-6.4,75-6.3,65.6-6.3s-10.5,0-14.2-0.2
			c-3.4-0.2-5.3-0.7-6.5-1.2c-1.6-0.6-2.8-1.4-4.1-2.6s-2-2.4-2.6-4.1c-0.5-1.2-1.1-3.1-1.2-6.5c-0.2-3.7-0.2-4.8-0.2-14.2
			s0-10.5,0.2-14.2c0.2-3.4,0.7-5.3,1.2-6.5c0.6-1.6,1.4-2.8,2.6-4.1c1.2-1.2,2.4-2,4.1-2.6c1.2-0.5,3.1-1.1,6.5-1.2
			C55.1-64.1,56.2-64.1,65.6-64.1z M65.6-23.5c-6.5,0-11.7-5.3-11.7-11.7S59.1-47,65.6-47c6.5,0,11.7,5.3,11.7,11.7
			S72.1-23.5,65.6-23.5z M65.6-53.3c-10,0-18.1,8.1-18.1,18.1c0,10,8.1,18.1,18.1,18.1c10,0,18.1-8.1,18.1-18.1
			C83.7-45.2,75.6-53.3,65.6-53.3z M88.6-54c0,2.3-1.9,4.2-4.2,4.2s-4.2-1.9-4.2-4.2s1.9-4.2,4.2-4.2C86.7-58.3,88.6-56.4,88.6-54z"
			/>
	</g>
	<g id="Ultralight-M" transform="matrix(1 0 0 1 496.65 1126)">
		<path d="M64.1-70.5c-9.6,0-10.8,0-14.5,0.2c-3.8,0.2-6.3,0.8-8.6,1.6c-2.3,0.9-4.3,2.1-6.2,4.1c-2,2-3.2,3.9-4.1,6.2
			c-0.9,2.2-1.5,4.8-1.6,8.6c-0.2,3.8-0.2,5-0.2,14.5c0,9.6,0,10.8,0.2,14.5c0.2,3.8,0.8,6.3,1.6,8.6c0.9,2.3,2.1,4.3,4.1,6.2
			c2,2,3.9,3.2,6.2,4.1c2.2,0.9,4.8,1.5,8.6,1.6C53.3,0,54.5,0,64.1,0c9.6,0,10.8,0,14.5-0.2c3.8-0.2,6.3-0.8,8.6-1.6
			c2.3-0.9,4.3-2.1,6.2-4.1c2-2,3.2-3.9,4.1-6.2c0.9-2.2,1.5-4.8,1.6-8.6c0.2-3.8,0.2-5,0.2-14.5c0-9.6,0-10.8-0.2-14.5
			c-0.2-3.8-0.8-6.3-1.6-8.6c-0.9-2.3-2.1-4.3-4.1-6.2c-2-2-3.9-3.2-6.2-4.1c-2.2-0.9-4.8-1.5-8.6-1.6
			C74.8-70.4,73.7-70.5,64.1-70.5z M64.1-64.1c9.4,0,10.5,0,14.2,0.2c3.4,0.2,5.3,0.7,6.5,1.2c1.6,0.6,2.8,1.4,4.1,2.6
			c1.2,1.2,2,2.4,2.6,4.1c0.5,1.2,1.1,3.1,1.2,6.5c0.2,3.7,0.2,4.8,0.2,14.2s0,10.5-0.2,14.2c-0.2,3.4-0.7,5.3-1.2,6.5
			c-0.6,1.6-1.4,2.8-2.6,4.1s-2.4,2-4.1,2.6c-1.2,0.5-3.1,1.1-6.5,1.2c-3.7,0.2-4.8,0.2-14.2,0.2s-10.5,0-14.2-0.2
			c-3.4-0.2-5.3-0.7-6.5-1.2c-1.6-0.6-2.8-1.4-4.1-2.6s-2-2.4-2.6-4.1c-0.5-1.2-1.1-3.1-1.2-6.5c-0.2-3.7-0.2-4.8-0.2-14.2
			s0-10.5,0.2-14.2c0.2-3.4,0.7-5.3,1.2-6.5c0.6-1.6,1.4-2.8,2.6-4.1c1.2-1.2,2.4-2,4.1-2.6c1.2-0.5,3.1-1.1,6.5-1.2
			C53.6-64.1,54.7-64.1,64.1-64.1z M64.1-23.5c-6.5,0-11.7-5.3-11.7-11.7S57.6-47,64.1-47s11.7,5.3,11.7,11.7S70.6-23.5,64.1-23.5z
			 M64.1-53.3c-10,0-18.1,8.1-18.1,18.1c0,10,8.1,18.1,18.1,18.1c10,0,18.1-8.1,18.1-18.1C82.2-45.2,74.1-53.3,64.1-53.3z M87.1-54
			c0,2.3-1.9,4.2-4.2,4.2c-2.3,0-4.2-1.9-4.2-4.2s1.9-4.2,4.2-4.2C85.2-58.3,87.1-56.4,87.1-54z"/>
	</g>
	<g id="Black-S" transform="matrix(1 0 0 1 2870.66 696)">
		<path class="st8" d="M63.8-70.5c-9.6,0-10.8,0-14.5,0.2c-3.8,0.2-6.3,0.8-8.6,1.6c-2.3,0.9-4.3,2.1-6.2,4.1c-2,2-3.2,3.9-4.1,6.2
			c-0.9,2.2-1.5,4.8-1.6,8.6c-0.2,3.8-0.2,5-0.2,14.5c0,9.6,0,10.8,0.2,14.5c0.2,3.8,0.8,6.3,1.6,8.6c0.9,2.3,2.1,4.3,4.1,6.2
			c2,2,3.9,3.2,6.2,4.1c2.2,0.9,4.8,1.5,8.6,1.6C53,0,54.2,0,63.8,0c9.6,0,10.8,0,14.5-0.2C82-0.4,84.6-1,86.8-1.8
			c2.3-0.9,4.3-2.1,6.2-4.1c2-2,3.2-3.9,4.1-6.2c0.9-2.2,1.5-4.8,1.6-8.6c0.2-3.8,0.2-5,0.2-14.5c0-9.6,0-10.8-0.2-14.5
			c-0.2-3.8-0.8-6.3-1.6-8.6c-0.9-2.3-2.1-4.3-4.1-6.2c-2-2-3.9-3.2-6.2-4.1c-2.2-0.9-4.8-1.5-8.6-1.6
			C74.5-70.4,73.3-70.5,63.8-70.5z M63.8-64.1c9.4,0,10.5,0,14.2,0.2c3.4,0.2,5.3,0.7,6.5,1.2c1.6,0.6,2.8,1.4,4.1,2.6
			c1.2,1.2,2,2.4,2.6,4.1c0.5,1.2,1.1,3.1,1.2,6.5c0.2,3.7,0.2,4.8,0.2,14.2s0,10.5-0.2,14.2c-0.2,3.4-0.7,5.3-1.2,6.5
			c-0.6,1.6-1.4,2.8-2.6,4.1s-2.4,2-4.1,2.6c-1.2,0.5-3.1,1.1-6.5,1.2c-3.7,0.2-4.8,0.2-14.2,0.2s-10.5,0-14.2-0.2
			c-3.4-0.2-5.3-0.7-6.5-1.2c-1.6-0.6-2.8-1.4-4.1-2.6s-2-2.4-2.6-4.1c-0.5-1.2-1.1-3.1-1.2-6.5c-0.2-3.7-0.2-4.8-0.2-14.2
			s0-10.5,0.2-14.2c0.2-3.4,0.7-5.3,1.2-6.5c0.6-1.6,1.4-2.8,2.6-4.1c1.2-1.2,2.4-2,4.1-2.6c1.2-0.5,3.1-1.1,6.5-1.2
			C53.2-64.1,54.3-64.1,63.8-64.1z M63.8-23.5c-6.5,0-11.7-5.3-11.7-11.7S57.3-47,63.8-47s11.7,5.3,11.7,11.7S70.2-23.5,63.8-23.5z
			 M63.8-53.3c-10,0-18.1,8.1-18.1,18.1c0,10,8.1,18.1,18.1,18.1c10,0,18.1-8.1,18.1-18.1C81.9-45.2,73.7-53.3,63.8-53.3z M86.8-54
			c0,2.3-1.9,4.2-4.2,4.2s-4.2-1.9-4.2-4.2s1.9-4.2,4.2-4.2C84.9-58.3,86.8-56.4,86.8-54z"/>
	</g>
	<g id="Heavy-S" transform="matrix(1 0 0 1 2575.58 696)">
		<path class="st9" d="M62.1-70.5c-9.6,0-10.8,0-14.5,0.2c-3.8,0.2-6.3,0.8-8.6,1.6c-2.3,0.9-4.3,2.1-6.2,4.1c-2,2-3.2,3.9-4.1,6.2
			c-0.9,2.2-1.5,4.8-1.6,8.6c-0.2,3.8-0.2,5-0.2,14.5c0,9.6,0,10.8,0.2,14.5c0.2,3.8,0.8,6.3,1.6,8.6c0.9,2.3,2.1,4.3,4.1,6.2
			c2,2,3.9,3.2,6.2,4.1c2.2,0.9,4.8,1.5,8.6,1.6C51.3,0,52.5,0,62.1,0c9.6,0,10.8,0,14.5-0.2C80.4-0.4,83-1,85.2-1.8
			c2.3-0.9,4.3-2.1,6.2-4.1c2-2,3.2-3.9,4.1-6.2c0.9-2.2,1.5-4.8,1.6-8.6c0.2-3.8,0.2-5,0.2-14.5c0-9.6,0-10.8-0.2-14.5
			c-0.2-3.8-0.8-6.3-1.6-8.6c-0.9-2.3-2.1-4.3-4.1-6.2c-2-2-3.9-3.2-6.2-4.1c-2.2-0.9-4.8-1.5-8.6-1.6
			C72.9-70.4,71.7-70.5,62.1-70.5z M62.1-64.1c9.4,0,10.5,0,14.2,0.2c3.4,0.2,5.3,0.7,6.5,1.2c1.6,0.6,2.8,1.4,4.1,2.6
			c1.2,1.2,2,2.4,2.6,4.1c0.5,1.2,1.1,3.1,1.2,6.5C91-45.7,91-44.6,91-35.2s0,10.5-0.2,14.2c-0.2,3.4-0.7,5.3-1.2,6.5
			c-0.6,1.6-1.4,2.8-2.6,4.1s-2.4,2-4.1,2.6c-1.2,0.5-3.1,1.1-6.5,1.2c-3.7,0.2-4.8,0.2-14.2,0.2s-10.5,0-14.2-0.2
			c-3.4-0.2-5.3-0.7-6.5-1.2c-1.6-0.6-2.8-1.4-4.1-2.6s-2-2.4-2.6-4.1c-0.5-1.2-1.1-3.1-1.2-6.5c-0.2-3.7-0.2-4.8-0.2-14.2
			s0-10.5,0.2-14.2c0.2-3.4,0.7-5.3,1.2-6.5c0.6-1.6,1.4-2.8,2.6-4.1c1.2-1.2,2.4-2,4.1-2.6c1.2-0.5,3.1-1.1,6.5-1.2
			C51.6-64.1,52.7-64.1,62.1-64.1z M62.1-23.5c-6.5,0-11.7-5.3-11.7-11.7S55.6-47,62.1-47s11.7,5.3,11.7,11.7S68.6-23.5,62.1-23.5z
			 M62.1-53.3c-10,0-18.1,8.1-18.1,18.1c0,10,8.1,18.1,18.1,18.1c10,0,18.1-8.1,18.1-18.1C80.2-45.2,72.1-53.3,62.1-53.3z M85.2-54
			c0,2.3-1.9,4.2-4.2,4.2s-4.2-1.9-4.2-4.2s1.9-4.2,4.2-4.2C83.3-58.3,85.2-56.4,85.2-54z"/>
	</g>
	<g id="Bold-S" transform="matrix(1 0 0 1 2280.7 696)">
		<path class="st10" d="M60.3-70.5c-9.6,0-10.8,0-14.5,0.2c-3.8,0.2-6.3,0.8-8.6,1.6c-2.3,0.9-4.3,2.1-6.2,4.1c-2,2-3.2,3.9-4.1,6.2
			c-0.9,2.2-1.5,4.8-1.6,8.6c-0.2,3.8-0.2,5-0.2,14.5c0,9.6,0,10.8,0.2,14.5c0.2,3.8,0.8,6.3,1.6,8.6C27.8-9.8,29-7.9,31-5.9
			c2,2,3.9,3.2,6.2,4.1C39.4-1,42-0.4,45.7-0.2C49.5,0,50.7,0,60.3,0C69.8,0,71,0,74.8-0.2c3.8-0.2,6.3-0.8,8.6-1.6
			c2.3-0.9,4.3-2.1,6.2-4.1c2-2,3.2-3.9,4.1-6.2c0.9-2.2,1.5-4.8,1.6-8.6c0.2-3.8,0.2-5,0.2-14.5c0-9.6,0-10.8-0.2-14.5
			c-0.2-3.8-0.8-6.3-1.6-8.6c-0.9-2.3-2.1-4.3-4.1-6.2c-2-2-3.9-3.2-6.2-4.1c-2.2-0.9-4.8-1.5-8.6-1.6C71-70.4,69.8-70.5,60.3-70.5z
			 M60.3-64.1c9.4,0,10.5,0,14.2,0.2c3.4,0.2,5.3,0.7,6.5,1.2c1.6,0.6,2.8,1.4,4.1,2.6c1.2,1.2,2,2.4,2.6,4.1
			c0.5,1.2,1.1,3.1,1.2,6.5c0.2,3.7,0.2,4.8,0.2,14.2s0,10.5-0.2,14.2c-0.2,3.4-0.7,5.3-1.2,6.5c-0.6,1.6-1.4,2.8-2.6,4.1
			s-2.4,2-4.1,2.6c-1.2,0.5-3.1,1.1-6.5,1.2c-3.7,0.2-4.8,0.2-14.2,0.2S49.8-6.4,46-6.5c-3.4-0.2-5.3-0.7-6.5-1.2
			c-1.6-0.6-2.8-1.4-4.1-2.6s-2-2.4-2.6-4.1c-0.5-1.2-1.1-3.1-1.2-6.5c-0.2-3.7-0.2-4.8-0.2-14.2s0-10.5,0.2-14.2
			c0.2-3.4,0.7-5.3,1.2-6.5c0.6-1.6,1.4-2.8,2.6-4.1c1.2-1.2,2.4-2,4.1-2.6c1.2-0.5,3.1-1.1,6.5-1.2C49.8-64.1,50.9-64.1,60.3-64.1z
			 M60.3-23.5c-6.5,0-11.7-5.3-11.7-11.7S53.8-47,60.3-47S72-41.7,72-35.2S66.8-23.5,60.3-23.5z M60.3-53.3
			c-10,0-18.1,8.1-18.1,18.1c0,10,8.1,18.1,18.1,18.1c10,0,18.1-8.1,18.1-18.1C78.4-45.2,70.3-53.3,60.3-53.3z M83.3-54
			c0,2.3-1.9,4.2-4.2,4.2s-4.2-1.9-4.2-4.2s1.9-4.2,4.2-4.2C81.4-58.3,83.3-56.4,83.3-54z"/>
	</g>
	<g id="Semibold-S" transform="matrix(1 0 0 1 1985.26 696)">
		<path class="st11" d="M56.7-70.5c-9.6,0-10.8,0-14.5,0.2c-3.8,0.2-6.3,0.8-8.6,1.6c-2.3,0.9-4.3,2.1-6.2,4.1c-2,2-3.2,3.9-4.1,6.2
			c-0.9,2.2-1.5,4.8-1.6,8.6c-0.2,3.8-0.2,5-0.2,14.5c0,9.6,0,10.8,0.2,14.5c0.2,3.8,0.8,6.3,1.6,8.6c0.9,2.3,2.1,4.3,4.1,6.2
			c2,2,3.9,3.2,6.2,4.1c2.2,0.9,4.8,1.5,8.6,1.6C46,0,47.2,0,56.7,0c9.6,0,10.8,0,14.5-0.2C75-0.4,77.6-1,79.8-1.8
			C82.1-2.7,84.1-4,86-5.9c2-2,3.2-3.9,4.1-6.2c0.9-2.2,1.5-4.8,1.6-8.6c0.2-3.8,0.2-5,0.2-14.5c0-9.6,0-10.8-0.2-14.5
			c-0.2-3.8-0.8-6.3-1.6-8.6c-0.9-2.3-2.1-4.3-4.1-6.2c-2-2-3.9-3.2-6.2-4.1c-2.2-0.9-4.8-1.5-8.6-1.6
			C67.5-70.4,66.3-70.5,56.7-70.5z M56.7-64.1c9.4,0,10.5,0,14.2,0.2c3.4,0.2,5.3,0.7,6.5,1.2c1.6,0.6,2.8,1.4,4.1,2.6
			c1.2,1.2,2,2.4,2.6,4.1c0.5,1.2,1.1,3.1,1.2,6.5c0.2,3.7,0.2,4.8,0.2,14.2s0,10.5-0.2,14.2c-0.2,3.4-0.7,5.3-1.2,6.5
			c-0.6,1.6-1.4,2.8-2.6,4.1s-2.4,2-4.1,2.6c-1.2,0.5-3.1,1.1-6.5,1.2c-3.7,0.2-4.8,0.2-14.2,0.2s-10.5,0-14.2-0.2
			c-3.4-0.2-5.3-0.7-6.5-1.2c-1.6-0.6-2.8-1.4-4.1-2.6s-2-2.4-2.6-4.1c-0.5-1.2-1.1-3.1-1.2-6.5c-0.2-3.7-0.2-4.8-0.2-14.2
			s0-10.5,0.2-14.2c0.2-3.4,0.7-5.3,1.2-6.5c0.6-1.6,1.4-2.8,2.6-4.1c1.2-1.2,2.4-2,4.1-2.6c1.2-0.5,3.1-1.1,6.5-1.2
			C46.2-64.1,47.3-64.1,56.7-64.1z M56.7-23.5c-6.5,0-11.7-5.3-11.7-11.7S50.2-47,56.7-47s11.7,5.3,11.7,11.7S63.2-23.5,56.7-23.5z
			 M56.7-53.3c-10,0-18.1,8.1-18.1,18.1c0,10,8.1,18.1,18.1,18.1c10,0,18.1-8.1,18.1-18.1C74.8-45.2,66.7-53.3,56.7-53.3z M79.8-54
			c0,2.3-1.9,4.2-4.2,4.2s-4.2-1.9-4.2-4.2s1.9-4.2,4.2-4.2C77.9-58.3,79.8-56.4,79.8-54z"/>
	</g>
	<g id="Medium-S" transform="matrix(1 0 0 1 1689.52 696)">
		<path class="st12" d="M58-70.5c-9.6,0-10.8,0-14.5,0.2c-3.8,0.2-6.3,0.8-8.6,1.6c-2.3,0.9-4.3,2.1-6.2,4.1c-2,2-3.2,3.9-4.1,6.2
			c-0.9,2.2-1.5,4.8-1.6,8.6c-0.2,3.8-0.2,5-0.2,14.5c0,9.6,0,10.8,0.2,14.5c0.2,3.8,0.8,6.3,1.6,8.6c0.9,2.3,2.1,4.3,4.1,6.2
			c2,2,3.9,3.2,6.2,4.1c2.2,0.9,4.8,1.5,8.6,1.6C47.3,0,48.5,0,58,0c9.6,0,10.8,0,14.5-0.2c3.8-0.2,6.3-0.8,8.6-1.6
			c2.3-0.9,4.3-2.1,6.2-4.1c2-2,3.2-3.9,4.1-6.2c0.9-2.2,1.5-4.8,1.6-8.6c0.2-3.8,0.2-5,0.2-14.5c0-9.6,0-10.8-0.2-14.5
			c-0.2-3.8-0.8-6.3-1.6-8.6c-0.9-2.3-2.1-4.3-4.1-6.2c-2-2-3.9-3.2-6.2-4.1c-2.2-0.9-4.8-1.5-8.6-1.6C68.8-70.4,67.6-70.5,58-70.5z
			 M58-64.1c9.4,0,10.5,0,14.2,0.2c3.4,0.2,5.3,0.7,6.5,1.2c1.6,0.6,2.8,1.4,4.1,2.6c1.2,1.2,2,2.4,2.6,4.1c0.5,1.2,1.1,3.1,1.2,6.5
			c0.2,3.7,0.2,4.8,0.2,14.2s0,10.5-0.2,14.2c-0.2,3.4-0.7,5.3-1.2,6.5c-0.6,1.6-1.4,2.8-2.6,4.1s-2.4,2-4.1,2.6
			c-1.2,0.5-3.1,1.1-6.5,1.2C68.6-6.4,67.4-6.3,58-6.3s-10.5,0-14.2-0.2c-3.4-0.2-5.3-0.7-6.5-1.2c-1.6-0.6-2.8-1.4-4.1-2.6
			s-2-2.4-2.6-4.1c-0.5-1.2-1.1-3.1-1.2-6.5c-0.2-3.7-0.2-4.8-0.2-14.2s0-10.5,0.2-14.2c0.2-3.4,0.7-5.3,1.2-6.5
			c0.6-1.6,1.4-2.8,2.6-4.1c1.2-1.2,2.4-2,4.1-2.6c1.2-0.5,3.1-1.1,6.5-1.2C47.5-64.1,48.6-64.1,58-64.1z M58-23.5
			c-6.5,0-11.7-5.3-11.7-11.7S51.5-47,58-47s11.7,5.3,11.7,11.7S64.5-23.5,58-23.5z M58-53.3c-10,0-18.1,8.1-18.1,18.1
			c0,10,8.1,18.1,18.1,18.1c10,0,18.1-8.1,18.1-18.1C76.1-45.2,68-53.3,58-53.3z M81.1-54c0,2.3-1.9,4.2-4.2,4.2s-4.2-1.9-4.2-4.2
			s1.9-4.2,4.2-4.2C79.2-58.3,81.1-56.4,81.1-54z"/>
	</g>
	<g id="Regular-S" transform="matrix(1 0 0 1 1394.06 696)">
		<path class="st13" d="M56.8-70.5c-9.6,0-10.8,0-14.5,0.2c-3.8,0.2-6.3,0.8-8.6,1.6c-2.3,0.9-4.3,2.1-6.2,4.1c-2,2-3.2,3.9-4.1,6.2
			c-0.9,2.2-1.5,4.8-1.6,8.6c-0.2,3.8-0.2,5-0.2,14.5c0,9.6,0,10.8,0.2,14.5c0.2,3.8,0.8,6.3,1.6,8.6c0.9,2.3,2.1,4.3,4.1,6.2
			c2,2,3.9,3.2,6.2,4.1c2.2,0.9,4.8,1.5,8.6,1.6C46,0,47.2,0,56.8,0c9.6,0,10.8,0,14.5-0.2c3.8-0.2,6.3-0.8,8.6-1.6
			c2.3-0.9,4.3-2.1,6.2-4.1c2-2,3.2-3.9,4.1-6.2c0.9-2.2,1.5-4.8,1.6-8.6c0.2-3.8,0.2-5,0.2-14.5c0-9.6,0-10.8-0.2-14.5
			c-0.2-3.8-0.8-6.3-1.6-8.6c-0.9-2.3-2.1-4.3-4.1-6.2c-2-2-3.9-3.2-6.2-4.1c-2.2-0.9-4.8-1.5-8.6-1.6
			C67.5-70.4,66.3-70.5,56.8-70.5z M56.8-64.1c9.4,0,10.5,0,14.2,0.2c3.4,0.2,5.3,0.7,6.5,1.2c1.6,0.6,2.8,1.4,4.1,2.6
			c1.2,1.2,2,2.4,2.6,4.1c0.5,1.2,1.1,3.1,1.2,6.5c0.2,3.7,0.2,4.8,0.2,14.2s0,10.5-0.2,14.2c-0.2,3.4-0.7,5.3-1.2,6.5
			c-0.6,1.6-1.4,2.8-2.6,4.1s-2.4,2-4.1,2.6c-1.2,0.5-3.1,1.1-6.5,1.2c-3.7,0.2-4.8,0.2-14.2,0.2s-10.5,0-14.2-0.2
			c-3.4-0.2-5.3-0.7-6.5-1.2c-1.6-0.6-2.8-1.4-4.1-2.6s-2-2.4-2.6-4.1c-0.5-1.2-1.1-3.1-1.2-6.5c-0.2-3.7-0.2-4.8-0.2-14.2
			s0-10.5,0.2-14.2c0.2-3.4,0.7-5.3,1.2-6.5c0.6-1.6,1.4-2.8,2.6-4.1c1.2-1.2,2.4-2,4.1-2.6c1.2-0.5,3.1-1.1,6.5-1.2
			C46.3-64.1,47.4-64.1,56.8-64.1z M56.8-23.5c-6.5,0-11.7-5.3-11.7-11.7S50.3-47,56.8-47s11.7,5.3,11.7,11.7S63.3-23.5,56.8-23.5z
			 M56.8-53.3c-10,0-18.1,8.1-18.1,18.1c0,10,8.1,18.1,18.1,18.1c10,0,18.1-8.1,18.1-18.1C74.9-45.2,66.8-53.3,56.8-53.3z M79.8-54
			c0,2.3-1.9,4.2-4.2,4.2s-4.2-1.9-4.2-4.2s1.9-4.2,4.2-4.2C77.9-58.3,79.8-56.4,79.8-54z"/>
	</g>
	<g id="Light-S" transform="matrix(1 0 0 1 1099.35 696)">
		<path class="st14" d="M73.3-70.5c-9.6,0-10.8,0-14.5,0.2c-3.8,0.2-6.3,0.8-8.6,1.6C48-67.7,46-66.5,44-64.5c-2,2-3.2,3.9-4.1,6.2
			c-0.9,2.2-1.5,4.8-1.6,8.6c-0.2,3.8-0.2,5-0.2,14.5c0,9.6,0,10.8,0.2,14.5c0.2,3.8,0.8,6.3,1.6,8.6c0.9,2.3,2.1,4.3,4.1,6.2
			c2,2,3.9,3.2,6.2,4.1c2.2,0.9,4.8,1.5,8.6,1.6C62.6,0,63.8,0,73.3,0c9.6,0,10.8,0,14.5-0.2c3.8-0.2,6.3-0.8,8.6-1.6
			c2.3-0.9,4.3-2.1,6.2-4.1c2-2,3.2-3.9,4.1-6.2c0.9-2.2,1.5-4.8,1.6-8.6c0.2-3.8,0.2-5,0.2-14.5c0-9.6,0-10.8-0.2-14.5
			c-0.2-3.8-0.8-6.3-1.6-8.6c-0.9-2.3-2.1-4.3-4.1-6.2c-2-2-3.9-3.2-6.2-4.1c-2.2-0.9-4.8-1.5-8.6-1.6
			C84.1-70.4,82.9-70.5,73.3-70.5z M73.3-64.1c9.4,0,10.5,0,14.2,0.2c3.4,0.2,5.3,0.7,6.5,1.2c1.6,0.6,2.8,1.4,4.1,2.6
			c1.2,1.2,2,2.4,2.6,4.1c0.5,1.2,1.1,3.1,1.2,6.5c0.2,3.7,0.2,4.8,0.2,14.2s0,10.5-0.2,14.2c-0.2,3.4-0.7,5.3-1.2,6.5
			c-0.6,1.6-1.4,2.8-2.6,4.1s-2.4,2-4.1,2.6c-1.2,0.5-3.1,1.1-6.5,1.2c-3.7,0.2-4.8,0.2-14.2,0.2s-10.5,0-14.2-0.2
			c-3.4-0.2-5.3-0.7-6.5-1.2c-1.6-0.6-2.8-1.4-4.1-2.6s-2-2.4-2.6-4.1c-0.5-1.2-1.1-3.1-1.2-6.5c-0.2-3.7-0.2-4.8-0.2-14.2
			s0-10.5,0.2-14.2c0.2-3.4,0.7-5.3,1.2-6.5c0.6-1.6,1.4-2.8,2.6-4.1c1.2-1.2,2.4-2,4.1-2.6c1.2-0.5,3.1-1.1,6.5-1.2
			C62.8-64.1,63.9-64.1,73.3-64.1z M73.3-23.5c-6.5,0-11.7-5.3-11.7-11.7S66.9-47,73.3-47s11.7,5.3,11.7,11.7S79.8-23.5,73.3-23.5z
			 M73.3-53.3c-10,0-18.1,8.1-18.1,18.1c0,10,8.1,18.1,18.1,18.1c10,0,18.1-8.1,18.1-18.1C91.4-45.2,83.3-53.3,73.3-53.3z M96.4-54
			c0,2.3-1.9,4.2-4.2,4.2s-4.2-1.9-4.2-4.2s1.9-4.2,4.2-4.2C94.5-58.3,96.4-56.4,96.4-54z"/>
	</g>
	<g id="Thin-S" transform="matrix(1 0 0 1 805.25 696)">
		<path class="st15" d="M52.2-70.5c-9.6,0-10.8,0-14.5,0.2c-3.8,0.2-6.3,0.8-8.6,1.6c-2.3,0.9-4.3,2.1-6.2,4.1c-2,2-3.2,3.9-4.1,6.2
			c-0.9,2.2-1.5,4.8-1.6,8.6C17-46,17-44.8,17-35.2c0,9.6,0,10.8,0.2,14.5c0.2,3.8,0.8,6.3,1.6,8.6c0.9,2.3,2.1,4.3,4.1,6.2
			c2,2,3.9,3.2,6.2,4.1c2.2,0.9,4.8,1.5,8.6,1.6C41.4,0,42.6,0,52.2,0C61.8,0,63,0,66.7-0.2C70.5-0.4,73-1,75.3-1.8
			c2.3-0.9,4.3-2.1,6.2-4.1c2-2,3.2-3.9,4.1-6.2c0.9-2.2,1.5-4.8,1.6-8.6c0.2-3.8,0.2-5,0.2-14.5c0-9.6,0-10.8-0.2-14.5
			c-0.2-3.8-0.8-6.3-1.6-8.6c-0.9-2.3-2.1-4.3-4.1-6.2c-2-2-3.9-3.2-6.2-4.1c-2.2-0.9-4.8-1.5-8.6-1.6C63-70.4,61.8-70.5,52.2-70.5z
			 M52.2-64.1c9.4,0,10.5,0,14.2,0.2c3.4,0.2,5.3,0.7,6.5,1.2c1.6,0.6,2.8,1.4,4.1,2.6c1.2,1.2,2,2.4,2.6,4.1
			c0.5,1.2,1.1,3.1,1.2,6.5c0.2,3.7,0.2,4.8,0.2,14.2s0,10.5-0.2,14.2c-0.2,3.4-0.7,5.3-1.2,6.5c-0.6,1.6-1.4,2.8-2.6,4.1
			s-2.4,2-4.1,2.6c-1.2,0.5-3.1,1.1-6.5,1.2c-3.7,0.2-4.8,0.2-14.2,0.2S41.7-6.4,38-6.5c-3.4-0.2-5.3-0.7-6.5-1.2
			c-1.6-0.6-2.8-1.4-4.1-2.6c-1.2-1.2-2-2.4-2.6-4.1c-0.5-1.2-1.1-3.1-1.2-6.5c-0.2-3.7-0.2-4.8-0.2-14.2s0-10.5,0.2-14.2
			c0.2-3.4,0.7-5.3,1.2-6.5c0.6-1.6,1.4-2.8,2.6-4.1c1.2-1.2,2.4-2,4.1-2.6c1.2-0.5,3.1-1.1,6.5-1.2C41.7-64.1,42.8-64.1,52.2-64.1z
			 M52.2-23.5c-6.5,0-11.7-5.3-11.7-11.7S45.7-47,52.2-47s11.7,5.3,11.7,11.7S58.7-23.5,52.2-23.5z M52.2-53.3
			c-10,0-18.1,8.1-18.1,18.1c0,10,8.1,18.1,18.1,18.1c10,0,18.1-8.1,18.1-18.1C70.3-45.2,62.2-53.3,52.2-53.3z M75.2-54
			c0,2.3-1.9,4.2-4.2,4.2s-4.2-1.9-4.2-4.2s1.9-4.2,4.2-4.2C73.3-58.3,75.2-56.4,75.2-54z"/>
	</g>
	<g id="Ultralight-S" transform="matrix(1 0 0 1 509.906 696)">
		<path d="M50.8-70.5c-9.6,0-10.8,0-14.5,0.2c-3.8,0.2-6.3,0.8-8.6,1.6c-2.3,0.9-4.3,2.1-6.2,4.1c-2,2-3.2,3.9-4.1,6.2
			c-0.9,2.2-1.5,4.8-1.6,8.6c-0.2,3.8-0.2,5-0.2,14.5c0,9.6,0,10.8,0.2,14.5c0.2,3.8,0.8,6.3,1.6,8.6c0.9,2.3,2.1,4.3,4.1,6.2
			c2,2,3.9,3.2,6.2,4.1C30-1,32.6-0.4,36.3-0.2C40.1,0,41.3,0,50.8,0c9.6,0,10.8,0,14.5-0.2c3.8-0.2,6.3-0.8,8.6-1.6
			c2.3-0.9,4.3-2.1,6.2-4.1c2-2,3.2-3.9,4.1-6.2c0.9-2.2,1.5-4.8,1.6-8.6c0.2-3.8,0.2-5,0.2-14.5c0-9.6,0-10.8-0.2-14.5
			c-0.2-3.8-0.8-6.3-1.6-8.6c-0.9-2.3-2.1-4.3-4.1-6.2c-2-2-3.9-3.2-6.2-4.1c-2.2-0.9-4.8-1.5-8.6-1.6
			C61.6-70.4,60.4-70.5,50.8-70.5z M50.8-64.1c9.4,0,10.5,0,14.2,0.2c3.4,0.2,5.3,0.7,6.5,1.2c1.6,0.6,2.8,1.4,4.1,2.6
			c1.2,1.2,2,2.4,2.6,4.1c0.5,1.2,1.1,3.1,1.2,6.5c0.2,3.7,0.2,4.8,0.2,14.2s0,10.5-0.2,14.2c-0.2,3.4-0.7,5.3-1.2,6.5
			c-0.6,1.6-1.4,2.8-2.6,4.1s-2.4,2-4.1,2.6c-1.2,0.5-3.1,1.1-6.5,1.2c-3.7,0.2-4.8,0.2-14.2,0.2s-10.5,0-14.2-0.2
			c-3.4-0.2-5.3-0.7-6.5-1.2c-1.6-0.6-2.8-1.4-4.1-2.6s-2-2.4-2.6-4.1c-0.5-1.2-1.1-3.1-1.2-6.5c-0.2-3.7-0.2-4.8-0.2-14.2
			s0-10.5,0.2-14.2c0.2-3.4,0.7-5.3,1.2-6.5c0.6-1.6,1.4-2.8,2.6-4.1c1.2-1.2,2.4-2,4.1-2.6c1.2-0.5,3.1-1.1,6.5-1.2
			C40.3-64.1,41.4-64.1,50.8-64.1z M50.8-23.5c-6.5,0-11.7-5.3-11.7-11.7S44.3-47,50.8-47s11.7,5.3,11.7,11.7S57.3-23.5,50.8-23.5z
			 M50.8-53.3c-10,0-18.1,8.1-18.1,18.1c0,10,8.1,18.1,18.1,18.1c10,0,18.1-8.1,18.1-18.1C68.9-45.2,60.8-53.3,50.8-53.3z M73.9-54
			c0,2.3-1.9,4.2-4.2,4.2c-2.3,0-4.2-1.9-4.2-4.2s1.9-4.2,4.2-4.2C72-58.3,73.9-56.4,73.9-54z"/>
	</g>
</g>
</svg>
