<?xml version="1.0" encoding="utf-8"?>
<!-- Generator: Adobe Illustrator 24.0.3, SVG Export Plug-In . SVG Version: 6.00 Build 0)  -->
<svg version="1.1" id="Layer_1" xmlns="http://www.w3.org/2000/svg" xmlns:xlink="http://www.w3.org/1999/xlink" x="0px" y="0px"
	 viewBox="0 0 3300 2200" style="enable-background:new 0 0 3300 2200;" xml:space="preserve">
<style type="text/css">
	.st0{fill:#FFFFFF;}
	.st1{fill:none;stroke:#000000;stroke-width:0.5;}
	.st2{font-family:'Arial-BoldMT';}
	.st3{font-size:12px;}
	.st4{font-family:'ArialMT';}
	.st5{opacity:0.4;fill:#00AEEF;enable-background:new    ;}
	.st6{fill:#27AAE1;}
	.st7{fill:none;stroke:#27AAE1;stroke-width:0.577;}
	.st8{stroke:#000000;stroke-width:2;stroke-miterlimit:10;}
	.st9{stroke:#000000;stroke-width:1.75;stroke-miterlimit:10;}
	.st10{stroke:#000000;stroke-width:1.5;stroke-miterlimit:10;}
	.st11{stroke:#000000;stroke-width:1.25;stroke-miterlimit:10;}
	.st12{stroke:#000000;stroke-miterlimit:10;}
	.st13{stroke:#000000;stroke-width:0.75;stroke-miterlimit:10;}
	.st14{stroke:#000000;stroke-width:0.5;stroke-miterlimit:10;}
	.st15{stroke:#000000;stroke-width:0.25;stroke-miterlimit:10;}
</style>
<g id="Notes">
	<rect id="artboard" y="0" class="st0" width="3300" height="2200"/>
	<line class="st1" x1="263" y1="292" x2="3036" y2="292"/>
	<text transform="matrix(1 0 0 1 263 322)" class="st2 st3">Weight/Scale Variations</text>
	<text transform="matrix(1 0 0 1 536.0362 322)" class="st4 st3">Ultralight</text>
	<text transform="matrix(1 0 0 1 844.7501 322)" class="st4 st3">Thin</text>
	<text transform="matrix(1 0 0 1 1140.1193 322)" class="st4 st3">Light</text>
	<text transform="matrix(1 0 0 1 1428.8282 322)" class="st4 st3">Regular</text>
	<text transform="matrix(1 0 0 1 1725.2202 322)" class="st4 st3">Medium</text>
	<text transform="matrix(1 0 0 1 2018.2563 322)" class="st4 st3">Semibold</text>
	<text transform="matrix(1 0 0 1 2327.9712 322)" class="st4 st3">Bold</text>
	<text transform="matrix(1 0 0 1 2619.6831 322)" class="st4 st3">Heavy</text>
	<text transform="matrix(1 0 0 1 2918.728 322)" class="st4 st3">Black</text>
	<line class="st1" x1="263" y1="1903" x2="3036" y2="1903"/>
	<g transform="matrix(1 0 0 1 263 1933)">
		<path d="M9.2,0.8c4.3,0,7.9-3.6,7.9-7.9S13.5-15,9.2-15s-7.9,3.6-7.9,7.9C1.4-2.7,5,0.8,9.2,0.8z M9.2-0.7c-3.5,0-6.4-2.8-6.4-6.4
			s2.8-6.4,6.4-6.4s6.4,2.8,6.4,6.4C15.7-3.5,12.8-0.7,9.2-0.7z M9.2-3.4c0.5,0,0.7-0.3,0.7-0.8v-2.1h2.2C12.7-6.3,13-6.6,13-7
			c0-0.5-0.3-0.7-0.8-0.7H10V-10c0-0.5-0.3-0.8-0.7-0.8S8.5-10.5,8.5-10v2.2H6.3C5.8-7.8,5.4-7.5,5.4-7s0.4,0.7,0.8,0.7h2.2v2.1
			C8.5-3.8,8.8-3.4,9.2-3.4z"/>
	</g>
	<g transform="matrix(1 0 0 1 281.506 1933)">
		<path d="M11.7,2.9c5.4,0,10-4.5,10-10c0-5.4-4.5-10-10-10c-5.4,0-10,4.5-10,10C1.7-1.6,6.3,2.9,11.7,2.9z M11.7,1.2
			c-4.6,0-8.3-3.7-8.3-8.3s3.7-8.3,8.3-8.3S20-11.7,20-7.1C20-2.4,16.3,1.2,11.7,1.2z M11.7-2.4c0.5,0,0.8-0.4,0.8-0.9v-2.9h3.1
			c0.5,0,0.9-0.3,0.9-0.8s-0.4-0.8-0.9-0.8h-3.1v-3.1c0-0.6-0.3-0.9-0.8-0.9s-0.8,0.4-0.8,0.9v3.1h-3c-0.6-0.1-1,0.2-1,0.8
			c0,0.5,0.4,0.8,0.9,0.8h3v2.9C10.9-2.8,11.2-2.4,11.7-2.4z"/>
	</g>
	<g transform="matrix(1 0 0 1 304.924 1933)">
		<path d="M15,5.7c7,0,12.7-5.8,12.7-12.7c0-7-5.8-12.7-12.7-12.7C8-19.8,2.3-14,2.3-7C2.3-0.1,8,5.7,15,5.7z M15,3.9
			C8.9,3.9,4.1-1,4.1-7S8.9-17.9,15-17.9c6,0,10.9,4.9,10.9,10.9S21,3.9,15,3.9z M15-1.1c0.6,0,0.9-0.4,0.9-1v-4.1h4.2
			c0.6,0,1-0.3,1-0.9S20.7-8,20.1-8h-4.2v-4.2c0-0.6-0.4-1-0.9-1c-0.6,0-0.9,0.4-0.9,1V-8H9.8c-0.6,0-1,0.3-1,0.9s0.4,0.9,1,0.9H14
			v4.1C14.1-1.5,14.4-1.1,15-1.1z"/>
	</g>
	<text transform="matrix(1 0 0 1 263 1953)" class="st2 st3">Design Variations</text>
	<text transform="matrix(1 0 0 1 263 1971)" class="st4 st3">Symbols are supported in up to nine weights and three scales.</text>
	<text transform="matrix(1 0 0 1 263 1989)" class="st4 st3">For optimal layout with text and other symbols, vertically align</text>
	<text transform="matrix(1 0 0 1 263 2007)" class="st4 st3">symbols with the adjacent text.</text>
	<rect x="776" y="1919" class="st5" width="3" height="14"/>
	<g transform="matrix(1 0 0 1 779 1933)">
		<path d="M10.5,0h1.8L7.2-14.1H5.4L0.2,0H2l1.4-4H9L10.5,0z M6.3-12L6.3-12l2.3,6.4H4L6.3-12z"/>
	</g>
	<rect x="791.6" y="1919" class="st5" width="3" height="14"/>
	<text transform="matrix(1 0 0 1 776 1953)" class="st2 st3">Margins</text>
	<text transform="matrix(1 0 0 1 776 1971)" class="st4 st3">Leading and trailing margins on the left and right side of each symbol</text>
	<text transform="matrix(1 0 0 1 776 1989)" class="st4 st3">can be adjusted by modifying the width of the blue rectangles.</text>
	<text transform="matrix(1 0 0 1 776 2007)" class="st4 st3">Modifications are automatically applied proportionally to all</text>
	<text transform="matrix(1 0 0 1 776 2025)" class="st4 st3">scales and weights.</text>
	<g transform="matrix(1 0 0 1 1289 1933)">
		<path d="M2.8,3.1l1.5,1.5C5.1,5.4,6.1,5.4,7,4.4L17.3-6.7c0.4,0.3,0.8,0.3,1.3,0.2l1-0.2L20.3-6v0.5c-0.1,0.5,0.1,1,0.5,1.5
			l0.8,0.8c0.5,0.5,1.2,0.5,1.6,0.1l3.3-3.3C27-6.9,27-7.5,26.5-8l-0.8-0.8c-0.5-0.5-0.9-0.7-1.4-0.6l-0.5,0.1L23.1-10l0.3-1.1
			c0.1-0.6,0-1-0.6-1.6l-2.4-2.4c-3.5-3.5-8.1-3.4-11.2-0.3C8.8-15,8.7-14.4,9-14c0.2,0.4,0.7,0.6,1.4,0.4c1.5-0.4,3-0.3,4.5,0.7
			l-0.6,1.6c-0.2,0.6-0.2,1.1,0,1.5L3,0.4C2.1,1.3,2,2.3,2.8,3.1z M10.7-15.1c2.7-2,6-1.7,8.4,0.7l2.6,2.6c0.2,0.2,0.3,0.4,0.2,0.7
			l-0.4,1.6L23.1-8H24c0.3,0,0.4,0,0.6,0.2l0.6,0.6l-2.8,2.7l-0.6-0.6c-0.2-0.2-0.2-0.3-0.2-0.6l0.1-1l-1.6-1.6L18.5-8
			c-0.3,0.1-0.4,0.1-0.7-0.2l-2.2-2.2c-0.2-0.2-0.3-0.4-0.1-0.7l0.9-2.3c-1.6-1.5-3.7-2.4-5.8-1.7c-0.1,0-0.2,0-0.2,0
			C10.6-15,10.6-15.1,10.7-15.1z M4.1,2.4c-0.5-0.5-0.3-0.8,0-1.1l11-10.1l1.2,1.2L6.2,3.3c-0.3,0.3-0.7,0.4-1.1,0L4.1,2.4z"/>
	</g>
	<text transform="matrix(1 0 0 1 1289 1953)" class="st2 st3">Exporting</text>
	<text transform="matrix(1 0 0 1 1289 1971)" class="st4 st3">Symbols should be outlined when exporting to ensure the</text>
	<text transform="matrix(1 0 0 1 1289 1989)" class="st4 st3">design is preserved when submitting to Xcode.</text>
	<text id="template-version" transform="matrix(1 0 0 1 2958.8496 1933)" class="st4 st3">Template v.1.0</text>
	<text transform="matrix(1 0 0 1 2913.4863 1951)" class="st4 st3">Generated from shuffle</text>
	<text transform="matrix(1 0 0 1 2921.9238 1969)" class="st4 st3">Typeset at 100 points</text>
	<text transform="matrix(1 0 0 1 263 726)" class="st4 st3">Small</text>
	<text transform="matrix(1 0 0 1 263 1156)" class="st4 st3">Medium</text>
	<text transform="matrix(1 0 0 1 263 1586)" class="st4 st3">Large</text>
</g>
<g id="Guides">
	<g id="H-reference" transform="matrix(1 0 0 1 339 696)">
		<path class="st6" d="M54.9,0h2.7l-27-70.5h-2.5L1,0h2.7L13-24.5h32.8L54.9,0z M29.2-67.1h0.2l15.4,40.4h-31L29.2-67.1z"/>
	</g>
	<line id="Baseline-S" class="st7" x1="263" y1="696" x2="3036" y2="696"/>
	<line id="Capline-S" class="st7" x1="263" y1="625.5" x2="3036" y2="625.5"/>
	<g id="H-reference_1_" transform="matrix(1 0 0 1 339 1126)">
		<path class="st6" d="M54.9,0h2.7l-27-70.5h-2.5L1,0h2.7L13-24.5h32.8L54.9,0z M29.2-67.1h0.2l15.4,40.4h-31L29.2-67.1z"/>
	</g>
	<line id="Baseline-M" class="st7" x1="263" y1="1126" x2="3036" y2="1126"/>
	<line id="Capline-M" class="st7" x1="263" y1="1055.5" x2="3036" y2="1055.5"/>
	<g id="H-reference_2_" transform="matrix(1 0 0 1 339 1556)">
		<path class="st6" d="M54.9,0h2.7l-27-70.5h-2.5L1,0h2.7L13-24.5h32.8L54.9,0z M29.2-67.1h0.2l15.4,40.4h-31L29.2-67.1z"/>
	</g>
	<line id="Baseline-L" class="st7" x1="263" y1="1556" x2="3036" y2="1556"/>
	<line id="Capline-L" class="st7" x1="263" y1="1485.5" x2="3036" y2="1485.5"/>
	<rect id="left-margin" x="1380" y="1030.8" class="st5" width="12.5" height="119.3"/>
	<rect id="right-margin" x="1507.2" y="1030.8" class="st5" width="12.5" height="119.3"/>
</g>
<g id="Symbols">
	<g id="Black-L" transform="matrix(1 0 0 1 2833.06 1556)">
		<path class="st8" d="M141.7-54.3v-1l-8.4-13.8c-0.5-0.9-1.4-1.4-2.4-1.4H74.3c-1,0-1.8,0.4-2.3,1.2l-9.6,13.7l0,0l-0.2,0.3h-0.1
			v0.6c0,0.1,0,0.3,0,0.3l0,0v4.1c0,3.6,2.2,6.8,5.4,8.2v39c0,1.6,1.2,2.8,2.8,2.8h63c1.6,0,2.8-1.2,2.8-2.8v-38.6
			c3.3-1.4,5.4-4.7,5.4-8.2C141.7-49.6,141.7-54.3,141.7-54.3z M118-64.8l5.8,11.7v4.8c0,3-2.4,5.4-5.4,5.4s-5.4-2.4-5.4-5.4v-5.4
			l0,0v-0.8l0,0l-3-10.2L118-64.8z M79.8-49.7v-3.4l7-11.7h7l-3,10.2l0,0v0.5l0,0v5.4c0,3-2.4,5.4-5.4,5.4s-5.4-2.4-5.4-5.4
			L79.8-49.7z M130.7-5.4h-6.7v-22.8c0-1.6-1.2-2.8-2.8-2.8h-16.4c-1.6,0-2.8,1.2-2.8,2.8v22.7H73v-35.6c1.1-0.3,2.2-0.8,3-1.4
			c3.3,5.2,10,6.7,15.2,3.5c0.9-0.6,1.7-1.2,2.4-2.1c4.1,4.6,11,4.9,15.5,1c0.3-0.3,0.6-0.6,1-1c4,4.6,11,5,15.5,1
			c0.8-0.7,1.5-1.5,2.1-2.4c1,0.7,2,1.1,3,1.4L130.7-5.4L130.7-5.4z M82.5-31h11.8c1.6,0,2.8,1.2,2.8,2.8v9.5c0,1.6-1.2,2.8-2.8,2.8
			H82.5c-1.6,0-2.8-1.2-2.8-2.8v-9.5C79.7-29.7,80.9-31,82.5-31z"/>
	</g>
	<g id="Heavy-L" transform="matrix(1 0 0 1 2539.2 1556)">
		<path class="st9" d="M138.6-54.3v-1l-8.4-13.8c-0.5-0.9-1.4-1.4-2.4-1.4H71.2c-1,0-1.8,0.4-2.3,1.2l-9.6,13.7l0,0l-0.2,0.3H59v0.6
			c0,0.1,0,0.3,0,0.3l0,0v4.1c0,3.6,2.2,6.8,5.4,8.2v39c0,1.6,1.2,2.8,2.8,2.8h63c1.6,0,2.8-1.2,2.8-2.8v-38.6
			c3.3-1.4,5.4-4.7,5.4-8.2C138.6-49.6,138.6-54.3,138.6-54.3z M114.8-64.8l5.8,11.7v4.8c0,3-2.4,5.4-5.4,5.4s-5.4-2.4-5.4-5.4v-5.4
			l0,0v-0.8l0,0l-3-10.2L114.8-64.8z M76.7-49.7v-3.4l7-11.7h7l-3,10.2l0,0v0.5l0,0v5.4c0,3-2.4,5.4-5.4,5.4s-5.4-2.4-5.4-5.4
			L76.7-49.7z M127.5-5.4h-6.7v-22.8c0-1.6-1.2-2.8-2.8-2.8h-16.4c-1.6,0-2.8,1.2-2.8,2.8v22.7h-29v-35.6c1.1-0.3,2.2-0.8,3-1.4
			c3.3,5.2,10,6.7,15.2,3.5c0.9-0.6,1.7-1.2,2.4-2.1c4.1,4.6,11,4.9,15.5,1c0.3-0.3,0.6-0.6,1-1c4,4.6,11,5,15.5,1
			c0.8-0.7,1.5-1.5,2.1-2.4c1,0.7,2,1.1,3,1.4L127.5-5.4L127.5-5.4z M79.3-31h11.8c1.6,0,2.8,1.2,2.8,2.8v9.5c0,1.6-1.2,2.8-2.8,2.8
			H79.3c-1.6,0-2.8-1.2-2.8-2.8v-9.5C76.6-29.7,77.8-31,79.3-31z"/>
	</g>
	<g id="Bold-L" transform="matrix(1 0 0 1 2245.69 1556)">
		<path class="st10" d="M135.8-54.3v-1l-8.4-13.8c-0.5-0.9-1.4-1.4-2.4-1.4H68.4c-1,0-1.8,0.4-2.3,1.2l-9.6,13.7l0,0l-0.2,0.3h-0.1
			v0.6c0,0.1,0,0.3,0,0.3l0,0v4.1c0,3.6,2.2,6.8,5.4,8.2v39c0,1.6,1.2,2.8,2.8,2.8h63c1.6,0,2.8-1.2,2.8-2.8v-38.6
			c3.3-1.4,5.4-4.7,5.4-8.2C135.8-49.6,135.8-54.3,135.8-54.3z M112-64.8l5.8,11.7v4.8c0,3-2.4,5.4-5.4,5.4c-3,0-5.4-2.4-5.4-5.4
			v-5.4l0,0v-0.8l0,0l-3-10.2L112-64.8z M73.8-49.7v-3.4l7-11.7h7l-3,10.2l0,0v0.5l0,0v5.4c0,3-2.4,5.4-5.4,5.4s-5.4-2.4-5.4-5.4
			L73.8-49.7z M124.7-5.4H118v-22.8c0-1.6-1.2-2.8-2.8-2.8H98.8c-1.6,0-2.8,1.2-2.8,2.8v22.7H67v-35.6c1.1-0.3,2.2-0.8,3-1.4
			c3.3,5.2,10,6.7,15.2,3.5c0.9-0.6,1.7-1.2,2.4-2.1c4.1,4.6,11,4.9,15.5,1c0.3-0.3,0.6-0.6,1-1c4,4.6,11,5,15.5,1
			c0.8-0.7,1.5-1.5,2.1-2.4c1,0.7,2,1.1,3,1.4L124.7-5.4L124.7-5.4z M76.5-31h11.8c1.6,0,2.8,1.2,2.8,2.8v9.5c0,1.6-1.2,2.8-2.8,2.8
			H76.5c-1.6,0-2.8-1.2-2.8-2.8v-9.5C73.7-29.7,74.9-31,76.5-31z"/>
	</g>
	<g id="Semibold-L" transform="matrix(1 0 0 1 1951.2 1556)">
		<path class="st11" d="M130.6-54.3v-1l-8.4-13.8c-0.5-0.9-1.4-1.4-2.4-1.4H63.2c-1,0-1.8,0.4-2.3,1.2l-9.6,13.7l0,0l-0.2,0.3h-0.1
			v0.6c0,0.1,0,0.3,0,0.3l0,0v4.1c0,3.6,2.2,6.8,5.4,8.2v39c0,1.6,1.2,2.8,2.8,2.8h63c1.6,0,2.8-1.2,2.8-2.8v-38.6
			c3.3-1.4,5.4-4.7,5.4-8.2C130.6-49.6,130.6-54.3,130.6-54.3z M106.9-64.8l5.8,11.7v4.8c0,3-2.4,5.4-5.4,5.4c-3,0-5.4-2.4-5.4-5.4
			v-5.4l0,0v-0.8l0,0l-3-10.2L106.9-64.8z M68.7-49.7v-3.4l7-11.7h7l-3,10.2l0,0v0.5l0,0v5.4c0,3-2.4,5.4-5.4,5.4s-5.4-2.4-5.4-5.4
			L68.7-49.7z M119.6-5.4h-6.7v-22.8c0-1.6-1.2-2.8-2.8-2.8H93.7c-1.6,0-2.8,1.2-2.8,2.8v22.7h-29v-35.6c1.1-0.3,2.2-0.8,3-1.4
			c3.3,5.2,10,6.7,15.2,3.5c0.9-0.6,1.7-1.2,2.4-2.1c4.1,4.6,11,4.9,15.5,1c0.3-0.3,0.6-0.6,1-1c4,4.6,11,5,15.5,1
			c0.8-0.7,1.5-1.5,2.1-2.4c1,0.7,2,1.1,3,1.4L119.6-5.4L119.6-5.4z M71.4-31h11.8c1.6,0,2.8,1.2,2.8,2.8v9.5c0,1.6-1.2,2.8-2.8,2.8
			H71.4c-1.6,0-2.8-1.2-2.8-2.8v-9.5C68.6-29.7,69.8-31,71.4-31z"/>
	</g>
	<g id="Medium-L" transform="matrix(1 0 0 1 1656.15 1556)">
		<path class="st12" d="M131.1-54.3v-1l-8.4-13.8c-0.5-0.9-1.4-1.4-2.4-1.4H63.7c-1,0-1.8,0.4-2.3,1.2l-9.6,13.7l0,0l-0.2,0.3h-0.1
			v0.6c0,0.1,0,0.3,0,0.3l0,0v4.1c0,3.6,2.2,6.8,5.4,8.2v39c0,1.6,1.2,2.8,2.8,2.8h63c1.6,0,2.8-1.2,2.8-2.8v-38.6
			c3.3-1.4,5.4-4.7,5.4-8.2C131.1-49.6,131.1-54.3,131.1-54.3z M107.3-64.8l5.8,11.7v4.8c0,3-2.4,5.4-5.4,5.4s-5.4-2.4-5.4-5.4v-5.4
			l0,0v-0.8l0,0l-3-10.2L107.3-64.8z M69.2-49.7v-3.4l7-11.7h7l-3,10.2l0,0v0.5l0,0v5.4c0,3-2.4,5.4-5.4,5.4c-3,0-5.4-2.4-5.4-5.4
			L69.2-49.7z M120-5.4h-6.7v-22.8c0-1.6-1.2-2.8-2.8-2.8H94.1c-1.6,0-2.8,1.2-2.8,2.8v22.7h-29v-35.6c1.1-0.3,2.2-0.8,3-1.4
			c3.3,5.2,10,6.7,15.2,3.5c0.9-0.6,1.7-1.2,2.4-2.1c4.1,4.6,11,4.9,15.5,1c0.3-0.3,0.6-0.6,1-1c4,4.6,11,5,15.5,1
			c0.8-0.7,1.5-1.5,2.1-2.4c1,0.7,2,1.1,3,1.4L120-5.4L120-5.4z M71.8-31h11.8c1.6,0,2.8,1.2,2.8,2.8v9.5c0,1.6-1.2,2.8-2.8,2.8
			H71.8c-1.6,0-2.8-1.2-2.8-2.8v-9.5C69.1-29.7,70.3-31,71.8-31z"/>
	</g>
	<g id="Regular-L" transform="matrix(1 0 0 1 1361.64 1556)">
		<path class="st13" d="M129-54.3v-1l-8.4-13.8c-0.5-0.9-1.4-1.4-2.4-1.4H61.7c-1,0-1.8,0.4-2.3,1.2l-9.6,13.7l0,0l-0.2,0.3h-0.1
			v0.6c0,0.1,0,0.3,0,0.3l0,0v4.1c0,3.6,2.2,6.8,5.4,8.2v39c0,1.6,1.2,2.8,2.8,2.8h63c1.6,0,2.8-1.2,2.8-2.8v-38.6
			c3.3-1.4,5.4-4.7,5.4-8.2C129-49.6,129-54.3,129-54.3z M105.3-64.8l5.8,11.7v4.8c0,3-2.4,5.4-5.4,5.4s-5.4-2.4-5.4-5.4v-5.4l0,0
			v-0.8l0,0l-3-10.2L105.3-64.8z M67.1-49.7v-3.4l7-11.7h7l-3,10.2l0,0v0.5l0,0v5.4c0,3-2.4,5.4-5.4,5.4s-5.4-2.4-5.4-5.4L67.1-49.7
			z M118-5.4h-6.7v-22.8c0-1.6-1.2-2.8-2.8-2.8H92.1c-1.6,0-2.8,1.2-2.8,2.8v22.7h-29v-35.6c1.1-0.3,2.2-0.8,3-1.4
			c3.3,5.2,10,6.7,15.2,3.5c0.9-0.6,1.7-1.2,2.4-2.1c4.1,4.6,11,4.9,15.5,1c0.3-0.3,0.6-0.6,1-1c4,4.6,11,5,15.5,1
			c0.8-0.7,1.5-1.5,2.1-2.4c1,0.7,2,1.1,3,1.4L118-5.4L118-5.4z M69.8-31h11.8c1.6,0,2.8,1.2,2.8,2.8v9.5c0,1.6-1.2,2.8-2.8,2.8
			H69.8c-1.6,0-2.8-1.2-2.8-2.8v-9.5C67-29.7,68.2-31,69.8-31z"/>
	</g>
	<g id="Light-L" transform="matrix(1 0 0 1 1067.42 1556)">
		<path class="st14" d="M146.7-54.3v-1l-8.4-13.8c-0.5-0.9-1.4-1.4-2.4-1.4H79.3c-1,0-1.8,0.4-2.3,1.2l-9.6,13.7l0,0l-0.2,0.3h-0.1
			v0.6c0,0.1,0,0.3,0,0.3l0,0v4.1c0,3.6,2.2,6.8,5.4,8.2v39c0,1.6,1.2,2.8,2.8,2.8h63c1.6,0,2.8-1.2,2.8-2.8v-38.6
			c3.3-1.4,5.4-4.7,5.4-8.2C146.7-49.6,146.7-54.3,146.7-54.3z M122.9-64.8l5.8,11.7v4.8c0,3-2.4,5.4-5.4,5.4c-3,0-5.4-2.4-5.4-5.4
			v-5.4l0,0v-0.8l0,0l-3-10.2L122.9-64.8z M84.8-49.7v-3.4l7-11.7h7l-3,10.2l0,0v0.5l0,0v5.4c0,3-2.4,5.4-5.4,5.4
			c-3,0-5.4-2.4-5.4-5.4L84.8-49.7z M135.6-5.4h-6.7v-22.8c0-1.6-1.2-2.8-2.8-2.8h-16.4c-1.6,0-2.8,1.2-2.8,2.8v22.7h-29v-35.6
			c1.1-0.3,2.2-0.8,3-1.4c3.3,5.2,10,6.7,15.2,3.5c0.9-0.6,1.7-1.2,2.4-2.1c4.1,4.6,11,4.9,15.5,1c0.3-0.3,0.6-0.6,1-1
			c4,4.6,11,5,15.5,1c0.8-0.7,1.5-1.5,2.1-2.4c1,0.7,2,1.1,3,1.4L135.6-5.4L135.6-5.4z M87.4-31h11.8c1.6,0,2.8,1.2,2.8,2.8v9.5
			c0,1.6-1.2,2.8-2.8,2.8H87.4c-1.6,0-2.8-1.2-2.8-2.8v-9.5C84.7-29.7,85.9-31,87.4-31z"/>
	</g>
	<g id="Thin-L" transform="matrix(1 0 0 1 774 1556)">
		<path class="st15" d="M123.9-54.3v-1l-8.4-13.8c-0.5-0.9-1.4-1.4-2.4-1.4H56.5c-1,0-1.8,0.4-2.3,1.2l-9.6,13.7l0,0l-0.2,0.3h-0.1
			v0.6c0,0.1,0,0.3,0,0.3l0,0v4.1c0,3.6,2.2,6.8,5.4,8.2v39c0,1.6,1.2,2.8,2.8,2.8h63c1.6,0,2.8-1.2,2.8-2.8v-38.6
			c3.3-1.4,5.4-4.7,5.4-8.2C123.9-49.6,123.9-54.3,123.9-54.3z M100.2-64.8l5.8,11.7v4.8c0,3-2.4,5.4-5.4,5.4s-5.4-2.4-5.4-5.4v-5.4
			l0,0v-0.8l0,0l-3-10.2L100.2-64.8z M62-49.7v-3.4l7-11.7h7l-3,10.2l0,0v0.5l0,0v5.4c0,3-2.4,5.4-5.4,5.4s-5.4-2.4-5.4-5.4L62-49.7
			z M112.9-5.4h-6.7v-22.8c0-1.6-1.2-2.8-2.8-2.8H86.9c-1.6,0-2.8,1.2-2.8,2.8v22.7h-29v-35.6c1.1-0.3,2.2-0.8,3-1.4
			c3.3,5.2,10,6.7,15.2,3.5c0.9-0.6,1.7-1.2,2.4-2.1c4.1,4.6,11,4.9,15.5,1c0.3-0.3,0.6-0.6,1-1c4,4.6,11,5,15.5,1
			c0.8-0.7,1.5-1.5,2.1-2.4c1,0.7,2,1.1,3,1.4L112.9-5.4L112.9-5.4z M64.7-31h11.8c1.6,0,2.8,1.2,2.8,2.8v9.5c0,1.6-1.2,2.8-2.8,2.8
			H64.7c-1.6,0-2.8-1.2-2.8-2.8v-9.5C61.9-29.7,63.1-31,64.7-31z"/>
	</g>
	<g id="Ultralight-L" transform="matrix(1 0 0 1 478.974 1556)">
		<path d="M121.7-54.3v-1l-8.4-13.8c-0.5-0.9-1.4-1.4-2.4-1.4H54.3c-1,0-1.8,0.4-2.3,1.2l-9.6,13.7l0,0l-0.2,0.3h-0.1v0.6
			c0,0.1,0,0.3,0,0.3l0,0v4.1c0,3.6,2.2,6.8,5.4,8.2v39c0,1.6,1.2,2.8,2.8,2.8h63c1.6,0,2.8-1.2,2.8-2.8v-38.6
			c3.3-1.4,5.4-4.7,5.4-8.2C121.7-49.6,121.7-54.3,121.7-54.3z M98-64.8l5.8,11.7v4.8c0,3-2.4,5.4-5.4,5.4s-5.4-2.4-5.4-5.4v-5.4
			l0,0v-0.8l0,0l-3-10.2L98-64.8z M59.8-49.7v-3.4l7-11.7h7l-3,10.2l0,0v0.5l0,0v5.4c0,3-2.4,5.4-5.4,5.4c-3,0-5.4-2.4-5.4-5.4
			L59.8-49.7z M110.7-5.4h-6.7v-22.8c0-1.6-1.2-2.8-2.8-2.8H84.7c-1.6,0-2.8,1.2-2.8,2.8v22.7H53v-35.6c1.1-0.3,2.2-0.8,3-1.4
			c3.3,5.2,10,6.7,15.2,3.5c0.9-0.6,1.7-1.2,2.4-2.1c4.1,4.6,11,4.9,15.5,1c0.3-0.3,0.6-0.6,1-1c4,4.6,11,5,15.5,1
			c0.8-0.7,1.5-1.5,2.1-2.4c1,0.7,2,1.1,3,1.4L110.7-5.4L110.7-5.4z M62.5-31h11.8c1.6,0,2.8,1.2,2.8,2.8v9.5c0,1.6-1.2,2.8-2.8,2.8
			H62.5c-1.6,0-2.8-1.2-2.8-2.8v-9.5C59.7-29.7,60.9-31,62.5-31z"/>
	</g>
	<g id="Black-M" transform="matrix(1 0 0 1 2853.1 1126)">
		<path class="st8" d="M120.9-54.3v-1l-8.4-13.8c-0.5-0.9-1.4-1.4-2.4-1.4H53.5c-1,0-1.8,0.4-2.3,1.2l-9.6,13.7l0,0l-0.2,0.3h-0.1
			v0.6c0,0.1,0,0.3,0,0.3l0,0v4.1c0,3.6,2.2,6.8,5.4,8.2v39c0,1.6,1.2,2.8,2.8,2.8h63c1.6,0,2.8-1.2,2.8-2.8v-38.6
			c3.3-1.4,5.4-4.7,5.4-8.2C120.9-49.6,120.9-54.3,120.9-54.3z M97.1-64.8l5.8,11.7v4.8c0,3-2.4,5.4-5.4,5.4S92-45.3,92-48.3v-5.4
			l0,0v-0.8l0,0l-3-10.2L97.1-64.8z M59-49.7v-3.4l7-11.7h7l-3,10.2l0,0v0.5l0,0v5.4c0,3-2.4,5.4-5.4,5.4c-3,0-5.4-2.4-5.4-5.4
			L59-49.7z M109.8-5.4h-6.7v-22.8c0-1.6-1.2-2.8-2.8-2.8H83.9c-1.6,0-2.8,1.2-2.8,2.8v22.7h-29v-35.6c1.1-0.3,2.2-0.8,3-1.4
			c3.3,5.2,10,6.7,15.2,3.5c0.9-0.6,1.7-1.2,2.4-2.1c4.1,4.6,11,4.9,15.5,1c0.3-0.3,0.6-0.6,1-1c4,4.6,11,5,15.5,1
			c0.8-0.7,1.5-1.5,2.1-2.4c1,0.7,2,1.1,3,1.4L109.8-5.4L109.8-5.4z M61.6-31h11.8c1.6,0,2.8,1.2,2.8,2.8v9.5c0,1.6-1.2,2.8-2.8,2.8
			H61.6c-1.6,0-2.8-1.2-2.8-2.8v-9.5C58.9-29.7,60.1-31,61.6-31z"/>
	</g>
	<g id="Heavy-M" transform="matrix(1 0 0 1 2558.88 1126)">
		<path class="st9" d="M118-54.3v-1l-8.4-13.8c-0.5-0.9-1.4-1.4-2.4-1.4H50.7c-1,0-1.8,0.4-2.3,1.2l-9.6,13.7l0,0l-0.2,0.3h-0.1v0.6
			c0,0.1,0,0.3,0,0.3l0,0v4.1c0,3.6,2.2,6.8,5.4,8.2v39c0,1.6,1.2,2.8,2.8,2.8h63c1.6,0,2.8-1.2,2.8-2.8v-38.6
			c3.3-1.4,5.4-4.7,5.4-8.2C118-49.6,118-54.3,118-54.3z M94.3-64.8l5.8,11.7v4.8c0,3-2.4,5.4-5.4,5.4s-5.4-2.4-5.4-5.4v-5.4l0,0
			v-0.8l0,0l-3-10.2L94.3-64.8z M56.1-49.7v-3.4l7-11.7h7l-3,10.2l0,0v0.5l0,0v5.4c0,3-2.4,5.4-5.4,5.4s-5.4-2.4-5.4-5.4L56.1-49.7z
			 M107-5.4h-6.7v-22.8c0-1.6-1.2-2.8-2.8-2.8H81.1c-1.6,0-2.8,1.2-2.8,2.8v22.7h-29v-35.6c1.1-0.3,2.2-0.8,3-1.4
			c3.3,5.2,10,6.7,15.2,3.5c0.9-0.6,1.7-1.2,2.4-2.1c4.1,4.6,11,4.9,15.5,1c0.3-0.3,0.6-0.6,1-1c4,4.6,11,5,15.5,1
			c0.8-0.7,1.5-1.5,2.1-2.4c1,0.7,2,1.1,3,1.4L107-5.4L107-5.4z M58.8-31h11.8c1.6,0,2.8,1.2,2.8,2.8v9.5c0,1.6-1.2,2.8-2.8,2.8
			H58.8c-1.6,0-2.8-1.2-2.8-2.8v-9.5C56-29.7,57.2-31,58.8-31z"/>
	</g>
	<g id="Bold-M" transform="matrix(1 0 0 1 2264.93 1126)">
		<path class="st10" d="M116.5-54.3v-1l-8.4-13.8c-0.5-0.9-1.4-1.4-2.4-1.4H49.1c-1,0-1.8,0.4-2.3,1.2l-9.6,13.7l0,0l-0.2,0.3H37
			v0.6c0,0.1,0,0.3,0,0.3l0,0v4.1c0,3.6,2.2,6.8,5.4,8.2v39c0,1.6,1.2,2.8,2.8,2.8h63c1.6,0,2.8-1.2,2.8-2.8v-38.6
			c3.3-1.4,5.4-4.7,5.4-8.2C116.5-49.6,116.5-54.3,116.5-54.3z M92.8-64.8l5.8,11.7v4.8c0,3-2.4,5.4-5.4,5.4c-3,0-5.4-2.4-5.4-5.4
			v-5.4l0,0v-0.8l0,0l-3-10.2L92.8-64.8z M54.6-49.7v-3.4l7-11.7h7l-3,10.2l0,0v0.5l0,0v5.4c0,3-2.4,5.4-5.4,5.4
			c-3,0-5.4-2.4-5.4-5.4L54.6-49.7z M105.5-5.4h-6.7v-22.8c0-1.6-1.2-2.8-2.8-2.8H79.5c-1.6,0-2.8,1.2-2.8,2.8v22.7h-29v-35.6
			c1.1-0.3,2.2-0.8,3-1.4c3.3,5.2,10,6.7,15.2,3.5c0.9-0.6,1.7-1.2,2.4-2.1c4.1,4.6,11,4.9,15.5,1c0.3-0.3,0.6-0.6,1-1
			c4,4.6,11,5,15.5,1c0.8-0.7,1.5-1.5,2.1-2.4c1,0.7,2,1.1,3,1.4L105.5-5.4L105.5-5.4z M57.3-31h11.8c1.6,0,2.8,1.2,2.8,2.8v9.5
			c0,1.6-1.2,2.8-2.8,2.8H57.3c-1.6,0-2.8-1.2-2.8-2.8v-9.5C54.5-29.7,55.7-31,57.3-31z"/>
	</g>
	<g id="Semibold-M" transform="matrix(1 0 0 1 1970.15 1126)">
		<path class="st11" d="M111.8-54.3v-1l-8.4-13.8c-0.5-0.9-1.4-1.4-2.4-1.4H44.4c-1,0-1.8,0.4-2.3,1.2l-9.6,13.7l0,0l-0.2,0.3h-0.1
			v0.6c0,0.1,0,0.3,0,0.3l0,0v4.1c0,3.6,2.2,6.8,5.4,8.2v39c0,1.6,1.2,2.8,2.8,2.8h63c1.6,0,2.8-1.2,2.8-2.8v-38.6
			c3.3-1.4,5.4-4.7,5.4-8.2C111.8-49.6,111.8-54.3,111.8-54.3z M88-64.8l5.8,11.7v4.8c0,3-2.4,5.4-5.4,5.4s-5.4-2.4-5.4-5.4v-5.4
			l0,0v-0.8l0,0l-3-10.2L88-64.8z M49.8-49.7v-3.4l7-11.7h7l-3,10.2l0,0v0.5l0,0v5.4c0,3-2.4,5.4-5.4,5.4s-5.4-2.4-5.4-5.4
			L49.8-49.7z M100.7-5.4H94v-22.8c0-1.6-1.2-2.8-2.8-2.8H74.8c-1.6,0-2.8,1.2-2.8,2.8v22.7H43v-35.6c1.1-0.3,2.2-0.8,3-1.4
			c3.3,5.2,10,6.7,15.2,3.5c0.9-0.6,1.7-1.2,2.4-2.1c4.1,4.6,11,4.9,15.5,1c0.3-0.3,0.6-0.6,1-1c4,4.6,11,5,15.5,1
			c0.8-0.7,1.5-1.5,2.1-2.4c1,0.7,2,1.1,3,1.4L100.7-5.4L100.7-5.4z M52.5-31h11.8c1.6,0,2.8,1.2,2.8,2.8v9.5c0,1.6-1.2,2.8-2.8,2.8
			H52.5c-1.6,0-2.8-1.2-2.8-2.8v-9.5C49.7-29.7,50.9-31,52.5-31z"/>
	</g>
	<g id="Medium-M" transform="matrix(1 0 0 1 1674.88 1126)">
		<path class="st12" d="M112.4-54.3v-1l-8.4-13.8c-0.5-0.9-1.4-1.4-2.4-1.4H45.1c-1,0-1.8,0.4-2.3,1.2l-9.6,13.7l0,0L33-55.2h-0.1
			v0.6c0,0.1,0,0.3,0,0.3l0,0v4.1c0,3.6,2.2,6.8,5.4,8.2v39c0,1.6,1.2,2.8,2.8,2.8h63c1.6,0,2.8-1.2,2.8-2.8v-38.6
			c3.3-1.4,5.4-4.7,5.4-8.2C112.4-49.6,112.4-54.3,112.4-54.3z M88.7-64.8l5.8,11.7v4.8c0,3-2.4,5.4-5.4,5.4c-3,0-5.4-2.4-5.4-5.4
			v-5.4l0,0v-0.8l0,0l-3-10.2L88.7-64.8z M50.5-49.7v-3.4l7-11.7h7l-3,10.2l0,0v0.5l0,0v5.4c0,3-2.4,5.4-5.4,5.4
			c-3,0-5.4-2.4-5.4-5.4L50.5-49.7z M101.4-5.4h-6.7v-22.8c0-1.6-1.2-2.8-2.8-2.8H75.5c-1.6,0-2.8,1.2-2.8,2.8v22.7h-29v-35.6
			c1.1-0.3,2.2-0.8,3-1.4c3.3,5.2,10,6.7,15.2,3.5c0.9-0.6,1.7-1.2,2.4-2.1c4.1,4.6,11,4.9,15.5,1c0.3-0.3,0.6-0.6,1-1
			c4,4.6,11,5,15.5,1c0.8-0.7,1.5-1.5,2.1-2.4c1,0.7,2,1.1,3,1.4L101.4-5.4L101.4-5.4z M53.2-31H65c1.6,0,2.8,1.2,2.8,2.8v9.5
			c0,1.6-1.2,2.8-2.8,2.8H53.2c-1.6,0-2.8-1.2-2.8-2.8v-9.5C50.4-29.7,51.6-31,53.2-31z"/>
	</g>
	<g id="Regular-M" transform="matrix(1 0 0 1 1380.04 1126)">
		<path class="st13" d="M110.7-54.3v-1l-8.4-13.8c-0.5-0.9-1.4-1.4-2.4-1.4H43.3c-1,0-1.8,0.4-2.3,1.2l-9.6,13.7l0,0l-0.2,0.3h-0.1
			v0.6c0,0.1,0,0.3,0,0.3l0,0v4.1c0,3.6,2.2,6.8,5.4,8.2v39c0,1.6,1.2,2.8,2.8,2.8h63c1.6,0,2.8-1.2,2.8-2.8v-38.6
			c3.3-1.4,5.4-4.7,5.4-8.2C110.7-49.6,110.7-54.3,110.7-54.3z M87-64.8l5.8,11.7v4.8c0,3-2.4,5.4-5.4,5.4s-5.4-2.4-5.4-5.4v-5.4
			l0,0v-0.8l0,0l-3-10.2L87-64.8z M48.8-49.7v-3.4l7-11.7h7l-3,10.2l0,0v0.5l0,0v5.4c0,3-2.4,5.4-5.4,5.4c-3,0-5.4-2.4-5.4-5.4
			L48.8-49.7z M99.7-5.4h-6.7v-22.8c0-1.6-1.2-2.8-2.8-2.8H73.7c-1.6,0-2.8,1.2-2.8,2.8v22.7H42v-35.6c1.1-0.3,2.2-0.8,3-1.4
			c3.3,5.2,10,6.7,15.2,3.5c0.9-0.6,1.7-1.2,2.4-2.1c4.1,4.6,11,4.9,15.5,1c0.3-0.3,0.6-0.6,1-1c4,4.6,11,5,15.5,1
			c0.8-0.7,1.5-1.5,2.1-2.4c1,0.7,2,1.1,3,1.4L99.7-5.4L99.7-5.4z M51.5-31h11.8c1.6,0,2.8,1.2,2.8,2.8v9.5c0,1.6-1.2,2.8-2.8,2.8
			H51.5c-1.6,0-2.8-1.2-2.8-2.8v-9.5C48.7-29.7,49.9-31,51.5-31z"/>
	</g>
	<g id="Light-M" transform="matrix(1 0 0 1 1085.58 1126)">
		<path class="st14" d="M127.6-54.3v-1l-8.4-13.8c-0.5-0.9-1.4-1.4-2.4-1.4H60.2c-1,0-1.8,0.4-2.3,1.2l-9.6,13.7l0,0l-0.2,0.3h-0.1
			v0.6c0,0.1,0,0.3,0,0.3l0,0v4.1c0,3.6,2.2,6.8,5.4,8.2v39c0,1.6,1.2,2.8,2.8,2.8h63c1.6,0,2.8-1.2,2.8-2.8v-38.6
			c3.3-1.4,5.4-4.7,5.4-8.2C127.6-49.6,127.6-54.3,127.6-54.3z M103.9-64.8l5.8,11.7v4.8c0,3-2.4,5.4-5.4,5.4c-3,0-5.4-2.4-5.4-5.4
			v-5.4l0,0v-0.8l0,0l-3-10.2L103.9-64.8z M65.7-49.7v-3.4l7-11.7h7l-3,10.2l0,0v0.5l0,0v5.4c0,3-2.4,5.4-5.4,5.4s-5.4-2.4-5.4-5.4
			L65.7-49.7z M116.5-5.4h-6.7v-22.8c0-1.6-1.2-2.8-2.8-2.8H90.6c-1.6,0-2.8,1.2-2.8,2.8v22.7h-29v-35.6c1.1-0.3,2.2-0.8,3-1.4
			c3.3,5.2,10,6.7,15.2,3.5c0.9-0.6,1.7-1.2,2.4-2.1c4.1,4.6,11,4.9,15.5,1c0.3-0.3,0.6-0.6,1-1c4,4.6,11,5,15.5,1
			c0.8-0.7,1.5-1.5,2.1-2.4c1,0.7,2,1.1,3,1.4L116.5-5.4L116.5-5.4z M68.4-31h11.8c1.6,0,2.8,1.2,2.8,2.8v9.5c0,1.6-1.2,2.8-2.8,2.8
			H68.4c-1.6,0-2.8-1.2-2.8-2.8v-9.5C65.6-29.7,66.8-31,68.4-31z"/>
	</g>
	<g id="Thin-M" transform="matrix(1 0 0 1 791.847 1126)">
		<path class="st15" d="M106.1-54.3v-1l-8.4-13.8c-0.5-0.9-1.4-1.4-2.4-1.4H38.7c-1,0-1.8,0.4-2.3,1.2l-9.6,13.7l0,0l-0.2,0.3h-0.1
			v0.6c0,0.1,0,0.3,0,0.3l0,0v4.1c0,3.6,2.2,6.8,5.4,8.2v39c0,1.6,1.2,2.8,2.8,2.8h63c1.6,0,2.8-1.2,2.8-2.8v-38.6
			c3.3-1.4,5.4-4.7,5.4-8.2C106.1-49.6,106.1-54.3,106.1-54.3z M82.3-64.8l5.8,11.7v4.8c0,3-2.4,5.4-5.4,5.4s-5.4-2.4-5.4-5.4v-5.4
			l0,0v-0.8l0,0l-3-10.2L82.3-64.8z M44.1-49.7v-3.4l7-11.7h7l-3,10.2l0,0v0.5l0,0v5.4c0,3-2.4,5.4-5.4,5.4c-3,0-5.4-2.4-5.4-5.4
			L44.1-49.7z M95-5.4h-6.7v-22.8c0-1.6-1.2-2.8-2.8-2.8H69.1c-1.6,0-2.8,1.2-2.8,2.8v22.7h-29v-35.6c1.1-0.3,2.2-0.8,3-1.4
			c3.3,5.2,10,6.7,15.2,3.5c0.9-0.6,1.7-1.2,2.4-2.1c4.1,4.6,11,4.9,15.5,1c0.3-0.3,0.6-0.6,1-1c4,4.6,11,5,15.5,1
			c0.8-0.7,1.5-1.5,2.1-2.4c1,0.7,2,1.1,3,1.4L95-5.4L95-5.4z M46.8-31h11.8c1.6,0,2.8,1.2,2.8,2.8v9.5c0,1.6-1.2,2.8-2.8,2.8H46.8
			c-1.6,0-2.8-1.2-2.8-2.8v-9.5C44.1-29.7,45.3-31,46.8-31z"/>
	</g>
	<g id="Ultralight-M" transform="matrix(1 0 0 1 496.65 1126)">
		<path d="M104-54.3v-1l-8.4-13.8c-0.5-0.9-1.4-1.4-2.4-1.4H36.7c-1,0-1.8,0.4-2.3,1.2l-9.6,13.7l0,0l-0.2,0.3h-0.1v0.6
			c0,0.1,0,0.3,0,0.3l0,0v4.1c0,3.6,2.2,6.8,5.4,8.2v39c0,1.6,1.2,2.8,2.8,2.8h63c1.6,0,2.8-1.2,2.8-2.8v-38.6
			c3.3-1.4,5.4-4.7,5.4-8.2C104-49.6,104-54.3,104-54.3z M80.3-64.8l5.8,11.7v4.8c0,3-2.4,5.4-5.4,5.4s-5.4-2.4-5.4-5.4v-5.4l0,0
			v-0.8l0,0l-3-10.2L80.3-64.8z M42.1-49.7v-3.4l7-11.7h7l-3,10.2l0,0v0.5l0,0v5.4c0,3-2.4,5.4-5.4,5.4s-5.4-2.4-5.4-5.4L42.1-49.7z
			 M93-5.4h-6.7v-22.8c0-1.6-1.2-2.8-2.8-2.8H67.1c-1.6,0-2.8,1.2-2.8,2.8v22.7h-29v-35.6c1.1-0.3,2.2-0.8,3-1.4
			c3.3,5.2,10,6.7,15.2,3.5c0.9-0.6,1.7-1.2,2.4-2.1c4.1,4.6,11,4.9,15.5,1c0.3-0.3,0.6-0.6,1-1c4,4.6,11,5,15.5,1
			c0.8-0.7,1.5-1.5,2.1-2.4c1,0.7,2,1.1,3,1.4L93-5.4L93-5.4z M44.8-31h11.8c1.6,0,2.8,1.2,2.8,2.8v9.5c0,1.6-1.2,2.8-2.8,2.8H44.8
			c-1.6,0-2.8-1.2-2.8-2.8v-9.5C42-29.7,43.2-31,44.8-31z"/>
	</g>
	<g id="Black-S" transform="matrix(1 0 0 1 2870.66 696)">
		<path class="st8" d="M104.2-54.3v-1l-8.4-13.8c-0.5-0.9-1.4-1.4-2.4-1.4H36.8c-1,0-1.8,0.4-2.3,1.2l-9.6,13.7l0,0l-0.2,0.3h-0.1
			v0.6c0,0.1,0,0.3,0,0.3l0,0v4.1c0,3.6,2.2,6.8,5.4,8.2v39c0,1.6,1.2,2.8,2.8,2.8h63c1.6,0,2.8-1.2,2.8-2.8v-38.6
			c3.3-1.4,5.4-4.7,5.4-8.2C104.2-49.7,104.2-54.3,104.2-54.3z M80.5-64.9l5.8,11.7v4.8c0,3-2.4,5.4-5.4,5.4s-5.4-2.4-5.4-5.4v-5.4
			l0,0v-0.8l0,0l-3-10.2L80.5-64.9z M42.3-49.8v-3.4l7-11.7h7l-3,10.2l0,0v0.5l0,0v5.4c0,3-2.4,5.4-5.4,5.4c-3,0-5.4-2.4-5.4-5.4
			L42.3-49.8z M93.1-5.5h-6.7v-22.8c0-1.6-1.2-2.8-2.8-2.8H67.2c-1.6,0-2.8,1.2-2.8,2.8v22.7h-29v-35.6c1.1-0.3,2.2-0.8,3-1.4
			c3.3,5.2,10,6.7,15.2,3.5c0.9-0.6,1.7-1.2,2.4-2.1c4.1,4.6,11,4.9,15.5,1c0.3-0.3,0.6-0.6,1-1c4,4.6,11,5,15.5,1
			c0.8-0.7,1.5-1.5,2.1-2.4c1,0.7,2,1.1,3,1.4L93.1-5.5L93.1-5.5z M45-31h11.8c1.6,0,2.8,1.2,2.8,2.8v9.5c0,1.6-1.2,2.8-2.8,2.8H45
			c-1.6,0-2.8-1.2-2.8-2.8v-9.5C42.2-29.7,43.4-31,45-31z"/>
	</g>
	<g id="Heavy-S" transform="matrix(1 0 0 1 2575.58 696)">
		<path class="st9" d="M102.2-54.3v-1l-8.4-13.8c-0.5-0.9-1.4-1.4-2.4-1.4H34.8c-1,0-1.8,0.4-2.3,1.2l-9.6,13.7l0,0l-0.2,0.3h-0.1
			v0.6c0,0.1,0,0.3,0,0.3l0,0v4.1c0,3.6,2.2,6.8,5.4,8.2v39c0,1.6,1.2,2.8,2.8,2.8h63c1.6,0,2.8-1.2,2.8-2.8v-38.6
			c3.3-1.4,5.4-4.7,5.4-8.2C102.2-49.7,102.2-54.3,102.2-54.3z M78.5-64.9l5.8,11.7v4.8c0,3-2.4,5.4-5.4,5.4s-5.4-2.4-5.4-5.4v-5.4
			l0,0v-0.8l0,0l-3-10.2L78.5-64.9z M40.3-49.8v-3.4l7-11.7h7l-3,10.2l0,0v0.5l0,0v5.4c0,3-2.4,5.4-5.4,5.4c-3,0-5.4-2.4-5.4-5.4
			L40.3-49.8z M91.2-5.5h-6.7v-22.8c0-1.6-1.2-2.8-2.8-2.8H65.2c-1.6,0-2.8,1.2-2.8,2.8v22.7h-29v-35.6c1.1-0.3,2.2-0.8,3-1.4
			c3.3,5.2,10,6.7,15.2,3.5c0.9-0.6,1.7-1.2,2.4-2.1c4.1,4.6,11,4.9,15.5,1c0.3-0.3,0.6-0.6,1-1c4,4.6,11,5,15.5,1
			c0.8-0.7,1.5-1.5,2.1-2.4c1,0.7,2,1.1,3,1.4L91.2-5.5L91.2-5.5z M43-31h11.8c1.6,0,2.8,1.2,2.8,2.8v9.5c0,1.6-1.2,2.8-2.8,2.8H43
			c-1.6,0-2.8-1.2-2.8-2.8v-9.5C40.2-29.7,41.4-31,43-31z"/>
	</g>
	<g id="Bold-S" transform="matrix(1 0 0 1 2280.7 696)">
		<path class="st10" d="M100.7-54.3v-1l-8.4-13.8c-0.5-0.9-1.4-1.4-2.4-1.4H33.4c-1,0-1.8,0.4-2.3,1.2l-9.6,13.7l0,0l-0.2,0.3h-0.1
			v0.6c0,0.1,0,0.3,0,0.3l0,0v4.1c0,3.6,2.2,6.8,5.4,8.2v39c0,1.6,1.2,2.8,2.8,2.8h63c1.6,0,2.8-1.2,2.8-2.8v-38.6
			c3.3-1.4,5.4-4.7,5.4-8.2C100.7-49.7,100.7-54.3,100.7-54.3z M77-64.9l5.8,11.7v4.8c0,3-2.4,5.4-5.4,5.4c-3,0-5.4-2.4-5.4-5.4
			v-5.4l0,0v-0.8l0,0l-3-10.2L77-64.9z M38.8-49.8v-3.4l7-11.7h7l-3,10.2l0,0v0.5l0,0v5.4c0,3-2.4,5.4-5.4,5.4c-3,0-5.4-2.4-5.4-5.4
			L38.8-49.8z M89.7-5.5h-6.7v-22.8c0-1.6-1.2-2.8-2.8-2.8H63.8c-1.6,0-2.8,1.2-2.8,2.8v22.7H32v-35.6c1.1-0.3,2.2-0.8,3-1.4
			c3.3,5.2,10,6.7,15.2,3.5c0.9-0.6,1.7-1.2,2.4-2.1c4.1,4.6,11,4.9,15.5,1c0.3-0.3,0.6-0.6,1-1c4,4.6,11,5,15.5,1
			c0.8-0.7,1.5-1.5,2.1-2.4c1,0.7,2,1.1,3,1.4L89.7-5.5L89.7-5.5z M41.5-31h11.8c1.6,0,2.8,1.2,2.8,2.8v9.5c0,1.6-1.2,2.8-2.8,2.8
			H41.5c-1.6,0-2.8-1.2-2.8-2.8v-9.5C38.7-29.7,39.9-31,41.5-31z"/>
	</g>
	<g id="Semibold-S" transform="matrix(1 0 0 1 1985.26 696)">
		<path class="st11" d="M96.6-54.3v-1l-8.4-13.8c-0.5-0.9-1.4-1.4-2.4-1.4H29.3c-1,0-1.8,0.4-2.3,1.2l-9.6,13.7l0,0l-0.2,0.3h-0.1
			v0.6c0,0.1,0,0.3,0,0.3l0,0v4.1c0,3.6,2.2,6.8,5.4,8.2v39c0,1.6,1.2,2.8,2.8,2.8h63c1.6,0,2.8-1.2,2.8-2.8v-38.6
			c3.3-1.4,5.4-4.7,5.4-8.2C96.6-49.7,96.6-54.3,96.6-54.3z M72.9-64.9l5.8,11.7v4.8c0,3-2.4,5.4-5.4,5.4s-5.4-2.4-5.4-5.4v-5.4l0,0
			v-0.8l0,0l-3-10.2L72.9-64.9z M34.7-49.8v-3.4l7-11.7h7l-3,10.2l0,0v0.5l0,0v5.4c0,3-2.4,5.4-5.4,5.4c-3,0-5.4-2.4-5.4-5.4
			L34.7-49.8z M85.6-5.5h-6.7v-22.8c0-1.6-1.2-2.8-2.8-2.8H59.7c-1.6,0-2.8,1.2-2.8,2.8v22.7h-29v-35.6c1.1-0.3,2.2-0.8,3-1.4
			c3.3,5.2,10,6.7,15.2,3.5c0.9-0.6,1.7-1.2,2.4-2.1c4.1,4.6,11,4.9,15.5,1c0.3-0.3,0.6-0.6,1-1c4,4.6,11,5,15.5,1
			c0.8-0.7,1.5-1.5,2.1-2.4c1,0.7,2,1.1,3,1.4L85.6-5.5L85.6-5.5z M37.4-31h11.8c1.6,0,2.8,1.2,2.8,2.8v9.5c0,1.6-1.2,2.8-2.8,2.8
			H37.4c-1.6,0-2.8-1.2-2.8-2.8v-9.5C34.6-29.7,35.8-31,37.4-31z"/>
	</g>
	<g id="Medium-S" transform="matrix(1 0 0 1 1689.52 696)">
		<path class="st12" d="M97.9-54.3v-1l-8.4-13.8c-0.5-0.9-1.4-1.4-2.4-1.4H30.5c-1,0-1.8,0.4-2.3,1.2l-9.6,13.7l0,0l-0.2,0.3h-0.1
			v0.6c0,0.1,0,0.3,0,0.3l0,0v4.1c0,3.6,2.2,6.8,5.4,8.2v39c0,1.6,1.2,2.8,2.8,2.8h63c1.6,0,2.8-1.2,2.8-2.8v-38.6
			c3.3-1.4,5.4-4.7,5.4-8.2C97.9-49.7,97.9-54.3,97.9-54.3z M74.1-64.9l5.8,11.7v4.8c0,3-2.4,5.4-5.4,5.4S69-45.4,69-48.4v-5.4l0,0
			v-0.8l0,0l-3-10.2L74.1-64.9z M36-49.8v-3.4l7-11.7h7l-3,10.2l0,0v0.5l0,0v5.4c0,3-2.4,5.4-5.4,5.4s-5.4-2.4-5.4-5.4L36-49.8z
			 M86.8-5.5h-6.7v-22.8c0-1.6-1.2-2.8-2.8-2.8H60.9c-1.6,0-2.8,1.2-2.8,2.8v22.7h-29v-35.6c1.1-0.3,2.2-0.8,3-1.4
			c3.3,5.2,10,6.7,15.2,3.5c0.9-0.6,1.7-1.2,2.4-2.1c4.1,4.6,11,4.9,15.5,1c0.3-0.3,0.6-0.6,1-1c4,4.6,11,5,15.5,1
			c0.8-0.7,1.5-1.5,2.1-2.4c1,0.7,2,1.1,3,1.4L86.8-5.5L86.8-5.5z M38.6-31h11.8c1.6,0,2.8,1.2,2.8,2.8v9.5c0,1.6-1.2,2.8-2.8,2.8
			H38.6c-1.6,0-2.8-1.2-2.8-2.8v-9.5C35.9-29.7,37.1-31,38.6-31z"/>
	</g>
	<g id="Regular-S" transform="matrix(1 0 0 1 1394.06 696)">
		<path class="st13" d="M97.6-54.3v-1l-8.4-13.8c-0.5-0.9-1.4-1.4-2.4-1.4H30.2c-1,0-1.8,0.4-2.3,1.2l-9.6,13.7l0,0l-0.2,0.3H18v0.6
			c0,0.1,0,0.3,0,0.3l0,0v4.1c0,3.6,2.2,6.8,5.4,8.2v39c0,1.6,1.2,2.8,2.8,2.8h63c1.6,0,2.8-1.2,2.8-2.8v-38.6
			c3.3-1.4,5.4-4.7,5.4-8.2C97.6-49.7,97.6-54.3,97.6-54.3z M73.8-64.9l5.8,11.7v4.8c0,3-2.4,5.4-5.4,5.4s-5.4-2.4-5.4-5.4v-5.4l0,0
			v-0.8l0,0l-3-10.2L73.8-64.9z M35.6-49.8v-3.4l7-11.7h7l-3,10.2l0,0v0.5l0,0v5.4c0,3-2.4,5.4-5.4,5.4c-3,0-5.4-2.4-5.4-5.4
			L35.6-49.8z M86.5-5.5h-6.7v-22.8c0-1.6-1.2-2.8-2.8-2.8H60.6c-1.6,0-2.8,1.2-2.8,2.8v22.7h-29v-35.6c1.1-0.3,2.2-0.8,3-1.4
			c3.3,5.2,10,6.7,15.2,3.5c0.9-0.6,1.7-1.2,2.4-2.1c4.1,4.6,11,4.9,15.5,1c0.3-0.3,0.6-0.6,1-1c4,4.6,11,5,15.5,1
			c0.8-0.7,1.5-1.5,2.1-2.4c1,0.7,2,1.1,3,1.4L86.5-5.5L86.5-5.5z M38.3-31h11.8c1.6,0,2.8,1.2,2.8,2.8v9.5c0,1.6-1.2,2.8-2.8,2.8
			H38.3c-1.6,0-2.8-1.2-2.8-2.8v-9.5C35.6-29.7,36.8-31,38.3-31z"/>
	</g>
	<g id="Light-S" transform="matrix(1 0 0 1 1099.35 696)">
		<path class="st14" d="M113.8-54.3v-1l-8.4-13.8c-0.5-0.9-1.4-1.4-2.4-1.4H46.5c-1,0-1.8,0.4-2.3,1.2l-9.6,13.7l0,0l-0.2,0.3h-0.1
			v0.6c0,0.1,0,0.3,0,0.3l0,0v4.1c0,3.6,2.2,6.8,5.4,8.2v39c0,1.6,1.2,2.8,2.8,2.8h63c1.6,0,2.8-1.2,2.8-2.8v-38.6
			c3.3-1.4,5.4-4.7,5.4-8.2C113.8-49.7,113.8-54.3,113.8-54.3z M90.1-64.9l5.8,11.7v4.8c0,3-2.4,5.4-5.4,5.4c-3,0-5.4-2.4-5.4-5.4
			v-5.4l0,0v-0.8l0,0l-3-10.2L90.1-64.9z M51.9-49.8v-3.4l7-11.7h7l-3,10.2l0,0v0.5l0,0v5.4c0,3-2.4,5.4-5.4,5.4
			c-3,0-5.4-2.4-5.4-5.4L51.9-49.8z M102.8-5.5H96v-22.8c0-1.6-1.2-2.8-2.8-2.8H76.9c-1.6,0-2.8,1.2-2.8,2.8v22.7h-29v-35.6
			c1.1-0.3,2.2-0.8,3-1.4c3.3,5.2,10,6.7,15.2,3.5c0.9-0.6,1.7-1.2,2.4-2.1c4.1,4.6,11,4.9,15.5,1c0.3-0.3,0.6-0.6,1-1
			c4,4.6,11,5,15.5,1c0.8-0.7,1.5-1.5,2.1-2.4c1,0.7,2,1.1,3,1.4L102.8-5.5L102.8-5.5z M54.6-31h11.8c1.6,0,2.8,1.2,2.8,2.8v9.5
			c0,1.6-1.2,2.8-2.8,2.8H54.6c-1.6,0-2.8-1.2-2.8-2.8v-9.5C51.8-29.7,53-31,54.6-31z"/>
	</g>
	<g id="Thin-S" transform="matrix(1 0 0 1 805.25 696)">
		<path class="st15" d="M92.7-54.3v-1l-8.4-13.8c-0.5-0.9-1.4-1.4-2.4-1.4H25.3c-1,0-1.8,0.4-2.3,1.2l-9.6,13.7l0,0l-0.2,0.3h-0.1
			v0.6c0,0.1,0,0.3,0,0.3l0,0v4.1c0,3.6,2.2,6.8,5.4,8.2v39c0,1.6,1.2,2.8,2.8,2.8h63c1.6,0,2.8-1.2,2.8-2.8v-38.6
			c3.3-1.4,5.4-4.7,5.4-8.2C92.7-49.7,92.7-54.3,92.7-54.3z M68.9-64.9l5.8,11.7v4.8c0,3-2.4,5.4-5.4,5.4s-5.4-2.4-5.4-5.4v-5.4l0,0
			v-0.8l0,0l-3-10.2L68.9-64.9z M30.7-49.8v-3.4l7-11.7h7l-3,10.2l0,0v0.5l0,0v5.4c0,3-2.4,5.4-5.4,5.4c-3,0-5.4-2.4-5.4-5.4
			L30.7-49.8z M81.6-5.5h-6.7v-22.8c0-1.6-1.2-2.8-2.8-2.8H55.7c-1.6,0-2.8,1.2-2.8,2.8v22.7h-29v-35.6c1.1-0.3,2.2-0.8,3-1.4
			c3.3,5.2,10,6.7,15.2,3.5c0.9-0.6,1.7-1.2,2.4-2.1c4.1,4.6,11,4.9,15.5,1c0.3-0.3,0.6-0.6,1-1c4,4.6,11,5,15.5,1
			c0.8-0.7,1.5-1.5,2.1-2.4c1,0.7,2,1.1,3,1.4L81.6-5.5L81.6-5.5z M33.4-31h11.8c1.6,0,2.8,1.2,2.8,2.8v9.5c0,1.6-1.2,2.8-2.8,2.8
			H33.4c-1.6,0-2.8-1.2-2.8-2.8v-9.5C30.7-29.7,31.9-31,33.4-31z"/>
	</g>
	<g id="Ultralight-S" transform="matrix(1 0 0 1 509.906 696)">
		<path d="M90.8-54.3v-1l-8.4-13.8C81.9-70,81-70.5,80-70.5H23.4c-1,0-1.8,0.4-2.3,1.2l-9.6,13.7l0,0l-0.2,0.3h-0.1v0.6
			c0,0.1,0,0.3,0,0.3l0,0v4.1c0,3.6,2.2,6.8,5.4,8.2v39c0,1.6,1.2,2.8,2.8,2.8h63c1.6,0,2.8-1.2,2.8-2.8v-38.6
			c3.3-1.4,5.4-4.7,5.4-8.2C90.8-49.7,90.8-54.3,90.8-54.3z M67-64.9l5.8,11.7v4.8c0,3-2.4,5.4-5.4,5.4s-5.4-2.4-5.4-5.4v-5.4l0,0
			v-0.8l0,0l-3-10.2L67-64.9z M28.9-49.8v-3.4l7-11.7h7l-3,10.2l0,0v0.5l0,0v5.4c0,3-2.4,5.4-5.4,5.4s-5.4-2.4-5.4-5.4L28.9-49.8z
			 M79.7-5.5H73v-22.8c0-1.6-1.2-2.8-2.8-2.8H53.8c-1.6,0-2.8,1.2-2.8,2.8v22.7H22v-35.6c1.1-0.3,2.2-0.8,3-1.4
			c3.3,5.2,10,6.7,15.2,3.5c0.9-0.6,1.7-1.2,2.4-2.1c4.1,4.6,11,4.9,15.5,1c0.3-0.3,0.6-0.6,1-1c4,4.6,11,5,15.5,1
			c0.8-0.7,1.5-1.5,2.1-2.4c1,0.7,2,1.1,3,1.4L79.7-5.5L79.7-5.5z M31.5-31h11.8c1.6,0,2.8,1.2,2.8,2.8v9.5c0,1.6-1.2,2.8-2.8,2.8
			H31.5c-1.6,0-2.8-1.2-2.8-2.8v-9.5C28.8-29.7,30-31,31.5-31z"/>
	</g>
</g>
</svg>
