<?xml version="1.0" encoding="utf-8"?>
<!-- Generator: Adobe Illustrator 24.0.3, SVG Export Plug-In . SVG Version: 6.00 Build 0)  -->
<svg version="1.1" id="Layer_1" xmlns="http://www.w3.org/2000/svg" xmlns:xlink="http://www.w3.org/1999/xlink" x="0px" y="0px"
	 viewBox="0 0 3300 2200" style="enable-background:new 0 0 3300 2200;" xml:space="preserve">
<style type="text/css">
	.st0{fill:#FFFFFF;}
	.st1{fill:none;stroke:#000000;stroke-width:0.5;}
	.st2{font-family:'Arial-BoldMT';}
	.st3{font-size:12px;}
	.st4{font-family:'ArialMT';}
	.st5{opacity:0.4;fill:#00AEEF;enable-background:new    ;}
	.st6{fill:#27AAE1;}
	.st7{fill:none;stroke:#27AAE1;stroke-width:0.577;}
	.st8{stroke:#000000;stroke-width:2;stroke-miterlimit:10;}
	.st9{stroke:#000000;stroke-width:1.75;stroke-miterlimit:10;}
	.st10{stroke:#000000;stroke-width:1.5;stroke-miterlimit:10;}
	.st11{stroke:#000000;stroke-width:1.25;stroke-miterlimit:10;}
	.st12{stroke:#000000;stroke-miterlimit:10;}
	.st13{stroke:#000000;stroke-width:0.75;stroke-miterlimit:10;}
	.st14{stroke:#000000;stroke-width:0.5;stroke-miterlimit:10;}
	.st15{stroke:#000000;stroke-width:0.25;stroke-miterlimit:10;}
</style>
<g id="Notes">
	<rect id="artboard" y="0" class="st0" width="3300" height="2200"/>
	<line class="st1" x1="263" y1="292" x2="3036" y2="292"/>
	<text transform="matrix(1 0 0 1 263 322)" class="st2 st3">Weight/Scale Variations</text>
	<text transform="matrix(1 0 0 1 536.0362 322)" class="st4 st3">Ultralight</text>
	<text transform="matrix(1 0 0 1 844.7501 322)" class="st4 st3">Thin</text>
	<text transform="matrix(1 0 0 1 1140.1193 322)" class="st4 st3">Light</text>
	<text transform="matrix(1 0 0 1 1428.8282 322)" class="st4 st3">Regular</text>
	<text transform="matrix(1 0 0 1 1725.2202 322)" class="st4 st3">Medium</text>
	<text transform="matrix(1 0 0 1 2018.2563 322)" class="st4 st3">Semibold</text>
	<text transform="matrix(1 0 0 1 2327.9712 322)" class="st4 st3">Bold</text>
	<text transform="matrix(1 0 0 1 2619.6831 322)" class="st4 st3">Heavy</text>
	<text transform="matrix(1 0 0 1 2918.728 322)" class="st4 st3">Black</text>
	<line class="st1" x1="263" y1="1903" x2="3036" y2="1903"/>
	<g transform="matrix(1 0 0 1 263 1933)">
		<path d="M9.2,0.8c4.3,0,7.9-3.6,7.9-7.9S13.5-15,9.2-15s-7.9,3.6-7.9,7.9C1.4-2.7,5,0.8,9.2,0.8z M9.2-0.7c-3.5,0-6.4-2.8-6.4-6.4
			s2.8-6.4,6.4-6.4s6.4,2.8,6.4,6.4C15.7-3.5,12.8-0.7,9.2-0.7z M9.2-3.4c0.5,0,0.7-0.3,0.7-0.8v-2.1h2.2C12.7-6.3,13-6.6,13-7
			c0-0.5-0.3-0.7-0.8-0.7H10V-10c0-0.5-0.3-0.8-0.7-0.8S8.5-10.5,8.5-10v2.2H6.3C5.8-7.8,5.4-7.5,5.4-7s0.4,0.7,0.8,0.7h2.2v2.1
			C8.5-3.8,8.8-3.4,9.2-3.4z"/>
	</g>
	<g transform="matrix(1 0 0 1 281.506 1933)">
		<path d="M11.7,2.9c5.4,0,10-4.5,10-10c0-5.4-4.5-10-10-10c-5.4,0-10,4.5-10,10C1.7-1.6,6.3,2.9,11.7,2.9z M11.7,1.2
			c-4.6,0-8.3-3.7-8.3-8.3s3.7-8.3,8.3-8.3S20-11.7,20-7.1C20-2.4,16.3,1.2,11.7,1.2z M11.7-2.4c0.5,0,0.8-0.4,0.8-0.9v-2.9h3.1
			c0.5,0,0.9-0.3,0.9-0.8s-0.4-0.8-0.9-0.8h-3.1v-3.1c0-0.6-0.3-0.9-0.8-0.9s-0.8,0.4-0.8,0.9v3.1h-3c-0.6-0.1-1,0.2-1,0.8
			c0,0.5,0.4,0.8,0.9,0.8h3v2.9C10.9-2.8,11.2-2.4,11.7-2.4z"/>
	</g>
	<g transform="matrix(1 0 0 1 304.924 1933)">
		<path d="M15,5.7c7,0,12.7-5.8,12.7-12.7c0-7-5.8-12.7-12.7-12.7C8-19.8,2.3-14,2.3-7C2.3-0.1,8,5.7,15,5.7z M15,3.9
			C8.9,3.9,4.1-1,4.1-7S8.9-17.9,15-17.9c6,0,10.9,4.9,10.9,10.9S21,3.9,15,3.9z M15-1.1c0.6,0,0.9-0.4,0.9-1v-4.1h4.2
			c0.6,0,1-0.3,1-0.9S20.7-8,20.1-8h-4.2v-4.2c0-0.6-0.4-1-0.9-1c-0.6,0-0.9,0.4-0.9,1V-8H9.8c-0.6,0-1,0.3-1,0.9s0.4,0.9,1,0.9H14
			v4.1C14.1-1.5,14.4-1.1,15-1.1z"/>
	</g>
	<text transform="matrix(1 0 0 1 263 1953)" class="st2 st3">Design Variations</text>
	<text transform="matrix(1 0 0 1 263 1971)" class="st4 st3">Symbols are supported in up to nine weights and three scales.</text>
	<text transform="matrix(1 0 0 1 263 1989)" class="st4 st3">For optimal layout with text and other symbols, vertically align</text>
	<text transform="matrix(1 0 0 1 263 2007)" class="st4 st3">symbols with the adjacent text.</text>
	<rect x="776" y="1919" class="st5" width="3" height="14"/>
	<g transform="matrix(1 0 0 1 779 1933)">
		<path d="M10.5,0h1.8L7.2-14.1H5.4L0.2,0H2l1.4-4H9L10.5,0z M6.3-12L6.3-12l2.3,6.4H4L6.3-12z"/>
	</g>
	<rect x="791.6" y="1919" class="st5" width="3" height="14"/>
	<text transform="matrix(1 0 0 1 776 1953)" class="st2 st3">Margins</text>
	<text transform="matrix(1 0 0 1 776 1971)" class="st4 st3">Leading and trailing margins on the left and right side of each symbol</text>
	<text transform="matrix(1 0 0 1 776 1989)" class="st4 st3">can be adjusted by modifying the width of the blue rectangles.</text>
	<text transform="matrix(1 0 0 1 776 2007)" class="st4 st3">Modifications are automatically applied proportionally to all</text>
	<text transform="matrix(1 0 0 1 776 2025)" class="st4 st3">scales and weights.</text>
	<g transform="matrix(1 0 0 1 1289 1933)">
		<path d="M2.8,3.1l1.5,1.5C5.1,5.4,6.1,5.4,7,4.4L17.3-6.7c0.4,0.3,0.8,0.3,1.3,0.2l1-0.2L20.3-6v0.5c-0.1,0.5,0.1,1,0.5,1.5
			l0.8,0.8c0.5,0.5,1.2,0.5,1.6,0.1l3.3-3.3C27-6.9,27-7.5,26.5-8l-0.8-0.8c-0.5-0.5-0.9-0.7-1.4-0.6l-0.5,0.1L23.1-10l0.3-1.1
			c0.1-0.6,0-1-0.6-1.6l-2.4-2.4c-3.5-3.5-8.1-3.4-11.2-0.3C8.8-15,8.7-14.4,9-14c0.2,0.4,0.7,0.6,1.4,0.4c1.5-0.4,3-0.3,4.5,0.7
			l-0.6,1.6c-0.2,0.6-0.2,1.1,0,1.5L3,0.4C2.1,1.3,2,2.3,2.8,3.1z M10.7-15.1c2.7-2,6-1.7,8.4,0.7l2.6,2.6c0.2,0.2,0.3,0.4,0.2,0.7
			l-0.4,1.6L23.1-8H24c0.3,0,0.4,0,0.6,0.2l0.6,0.6l-2.8,2.7l-0.6-0.6c-0.2-0.2-0.2-0.3-0.2-0.6l0.1-1l-1.6-1.6L18.5-8
			c-0.3,0.1-0.4,0.1-0.7-0.2l-2.2-2.2c-0.2-0.2-0.3-0.4-0.1-0.7l0.9-2.3c-1.6-1.5-3.7-2.4-5.8-1.7c-0.1,0-0.2,0-0.2,0
			C10.6-15,10.6-15.1,10.7-15.1z M4.1,2.4c-0.5-0.5-0.3-0.8,0-1.1l11-10.1l1.2,1.2L6.2,3.3c-0.3,0.3-0.7,0.4-1.1,0L4.1,2.4z"/>
	</g>
	<text transform="matrix(1 0 0 1 1289 1953)" class="st2 st3">Exporting</text>
	<text transform="matrix(1 0 0 1 1289 1971)" class="st4 st3">Symbols should be outlined when exporting to ensure the</text>
	<text transform="matrix(1 0 0 1 1289 1989)" class="st4 st3">design is preserved when submitting to Xcode.</text>
	<text id="template-version" transform="matrix(1 0 0 1 2958.8496 1933)" class="st4 st3">Template v.1.0</text>
	<text transform="matrix(1 0 0 1 2913.4863 1951)" class="st4 st3">Generated from shuffle</text>
	<text transform="matrix(1 0 0 1 2921.9238 1969)" class="st4 st3">Typeset at 100 points</text>
	<text transform="matrix(1 0 0 1 263 726)" class="st4 st3">Small</text>
	<text transform="matrix(1 0 0 1 263 1156)" class="st4 st3">Medium</text>
	<text transform="matrix(1 0 0 1 263 1586)" class="st4 st3">Large</text>
</g>
<g id="Guides">
	<g id="H-reference" transform="matrix(1 0 0 1 339 696)">
		<path class="st6" d="M54.9,0h2.7l-27-70.5h-2.5L1,0h2.7L13-24.5h32.8L54.9,0z M29.2-67.1h0.2l15.4,40.4h-31L29.2-67.1z"/>
	</g>
	<line id="Baseline-S" class="st7" x1="263" y1="696" x2="3036" y2="696"/>
	<line id="Capline-S" class="st7" x1="263" y1="625.5" x2="3036" y2="625.5"/>
	<g id="H-reference_1_" transform="matrix(1 0 0 1 339 1126)">
		<path class="st6" d="M54.9,0h2.7l-27-70.5h-2.5L1,0h2.7L13-24.5h32.8L54.9,0z M29.2-67.1h0.2l15.4,40.4h-31L29.2-67.1z"/>
	</g>
	<line id="Baseline-M" class="st7" x1="263" y1="1126" x2="3036" y2="1126"/>
	<line id="Capline-M" class="st7" x1="263" y1="1055.5" x2="3036" y2="1055.5"/>
	<g id="H-reference_2_" transform="matrix(1 0 0 1 339 1556)">
		<path class="st6" d="M54.9,0h2.7l-27-70.5h-2.5L1,0h2.7L13-24.5h32.8L54.9,0z M29.2-67.1h0.2l15.4,40.4h-31L29.2-67.1z"/>
	</g>
	<line id="Baseline-L" class="st7" x1="263" y1="1556" x2="3036" y2="1556"/>
	<line id="Capline-L" class="st7" x1="263" y1="1485.5" x2="3036" y2="1485.5"/>
	<rect id="left-margin" x="1380" y="1030.8" class="st5" width="12.5" height="119.3"/>
	<rect id="right-margin" x="1507.2" y="1030.8" class="st5" width="12.5" height="119.3"/>
</g>
<g id="Symbols">
	<g id="Black-L" transform="matrix(1 0 0 1 2833.06 1556)">
		<path class="st8" d="M147.8-10.7c-0.2,0.5-0.3,1.1-0.5,1.6c-1.5,4.9-5.9,8.2-11.1,8.2c-23.5,0-47.1-0.1-70.7,0c-5,0-8.2-3.2-9-6.4
			c-0.2-0.7-0.3-1.5-0.3-2.2c0-14.3,0-28.5,0-42.8c-0.1-1.6,1-2.9,2.6-3c0.2,0,0.3,0,0.5,0h8.4c0-0.7,0-1.4,0-2.1c0-3,0-6.1,0-9.2
			c-0.1-1.6,1-2.8,2.6-3c0.1,0,0.3,0,0.4,0h74.2c1.4,0,2.6,0.8,2.9,2.1C147.8-67.5,147.8-10.7,147.8-10.7z M73.5-63.8
			c0,0.3,0,0.5,0,0.5c0,12,0,24,0,36c0,6.9,0.3,13.6-0.2,20.6h62.9c3.2,0,5.8-2.5,5.9-5.7c0-0.1,0-0.1,0-0.2c0-16.8,0-33.7,0-50.5
			c0-0.3,0-0.5,0-0.8L73.5-63.8L73.5-63.8z M62.1-49.5c0,0.2,0,0.3,0,0.4c0,13.2,0,26.3,0,39.4c-0.1,1.6,1.2,2.9,2.7,2.9
			c1.6,0,2.9-1.2,2.9-2.7c0-0.1,0-0.2,0-0.3c0-12.9,0-25.8,0-38.8c0-0.3,0-0.6,0-0.9C67.7-49.5,62.1-49.5,62.1-49.5z M107.7-49.3
			H83.6c-1.6,0.1-2.9-1.2-2.9-2.7c-0.1-1.6,1.2-2.9,2.7-2.9H132c1.6,0,2.9,1.2,2.9,2.7c0,1.3-0.8,2.4-2,2.8
			c-0.4,0.1-0.7,0.1-1.2,0.1L107.7-49.3L107.7-49.3z M107.8-43.7h24.2c1.6,0,2.8,1.3,2.9,2.8c0,1.3-0.8,2.5-2.1,2.8
			c-0.3,0.1-0.6,0.1-1,0.1H83.6c-1.6,0.1-2.8-1.1-2.9-2.7c0-0.1,0-0.1,0-0.2c0-1.6,1.2-2.7,2.7-2.8c0.1,0,0.2,0,0.3,0
			C83.6-43.7,107.8-43.7,107.8-43.7z M93.2-31.7h8.4c1.6-0.1,2.9,1,3,2.6c0,0.1,0,0.3,0,0.4c0,3.8,0,7.5,0,11.3
			c0.1,1.6-1.1,2.8-2.6,2.9c-0.1,0-0.3,0-0.4,0H84.8c-1.6,0.1-2.9-1.1-3-2.7c0-0.1,0-0.2,0-0.4c0-3.8,0-7.6,0-11.3
			c0-1.6,1.2-2.8,2.7-2.8c0.1,0,0.1,0,0.2,0L93.2-31.7L93.2-31.7z M122.8-31.7h9.1c1.6-0.1,2.9,1.1,3,2.7c0.1,1.6-1.1,2.9-2.7,3
			c-0.1,0-0.2,0-0.4,0c-6.1,0-12.4,0-18.5,0c-1.4,0-2.6-1-2.7-2.4c-0.3-1.4,0.5-2.7,1.9-3.2c0.4-0.1,0.7-0.1,1.1-0.1L122.8-31.7
			L122.8-31.7z M122.8-14.5h-9.1c-1.6,0.1-2.9-1.1-3-2.7c-0.1-1.6,1.1-2.9,2.7-3c0.1,0,0.2,0,0.4,0h18.2c1.6,0,2.8,1.3,2.8,2.8
			c0,1.6-1.3,2.8-2.8,2.8l0,0C128.8-14.6,125.8-14.6,122.8-14.5L122.8-14.5L122.8-14.5z"/>
	</g>
	<g id="Heavy-L" transform="matrix(1 0 0 1 2539.2 1556)">
		<path class="st9" d="M144.6-10.7c-0.2,0.5-0.3,1.1-0.5,1.6c-1.5,4.9-5.9,8.2-11.1,8.2c-23.5,0-47.1-0.1-70.7,0c-5,0-8.2-3.2-9-6.4
			c-0.2-0.7-0.3-1.5-0.3-2.2c0-14.3,0-28.5,0-42.8c-0.1-1.6,1-2.9,2.6-3c0.2,0,0.3,0,0.5,0h8.4c0-0.7,0-1.4,0-2.1c0-3,0-6.1,0-9.2
			c-0.1-1.6,1-2.8,2.6-3c0.1,0,0.3,0,0.4,0h74.2c1.4,0,2.6,0.8,2.9,2.1C144.6-67.5,144.6-10.7,144.6-10.7z M70.3-63.8
			c0,0.3,0,0.5,0,0.5c0,12,0,24,0,36c0,6.9,0.3,13.6-0.2,20.6H133c3.2,0,5.8-2.5,5.9-5.7c0-0.1,0-0.1,0-0.2c0-16.8,0-33.7,0-50.5
			c0-0.3,0-0.5,0-0.8L70.3-63.8L70.3-63.8z M58.8-49.5c0,0.2,0,0.3,0,0.4c0,13.2,0,26.3,0,39.4c-0.1,1.6,1.2,2.9,2.7,2.9
			c1.6,0,2.9-1.2,2.9-2.7c0-0.1,0-0.2,0-0.3c0-12.9,0-25.8,0-38.8c0-0.3,0-0.6,0-0.9C64.5-49.5,58.8-49.5,58.8-49.5z M104.5-49.3
			H80.4c-1.6,0.1-2.9-1.2-2.9-2.7c-0.1-1.6,1.2-2.9,2.7-2.9h48.6c1.6,0,2.9,1.2,2.9,2.7c0,1.3-0.8,2.4-2,2.8
			c-0.4,0.1-0.7,0.1-1.2,0.1L104.5-49.3L104.5-49.3z M104.6-43.7h24.2c1.6,0,2.8,1.3,2.9,2.8c0,1.3-0.8,2.5-2.1,2.8
			c-0.3,0.1-0.6,0.1-1,0.1H80.3c-1.6,0.1-2.8-1.1-2.9-2.7c0-0.1,0-0.1,0-0.2c0-1.6,1.2-2.7,2.7-2.8c0.1,0,0.2,0,0.3,0
			C80.3-43.7,104.6-43.7,104.6-43.7z M90-31.7h8.4c1.6-0.1,2.9,1,3,2.6c0,0.1,0,0.3,0,0.4c0,3.8,0,7.5,0,11.3
			c0.1,1.6-1.1,2.8-2.6,2.9c-0.1,0-0.3,0-0.4,0H81.6c-1.6,0.1-2.9-1.1-3-2.7c0-0.1,0-0.2,0-0.4c0-3.8,0-7.6,0-11.3
			c0-1.6,1.2-2.8,2.7-2.8c0.1,0,0.1,0,0.2,0L90-31.7L90-31.7z M119.6-31.7h9.1c1.6-0.1,2.9,1.1,3,2.7c0.1,1.6-1.1,2.9-2.7,3
			c-0.1,0-0.2,0-0.4,0c-6.1,0-12.4,0-18.5,0c-1.4,0-2.6-1-2.7-2.4c-0.3-1.4,0.5-2.7,1.9-3.2c0.4-0.1,0.7-0.1,1.1-0.1L119.6-31.7
			L119.6-31.7z M119.6-14.5h-9.1c-1.6,0.1-2.9-1.1-3-2.7c-0.1-1.6,1.1-2.9,2.7-3c0.1,0,0.2,0,0.4,0h18.2c1.6,0,2.8,1.3,2.8,2.8
			c0,1.6-1.3,2.8-2.8,2.8l0,0C125.6-14.6,122.6-14.6,119.6-14.5L119.6-14.5L119.6-14.5z"/>
	</g>
	<g id="Bold-L" transform="matrix(1 0 0 1 2245.69 1556)">
		<path class="st10" d="M141.3-10.7c-0.2,0.5-0.3,1.1-0.5,1.6c-1.5,4.9-5.9,8.2-11.1,8.2c-23.5,0-47.1-0.1-70.7,0
			c-5,0-8.2-3.2-9-6.4c-0.2-0.7-0.3-1.5-0.3-2.2c0-14.3,0-28.5,0-42.8c-0.1-1.6,1-2.9,2.6-3c0.2,0,0.3,0,0.5,0h8.4
			c0-0.7,0-1.4,0-2.1c0-3,0-6.1,0-9.2c-0.1-1.6,1-2.8,2.6-3c0.1,0,0.3,0,0.4,0h74.2c1.4,0,2.6,0.8,2.9,2.1
			C141.3-67.5,141.3-10.7,141.3-10.7z M67-63.8c0,0.3,0,0.5,0,0.5c0,12,0,24,0,36c0,6.9,0.3,13.6-0.2,20.6h62.9
			c3.2,0,5.8-2.5,5.9-5.7c0-0.1,0-0.1,0-0.2c0-16.8,0-33.7,0-50.5c0-0.3,0-0.5,0-0.8L67-63.8L67-63.8z M55.6-49.5c0,0.2,0,0.3,0,0.4
			c0,13.2,0,26.3,0,39.4c-0.1,1.6,1.2,2.9,2.7,2.9c1.6,0,2.9-1.2,2.9-2.7c0-0.1,0-0.2,0-0.3c0-12.9,0-25.8,0-38.8c0-0.3,0-0.6,0-0.9
			C61.2-49.5,55.6-49.5,55.6-49.5z M101.2-49.3H77.2c-1.6,0.1-2.9-1.2-2.9-2.7C74.1-53.6,75.4-55,77-55h48.6c1.6,0,2.9,1.2,2.9,2.7
			c0,1.3-0.8,2.4-2,2.8c-0.4,0.1-0.7,0.1-1.2,0.1L101.2-49.3L101.2-49.3z M101.3-43.7h24.2c1.6,0,2.8,1.3,2.9,2.8
			c0,1.3-0.8,2.5-2.1,2.8c-0.3,0.1-0.6,0.1-1,0.1H77.1c-1.6,0.1-2.8-1.1-2.9-2.7c0-0.1,0-0.1,0-0.2c0-1.6,1.2-2.7,2.7-2.8
			c0.1,0,0.2,0,0.3,0C77.1-43.7,101.3-43.7,101.3-43.7z M86.8-31.7h8.4c1.6-0.1,2.9,1,3,2.6c0,0.1,0,0.3,0,0.4c0,3.8,0,7.5,0,11.3
			c0.1,1.6-1.1,2.8-2.6,2.9c-0.1,0-0.3,0-0.4,0H78.3c-1.6,0.1-2.9-1.1-3-2.7c0-0.1,0-0.2,0-0.4c0-3.8,0-7.6,0-11.3
			c0-1.6,1.2-2.8,2.7-2.8c0.1,0,0.1,0,0.2,0L86.8-31.7L86.8-31.7z M116.3-31.7h9.1c1.6-0.1,2.9,1.1,3,2.7c0.1,1.6-1.1,2.9-2.7,3
			c-0.1,0-0.2,0-0.4,0c-6.1,0-12.4,0-18.5,0c-1.4,0-2.6-1-2.7-2.4c-0.3-1.4,0.5-2.7,1.9-3.2c0.4-0.1,0.7-0.1,1.1-0.1L116.3-31.7
			L116.3-31.7z M116.3-14.5h-9.1c-1.6,0.1-2.9-1.1-3-2.7c-0.1-1.6,1.1-2.9,2.7-3c0.1,0,0.2,0,0.4,0h18.2c1.6,0,2.8,1.3,2.8,2.8
			c0,1.6-1.3,2.8-2.8,2.8l0,0C122.4-14.6,119.3-14.6,116.3-14.5L116.3-14.5L116.3-14.5z"/>
	</g>
	<g id="Semibold-L" transform="matrix(1 0 0 1 1951.2 1556)">
		<path class="st11" d="M136.7-10.7c-0.2,0.5-0.3,1.1-0.5,1.6c-1.5,4.9-5.9,8.2-11.1,8.2c-23.5,0-47.1-0.1-70.7,0
			c-5,0-8.2-3.2-9-6.4c-0.2-0.7-0.3-1.5-0.3-2.2c0-14.3,0-28.5,0-42.8c-0.1-1.6,1-2.9,2.6-3c0.2,0,0.3,0,0.5,0h8.4
			c0-0.7,0-1.4,0-2.1c0-3,0-6.1,0-9.2c-0.1-1.6,1-2.8,2.6-3c0.1,0,0.3,0,0.4,0h74.2c1.4,0,2.6,0.8,2.9,2.1
			C136.7-67.5,136.7-10.7,136.7-10.7z M62.4-63.8c0,0.3,0,0.5,0,0.5c0,12,0,24,0,36c0,6.9,0.3,13.6-0.2,20.6h62.9
			c3.2,0,5.8-2.5,5.9-5.7c0-0.1,0-0.1,0-0.2c0-16.8,0-33.7,0-50.5c0-0.3,0-0.5,0-0.8L62.4-63.8L62.4-63.8z M51-49.5
			c0,0.2,0,0.3,0,0.4c0,13.2,0,26.3,0,39.4c-0.1,1.6,1.2,2.9,2.7,2.9c1.6,0,2.9-1.2,2.9-2.7c0-0.1,0-0.2,0-0.3c0-12.9,0-25.8,0-38.8
			c0-0.3,0-0.6,0-0.9C56.6-49.5,51-49.5,51-49.5z M96.6-49.3H72.5c-1.6,0.1-2.9-1.2-2.9-2.7c-0.1-1.6,1.2-2.9,2.7-2.9h48.6
			c1.6,0,2.9,1.2,2.9,2.7c0,1.3-0.8,2.4-2,2.8c-0.4,0.1-0.7,0.1-1.2,0.1L96.6-49.3L96.6-49.3z M96.7-43.7h24.2
			c1.6,0,2.8,1.3,2.9,2.8c0,1.3-0.8,2.5-2.1,2.8c-0.3,0.1-0.6,0.1-1,0.1H72.5c-1.6,0.1-2.8-1.1-2.9-2.7c0-0.1,0-0.1,0-0.2
			c0-1.6,1.2-2.7,2.7-2.8c0.1,0,0.2,0,0.3,0C72.5-43.7,96.7-43.7,96.7-43.7z M82.1-31.7h8.4c1.6-0.1,2.9,1,3,2.6c0,0.1,0,0.3,0,0.4
			c0,3.8,0,7.5,0,11.3c0.1,1.6-1.1,2.8-2.6,2.9c-0.1,0-0.3,0-0.4,0H73.7c-1.6,0.1-2.9-1.1-3-2.7c0-0.1,0-0.2,0-0.4
			c0-3.8,0-7.6,0-11.3c0-1.6,1.2-2.8,2.7-2.8c0.1,0,0.1,0,0.2,0L82.1-31.7L82.1-31.7z M111.7-31.7h9.1c1.6-0.1,2.9,1.1,3,2.7
			c0.1,1.6-1.1,2.9-2.7,3c-0.1,0-0.2,0-0.4,0c-6.1,0-12.4,0-18.5,0c-1.4,0-2.6-1-2.7-2.4c-0.3-1.4,0.5-2.7,1.9-3.2
			c0.4-0.1,0.7-0.1,1.1-0.1L111.7-31.7L111.7-31.7z M111.7-14.5h-9.1c-1.6,0.1-2.9-1.1-3-2.7c-0.1-1.6,1.1-2.9,2.7-3
			c0.1,0,0.2,0,0.4,0h18.2c1.6,0,2.8,1.3,2.8,2.8c0,1.6-1.3,2.8-2.8,2.8l0,0C117.7-14.6,114.7-14.6,111.7-14.5L111.7-14.5
			L111.7-14.5z"/>
	</g>
	<g id="Medium-L" transform="matrix(1 0 0 1 1656.15 1556)">
		<path class="st12" d="M138-10.7c-0.2,0.5-0.3,1.1-0.5,1.6c-1.5,4.9-5.9,8.2-11.1,8.2c-23.5,0-47.1-0.1-70.7,0c-5,0-8.2-3.2-9-6.4
			c-0.2-0.7-0.3-1.5-0.3-2.2c0-14.3,0-28.5,0-42.8c-0.1-1.6,1-2.9,2.6-3c0.2,0,0.3,0,0.5,0h8.4c0-0.7,0-1.4,0-2.1c0-3,0-6.1,0-9.2
			c-0.1-1.6,1-2.8,2.6-3c0.1,0,0.3,0,0.4,0H135c1.4,0,2.6,0.8,2.9,2.1C138-67.5,138-10.7,138-10.7z M63.7-63.8c0,0.3,0,0.5,0,0.5
			c0,12,0,24,0,36c0,6.9,0.3,13.6-0.2,20.6h62.9c3.2,0,5.8-2.5,5.9-5.7c0-0.1,0-0.1,0-0.2c0-16.8,0-33.7,0-50.5c0-0.3,0-0.5,0-0.8
			L63.7-63.8L63.7-63.8z M52.2-49.5c0,0.2,0,0.3,0,0.4c0,13.2,0,26.3,0,39.4c-0.1,1.6,1.2,2.9,2.7,2.9c1.6,0,2.9-1.2,2.9-2.7
			c0-0.1,0-0.2,0-0.3c0-12.9,0-25.8,0-38.8c0-0.3,0-0.6,0-0.9C57.9-49.5,52.2-49.5,52.2-49.5z M97.9-49.3H73.8
			c-1.6,0.1-2.9-1.2-2.9-2.7c-0.1-1.6,1.2-2.9,2.7-2.9h48.6c1.6,0,2.9,1.2,2.9,2.7c0,1.3-0.8,2.4-2,2.8c-0.4,0.1-0.7,0.1-1.2,0.1
			L97.9-49.3L97.9-49.3z M98-43.7h24.2c1.6,0,2.8,1.3,2.9,2.8c0,1.3-0.8,2.5-2.1,2.8c-0.3,0.1-0.6,0.1-1,0.1H73.7
			c-1.6,0.1-2.8-1.1-2.9-2.7c0-0.1,0-0.1,0-0.2c0-1.6,1.2-2.7,2.7-2.8c0.1,0,0.2,0,0.3,0C73.7-43.7,98-43.7,98-43.7z M83.4-31.7h8.4
			c1.6-0.1,2.9,1,3,2.6c0,0.1,0,0.3,0,0.4c0,3.8,0,7.5,0,11.3c0.1,1.6-1.1,2.8-2.6,2.9c-0.1,0-0.3,0-0.4,0H75
			c-1.6,0.1-2.9-1.1-3-2.7c0-0.1,0-0.2,0-0.4c0-3.8,0-7.6,0-11.3c0-1.6,1.2-2.8,2.7-2.8c0.1,0,0.1,0,0.2,0L83.4-31.7L83.4-31.7z
			 M113-31.7h9.1c1.6-0.1,2.9,1.1,3,2.7c0.1,1.6-1.1,2.9-2.7,3c-0.1,0-0.2,0-0.4,0c-6.1,0-12.4,0-18.5,0c-1.4,0-2.6-1-2.7-2.4
			c-0.3-1.4,0.5-2.7,1.9-3.2c0.4-0.1,0.7-0.1,1.1-0.1L113-31.7L113-31.7z M113-14.5h-9.1c-1.6,0.1-2.9-1.1-3-2.7
			c-0.1-1.6,1.1-2.9,2.7-3c0.1,0,0.2,0,0.4,0h18.2c1.6,0,2.8,1.3,2.8,2.8c0,1.6-1.3,2.8-2.8,2.8l0,0C119-14.6,116-14.6,113-14.5
			L113-14.5L113-14.5z"/>
	</g>
	<g id="Regular-L" transform="matrix(1 0 0 1 1361.64 1556)">
		<path class="st13" d="M136-10.7c-0.2,0.5-0.3,1.1-0.5,1.6c-1.5,4.9-5.9,8.2-11.1,8.2c-23.5,0-47.1-0.1-70.7,0c-5,0-8.2-3.2-9-6.4
			c-0.2-0.7-0.3-1.5-0.3-2.2c0-14.3,0-28.5,0-42.8c-0.1-1.6,1-2.9,2.6-3c0.2,0,0.3,0,0.5,0h8.4c0-0.7,0-1.4,0-2.1c0-3,0-6.1,0-9.2
			c-0.1-1.6,1-2.8,2.6-3c0.1,0,0.3,0,0.4,0H133c1.4,0,2.6,0.8,2.9,2.1C136-67.5,136-10.7,136-10.7z M61.7-63.8c0,0.3,0,0.5,0,0.5
			c0,12,0,24,0,36c0,6.9,0.3,13.6-0.2,20.6h62.9c3.2,0,5.8-2.5,5.9-5.7c0-0.1,0-0.1,0-0.2c0-16.8,0-33.7,0-50.5c0-0.3,0-0.5,0-0.8
			L61.7-63.8L61.7-63.8z M50.2-49.5c0,0.2,0,0.3,0,0.4c0,13.2,0,26.3,0,39.4c-0.1,1.6,1.2,2.9,2.7,2.9c1.6,0,2.9-1.2,2.9-2.7
			c0-0.1,0-0.2,0-0.3c0-12.9,0-25.8,0-38.8c0-0.3,0-0.6,0-0.9C55.9-49.5,50.2-49.5,50.2-49.5z M95.9-49.3H71.8
			c-1.6,0.1-2.9-1.2-2.9-2.7c-0.1-1.6,1.2-2.9,2.7-2.9h48.6c1.6,0,2.9,1.2,2.9,2.7c0,1.3-0.8,2.4-2,2.8c-0.4,0.1-0.7,0.1-1.2,0.1
			L95.9-49.3L95.9-49.3z M96-43.7h24.2c1.6,0,2.8,1.3,2.9,2.8c0,1.3-0.8,2.5-2.1,2.8c-0.3,0.1-0.6,0.1-1,0.1H71.7
			c-1.6,0.1-2.8-1.1-2.9-2.7c0-0.1,0-0.1,0-0.2c0-1.6,1.2-2.7,2.7-2.8c0.1,0,0.2,0,0.3,0C71.7-43.7,96-43.7,96-43.7z M81.4-31.7h8.4
			c1.6-0.1,2.9,1,3,2.6c0,0.1,0,0.3,0,0.4c0,3.8,0,7.5,0,11.3c0.1,1.6-1.1,2.8-2.6,2.9c-0.1,0-0.3,0-0.4,0H73
			c-1.6,0.1-2.9-1.1-3-2.7c0-0.1,0-0.2,0-0.4c0-3.8,0-7.6,0-11.3c0-1.6,1.2-2.8,2.7-2.8c0.1,0,0.1,0,0.2,0L81.4-31.7L81.4-31.7z
			 M111-31.7h9.1c1.6-0.1,2.9,1.1,3,2.7c0.1,1.6-1.1,2.9-2.7,3c-0.1,0-0.2,0-0.4,0c-6.1,0-12.4,0-18.5,0c-1.4,0-2.6-1-2.7-2.4
			c-0.3-1.4,0.5-2.7,1.9-3.2c0.4-0.1,0.7-0.1,1.1-0.1L111-31.7L111-31.7z M111-14.5h-9.1c-1.6,0.1-2.9-1.1-3-2.7
			c-0.1-1.6,1.1-2.9,2.7-3c0.1,0,0.2,0,0.4,0h18.2c1.6,0,2.8,1.3,2.8,2.8c0,1.6-1.3,2.8-2.8,2.8l0,0C117-14.6,114-14.6,111-14.5
			L111-14.5L111-14.5z"/>
	</g>
	<g id="Light-L" transform="matrix(1 0 0 1 1067.42 1556)">
		<path class="st14" d="M152.7-10.7c-0.2,0.5-0.3,1.1-0.5,1.6c-1.5,4.9-5.9,8.2-11.1,8.2c-23.5,0-47.1-0.1-70.7,0
			c-5,0-8.2-3.2-9-6.4c-0.2-0.7-0.3-1.5-0.3-2.2c0-14.3,0-28.5,0-42.8c-0.1-1.6,1-2.9,2.6-3c0.2,0,0.3,0,0.5,0h8.4
			c0-0.7,0-1.4,0-2.1c0-3,0-6.1,0-9.2c-0.1-1.6,1-2.8,2.6-3c0.1,0,0.3,0,0.4,0h74.2c1.4,0,2.6,0.8,2.9,2.1
			C152.7-67.5,152.7-10.7,152.7-10.7z M78.4-63.8c0,0.3,0,0.5,0,0.5c0,12,0,24,0,36c0,6.9,0.3,13.6-0.2,20.6h62.9
			c3.2,0,5.8-2.5,5.9-5.7c0-0.1,0-0.1,0-0.2c0-16.8,0-33.7,0-50.5c0-0.3,0-0.5,0-0.8L78.4-63.8L78.4-63.8z M66.9-49.5
			c0,0.2,0,0.3,0,0.4c0,13.2,0,26.3,0,39.4c-0.1,1.6,1.2,2.9,2.7,2.9c1.6,0,2.9-1.2,2.9-2.7c0-0.1,0-0.2,0-0.3c0-12.9,0-25.8,0-38.8
			c0-0.3,0-0.6,0-0.9C72.6-49.5,66.9-49.5,66.9-49.5z M112.6-49.3H88.5c-1.6,0.1-2.9-1.2-2.9-2.7c-0.1-1.6,1.2-2.9,2.7-2.9h48.6
			c1.6,0,2.9,1.2,2.9,2.7c0,1.3-0.8,2.4-2,2.8c-0.4,0.1-0.7,0.1-1.2,0.1L112.6-49.3L112.6-49.3z M112.7-43.7h24.2
			c1.6,0,2.8,1.3,2.9,2.8c0,1.3-0.8,2.5-2.1,2.8c-0.3,0.1-0.6,0.1-1,0.1H88.4c-1.6,0.1-2.8-1.1-2.9-2.7c0-0.1,0-0.1,0-0.2
			c0-1.6,1.2-2.7,2.7-2.8c0.1,0,0.2,0,0.3,0C88.4-43.7,112.7-43.7,112.7-43.7z M98.1-31.7h8.4c1.6-0.1,2.9,1,3,2.6
			c0,0.1,0,0.3,0,0.4c0,3.8,0,7.5,0,11.3c0.1,1.6-1.1,2.8-2.6,2.9c-0.1,0-0.3,0-0.4,0H89.7c-1.6,0.1-2.9-1.1-3-2.7
			c0-0.1,0-0.2,0-0.4c0-3.8,0-7.6,0-11.3c0-1.6,1.2-2.8,2.7-2.8c0.1,0,0.1,0,0.2,0L98.1-31.7L98.1-31.7z M127.7-31.7h9.1
			c1.6-0.1,2.9,1.1,3,2.7c0.1,1.6-1.1,2.9-2.7,3c-0.1,0-0.2,0-0.4,0c-6.1,0-12.4,0-18.5,0c-1.4,0-2.6-1-2.7-2.4
			c-0.3-1.4,0.5-2.7,1.9-3.2c0.4-0.1,0.7-0.1,1.1-0.1L127.7-31.7L127.7-31.7z M127.7-14.5h-9.1c-1.6,0.1-2.9-1.1-3-2.7
			c-0.1-1.6,1.1-2.9,2.7-3c0.1,0,0.2,0,0.4,0h18.2c1.6,0,2.8,1.3,2.8,2.8c0,1.6-1.3,2.8-2.8,2.8l0,0
			C133.7-14.6,130.7-14.6,127.7-14.5L127.7-14.5L127.7-14.5z"/>
	</g>
	<g id="Thin-L" transform="matrix(1 0 0 1 774 1556)">
		<path class="st15" d="M129.8-10.7c-0.2,0.5-0.3,1.1-0.5,1.6c-1.5,4.9-5.9,8.2-11.1,8.2c-23.5,0-47.1-0.1-70.7,0
			c-5,0-8.2-3.2-9-6.4c-0.2-0.7-0.3-1.5-0.3-2.2c0-14.3,0-28.5,0-42.8c-0.1-1.6,1-2.9,2.6-3c0.2,0,0.3,0,0.5,0h8.4
			c0-0.7,0-1.4,0-2.1c0-3,0-6.1,0-9.2c-0.1-1.6,1-2.8,2.6-3c0.1,0,0.3,0,0.4,0h74.2c1.4,0,2.6,0.8,2.9,2.1
			C129.8-67.5,129.8-10.7,129.8-10.7z M55.5-63.8c0,0.3,0,0.5,0,0.5c0,12,0,24,0,36c0,6.9,0.3,13.6-0.2,20.6h62.9
			c3.2,0,5.8-2.5,5.9-5.7c0-0.1,0-0.1,0-0.2c0-16.8,0-33.7,0-50.5c0-0.3,0-0.5,0-0.8L55.5-63.8L55.5-63.8z M44.1-49.5
			c0,0.2,0,0.3,0,0.4c0,13.2,0,26.3,0,39.4c-0.1,1.6,1.2,2.9,2.7,2.9c1.6,0,2.9-1.2,2.9-2.7c0-0.1,0-0.2,0-0.3c0-12.9,0-25.8,0-38.8
			c0-0.3,0-0.6,0-0.9C49.7-49.5,44.1-49.5,44.1-49.5z M89.7-49.3H65.7c-1.6,0.1-2.9-1.2-2.9-2.7c-0.1-1.6,1.2-2.9,2.7-2.9h48.6
			c1.6,0,2.9,1.2,2.9,2.7c0,1.3-0.8,2.4-2,2.8c-0.4,0.1-0.7,0.1-1.2,0.1L89.7-49.3L89.7-49.3z M89.8-43.7H114c1.6,0,2.8,1.3,2.9,2.8
			c0,1.3-0.8,2.5-2.1,2.8c-0.3,0.1-0.6,0.1-1,0.1H65.6c-1.6,0.1-2.8-1.1-2.9-2.7c0-0.1,0-0.1,0-0.2c0-1.6,1.2-2.7,2.7-2.8
			c0.1,0,0.2,0,0.3,0C65.6-43.7,89.8-43.7,89.8-43.7z M75.3-31.7h8.4c1.6-0.1,2.9,1,3,2.6c0,0.1,0,0.3,0,0.4c0,3.8,0,7.5,0,11.3
			c0.1,1.6-1.1,2.8-2.6,2.9c-0.1,0-0.3,0-0.4,0H66.9c-1.6,0.1-2.9-1.1-3-2.7c0-0.1,0-0.2,0-0.4c0-3.8,0-7.6,0-11.3
			c0-1.6,1.2-2.8,2.7-2.8c0.1,0,0.1,0,0.2,0L75.3-31.7L75.3-31.7z M104.8-31.7h9.1c1.6-0.1,2.9,1.1,3,2.7c0.1,1.6-1.1,2.9-2.7,3
			c-0.1,0-0.2,0-0.4,0c-6.1,0-12.4,0-18.5,0c-1.4,0-2.6-1-2.7-2.4c-0.3-1.4,0.5-2.7,1.9-3.2c0.4-0.1,0.7-0.1,1.1-0.1L104.8-31.7
			L104.8-31.7z M104.8-14.5h-9.1c-1.6,0.1-2.9-1.1-3-2.7c-0.1-1.6,1.1-2.9,2.7-3c0.1,0,0.2,0,0.4,0H114c1.6,0,2.8,1.3,2.8,2.8
			c0,1.6-1.3,2.8-2.8,2.8l0,0C110.9-14.6,107.8-14.6,104.8-14.5L104.8-14.5L104.8-14.5z"/>
	</g>
	<g id="Ultralight-L" transform="matrix(1 0 0 1 478.974 1556)">
		<path d="M127.6-10.7c-0.2,0.5-0.3,1.1-0.5,1.6c-1.5,4.9-5.9,8.2-11.1,8.2c-23.5,0-47.1-0.1-70.7,0c-5,0-8.2-3.2-9-6.4
			c-0.2-0.7-0.3-1.5-0.3-2.2c0-14.3,0-28.5,0-42.8c-0.1-1.6,1-2.9,2.6-3c0.2,0,0.3,0,0.5,0h8.4c0-0.7,0-1.4,0-2.1c0-3,0-6.1,0-9.2
			c-0.1-1.6,1-2.8,2.6-3c0.1,0,0.3,0,0.4,0h74.2c1.4,0,2.6,0.8,2.9,2.1C127.6-67.5,127.6-10.7,127.6-10.7z M53.3-63.8
			c0,0.3,0,0.5,0,0.5c0,12,0,24,0,36c0,6.9,0.3,13.6-0.2,20.6h62.9c3.2,0,5.8-2.5,5.9-5.7c0-0.1,0-0.1,0-0.2c0-16.8,0-33.7,0-50.5
			c0-0.3,0-0.5,0-0.8L53.3-63.8L53.3-63.8z M41.9-49.5c0,0.2,0,0.3,0,0.4c0,13.2,0,26.3,0,39.4c-0.1,1.6,1.2,2.9,2.7,2.9
			c1.6,0,2.9-1.2,2.9-2.7c0-0.1,0-0.2,0-0.3c0-12.9,0-25.8,0-38.8c0-0.3,0-0.6,0-0.9C47.5-49.5,41.9-49.5,41.9-49.5z M87.5-49.3
			H63.5c-1.6,0.1-2.9-1.2-2.9-2.7c-0.1-1.6,1.2-2.9,2.7-2.9h48.6c1.6,0,2.9,1.2,2.9,2.7c0,1.3-0.8,2.4-2,2.8
			c-0.4,0.1-0.7,0.1-1.2,0.1L87.5-49.3L87.5-49.3z M87.6-43.7h24.2c1.6,0,2.8,1.3,2.9,2.8c0,1.3-0.8,2.5-2.1,2.8
			c-0.3,0.1-0.6,0.1-1,0.1H63.4c-1.6,0.1-2.8-1.1-2.9-2.7c0-0.1,0-0.1,0-0.2c0-1.6,1.2-2.7,2.7-2.8c0.1,0,0.2,0,0.3,0
			C63.4-43.7,87.6-43.7,87.6-43.7z M73.1-31.7h8.4c1.6-0.1,2.9,1,3,2.6c0,0.1,0,0.3,0,0.4c0,3.8,0,7.5,0,11.3
			c0.1,1.6-1.1,2.8-2.6,2.9c-0.1,0-0.3,0-0.4,0H64.7c-1.6,0.1-2.9-1.1-3-2.7c0-0.1,0-0.2,0-0.4c0-3.8,0-7.6,0-11.3
			c0-1.6,1.2-2.8,2.7-2.8c0.1,0,0.1,0,0.2,0L73.1-31.7L73.1-31.7z M102.6-31.7h9.1c1.6-0.1,2.9,1.1,3,2.7c0.1,1.6-1.1,2.9-2.7,3
			c-0.1,0-0.2,0-0.4,0c-6.1,0-12.4,0-18.5,0c-1.4,0-2.6-1-2.7-2.4c-0.3-1.4,0.5-2.7,1.9-3.2c0.4-0.1,0.7-0.1,1.1-0.1L102.6-31.7
			L102.6-31.7z M102.6-14.5h-9.1c-1.6,0.1-2.9-1.1-3-2.7c-0.1-1.6,1.1-2.9,2.7-3c0.1,0,0.2,0,0.4,0h18.2c1.6,0,2.8,1.3,2.8,2.8
			c0,1.6-1.3,2.8-2.8,2.8l0,0C108.7-14.6,105.6-14.6,102.6-14.5L102.6-14.5L102.6-14.5z"/>
	</g>
	<g id="Black-M" transform="matrix(1 0 0 1 2853.1 1126)">
		<path class="st8" d="M127.7-10.7c-0.2,0.5-0.3,1.1-0.5,1.6c-1.5,4.9-5.9,8.2-11.1,8.2c-23.5,0-47.1-0.1-70.7,0c-5,0-8.2-3.2-9-6.4
			c-0.2-0.7-0.3-1.5-0.3-2.2c0-14.3,0-28.5,0-42.8c-0.1-1.6,1-2.9,2.6-3c0.2,0,0.3,0,0.5,0h8.4c0-0.7,0-1.4,0-2.1c0-3,0-6.1,0-9.2
			c-0.1-1.6,1-2.8,2.6-3c0.1,0,0.3,0,0.4,0h74.2c1.4,0,2.6,0.8,2.9,2.1C127.7-67.5,127.7-10.7,127.7-10.7z M53.4-63.8
			c0,0.3,0,0.5,0,0.5c0,12,0,24,0,36c0,6.9,0.3,13.6-0.2,20.6h62.9c3.2,0,5.8-2.5,5.9-5.7c0-0.1,0-0.1,0-0.2c0-16.8,0-33.7,0-50.5
			c0-0.3,0-0.5,0-0.8L53.4-63.8L53.4-63.8z M42-49.5c0,0.2,0,0.3,0,0.4c0,13.2,0,26.3,0,39.4c-0.1,1.6,1.2,2.9,2.7,2.9
			c1.6,0,2.9-1.2,2.9-2.7c0-0.1,0-0.2,0-0.3c0-12.9,0-25.8,0-38.8c0-0.3,0-0.6,0-0.9C47.7-49.5,42-49.5,42-49.5z M87.7-49.3H63.6
			c-1.6,0.1-2.9-1.2-2.9-2.7c-0.1-1.6,1.2-2.9,2.7-2.9H112c1.6,0,2.9,1.2,2.9,2.7c0,1.3-0.8,2.4-2,2.8c-0.4,0.1-0.7,0.1-1.2,0.1
			L87.7-49.3L87.7-49.3z M87.8-43.7h24.2c1.6,0,2.8,1.3,2.9,2.8c0,1.3-0.8,2.5-2.1,2.8c-0.3,0.1-0.6,0.1-1,0.1H63.5
			c-1.6,0.1-2.8-1.1-2.9-2.7c0-0.1,0-0.1,0-0.2c0-1.6,1.2-2.7,2.7-2.8c0.1,0,0.2,0,0.3,0C63.5-43.7,87.8-43.7,87.8-43.7z M73.2-31.7
			h8.4c1.6-0.1,2.9,1,3,2.6c0,0.1,0,0.3,0,0.4c0,3.8,0,7.5,0,11.3c0.1,1.6-1.1,2.8-2.6,2.9c-0.1,0-0.3,0-0.4,0H64.8
			c-1.6,0.1-2.9-1.1-3-2.7c0-0.1,0-0.2,0-0.4c0-3.8,0-7.6,0-11.3c0-1.6,1.2-2.8,2.7-2.8c0.1,0,0.1,0,0.2,0L73.2-31.7L73.2-31.7z
			 M102.8-31.7h9.1c1.6-0.1,2.9,1.1,3,2.7c0.1,1.6-1.1,2.9-2.7,3c-0.1,0-0.2,0-0.4,0c-6.1,0-12.4,0-18.5,0c-1.4,0-2.6-1-2.7-2.4
			c-0.3-1.4,0.5-2.7,1.9-3.2c0.4-0.1,0.7-0.1,1.1-0.1L102.8-31.7L102.8-31.7z M102.8-14.5h-9.1c-1.6,0.1-2.9-1.1-3-2.7
			c-0.1-1.6,1.1-2.9,2.7-3c0.1,0,0.2,0,0.4,0h18.2c1.6,0,2.8,1.3,2.8,2.8c0,1.6-1.3,2.8-2.8,2.8l0,0
			C108.8-14.6,105.8-14.6,102.8-14.5L102.8-14.5L102.8-14.5z"/>
	</g>
	<g id="Heavy-M" transform="matrix(1 0 0 1 2558.88 1126)">
		<path class="st9" d="M124.9-10.7c-0.2,0.5-0.3,1.1-0.5,1.6c-1.5,4.9-5.9,8.2-11.1,8.2c-23.5,0-47.1-0.1-70.7,0c-5,0-8.2-3.2-9-6.4
			c-0.2-0.7-0.3-1.5-0.3-2.2c0-14.3,0-28.5,0-42.8c-0.1-1.6,1-2.9,2.6-3c0.2,0,0.3,0,0.5,0h8.4c0-0.7,0-1.4,0-2.1c0-3,0-6.1,0-9.2
			c-0.1-1.6,1-2.8,2.6-3c0.1,0,0.3,0,0.4,0H122c1.4,0,2.6,0.8,2.9,2.1C124.9-67.5,124.9-10.7,124.9-10.7z M50.6-63.8
			c0,0.3,0,0.5,0,0.5c0,12,0,24,0,36c0,6.9,0.3,13.6-0.2,20.6h62.9c3.2,0,5.8-2.5,5.9-5.7c0-0.1,0-0.1,0-0.2c0-16.8,0-33.7,0-50.5
			c0-0.3,0-0.5,0-0.8L50.6-63.8L50.6-63.8z M39.2-49.5c0,0.2,0,0.3,0,0.4c0,13.2,0,26.3,0,39.4c-0.1,1.6,1.2,2.9,2.7,2.9
			c1.6,0,2.9-1.2,2.9-2.7c0-0.1,0-0.2,0-0.3c0-12.9,0-25.8,0-38.8c0-0.3,0-0.6,0-0.9C44.8-49.5,39.2-49.5,39.2-49.5z M84.8-49.3
			H60.7c-1.6,0.1-2.9-1.2-2.9-2.7C57.7-53.6,59-55,60.6-55h48.6c1.6,0,2.9,1.2,2.9,2.7c0,1.3-0.8,2.4-2,2.8
			c-0.4,0.1-0.7,0.1-1.2,0.1L84.8-49.3L84.8-49.3z M84.9-43.7h24.2c1.6,0,2.8,1.3,2.9,2.8c0,1.3-0.8,2.5-2.1,2.8
			c-0.3,0.1-0.6,0.1-1,0.1H60.7c-1.6,0.1-2.8-1.1-2.9-2.7c0-0.1,0-0.1,0-0.2c0-1.6,1.2-2.7,2.7-2.8c0.1,0,0.2,0,0.3,0
			C60.7-43.7,84.9-43.7,84.9-43.7z M70.4-31.7h8.4c1.6-0.1,2.9,1,3,2.6c0,0.1,0,0.3,0,0.4c0,3.8,0,7.5,0,11.3
			c0.1,1.6-1.1,2.8-2.6,2.9c-0.1,0-0.3,0-0.4,0H61.9c-1.6,0.1-2.9-1.1-3-2.7c0-0.1,0-0.2,0-0.4c0-3.8,0-7.6,0-11.3
			c0-1.6,1.2-2.8,2.7-2.8c0.1,0,0.1,0,0.2,0L70.4-31.7L70.4-31.7z M99.9-31.7h9.1c1.6-0.1,2.9,1.1,3,2.7c0.1,1.6-1.1,2.9-2.7,3
			c-0.1,0-0.2,0-0.4,0c-6.1,0-12.4,0-18.5,0c-1.4,0-2.6-1-2.7-2.4c-0.3-1.4,0.5-2.7,1.9-3.2c0.4-0.1,0.7-0.1,1.1-0.1L99.9-31.7
			L99.9-31.7z M99.9-14.5h-9.1c-1.6,0.1-2.9-1.1-3-2.7c-0.1-1.6,1.1-2.9,2.7-3c0.1,0,0.2,0,0.4,0h18.2c1.6,0,2.8,1.3,2.8,2.8
			c0,1.6-1.3,2.8-2.8,2.8l0,0C105.9-14.6,102.9-14.6,99.9-14.5L99.9-14.5L99.9-14.5z"/>
	</g>
	<g id="Bold-M" transform="matrix(1 0 0 1 2264.93 1126)">
		<path class="st10" d="M122.1-10.7c-0.2,0.5-0.3,1.1-0.5,1.6c-1.5,4.9-5.9,8.2-11.1,8.2c-23.5,0-47.1-0.1-70.7,0
			c-5,0-8.2-3.2-9-6.4c-0.2-0.7-0.3-1.5-0.3-2.2c0-14.3,0-28.5,0-42.8c-0.1-1.6,1-2.9,2.6-3c0.2,0,0.3,0,0.5,0H42c0-0.7,0-1.4,0-2.1
			c0-3,0-6.1,0-9.2c-0.1-1.6,1-2.8,2.6-3c0.1,0,0.3,0,0.4,0h74.2c1.4,0,2.6,0.8,2.9,2.1C122.1-67.5,122.1-10.7,122.1-10.7z
			 M47.8-63.8c0,0.3,0,0.5,0,0.5c0,12,0,24,0,36c0,6.9,0.3,13.6-0.2,20.6h62.9c3.2,0,5.8-2.5,5.9-5.7c0-0.1,0-0.1,0-0.2
			c0-16.8,0-33.7,0-50.5c0-0.3,0-0.5,0-0.8L47.8-63.8L47.8-63.8z M36.3-49.5c0,0.2,0,0.3,0,0.4c0,13.2,0,26.3,0,39.4
			c-0.1,1.6,1.2,2.9,2.7,2.9C40.6-6.8,42-8,42-9.5c0-0.1,0-0.2,0-0.3c0-12.9,0-25.8,0-38.8c0-0.3,0-0.6,0-0.9
			C42-49.5,36.3-49.5,36.3-49.5z M82-49.3H57.9c-1.6,0.1-2.9-1.2-2.9-2.7c-0.1-1.6,1.2-2.9,2.7-2.9h48.6c1.6,0,2.9,1.2,2.9,2.7
			c0,1.3-0.8,2.4-2,2.8c-0.4,0.1-0.7,0.1-1.2,0.1L82-49.3L82-49.3z M82.1-43.7h24.2c1.6,0,2.8,1.3,2.9,2.8c0,1.3-0.8,2.5-2.1,2.8
			c-0.3,0.1-0.6,0.1-1,0.1H57.8c-1.6,0.1-2.8-1.1-2.9-2.7c0-0.1,0-0.1,0-0.2c0-1.6,1.2-2.7,2.7-2.8c0.1,0,0.2,0,0.3,0
			C57.8-43.7,82.1-43.7,82.1-43.7z M67.5-31.7h8.4c1.6-0.1,2.9,1,3,2.6c0,0.1,0,0.3,0,0.4c0,3.8,0,7.5,0,11.3
			c0.1,1.6-1.1,2.8-2.6,2.9c-0.1,0-0.3,0-0.4,0H59.1c-1.6,0.1-2.9-1.1-3-2.7c0-0.1,0-0.2,0-0.4c0-3.8,0-7.6,0-11.3
			c0-1.6,1.2-2.8,2.7-2.8c0.1,0,0.1,0,0.2,0L67.5-31.7L67.5-31.7z M97.1-31.7h9.1c1.6-0.1,2.9,1.1,3,2.7c0.1,1.6-1.1,2.9-2.7,3
			c-0.1,0-0.2,0-0.4,0c-6.1,0-12.4,0-18.5,0c-1.4,0-2.6-1-2.7-2.4c-0.3-1.4,0.5-2.7,1.9-3.2c0.4-0.1,0.7-0.1,1.1-0.1L97.1-31.7
			L97.1-31.7z M97.1-14.5H88c-1.6,0.1-2.9-1.1-3-2.7c-0.1-1.6,1.1-2.9,2.7-3c0.1,0,0.2,0,0.4,0h18.2c1.6,0,2.8,1.3,2.8,2.8
			c0,1.6-1.3,2.8-2.8,2.8l0,0C103.1-14.6,100.1-14.6,97.1-14.5L97.1-14.5L97.1-14.5z"/>
	</g>
	<g id="Semibold-M" transform="matrix(1 0 0 1 1970.15 1126)">
		<path class="st11" d="M117.7-10.7c-0.2,0.5-0.3,1.1-0.5,1.6c-1.5,4.9-5.9,8.2-11.1,8.2c-23.5,0-47.1-0.1-70.7,0
			c-5,0-8.2-3.2-9-6.4c-0.2-0.7-0.3-1.5-0.3-2.2c0-14.3,0-28.5,0-42.8c-0.1-1.6,1-2.9,2.6-3c0.2,0,0.3,0,0.5,0h8.4
			c0-0.7,0-1.4,0-2.1c0-3,0-6.1,0-9.2c-0.1-1.6,1-2.8,2.6-3c0.1,0,0.3,0,0.4,0h74.2c1.4,0,2.6,0.8,2.9,2.1
			C117.7-67.5,117.7-10.7,117.7-10.7z M43.4-63.8c0,0.3,0,0.5,0,0.5c0,12,0,24,0,36c0,6.9,0.3,13.6-0.2,20.6h62.9
			c3.2,0,5.8-2.5,5.9-5.7c0-0.1,0-0.1,0-0.2c0-16.8,0-33.7,0-50.5c0-0.3,0-0.5,0-0.8L43.4-63.8L43.4-63.8z M32-49.5
			c0,0.2,0,0.3,0,0.4c0,13.2,0,26.3,0,39.4c-0.1,1.6,1.2,2.9,2.7,2.9c1.6,0,2.9-1.2,2.9-2.7c0-0.1,0-0.2,0-0.3c0-12.9,0-25.8,0-38.8
			c0-0.3,0-0.6,0-0.9C37.7-49.5,32-49.5,32-49.5z M77.7-49.3H53.6c-1.6,0.1-2.9-1.2-2.9-2.7c-0.1-1.6,1.2-2.9,2.7-2.9H102
			c1.6,0,2.9,1.2,2.9,2.7c0,1.3-0.8,2.4-2,2.8c-0.4,0.1-0.7,0.1-1.2,0.1L77.7-49.3L77.7-49.3z M77.7-43.7h24.2
			c1.6,0,2.8,1.3,2.9,2.8c0,1.3-0.8,2.5-2.1,2.8c-0.3,0.1-0.6,0.1-1,0.1H53.5c-1.6,0.1-2.8-1.1-2.9-2.7c0-0.1,0-0.1,0-0.2
			c0-1.6,1.2-2.7,2.7-2.8c0.1,0,0.2,0,0.3,0C53.5-43.7,77.7-43.7,77.7-43.7z M63.2-31.7h8.4c1.6-0.1,2.9,1,3,2.6c0,0.1,0,0.3,0,0.4
			c0,3.8,0,7.5,0,11.3c0.1,1.6-1.1,2.8-2.6,2.9c-0.1,0-0.3,0-0.4,0H54.8c-1.6,0.1-2.9-1.1-3-2.7c0-0.1,0-0.2,0-0.4
			c0-3.8,0-7.6,0-11.3c0-1.6,1.2-2.8,2.7-2.8c0.1,0,0.1,0,0.2,0L63.2-31.7L63.2-31.7z M92.8-31.7h9.1c1.6-0.1,2.9,1.1,3,2.7
			c0.1,1.6-1.1,2.9-2.7,3c-0.1,0-0.2,0-0.4,0c-6.1,0-12.4,0-18.5,0c-1.4,0-2.6-1-2.7-2.4c-0.3-1.4,0.5-2.7,1.9-3.2
			c0.4-0.1,0.7-0.1,1.1-0.1L92.8-31.7L92.8-31.7z M92.8-14.5h-9.1c-1.6,0.1-2.9-1.1-3-2.7c-0.1-1.6,1.1-2.9,2.7-3c0.1,0,0.2,0,0.4,0
			h18.2c1.6,0,2.8,1.3,2.8,2.8c0,1.6-1.3,2.8-2.8,2.8l0,0C98.8-14.6,95.8-14.6,92.8-14.5L92.8-14.5L92.8-14.5z"/>
	</g>
	<g id="Medium-M" transform="matrix(1 0 0 1 1674.88 1126)">
		<path class="st12" d="M118.2-10.7c-0.2,0.5-0.3,1.1-0.5,1.6c-1.5,4.9-5.9,8.2-11.1,8.2c-23.5,0-47.1-0.1-70.7,0
			c-5,0-8.2-3.2-9-6.4c-0.2-0.7-0.3-1.5-0.3-2.2c0-14.3,0-28.5,0-42.8c-0.1-1.6,1-2.9,2.6-3c0.2,0,0.3,0,0.5,0h8.4
			c0-0.7,0-1.4,0-2.1c0-3,0-6.1,0-9.2c-0.1-1.6,1-2.8,2.6-3c0.1,0,0.3,0,0.4,0h74.2c1.4,0,2.6,0.8,2.9,2.1
			C118.2-67.5,118.2-10.7,118.2-10.7z M44-63.8c0,0.3,0,0.5,0,0.5c0,12,0,24,0,36c0,6.9,0.3,13.6-0.2,20.6h62.9
			c3.2,0,5.8-2.5,5.9-5.7c0-0.1,0-0.1,0-0.2c0-16.8,0-33.7,0-50.5c0-0.3,0-0.5,0-0.8L44-63.8L44-63.8z M32.5-49.5c0,0.2,0,0.3,0,0.4
			c0,13.2,0,26.3,0,39.4c-0.1,1.6,1.2,2.9,2.7,2.9c1.6,0,2.9-1.2,2.9-2.7c0-0.1,0-0.2,0-0.3c0-12.9,0-25.8,0-38.8c0-0.3,0-0.6,0-0.9
			C38.2-49.5,32.5-49.5,32.5-49.5z M78.2-49.3H54.1c-1.6,0.1-2.9-1.2-2.9-2.7c-0.1-1.6,1.2-2.9,2.7-2.9h48.6c1.6,0,2.9,1.2,2.9,2.7
			c0,1.3-0.8,2.4-2,2.8c-0.4,0.1-0.7,0.1-1.2,0.1L78.2-49.3L78.2-49.3z M78.3-43.7h24.2c1.6,0,2.8,1.3,2.9,2.8
			c0,1.3-0.8,2.5-2.1,2.8c-0.3,0.1-0.6,0.1-1,0.1H54c-1.6,0.1-2.8-1.1-2.9-2.7c0-0.1,0-0.1,0-0.2c0-1.6,1.2-2.7,2.7-2.8
			c0.1,0,0.2,0,0.3,0C54-43.7,78.3-43.7,78.3-43.7z M63.7-31.7h8.4c1.6-0.1,2.9,1,3,2.6c0,0.1,0,0.3,0,0.4c0,3.8,0,7.5,0,11.3
			c0.1,1.6-1.1,2.8-2.6,2.9c-0.1,0-0.3,0-0.4,0H55.3c-1.6,0.1-2.9-1.1-3-2.7c0-0.1,0-0.2,0-0.4c0-3.8,0-7.6,0-11.3
			c0-1.6,1.2-2.8,2.7-2.8c0.1,0,0.1,0,0.2,0L63.7-31.7L63.7-31.7z M93.3-31.7h9.1c1.6-0.1,2.9,1.1,3,2.7c0.1,1.6-1.1,2.9-2.7,3
			c-0.1,0-0.2,0-0.4,0c-6.1,0-12.4,0-18.5,0c-1.4,0-2.6-1-2.7-2.4c-0.3-1.4,0.5-2.7,1.9-3.2c0.4-0.1,0.7-0.1,1.1-0.1L93.3-31.7
			L93.3-31.7z M93.3-14.5h-9.1c-1.6,0.1-2.9-1.1-3-2.7c-0.1-1.6,1.1-2.9,2.7-3c0.1,0,0.2,0,0.4,0h18.2c1.6,0,2.8,1.3,2.8,2.8
			c0,1.6-1.3,2.8-2.8,2.8l0,0C99.3-14.6,96.3-14.6,93.3-14.5L93.3-14.5L93.3-14.5z"/>
	</g>
	<g id="Regular-M" transform="matrix(1 0 0 1 1380.04 1126)">
		<path class="st13" d="M117.6-10.7c-0.2,0.5-0.3,1.1-0.5,1.6c-1.5,4.9-5.9,8.2-11.1,8.2c-23.5,0-47.1-0.1-70.7,0
			c-5,0-8.2-3.2-9-6.4c-0.2-0.7-0.3-1.5-0.3-2.2c0-14.3,0-28.5,0-42.8c-0.1-1.6,1-2.9,2.6-3c0.2,0,0.3,0,0.5,0h8.4
			c0-0.7,0-1.4,0-2.1c0-3,0-6.1,0-9.2c-0.1-1.6,1-2.8,2.6-3c0.1,0,0.3,0,0.4,0h74.2c1.4,0,2.6,0.8,2.9,2.1
			C117.6-67.5,117.6-10.7,117.6-10.7z M43.3-63.8c0,0.3,0,0.5,0,0.5c0,12,0,24,0,36c0,6.9,0.3,13.6-0.2,20.6H106
			c3.2,0,5.8-2.5,5.9-5.7c0-0.1,0-0.1,0-0.2c0-16.8,0-33.7,0-50.5c0-0.3,0-0.5,0-0.8L43.3-63.8L43.3-63.8z M31.8-49.5
			c0,0.2,0,0.3,0,0.4c0,13.2,0,26.3,0,39.4c-0.1,1.6,1.2,2.9,2.7,2.9c1.6,0,2.9-1.2,2.9-2.7c0-0.1,0-0.2,0-0.3c0-12.9,0-25.8,0-38.8
			c0-0.3,0-0.6,0-0.9C37.5-49.5,31.8-49.5,31.8-49.5z M77.5-49.3H53.4c-1.6,0.1-2.9-1.2-2.9-2.7c-0.1-1.6,1.2-2.9,2.7-2.9h48.6
			c1.6,0,2.9,1.2,2.9,2.7c0,1.3-0.8,2.4-2,2.8c-0.4,0.1-0.7,0.1-1.2,0.1L77.5-49.3L77.5-49.3z M77.6-43.7h24.2
			c1.6,0,2.8,1.3,2.9,2.8c0,1.3-0.8,2.5-2.1,2.8c-0.3,0.1-0.6,0.1-1,0.1H53.3c-1.6,0.1-2.8-1.1-2.9-2.7c0-0.1,0-0.1,0-0.2
			c0-1.6,1.2-2.7,2.7-2.8c0.1,0,0.2,0,0.3,0C53.3-43.7,77.6-43.7,77.6-43.7z M63-31.7h8.4c1.6-0.1,2.9,1,3,2.6c0,0.1,0,0.3,0,0.4
			c0,3.8,0,7.5,0,11.3c0.1,1.6-1.1,2.8-2.6,2.9c-0.1,0-0.3,0-0.4,0H54.6c-1.6,0.1-2.9-1.1-3-2.7c0-0.1,0-0.2,0-0.4
			c0-3.8,0-7.6,0-11.3c0-1.6,1.2-2.8,2.7-2.8c0.1,0,0.1,0,0.2,0L63-31.7L63-31.7z M92.6-31.7h9.1c1.6-0.1,2.9,1.1,3,2.7
			c0.1,1.6-1.1,2.9-2.7,3c-0.1,0-0.2,0-0.4,0c-6.1,0-12.4,0-18.5,0c-1.4,0-2.6-1-2.7-2.4c-0.3-1.4,0.5-2.7,1.9-3.2
			c0.4-0.1,0.7-0.1,1.1-0.1L92.6-31.7L92.6-31.7z M92.6-14.5h-9.1c-1.6,0.1-2.9-1.1-3-2.7c-0.1-1.6,1.1-2.9,2.7-3c0.1,0,0.2,0,0.4,0
			h18.2c1.6,0,2.8,1.3,2.8,2.8c0,1.6-1.3,2.8-2.8,2.8l0,0C98.6-14.6,95.6-14.6,92.6-14.5L92.6-14.5L92.6-14.5z"/>
	</g>
	<g id="Light-M" transform="matrix(1 0 0 1 1085.58 1126)">
		<path class="st14" d="M134.5-10.7c-0.2,0.5-0.3,1.1-0.5,1.6c-1.5,4.9-5.9,8.2-11.1,8.2c-23.5,0-47.1-0.1-70.7,0
			c-5,0-8.2-3.2-9-6.4C43.1-8,43-8.7,43-9.5c0-14.3,0-28.5,0-42.8c-0.1-1.6,1-2.9,2.6-3c0.2,0,0.3,0,0.5,0h8.4c0-0.7,0-1.4,0-2.1
			c0-3,0-6.1,0-9.2c-0.1-1.6,1-2.8,2.6-3c0.1,0,0.3,0,0.4,0h74.2c1.4,0,2.6,0.8,2.9,2.1C134.5-67.5,134.5-10.7,134.5-10.7z
			 M60.2-63.8c0,0.3,0,0.5,0,0.5c0,12,0,24,0,36c0,6.9,0.3,13.6-0.2,20.6H123c3.2,0,5.8-2.5,5.9-5.7c0-0.1,0-0.1,0-0.2
			c0-16.8,0-33.7,0-50.5c0-0.3,0-0.5,0-0.8L60.2-63.8L60.2-63.8z M48.8-49.5c0,0.2,0,0.3,0,0.4c0,13.2,0,26.3,0,39.4
			c-0.1,1.6,1.2,2.9,2.7,2.9c1.6,0,2.9-1.2,2.9-2.7c0-0.1,0-0.2,0-0.3c0-12.9,0-25.8,0-38.8c0-0.3,0-0.6,0-0.9
			C54.4-49.5,48.8-49.5,48.8-49.5z M94.4-49.3H70.4c-1.6,0.1-2.9-1.2-2.9-2.7c-0.1-1.6,1.2-2.9,2.7-2.9h48.6c1.6,0,2.9,1.2,2.9,2.7
			c0,1.3-0.8,2.4-2,2.8c-0.4,0.1-0.7,0.1-1.2,0.1L94.4-49.3L94.4-49.3z M94.5-43.7h24.2c1.6,0,2.8,1.3,2.9,2.8
			c0,1.3-0.8,2.5-2.1,2.8c-0.3,0.1-0.6,0.1-1,0.1H70.3c-1.6,0.1-2.8-1.1-2.9-2.7c0-0.1,0-0.1,0-0.2c0-1.6,1.2-2.7,2.7-2.8
			c0.1,0,0.2,0,0.3,0C70.3-43.7,94.5-43.7,94.5-43.7z M80-31.7h8.4c1.6-0.1,2.9,1,3,2.6c0,0.1,0,0.3,0,0.4c0,3.8,0,7.5,0,11.3
			c0.1,1.6-1.1,2.8-2.6,2.9c-0.1,0-0.3,0-0.4,0H71.5c-1.6,0.1-2.9-1.1-3-2.7c0-0.1,0-0.2,0-0.4c0-3.8,0-7.6,0-11.3
			c0-1.6,1.2-2.8,2.7-2.8c0.1,0,0.1,0,0.2,0L80-31.7L80-31.7z M109.5-31.7h9.1c1.6-0.1,2.9,1.1,3,2.7c0.1,1.6-1.1,2.9-2.7,3
			c-0.1,0-0.2,0-0.4,0c-6.1,0-12.4,0-18.5,0c-1.4,0-2.6-1-2.7-2.4c-0.3-1.4,0.5-2.7,1.9-3.2c0.4-0.1,0.7-0.1,1.1-0.1L109.5-31.7
			L109.5-31.7z M109.5-14.5h-9.1c-1.6,0.1-2.9-1.1-3-2.7c-0.1-1.6,1.1-2.9,2.7-3c0.1,0,0.2,0,0.4,0h18.2c1.6,0,2.8,1.3,2.8,2.8
			c0,1.6-1.3,2.8-2.8,2.8l0,0C115.6-14.6,112.5-14.6,109.5-14.5L109.5-14.5L109.5-14.5z"/>
	</g>
	<g id="Thin-M" transform="matrix(1 0 0 1 791.847 1126)">
		<path class="st15" d="M112-10.7c-0.2,0.5-0.3,1.1-0.5,1.6c-1.5,4.9-5.9,8.2-11.1,8.2c-23.5,0-47.1-0.1-70.7,0c-5,0-8.2-3.2-9-6.4
			c-0.2-0.7-0.3-1.5-0.3-2.2c0-14.3,0-28.5,0-42.8c-0.1-1.6,1-2.9,2.6-3c0.2,0,0.3,0,0.5,0h8.4c0-0.7,0-1.4,0-2.1c0-3,0-6.1,0-9.2
			c-0.1-1.6,1-2.8,2.6-3c0.1,0,0.3,0,0.4,0H109c1.4,0,2.6,0.8,2.9,2.1C112-67.5,112-10.7,112-10.7z M37.7-63.8c0,0.3,0,0.5,0,0.5
			c0,12,0,24,0,36c0,6.9,0.3,13.6-0.2,20.6h62.9c3.2,0,5.8-2.5,5.9-5.7c0-0.1,0-0.1,0-0.2c0-16.8,0-33.7,0-50.5c0-0.3,0-0.5,0-0.8
			L37.7-63.8L37.7-63.8z M26.2-49.5c0,0.2,0,0.3,0,0.4c0,13.2,0,26.3,0,39.4c-0.1,1.6,1.2,2.9,2.7,2.9s2.9-1.2,2.9-2.7
			c0-0.1,0-0.2,0-0.3c0-12.9,0-25.8,0-38.8c0-0.3,0-0.6,0-0.9C31.9-49.5,26.2-49.5,26.2-49.5z M71.9-49.3H47.8
			c-1.6,0.1-2.9-1.2-2.9-2.7c-0.1-1.6,1.2-2.9,2.7-2.9h48.6c1.6,0,2.9,1.2,2.9,2.7c0,1.3-0.8,2.4-2,2.8c-0.4,0.1-0.7,0.1-1.2,0.1
			L71.9-49.3L71.9-49.3z M72-43.7h24.2c1.6,0,2.8,1.3,2.9,2.8c0,1.3-0.8,2.5-2.1,2.8c-0.3,0.1-0.6,0.1-1,0.1H47.7
			c-1.6,0.1-2.8-1.1-2.9-2.7c0-0.1,0-0.1,0-0.2c0-1.6,1.2-2.7,2.7-2.8c0.1,0,0.2,0,0.3,0C47.7-43.7,72-43.7,72-43.7z M57.4-31.7h8.4
			c1.6-0.1,2.9,1,3,2.6c0,0.1,0,0.3,0,0.4c0,3.8,0,7.5,0,11.3c0.1,1.6-1.1,2.8-2.6,2.9c-0.1,0-0.3,0-0.4,0H49
			c-1.6,0.1-2.9-1.1-3-2.7c0-0.1,0-0.2,0-0.4c0-3.8,0-7.6,0-11.3c0-1.6,1.2-2.8,2.7-2.8c0.1,0,0.1,0,0.2,0L57.4-31.7L57.4-31.7z
			 M87-31.7H96c1.6-0.1,2.9,1.1,3,2.7c0.1,1.6-1.1,2.9-2.7,3c-0.1,0-0.2,0-0.4,0c-6.1,0-12.4,0-18.5,0c-1.4,0-2.6-1-2.7-2.4
			c-0.3-1.4,0.5-2.7,1.9-3.2c0.4-0.1,0.7-0.1,1.1-0.1L87-31.7L87-31.7z M87-14.5h-9.1c-1.6,0.1-2.9-1.1-3-2.7
			c-0.1-1.6,1.1-2.9,2.7-3c0.1,0,0.2,0,0.4,0h18.2c1.6,0,2.8,1.3,2.8,2.8c0,1.6-1.3,2.8-2.8,2.8l0,0C93-14.6,90-14.6,87-14.5
			L87-14.5L87-14.5z"/>
	</g>
	<g id="Ultralight-M" transform="matrix(1 0 0 1 496.65 1126)">
		<path d="M109.9-10.7c-0.2,0.5-0.3,1.1-0.5,1.6c-1.5,4.9-5.9,8.2-11.1,8.2c-23.5,0-47.1-0.1-70.7,0c-5,0-8.2-3.2-9-6.4
			c-0.2-0.7-0.3-1.5-0.3-2.2c0-14.3,0-28.5,0-42.8c-0.1-1.6,1-2.9,2.6-3c0.2,0,0.3,0,0.5,0h8.4c0-0.7,0-1.4,0-2.1c0-3,0-6.1,0-9.2
			c-0.1-1.6,1-2.8,2.6-3c0.1,0,0.3,0,0.4,0H107c1.4,0,2.6,0.8,2.9,2.1C109.9-67.5,109.9-10.7,109.9-10.7z M35.6-63.8
			c0,0.3,0,0.5,0,0.5c0,12,0,24,0,36c0,6.9,0.3,13.6-0.2,20.6h62.9c3.2,0,5.8-2.5,5.9-5.7c0-0.1,0-0.1,0-0.2c0-16.8,0-33.7,0-50.5
			c0-0.3,0-0.5,0-0.8L35.6-63.8L35.6-63.8z M24.2-49.5c0,0.2,0,0.3,0,0.4c0,13.2,0,26.3,0,39.4c-0.1,1.6,1.2,2.9,2.7,2.9
			s2.9-1.2,2.9-2.7c0-0.1,0-0.2,0-0.3c0-12.9,0-25.8,0-38.8c0-0.3,0-0.6,0-0.9C29.9-49.5,24.2-49.5,24.2-49.5z M69.9-49.3H45.8
			c-1.6,0.1-2.9-1.2-2.9-2.7c-0.1-1.6,1.2-2.9,2.7-2.9h48.6c1.6,0,2.9,1.2,2.9,2.7c0,1.3-0.8,2.4-2,2.8c-0.4,0.1-0.7,0.1-1.2,0.1
			L69.9-49.3L69.9-49.3z M69.9-43.7h24.2c1.6,0,2.8,1.3,2.9,2.8c0,1.3-0.8,2.5-2.1,2.8c-0.3,0.1-0.6,0.1-1,0.1H45.7
			c-1.6,0.1-2.8-1.1-2.9-2.7c0-0.1,0-0.1,0-0.2c0-1.6,1.2-2.7,2.7-2.8c0.1,0,0.2,0,0.3,0C45.7-43.7,69.9-43.7,69.9-43.7z M55.4-31.7
			h8.4c1.6-0.1,2.9,1,3,2.6c0,0.1,0,0.3,0,0.4c0,3.8,0,7.5,0,11.3c0.1,1.6-1.1,2.8-2.6,2.9c-0.1,0-0.3,0-0.4,0H47
			c-1.6,0.1-2.9-1.1-3-2.7c0-0.1,0-0.2,0-0.4c0-3.8,0-7.6,0-11.3c0-1.6,1.2-2.8,2.7-2.8c0.1,0,0.1,0,0.2,0L55.4-31.7L55.4-31.7z
			 M84.9-31.7H94c1.6-0.1,2.9,1.1,3,2.7c0.1,1.6-1.1,2.9-2.7,3c-0.1,0-0.2,0-0.4,0c-6.1,0-12.4,0-18.5,0c-1.4,0-2.6-1-2.7-2.4
			c-0.3-1.4,0.5-2.7,1.9-3.2c0.4-0.1,0.7-0.1,1.1-0.1L84.9-31.7L84.9-31.7z M84.9-14.5h-9.1c-1.6,0.1-2.9-1.1-3-2.7
			c-0.1-1.6,1.1-2.9,2.7-3c0.1,0,0.2,0,0.4,0h18.2c1.6,0,2.8,1.3,2.8,2.8c0,1.6-1.3,2.8-2.8,2.8l0,0C91-14.6,88-14.6,84.9-14.5
			L84.9-14.5L84.9-14.5z"/>
	</g>
	<g id="Black-S" transform="matrix(1 0 0 1 2870.66 696)">
		<path class="st8" d="M110.2-10.9c-0.2,0.5-0.3,1.1-0.5,1.6c-1.5,4.9-5.9,8.2-11.1,8.2c-23.5,0-47.1-0.1-70.7,0c-5,0-8.2-3.2-9-6.4
			c-0.2-0.7-0.3-1.5-0.3-2.2c0-14.3,0-28.5,0-42.8c-0.1-1.6,1-2.9,2.6-3c0.2,0,0.3,0,0.5,0h8.4c0-0.7,0-1.4,0-2.1c0-3,0-6.1,0-9.2
			c-0.1-1.6,1-2.8,2.6-3c0.1,0,0.3,0,0.4,0h74.2c1.4,0,2.6,0.8,2.9,2.1C110.2-67.7,110.2-10.9,110.2-10.9z M35.9-64
			c0,0.3,0,0.5,0,0.5c0,12,0,24,0,36c0,6.9,0.3,13.6-0.2,20.6h62.9c3.2,0,5.8-2.5,5.9-5.7c0-0.1,0-0.1,0-0.2c0-16.8,0-33.7,0-50.5
			c0-0.3,0-0.5,0-0.8L35.9-64L35.9-64z M24.5-49.7c0,0.2,0,0.3,0,0.4c0,13.2,0,26.3,0,39.4C24.4-8.4,25.6-7,27.2-7s2.9-1.2,2.9-2.7
			c0-0.1,0-0.2,0-0.3c0-12.9,0-25.8,0-38.8c0-0.3,0-0.6,0-0.9C30.1-49.7,24.5-49.7,24.5-49.7z M70.1-49.5H46
			c-1.6,0.1-2.9-1.2-2.9-2.7c-0.1-1.6,1.2-2.9,2.7-2.9h48.6c1.6,0,2.9,1.2,2.9,2.7c0,1.3-0.8,2.4-2,2.8c-0.4,0.1-0.7,0.1-1.2,0.1
			L70.1-49.5L70.1-49.5z M70.2-43.9h24.2c1.6,0,2.8,1.3,2.9,2.8c0,1.3-0.8,2.5-2.1,2.8c-0.3,0.1-0.6,0.1-1,0.1H46
			c-1.6,0.1-2.8-1.1-2.9-2.7c0-0.1,0-0.1,0-0.2c0-1.6,1.2-2.7,2.7-2.8c0.1,0,0.2,0,0.3,0C46-43.9,70.2-43.9,70.2-43.9z M55.6-31.9
			h8.4c1.6-0.1,2.9,1,3,2.6c0,0.1,0,0.3,0,0.4c0,3.8,0,7.5,0,11.3c0.1,1.6-1.1,2.8-2.6,2.9c-0.1,0-0.3,0-0.4,0H47.2
			c-1.6,0.1-2.9-1.1-3-2.7c0-0.1,0-0.2,0-0.4c0-3.8,0-7.6,0-11.3c0-1.6,1.2-2.8,2.7-2.8c0.1,0,0.1,0,0.2,0L55.6-31.9L55.6-31.9z
			 M85.2-31.9h9.1c1.6-0.1,2.9,1.1,3,2.7c0.1,1.6-1.1,2.9-2.7,3c-0.1,0-0.2,0-0.4,0c-6.1,0-12.4,0-18.5,0c-1.4,0-2.6-1-2.7-2.4
			c-0.3-1.4,0.5-2.7,1.9-3.2c0.4-0.1,0.7-0.1,1.1-0.1L85.2-31.9L85.2-31.9z M85.2-14.7h-9.1c-1.6,0.1-2.9-1.1-3-2.7
			c-0.1-1.6,1.1-2.9,2.7-3c0.1,0,0.2,0,0.4,0h18.2c1.6,0,2.8,1.3,2.8,2.8c0,1.6-1.3,2.8-2.8,2.8l0,0C91.2-14.8,88.2-14.8,85.2-14.7
			L85.2-14.7L85.2-14.7z"/>
	</g>
	<g id="Heavy-S" transform="matrix(1 0 0 1 2575.58 696)">
		<path class="st9" d="M108.2-10.9c-0.2,0.5-0.3,1.1-0.5,1.6c-1.5,4.9-5.9,8.2-11.1,8.2c-23.5,0-47.1-0.1-70.7,0c-5,0-8.2-3.2-9-6.4
			c-0.2-0.7-0.3-1.5-0.3-2.2c0-14.3,0-28.5,0-42.8c-0.1-1.6,1-2.9,2.6-3c0.2,0,0.3,0,0.5,0h8.4c0-0.7,0-1.4,0-2.1c0-3,0-6.1,0-9.2
			c-0.1-1.6,1-2.8,2.6-3c0.1,0,0.3,0,0.4,0h74.2c1.4,0,2.6,0.8,2.9,2.1C108.2-67.7,108.2-10.9,108.2-10.9z M33.9-64
			c0,0.3,0,0.5,0,0.5c0,12,0,24,0,36c0,6.9,0.3,13.6-0.2,20.6h62.9c3.2,0,5.8-2.5,5.9-5.7c0-0.1,0-0.1,0-0.2c0-16.8,0-33.7,0-50.5
			c0-0.3,0-0.5,0-0.8L33.9-64L33.9-64z M22.5-49.7c0,0.2,0,0.3,0,0.4c0,13.2,0,26.3,0,39.4C22.4-8.4,23.6-7,25.2-7s2.9-1.2,2.9-2.7
			c0-0.1,0-0.2,0-0.3c0-12.9,0-25.8,0-38.8c0-0.3,0-0.6,0-0.9C28.1-49.7,22.5-49.7,22.5-49.7z M68.1-49.5H44
			c-1.6,0.1-2.9-1.2-2.9-2.7c-0.1-1.6,1.2-2.9,2.7-2.9h48.6c1.6,0,2.9,1.2,2.9,2.7c0,1.3-0.8,2.4-2,2.8c-0.4,0.1-0.7,0.1-1.2,0.1
			L68.1-49.5L68.1-49.5z M68.2-43.9h24.2c1.6,0,2.8,1.3,2.9,2.8c0,1.3-0.8,2.5-2.1,2.8c-0.3,0.1-0.6,0.1-1,0.1H44
			c-1.6,0.1-2.8-1.1-2.9-2.7c0-0.1,0-0.1,0-0.2c0-1.6,1.2-2.7,2.7-2.8c0.1,0,0.2,0,0.3,0C44-43.9,68.2-43.9,68.2-43.9z M53.7-31.9
			h8.4c1.6-0.1,2.9,1,3,2.6c0,0.1,0,0.3,0,0.4c0,3.8,0,7.5,0,11.3c0.1,1.6-1.1,2.8-2.6,2.9c-0.1,0-0.3,0-0.4,0H45.2
			c-1.6,0.1-2.9-1.1-3-2.7c0-0.1,0-0.2,0-0.4c0-3.8,0-7.6,0-11.3c0-1.6,1.2-2.8,2.7-2.8c0.1,0,0.1,0,0.2,0L53.7-31.9L53.7-31.9z
			 M83.2-31.9h9.1c1.6-0.1,2.9,1.1,3,2.7c0.1,1.6-1.1,2.9-2.7,3c-0.1,0-0.2,0-0.4,0c-6.1,0-12.4,0-18.5,0c-1.4,0-2.6-1-2.7-2.4
			c-0.3-1.4,0.5-2.7,1.9-3.2c0.4-0.1,0.7-0.1,1.1-0.1L83.2-31.9L83.2-31.9z M83.2-14.7h-9.1c-1.6,0.1-2.9-1.1-3-2.7
			c-0.1-1.6,1.1-2.9,2.7-3c0.1,0,0.2,0,0.4,0h18.2c1.6,0,2.8,1.3,2.8,2.8c0,1.6-1.3,2.8-2.8,2.8l0,0C89.2-14.8,86.2-14.8,83.2-14.7
			L83.2-14.7L83.2-14.7z"/>
	</g>
	<g id="Bold-S" transform="matrix(1 0 0 1 2280.7 696)">
		<path class="st10" d="M106.6-10.9c-0.2,0.5-0.3,1.1-0.5,1.6c-1.5,4.9-5.9,8.2-11.1,8.2c-23.5,0-47.1-0.1-70.7,0
			c-5,0-8.2-3.2-9-6.4c-0.2-0.7-0.3-1.5-0.3-2.2c0-14.3,0-28.5,0-42.8c-0.1-1.6,1-2.9,2.6-3c0.2,0,0.3,0,0.5,0h8.4
			c0-0.7,0-1.4,0-2.1c0-3,0-6.1,0-9.2c-0.1-1.6,1-2.8,2.6-3c0.1,0,0.3,0,0.4,0h74.2c1.4,0,2.6,0.8,2.9,2.1
			C106.6-67.7,106.6-10.9,106.6-10.9z M32.3-64c0,0.3,0,0.5,0,0.5c0,12,0,24,0,36c0,6.9,0.3,13.6-0.2,20.6h62.9
			c3.2,0,5.8-2.5,5.9-5.7c0-0.1,0-0.1,0-0.2c0-16.8,0-33.7,0-50.5c0-0.3,0-0.5,0-0.8L32.3-64L32.3-64z M20.9-49.7c0,0.2,0,0.3,0,0.4
			c0,13.2,0,26.3,0,39.4C20.8-8.4,22.1-7,23.6-7s2.9-1.2,2.9-2.7c0-0.1,0-0.2,0-0.3c0-12.9,0-25.8,0-38.8c0-0.3,0-0.6,0-0.9
			C26.6-49.7,20.9-49.7,20.9-49.7z M66.6-49.5H42.5c-1.6,0.1-2.9-1.2-2.9-2.7c-0.1-1.6,1.2-2.9,2.7-2.9h48.6c1.6,0,2.9,1.2,2.9,2.7
			c0,1.3-0.8,2.4-2,2.8c-0.4,0.1-0.7,0.1-1.2,0.1L66.6-49.5L66.6-49.5z M66.6-43.9h24.2c1.6,0,2.8,1.3,2.9,2.8
			c0,1.3-0.8,2.5-2.1,2.8c-0.3,0.1-0.6,0.1-1,0.1H42.4c-1.6,0.1-2.8-1.1-2.9-2.7c0-0.1,0-0.1,0-0.2c0-1.6,1.2-2.7,2.7-2.8
			c0.1,0,0.2,0,0.3,0C42.4-43.9,66.6-43.9,66.6-43.9z M52.1-31.9h8.4c1.6-0.1,2.9,1,3,2.6c0,0.1,0,0.3,0,0.4c0,3.8,0,7.5,0,11.3
			c0.1,1.6-1.1,2.8-2.6,2.9c-0.1,0-0.3,0-0.4,0H43.7c-1.6,0.1-2.9-1.1-3-2.7c0-0.1,0-0.2,0-0.4c0-3.8,0-7.6,0-11.3
			c0-1.6,1.2-2.8,2.7-2.8c0.1,0,0.1,0,0.2,0L52.1-31.9L52.1-31.9z M81.7-31.9h9.1c1.6-0.1,2.9,1.1,3,2.7c0.1,1.6-1.1,2.9-2.7,3
			c-0.1,0-0.2,0-0.4,0c-6.1,0-12.4,0-18.5,0c-1.4,0-2.6-1-2.7-2.4c-0.3-1.4,0.5-2.7,1.9-3.2c0.4-0.1,0.7-0.1,1.1-0.1L81.7-31.9
			L81.7-31.9z M81.7-14.7h-9.1c-1.6,0.1-2.9-1.1-3-2.7c-0.1-1.6,1.1-2.9,2.7-3c0.1,0,0.2,0,0.4,0h18.2c1.6,0,2.8,1.3,2.8,2.8
			c0,1.6-1.3,2.8-2.8,2.8l0,0C87.7-14.8,84.7-14.8,81.7-14.7L81.7-14.7L81.7-14.7z"/>
	</g>
	<g id="Semibold-S" transform="matrix(1 0 0 1 1985.26 696)">
		<path class="st11" d="M102.6-10.9c-0.2,0.5-0.3,1.1-0.5,1.6c-1.5,4.9-5.9,8.2-11.1,8.2c-23.5,0-47.1-0.1-70.7,0
			c-5,0-8.2-3.2-9-6.4c-0.2-0.7-0.3-1.5-0.3-2.2c0-14.3,0-28.5,0-42.8c-0.1-1.6,1-2.9,2.6-3c0.2,0,0.3,0,0.5,0h8.4
			c0-0.7,0-1.4,0-2.1c0-3,0-6.1,0-9.2c-0.1-1.6,1-2.8,2.6-3c0.1,0,0.3,0,0.4,0h74.2c1.4,0,2.6,0.8,2.9,2.1
			C102.6-67.7,102.6-10.9,102.6-10.9z M28.3-64c0,0.3,0,0.5,0,0.5c0,12,0,24,0,36c0,6.9,0.3,13.6-0.2,20.6h62.9
			c3.2,0,5.8-2.5,5.9-5.7c0-0.1,0-0.1,0-0.2c0-16.8,0-33.7,0-50.5c0-0.3,0-0.5,0-0.8L28.3-64L28.3-64z M16.9-49.7c0,0.2,0,0.3,0,0.4
			c0,13.2,0,26.3,0,39.4C16.8-8.4,18.1-7,19.6-7s2.9-1.2,2.9-2.7c0-0.1,0-0.2,0-0.3c0-12.9,0-25.8,0-38.8c0-0.3,0-0.6,0-0.9
			C22.6-49.7,16.9-49.7,16.9-49.7z M62.5-49.5H38.5c-1.6,0.1-2.9-1.2-2.9-2.7c-0.1-1.6,1.2-2.9,2.7-2.9h48.6c1.6,0,2.9,1.2,2.9,2.7
			c0,1.3-0.8,2.4-2,2.8c-0.4,0.1-0.7,0.1-1.2,0.1L62.5-49.5L62.5-49.5z M62.6-43.9h24.2c1.6,0,2.8,1.3,2.9,2.8
			c0,1.3-0.8,2.5-2.1,2.8c-0.3,0.1-0.6,0.1-1,0.1H38.4c-1.6,0.1-2.8-1.1-2.9-2.7c0-0.1,0-0.1,0-0.2c0-1.6,1.2-2.7,2.7-2.8
			c0.1,0,0.2,0,0.3,0C38.4-43.9,62.6-43.9,62.6-43.9z M48.1-31.9h8.4c1.6-0.1,2.9,1,3,2.6c0,0.1,0,0.3,0,0.4c0,3.8,0,7.5,0,11.3
			c0.1,1.6-1.1,2.8-2.6,2.9c-0.1,0-0.3,0-0.4,0H39.7c-1.6,0.1-2.9-1.1-3-2.7c0-0.1,0-0.2,0-0.4c0-3.8,0-7.6,0-11.3
			c0-1.6,1.2-2.8,2.7-2.8c0.1,0,0.1,0,0.2,0L48.1-31.9L48.1-31.9z M77.6-31.9h9.1c1.6-0.1,2.9,1.1,3,2.7c0.1,1.6-1.1,2.9-2.7,3
			c-0.1,0-0.2,0-0.4,0c-6.1,0-12.4,0-18.5,0c-1.4,0-2.6-1-2.7-2.4c-0.3-1.4,0.5-2.7,1.9-3.2c0.4-0.1,0.7-0.1,1.1-0.1L77.6-31.9
			L77.6-31.9z M77.6-14.7h-9.1c-1.6,0.1-2.9-1.1-3-2.7c-0.1-1.6,1.1-2.9,2.7-3c0.1,0,0.2,0,0.4,0h18.2c1.6,0,2.8,1.3,2.8,2.8
			c0,1.6-1.3,2.8-2.8,2.8l0,0C83.7-14.8,80.7-14.8,77.6-14.7L77.6-14.7L77.6-14.7z"/>
	</g>
	<g id="Medium-S" transform="matrix(1 0 0 1 1689.52 696)">
		<path class="st12" d="M103.9-10.9c-0.2,0.5-0.3,1.1-0.5,1.6c-1.5,4.9-5.9,8.2-11.1,8.2c-23.5,0-47.1-0.1-70.7,0
			c-5,0-8.2-3.2-9-6.4c-0.2-0.7-0.3-1.5-0.3-2.2c0-14.3,0-28.5,0-42.8c-0.1-1.6,1-2.9,2.6-3c0.2,0,0.3,0,0.5,0h8.4
			c0-0.7,0-1.4,0-2.1c0-3,0-6.1,0-9.2c-0.1-1.6,1-2.8,2.6-3c0.1,0,0.3,0,0.4,0h74.2c1.4,0,2.6,0.8,2.9,2.1
			C103.9-67.7,103.9-10.9,103.9-10.9z M29.6-64c0,0.3,0,0.5,0,0.5c0,12,0,24,0,36c0,6.9,0.3,13.6-0.2,20.6h62.9
			c3.2,0,5.8-2.5,5.9-5.7c0-0.1,0-0.1,0-0.2c0-16.8,0-33.7,0-50.5c0-0.3,0-0.5,0-0.8L29.6-64L29.6-64z M18.1-49.7c0,0.2,0,0.3,0,0.4
			c0,13.2,0,26.3,0,39.4C18-8.4,19.3-7,20.9-7s2.9-1.2,2.9-2.7c0-0.1,0-0.2,0-0.3c0-12.9,0-25.8,0-38.8c0-0.3,0-0.6,0-0.9
			C23.8-49.7,18.1-49.7,18.1-49.7z M63.8-49.5H39.7c-1.6,0.1-2.9-1.2-2.9-2.7c-0.1-1.6,1.2-2.9,2.7-2.9h48.6c1.6,0,2.9,1.2,2.9,2.7
			c0,1.3-0.8,2.4-2,2.8c-0.4,0.1-0.7,0.1-1.2,0.1L63.8-49.5L63.8-49.5z M63.9-43.9H88c1.6,0,2.8,1.3,2.9,2.8c0,1.3-0.8,2.5-2.1,2.8
			c-0.3,0.1-0.6,0.1-1,0.1H39.6c-1.6,0.1-2.8-1.1-2.9-2.7c0-0.1,0-0.1,0-0.2c0-1.6,1.2-2.7,2.7-2.8c0.1,0,0.2,0,0.3,0
			C39.6-43.9,63.9-43.9,63.9-43.9z M49.3-31.9h8.4c1.6-0.1,2.9,1,3,2.6c0,0.1,0,0.3,0,0.4c0,3.8,0,7.5,0,11.3
			c0.1,1.6-1.1,2.8-2.6,2.9c-0.1,0-0.3,0-0.4,0H40.9c-1.6,0.1-2.9-1.1-3-2.7c0-0.1,0-0.2,0-0.4c0-3.8,0-7.6,0-11.3
			c0-1.6,1.2-2.8,2.7-2.8c0.1,0,0.1,0,0.2,0L49.3-31.9L49.3-31.9z M78.9-31.9h9.1c1.6-0.1,2.9,1.1,3,2.7c0.1,1.6-1.1,2.9-2.7,3
			c-0.1,0-0.2,0-0.4,0c-6.1,0-12.4,0-18.5,0c-1.4,0-2.6-1-2.7-2.4c-0.3-1.4,0.5-2.7,1.9-3.2c0.4-0.1,0.7-0.1,1.1-0.1L78.9-31.9
			L78.9-31.9z M78.9-14.7h-9.1c-1.6,0.1-2.9-1.1-3-2.7c-0.1-1.6,1.1-2.9,2.7-3c0.1,0,0.2,0,0.4,0H88c1.6,0,2.8,1.3,2.8,2.8
			c0,1.6-1.3,2.8-2.8,2.8l0,0C84.9-14.8,81.9-14.8,78.9-14.7L78.9-14.7L78.9-14.7z"/>
	</g>
	<g id="Regular-S" transform="matrix(1 0 0 1 1394.06 696)">
		<path class="st13" d="M103.5-10.9c-0.2,0.5-0.3,1.1-0.5,1.6c-1.5,4.9-5.9,8.2-11.1,8.2c-23.5,0-47.1-0.1-70.7,0
			c-5,0-8.2-3.2-9-6.4c-0.2-0.7-0.3-1.5-0.3-2.2c0-14.3,0-28.5,0-42.8c-0.1-1.6,1-2.9,2.6-3c0.2,0,0.3,0,0.5,0h8.4
			c0-0.7,0-1.4,0-2.1c0-3,0-6.1,0-9.2c-0.1-1.6,1-2.8,2.6-3c0.1,0,0.3,0,0.4,0h74.2c1.4,0,2.6,0.8,2.9,2.1
			C103.5-67.7,103.5-10.9,103.5-10.9z M29.3-64c0,0.3,0,0.5,0,0.5c0,12,0,24,0,36c0,6.9,0.3,13.6-0.2,20.6H92c3.2,0,5.8-2.5,5.9-5.7
			c0-0.1,0-0.1,0-0.2c0-16.8,0-33.7,0-50.5c0-0.3,0-0.5,0-0.8L29.3-64L29.3-64z M17.8-49.7c0,0.2,0,0.3,0,0.4c0,13.2,0,26.3,0,39.4
			C17.7-8.4,19-7,20.6-7c1.6,0,2.9-1.2,2.9-2.7c0-0.1,0-0.2,0-0.3c0-12.9,0-25.8,0-38.8c0-0.3,0-0.6,0-0.9
			C23.5-49.7,17.8-49.7,17.8-49.7z M63.5-49.5H39.4c-1.6,0.1-2.9-1.2-2.9-2.7c-0.1-1.6,1.2-2.9,2.7-2.9h48.6c1.6,0,2.9,1.2,2.9,2.7
			c0,1.3-0.8,2.4-2,2.8c-0.4,0.1-0.7,0.1-1.2,0.1L63.5-49.5L63.5-49.5z M63.6-43.9h24.2c1.6,0,2.8,1.3,2.9,2.8
			c0,1.3-0.8,2.5-2.1,2.8c-0.3,0.1-0.6,0.1-1,0.1H39.3c-1.6,0.1-2.8-1.1-2.9-2.7c0-0.1,0-0.1,0-0.2c0-1.6,1.2-2.7,2.7-2.8
			c0.1,0,0.2,0,0.3,0C39.3-43.9,63.6-43.9,63.6-43.9z M49-31.9h8.4c1.6-0.1,2.9,1,3,2.6c0,0.1,0,0.3,0,0.4c0,3.8,0,7.5,0,11.3
			c0.1,1.6-1.1,2.8-2.6,2.9c-0.1,0-0.3,0-0.4,0H40.6c-1.6,0.1-2.9-1.1-3-2.7c0-0.1,0-0.2,0-0.4c0-3.8,0-7.6,0-11.3
			c0-1.6,1.2-2.8,2.7-2.8c0.1,0,0.1,0,0.2,0L49-31.9L49-31.9z M78.6-31.9h9.1c1.6-0.1,2.9,1.1,3,2.7c0.1,1.6-1.1,2.9-2.7,3
			c-0.1,0-0.2,0-0.4,0c-6.1,0-12.4,0-18.5,0c-1.4,0-2.6-1-2.7-2.4c-0.3-1.4,0.5-2.7,1.9-3.2c0.4-0.1,0.7-0.1,1.1-0.1L78.6-31.9
			L78.6-31.9z M78.6-14.7h-9.1c-1.6,0.1-2.9-1.1-3-2.7c-0.1-1.6,1.1-2.9,2.7-3c0.1,0,0.2,0,0.4,0h18.2c1.6,0,2.8,1.3,2.8,2.8
			c0,1.6-1.3,2.8-2.8,2.8l0,0C84.6-14.8,81.6-14.8,78.6-14.7L78.6-14.7L78.6-14.7z"/>
	</g>
	<g id="Light-S" transform="matrix(1 0 0 1 1099.35 696)">
		<path class="st14" d="M119.7-10.9c-0.2,0.5-0.3,1.1-0.5,1.6c-1.5,4.9-5.9,8.2-11.1,8.2c-23.5,0-47.1-0.1-70.7,0
			c-5,0-8.2-3.2-9-6.4c-0.2-0.7-0.3-1.5-0.3-2.2c0-14.3,0-28.5,0-42.8c-0.1-1.6,1-2.9,2.6-3c0.2,0,0.3,0,0.5,0h8.4
			c0-0.7,0-1.4,0-2.1c0-3,0-6.1,0-9.2c-0.1-1.6,1-2.8,2.6-3c0.1,0,0.3,0,0.4,0h74.2c1.4,0,2.6,0.8,2.9,2.1
			C119.7-67.7,119.7-10.9,119.7-10.9z M45.4-64c0,0.3,0,0.5,0,0.5c0,12,0,24,0,36c0,6.9,0.3,13.6-0.2,20.6h62.9
			c3.2,0,5.8-2.5,5.9-5.7c0-0.1,0-0.1,0-0.2c0-16.8,0-33.7,0-50.5c0-0.3,0-0.5,0-0.8L45.4-64L45.4-64z M34-49.7c0,0.2,0,0.3,0,0.4
			c0,13.2,0,26.3,0,39.4C33.9-8.4,35.2-7,36.7-7c1.6,0,2.9-1.2,2.9-2.7c0-0.1,0-0.2,0-0.3c0-12.9,0-25.8,0-38.8c0-0.3,0-0.6,0-0.9
			C39.7-49.7,34-49.7,34-49.7z M79.6-49.5H55.6c-1.6,0.1-2.9-1.2-2.9-2.7c-0.1-1.6,1.2-2.9,2.7-2.9H104c1.6,0,2.9,1.2,2.9,2.7
			c0,1.3-0.8,2.4-2,2.8c-0.4,0.1-0.7,0.1-1.2,0.1L79.6-49.5L79.6-49.5z M79.7-43.9h24.2c1.6,0,2.8,1.3,2.9,2.8
			c0,1.3-0.8,2.5-2.1,2.8c-0.3,0.1-0.6,0.1-1,0.1H55.5c-1.6,0.1-2.8-1.1-2.9-2.7c0-0.1,0-0.1,0-0.2c0-1.6,1.2-2.7,2.7-2.8
			c0.1,0,0.2,0,0.3,0C55.5-43.9,79.7-43.9,79.7-43.9z M65.2-31.9h8.4c1.6-0.1,2.9,1,3,2.6c0,0.1,0,0.3,0,0.4c0,3.8,0,7.5,0,11.3
			c0.1,1.6-1.1,2.8-2.6,2.9c-0.1,0-0.3,0-0.4,0H56.8c-1.6,0.1-2.9-1.1-3-2.7c0-0.1,0-0.2,0-0.4c0-3.8,0-7.6,0-11.3
			c0-1.6,1.2-2.8,2.7-2.8c0.1,0,0.1,0,0.2,0L65.2-31.9L65.2-31.9z M94.7-31.9h9.1c1.6-0.1,2.9,1.1,3,2.7c0.1,1.6-1.1,2.9-2.7,3
			c-0.1,0-0.2,0-0.4,0c-6.1,0-12.4,0-18.5,0c-1.4,0-2.6-1-2.7-2.4c-0.3-1.4,0.5-2.7,1.9-3.2c0.4-0.1,0.7-0.1,1.1-0.1L94.7-31.9
			L94.7-31.9z M94.7-14.7h-9.1c-1.6,0.1-2.9-1.1-3-2.7c-0.1-1.6,1.1-2.9,2.7-3c0.1,0,0.2,0,0.4,0h18.2c1.6,0,2.8,1.3,2.8,2.8
			c0,1.6-1.3,2.8-2.8,2.8l0,0C100.8-14.8,97.8-14.8,94.7-14.7L94.7-14.7L94.7-14.7z"/>
	</g>
	<g id="Thin-S" transform="matrix(1 0 0 1 805.25 696)">
		<path class="st15" d="M98.6-10.9c-0.2,0.5-0.3,1.1-0.5,1.6C96.6-4.3,92.1-1.1,87-1.1c-23.5,0-47.1-0.1-70.7,0c-5,0-8.2-3.2-9-6.4
			C7.2-8.2,7.1-8.9,7.1-9.7c0-14.3,0-28.5,0-42.8c-0.1-1.6,1-2.9,2.6-3c0.2,0,0.3,0,0.5,0h8.4c0-0.7,0-1.4,0-2.1c0-3,0-6.1,0-9.2
			c-0.1-1.6,1-2.8,2.6-3c0.1,0,0.3,0,0.4,0h74.2c1.4,0,2.6,0.8,2.9,2.1C98.6-67.7,98.6-10.9,98.6-10.9z M24.3-64c0,0.3,0,0.5,0,0.5
			c0,12,0,24,0,36c0,6.9,0.3,13.6-0.2,20.6H87c3.2,0,5.8-2.5,5.9-5.7c0-0.1,0-0.1,0-0.2c0-16.8,0-33.7,0-50.5c0-0.3,0-0.5,0-0.8
			L24.3-64L24.3-64z M12.8-49.7c0,0.2,0,0.3,0,0.4c0,13.2,0,26.3,0,39.4C12.7-8.4,14-7,15.6-7s2.9-1.2,2.9-2.7c0-0.1,0-0.2,0-0.3
			c0-12.9,0-25.8,0-38.8c0-0.3,0-0.6,0-0.9C18.5-49.7,12.8-49.7,12.8-49.7z M58.5-49.5H34.4c-1.6,0.1-2.9-1.2-2.9-2.7
			c-0.1-1.6,1.2-2.9,2.7-2.9h48.6c1.6,0,2.9,1.2,2.9,2.7c0,1.3-0.8,2.4-2,2.8c-0.4,0.1-0.7,0.1-1.2,0.1L58.5-49.5L58.5-49.5z
			 M58.6-43.9h24.2c1.6,0,2.8,1.3,2.9,2.8c0,1.3-0.8,2.5-2.1,2.8c-0.3,0.1-0.6,0.1-1,0.1H34.3c-1.6,0.1-2.8-1.1-2.9-2.7
			c0-0.1,0-0.1,0-0.2c0-1.6,1.2-2.7,2.7-2.8c0.1,0,0.2,0,0.3,0C34.3-43.9,58.6-43.9,58.6-43.9z M44-31.9h8.4c1.6-0.1,2.9,1,3,2.6
			c0,0.1,0,0.3,0,0.4c0,3.8,0,7.5,0,11.3c0.1,1.6-1.1,2.8-2.6,2.9c-0.1,0-0.3,0-0.4,0H35.6c-1.6,0.1-2.9-1.1-3-2.7
			c0-0.1,0-0.2,0-0.4c0-3.8,0-7.6,0-11.3c0-1.6,1.2-2.8,2.7-2.8c0.1,0,0.1,0,0.2,0L44-31.9L44-31.9z M73.6-31.9h9.1
			c1.6-0.1,2.9,1.1,3,2.7c0.1,1.6-1.1,2.9-2.7,3c-0.1,0-0.2,0-0.4,0c-6.1,0-12.4,0-18.5,0c-1.4,0-2.6-1-2.7-2.4
			c-0.3-1.4,0.5-2.7,1.9-3.2c0.4-0.1,0.7-0.1,1.1-0.1L73.6-31.9L73.6-31.9z M73.6-14.7h-9.1c-1.6,0.1-2.9-1.1-3-2.7s1.1-2.9,2.7-3
			c0.1,0,0.2,0,0.4,0h18.2c1.6,0,2.8,1.3,2.8,2.8c0,1.6-1.3,2.8-2.8,2.8l0,0C79.6-14.8,76.6-14.8,73.6-14.7L73.6-14.7L73.6-14.7z"/>
	</g>
	<g id="Ultralight-S" transform="matrix(1 0 0 1 509.906 696)">
		<path d="M96.7-10.9c-0.2,0.5-0.3,1.1-0.5,1.6c-1.5,4.9-5.9,8.2-11.1,8.2c-23.5,0-47.1-0.1-70.7,0c-5,0-8.2-3.2-9-6.4
			C5.3-8.2,5.2-8.9,5.2-9.7c0-14.3,0-28.5,0-42.8c-0.1-1.6,1-2.9,2.6-3c0.2,0,0.3,0,0.5,0h8.4c0-0.7,0-1.4,0-2.1c0-3,0-6.1,0-9.2
			c-0.1-1.6,1-2.8,2.6-3c0.1,0,0.3,0,0.4,0h74.2c1.4,0,2.6,0.8,2.9,2.1C96.7-67.7,96.7-10.9,96.7-10.9z M22.4-64c0,0.3,0,0.5,0,0.5
			c0,12,0,24,0,36c0,6.9,0.3,13.6-0.2,20.6h62.9c3.2,0,5.8-2.5,5.9-5.7c0-0.1,0-0.1,0-0.2c0-16.8,0-33.7,0-50.5c0-0.3,0-0.5,0-0.8
			L22.4-64L22.4-64z M10.9-49.7c0,0.2,0,0.3,0,0.4c0,13.2,0,26.3,0,39.4C10.9-8.4,12.1-7,13.7-7s2.9-1.2,2.9-2.7c0-0.1,0-0.2,0-0.3
			c0-12.9,0-25.8,0-38.8c0-0.3,0-0.6,0-0.9C16.6-49.7,10.9-49.7,10.9-49.7z M56.6-49.5H32.5c-1.6,0.1-2.9-1.2-2.9-2.7
			c-0.1-1.6,1.2-2.9,2.7-2.9h48.6c1.6,0,2.9,1.2,2.9,2.7c0,1.3-0.8,2.4-2,2.8c-0.4,0.1-0.7,0.1-1.2,0.1L56.6-49.5L56.6-49.5z
			 M56.7-43.9h24.2c1.6,0,2.8,1.3,2.9,2.8c0,1.3-0.8,2.5-2.1,2.8c-0.3,0.1-0.6,0.1-1,0.1H32.4c-1.6,0.1-2.8-1.1-2.9-2.7
			c0-0.1,0-0.1,0-0.2c0-1.6,1.2-2.7,2.7-2.8c0.1,0,0.2,0,0.3,0C32.4-43.9,56.7-43.9,56.7-43.9z M42.1-31.9h8.4c1.6-0.1,2.9,1,3,2.6
			c0,0.1,0,0.3,0,0.4c0,3.8,0,7.5,0,11.3c0.1,1.6-1.1,2.8-2.6,2.9c-0.1,0-0.3,0-0.4,0H33.7c-1.6,0.1-2.9-1.1-3-2.7
			c0-0.1,0-0.2,0-0.4c0-3.8,0-7.6,0-11.3c0-1.6,1.2-2.8,2.7-2.8c0.1,0,0.1,0,0.2,0L42.1-31.9L42.1-31.9z M71.7-31.9h9.1
			c1.6-0.1,2.9,1.1,3,2.7c0.1,1.6-1.1,2.9-2.7,3c-0.1,0-0.2,0-0.4,0c-6.1,0-12.4,0-18.5,0c-1.4,0-2.6-1-2.7-2.4
			c-0.3-1.4,0.5-2.7,1.9-3.2c0.4-0.1,0.7-0.1,1.1-0.1L71.7-31.9L71.7-31.9z M71.7-14.7h-9.1c-1.6,0.1-2.9-1.1-3-2.7s1.1-2.9,2.7-3
			c0.1,0,0.2,0,0.4,0h18.2c1.6,0,2.8,1.3,2.8,2.8c0,1.6-1.3,2.8-2.8,2.8l0,0C77.7-14.8,74.7-14.8,71.7-14.7L71.7-14.7L71.7-14.7z"/>
	</g>
</g>
</svg>
