<?xml version="1.0" encoding="utf-8"?>
<!-- Generator: Adobe Illustrator 24.0.3, SVG Export Plug-In . SVG Version: 6.00 Build 0)  -->
<svg version="1.1" id="Layer_1" xmlns="http://www.w3.org/2000/svg" xmlns:xlink="http://www.w3.org/1999/xlink" x="0px" y="0px"
	 viewBox="0 0 3300 2200" style="enable-background:new 0 0 3300 2200;" xml:space="preserve">
<style type="text/css">
	.st0{fill:#FFFFFF;}
	.st1{fill:none;stroke:#000000;stroke-width:0.5;}
	.st2{font-family:'Arial-BoldMT';}
	.st3{font-size:12px;}
	.st4{font-family:'ArialMT';}
	.st5{opacity:0.4;fill:#00AEEF;enable-background:new    ;}
	.st6{fill:#27AAE1;}
	.st7{fill:none;stroke:#27AAE1;stroke-width:0.577;}
	.st8{stroke:#000000;stroke-width:2;stroke-miterlimit:10;}
	.st9{stroke:#000000;stroke-width:1.75;stroke-miterlimit:10;}
	.st10{stroke:#000000;stroke-width:1.5;stroke-miterlimit:10;}
	.st11{stroke:#000000;stroke-width:1.25;stroke-miterlimit:10;}
	.st12{stroke:#000000;stroke-miterlimit:10;}
	.st13{stroke:#000000;stroke-width:0.75;stroke-miterlimit:10;}
	.st14{stroke:#000000;stroke-width:0.5;stroke-miterlimit:10;}
	.st15{stroke:#000000;stroke-width:0.25;stroke-miterlimit:10;}
</style>
<g id="Notes">
	<rect id="artboard" y="0" class="st0" width="3300" height="2200"/>
	<line class="st1" x1="263" y1="292" x2="3036" y2="292"/>
	<text transform="matrix(1 0 0 1 263 322)" class="st2 st3">Weight/Scale Variations</text>
	<text transform="matrix(1 0 0 1 536.0362 322)" class="st4 st3">Ultralight</text>
	<text transform="matrix(1 0 0 1 844.7501 322)" class="st4 st3">Thin</text>
	<text transform="matrix(1 0 0 1 1140.1193 322)" class="st4 st3">Light</text>
	<text transform="matrix(1 0 0 1 1428.8282 322)" class="st4 st3">Regular</text>
	<text transform="matrix(1 0 0 1 1725.2202 322)" class="st4 st3">Medium</text>
	<text transform="matrix(1 0 0 1 2018.2563 322)" class="st4 st3">Semibold</text>
	<text transform="matrix(1 0 0 1 2327.9712 322)" class="st4 st3">Bold</text>
	<text transform="matrix(1 0 0 1 2619.6831 322)" class="st4 st3">Heavy</text>
	<text transform="matrix(1 0 0 1 2918.728 322)" class="st4 st3">Black</text>
	<line class="st1" x1="263" y1="1903" x2="3036" y2="1903"/>
	<g transform="matrix(1 0 0 1 263 1933)">
		<path d="M9.2,0.8c4.3,0,7.9-3.6,7.9-7.9S13.5-15,9.2-15s-7.9,3.6-7.9,7.9C1.4-2.7,5,0.8,9.2,0.8z M9.2-0.7c-3.5,0-6.4-2.8-6.4-6.4
			s2.8-6.4,6.4-6.4s6.4,2.8,6.4,6.4C15.7-3.5,12.8-0.7,9.2-0.7z M9.2-3.4c0.5,0,0.7-0.3,0.7-0.8v-2.1h2.2C12.7-6.3,13-6.6,13-7
			c0-0.5-0.3-0.7-0.8-0.7H10V-10c0-0.5-0.3-0.8-0.7-0.8S8.5-10.5,8.5-10v2.2H6.3C5.8-7.8,5.4-7.5,5.4-7s0.4,0.7,0.8,0.7h2.2v2.1
			C8.5-3.8,8.8-3.4,9.2-3.4z"/>
	</g>
	<g transform="matrix(1 0 0 1 281.506 1933)">
		<path d="M11.7,2.9c5.4,0,10-4.5,10-10c0-5.4-4.5-10-10-10c-5.4,0-10,4.5-10,10C1.7-1.6,6.3,2.9,11.7,2.9z M11.7,1.2
			c-4.6,0-8.3-3.7-8.3-8.3s3.7-8.3,8.3-8.3S20-11.7,20-7.1C20-2.4,16.3,1.2,11.7,1.2z M11.7-2.4c0.5,0,0.8-0.4,0.8-0.9v-2.9h3.1
			c0.5,0,0.9-0.3,0.9-0.8s-0.4-0.8-0.9-0.8h-3.1v-3.1c0-0.6-0.3-0.9-0.8-0.9s-0.8,0.4-0.8,0.9v3.1h-3c-0.6-0.1-1,0.2-1,0.8
			c0,0.5,0.4,0.8,0.9,0.8h3v2.9C10.9-2.8,11.2-2.4,11.7-2.4z"/>
	</g>
	<g transform="matrix(1 0 0 1 304.924 1933)">
		<path d="M15,5.7c7,0,12.7-5.8,12.7-12.7c0-7-5.8-12.7-12.7-12.7C8-19.8,2.3-14,2.3-7C2.3-0.1,8,5.7,15,5.7z M15,3.9
			C8.9,3.9,4.1-1,4.1-7S8.9-17.9,15-17.9c6,0,10.9,4.9,10.9,10.9S21,3.9,15,3.9z M15-1.1c0.6,0,0.9-0.4,0.9-1v-4.1h4.2
			c0.6,0,1-0.3,1-0.9S20.7-8,20.1-8h-4.2v-4.2c0-0.6-0.4-1-0.9-1c-0.6,0-0.9,0.4-0.9,1V-8H9.8c-0.6,0-1,0.3-1,0.9s0.4,0.9,1,0.9H14
			v4.1C14.1-1.5,14.4-1.1,15-1.1z"/>
	</g>
	<text transform="matrix(1 0 0 1 263 1953)" class="st2 st3">Design Variations</text>
	<text transform="matrix(1 0 0 1 263 1971)" class="st4 st3">Symbols are supported in up to nine weights and three scales.</text>
	<text transform="matrix(1 0 0 1 263 1989)" class="st4 st3">For optimal layout with text and other symbols, vertically align</text>
	<text transform="matrix(1 0 0 1 263 2007)" class="st4 st3">symbols with the adjacent text.</text>
	<rect x="776" y="1919" class="st5" width="3" height="14"/>
	<g transform="matrix(1 0 0 1 779 1933)">
		<path d="M10.5,0h1.8L7.2-14.1H5.4L0.2,0H2l1.4-4H9L10.5,0z M6.3-12L6.3-12l2.3,6.4H4L6.3-12z"/>
	</g>
	<rect x="791.6" y="1919" class="st5" width="3" height="14"/>
	<text transform="matrix(1 0 0 1 776 1953)" class="st2 st3">Margins</text>
	<text transform="matrix(1 0 0 1 776 1971)" class="st4 st3">Leading and trailing margins on the left and right side of each symbol</text>
	<text transform="matrix(1 0 0 1 776 1989)" class="st4 st3">can be adjusted by modifying the width of the blue rectangles.</text>
	<text transform="matrix(1 0 0 1 776 2007)" class="st4 st3">Modifications are automatically applied proportionally to all</text>
	<text transform="matrix(1 0 0 1 776 2025)" class="st4 st3">scales and weights.</text>
	<g transform="matrix(1 0 0 1 1289 1933)">
		<path d="M2.8,3.1l1.5,1.5C5.1,5.4,6.1,5.4,7,4.4L17.3-6.7c0.4,0.3,0.8,0.3,1.3,0.2l1-0.2L20.3-6v0.5c-0.1,0.5,0.1,1,0.5,1.5
			l0.8,0.8c0.5,0.5,1.2,0.5,1.6,0.1l3.3-3.3C27-6.9,27-7.5,26.5-8l-0.8-0.8c-0.5-0.5-0.9-0.7-1.4-0.6l-0.5,0.1L23.1-10l0.3-1.1
			c0.1-0.6,0-1-0.6-1.6l-2.4-2.4c-3.5-3.5-8.1-3.4-11.2-0.3C8.8-15,8.7-14.4,9-14c0.2,0.4,0.7,0.6,1.4,0.4c1.5-0.4,3-0.3,4.5,0.7
			l-0.6,1.6c-0.2,0.6-0.2,1.1,0,1.5L3,0.4C2.1,1.3,2,2.3,2.8,3.1z M10.7-15.1c2.7-2,6-1.7,8.4,0.7l2.6,2.6c0.2,0.2,0.3,0.4,0.2,0.7
			l-0.4,1.6L23.1-8H24c0.3,0,0.4,0,0.6,0.2l0.6,0.6l-2.8,2.7l-0.6-0.6c-0.2-0.2-0.2-0.3-0.2-0.6l0.1-1l-1.6-1.6L18.5-8
			c-0.3,0.1-0.4,0.1-0.7-0.2l-2.2-2.2c-0.2-0.2-0.3-0.4-0.1-0.7l0.9-2.3c-1.6-1.5-3.7-2.4-5.8-1.7c-0.1,0-0.2,0-0.2,0
			C10.6-15,10.6-15.1,10.7-15.1z M4.1,2.4c-0.5-0.5-0.3-0.8,0-1.1l11-10.1l1.2,1.2L6.2,3.3c-0.3,0.3-0.7,0.4-1.1,0L4.1,2.4z"/>
	</g>
	<text transform="matrix(1 0 0 1 1289 1953)" class="st2 st3">Exporting</text>
	<text transform="matrix(1 0 0 1 1289 1971)" class="st4 st3">Symbols should be outlined when exporting to ensure the</text>
	<text transform="matrix(1 0 0 1 1289 1989)" class="st4 st3">design is preserved when submitting to Xcode.</text>
	<text id="template-version" transform="matrix(1 0 0 1 2958.8496 1933)" class="st4 st3">Template v.1.0</text>
	<text transform="matrix(1 0 0 1 2913.4863 1951)" class="st4 st3">Generated from shuffle</text>
	<text transform="matrix(1 0 0 1 2921.9238 1969)" class="st4 st3">Typeset at 100 points</text>
	<text transform="matrix(1 0 0 1 263 726)" class="st4 st3">Small</text>
	<text transform="matrix(1 0 0 1 263 1156)" class="st4 st3">Medium</text>
	<text transform="matrix(1 0 0 1 263 1586)" class="st4 st3">Large</text>
</g>
<g id="Guides">
	<g id="H-reference" transform="matrix(1 0 0 1 339 696)">
		<path class="st6" d="M54.9,0h2.7l-27-70.5h-2.5L1,0h2.7L13-24.5h32.8L54.9,0z M29.2-67.1h0.2l15.4,40.4h-31L29.2-67.1z"/>
	</g>
	<line id="Baseline-S" class="st7" x1="263" y1="696" x2="3036" y2="696"/>
	<line id="Capline-S" class="st7" x1="263" y1="625.5" x2="3036" y2="625.5"/>
	<g id="H-reference_1_" transform="matrix(1 0 0 1 339 1126)">
		<path class="st6" d="M54.9,0h2.7l-27-70.5h-2.5L1,0h2.7L13-24.5h32.8L54.9,0z M29.2-67.1h0.2l15.4,40.4h-31L29.2-67.1z"/>
	</g>
	<line id="Baseline-M" class="st7" x1="263" y1="1126" x2="3036" y2="1126"/>
	<line id="Capline-M" class="st7" x1="263" y1="1055.5" x2="3036" y2="1055.5"/>
	<g id="H-reference_2_" transform="matrix(1 0 0 1 339 1556)">
		<path class="st6" d="M54.9,0h2.7l-27-70.5h-2.5L1,0h2.7L13-24.5h32.8L54.9,0z M29.2-67.1h0.2l15.4,40.4h-31L29.2-67.1z"/>
	</g>
	<line id="Baseline-L" class="st7" x1="263" y1="1556" x2="3036" y2="1556"/>
	<line id="Capline-L" class="st7" x1="263" y1="1485.5" x2="3036" y2="1485.5"/>
	<rect id="left-margin" x="1380" y="1030.8" class="st5" width="12.5" height="119.3"/>
	<rect id="right-margin" x="1507.2" y="1030.8" class="st5" width="12.5" height="119.3"/>
</g>
<g id="Symbols">
	<g id="Black-L" transform="matrix(1 0 0 1 2833.06 1556)">
		<path id="Ebene_2_26_" class="st8" d="M91.6,0.1L66.5-64.2v52.7c0,2.6,0.2,4.5,0.7,5.8c0.5,1.3,1.3,2.2,2.6,2.8
			C71-2.3,73-2,75.6-1.9v2c-2.4-0.2-5.8-0.3-10.2-0.3c-4,0-7.1,0.1-9.3,0.3v-2c2.3-0.1,4-0.4,5.2-1c1.1-0.6,1.9-1.5,2.3-2.8
			c0.4-1.3,0.6-3.2,0.6-5.8V-60c0-2.5-0.2-4.3-0.6-5.5c-0.4-1.1-1.2-1.9-2.3-2.3c-1.1-0.4-2.8-0.7-5.3-0.8v-2
			c2.2,0.2,5.3,0.3,9.3,0.3c3.5,0,6.4-0.1,8.6-0.3l22,57.9l20.1-56.4c0.2-0.5,0.6-0.8,1.1-0.9l0,0c1.7-0.5,5.5-0.6,7.3-0.6
			c2.1,0,3.8,0.2,5.3,0.5c1.5,0.3,2.7,0.7,3.7,1.2c1.1,0.6,2.2,1.2,3.2,1.9c1.5,0.9,2.6,1.4,3.4,1.4c0.6,0,1.1-0.3,1.4-1
			c0.3-0.7,0.6-1.8,0.8-3.2h2.3c-0.3,3.8-0.5,10.3-0.5,19.7h-2.3c-0.3-3.3-1-6.3-2.2-9.1c-1.2-2.8-3-5.1-5.4-6.8
			c-2.4-1.7-5.3-2.6-8.8-2.6c-2.3,0-6.8,0.7-7.2,2l0,0l-4.6,12.9c0.5,1.8,1.5,3.5,2.8,4.8c2.2,2.1,4.7,4.1,7.7,5.8s4.9,2.9,5.9,3.5
			c4.2,2.5,7.5,4.7,10,6.6c2.4,1.9,4.4,4,5.9,6.5c1.5,2.5,2.2,5.3,2.2,8.6c0,4-0.9,7.3-2.8,10.1c-1.9,2.7-4.4,4.8-7.7,6.2
			c-3.2,1.4-6.8,2.1-10.8,2.1c-3.2,0-5.8-0.3-7.9-1c-2-0.6-4-1.5-5.8-2.6c-1.5-0.9-2.6-1.4-3.4-1.4c-0.6,0-1.1,0.3-1.4,1
			s-0.6,1.8-0.8,3.2H105c0.3-3.5,0.4-11.2,0.4-23.1h2.3c0.5,6.5,2.1,11.8,5,15.9c2.9,4,7.3,6.1,13.3,6.1c2.3,0,4.4-0.5,6.4-1.4
			c2-0.9,3.6-2.3,4.8-4.3c1.2-1.9,1.8-4.3,1.8-7.2c0-2.5-0.6-4.7-1.9-6.7s-3-3.8-5.1-5.4c-2.2-1.6-5-3.5-8.6-5.6
			c-4-2.3-7.2-4.3-9.6-6.2c-1.6-1.2-3-2.6-4.3-4.2L94.3,0.1"/>
	</g>
	<g id="Heavy-L" transform="matrix(1 0 0 1 2539.2 1556)">
		<path id="Ebene_2_25_" class="st9" d="M88.4,0.1L63.3-64.2v52.7c0,2.6,0.2,4.5,0.7,5.8c0.5,1.3,1.3,2.2,2.6,2.8
			c1.3,0.6,3.2,0.9,5.8,1v2C70-0.1,66.6-0.2,62.2-0.2c-4,0-7.1,0.1-9.3,0.3v-2c2.3-0.1,4-0.4,5.2-1c1.1-0.6,1.9-1.5,2.3-2.8
			C60.8-7,61-8.9,61-11.5V-60c0-2.5-0.2-4.3-0.6-5.5c-0.4-1.1-1.2-1.9-2.3-2.3c-1.1-0.4-2.8-0.7-5.3-0.8v-2c2.2,0.2,5.3,0.3,9.3,0.3
			c3.5,0,6.4-0.1,8.6-0.3l22,57.9l20.1-56.4c0.2-0.5,0.6-0.8,1.1-0.9l0,0c1.7-0.5,5.5-0.6,7.3-0.6c2.1,0,3.8,0.2,5.3,0.5
			c1.5,0.3,2.7,0.7,3.7,1.2c1.1,0.6,2.2,1.2,3.2,1.9c1.5,0.9,2.6,1.4,3.4,1.4c0.6,0,1.1-0.3,1.4-1c0.3-0.7,0.6-1.8,0.8-3.2h2.3
			c-0.3,3.8-0.5,10.3-0.5,19.7h-2.3c-0.3-3.3-1-6.3-2.2-9.1c-1.2-2.8-3-5.1-5.4-6.8c-2.4-1.7-5.3-2.6-8.8-2.6c-2.3,0-6.8,0.7-7.2,2
			l0,0l-4.6,12.9c0.5,1.8,1.5,3.5,2.8,4.8c2.2,2.1,4.7,4.1,7.7,5.8c2.9,1.7,4.9,2.9,5.9,3.5c4.2,2.5,7.5,4.7,10,6.6
			c2.4,1.9,4.4,4,5.9,6.5c1.5,2.5,2.2,5.3,2.2,8.6c0,4-0.9,7.3-2.8,10.1c-1.9,2.7-4.4,4.8-7.7,6.2c-3.2,1.4-6.8,2.1-10.8,2.1
			c-3.2,0-5.8-0.3-7.9-1c-2-0.6-4-1.5-5.8-2.6c-1.5-0.9-2.6-1.4-3.4-1.4c-0.6,0-1.1,0.3-1.4,1s-0.6,1.8-0.8,3.2h-2.3
			c0.3-3.5,0.4-11.2,0.4-23.1h2.3c0.5,6.5,2.1,11.8,5,15.9c2.9,4,7.3,6.1,13.3,6.1c2.3,0,4.4-0.5,6.4-1.4c2-0.9,3.6-2.3,4.8-4.3
			c1.2-1.9,1.8-4.3,1.8-7.2c0-2.5-0.6-4.7-1.9-6.7c-1.3-2-3-3.8-5.1-5.4c-2.2-1.6-5-3.5-8.6-5.6c-4-2.3-7.2-4.3-9.6-6.2
			c-1.6-1.2-3-2.6-4.3-4.2L91.1,0.1"/>
	</g>
	<g id="Bold-L" transform="matrix(1 0 0 1 2245.69 1556)">
		<path id="Ebene_2_24_" class="st10" d="M85.1,0.1L60-64.2v52.7c0,2.6,0.2,4.5,0.7,5.8c0.5,1.3,1.3,2.2,2.6,2.8
			c1.3,0.6,3.2,0.9,5.8,1v2c-2.4-0.2-5.8-0.3-10.2-0.3c-4,0-7.1,0.1-9.3,0.3v-2c2.3-0.1,4-0.4,5.2-1c1.1-0.6,1.9-1.5,2.3-2.8
			c0.4-1.3,0.6-3.2,0.6-5.8V-60c0-2.5-0.2-4.3-0.6-5.5c-0.4-1.1-1.2-1.9-2.3-2.3c-1.1-0.4-2.8-0.7-5.3-0.8v-2
			c2.2,0.2,5.3,0.3,9.3,0.3c3.5,0,6.4-0.1,8.6-0.3l22,57.9l20.1-56.4c0.2-0.5,0.6-0.8,1.1-0.9l0,0c1.7-0.5,5.5-0.6,7.3-0.6
			c2.1,0,3.8,0.2,5.3,0.5c1.5,0.3,2.7,0.7,3.7,1.2c1.1,0.6,2.2,1.2,3.2,1.9c1.5,0.9,2.6,1.4,3.4,1.4c0.6,0,1.1-0.3,1.4-1
			c0.3-0.7,0.6-1.8,0.8-3.2h2.3c-0.3,3.8-0.5,10.3-0.5,19.7h-2.3c-0.3-3.3-1-6.3-2.2-9.1c-1.2-2.8-3-5.1-5.4-6.8
			c-2.4-1.7-5.3-2.6-8.8-2.6c-2.3,0-6.8,0.7-7.2,2l0,0L107-53.9c0.5,1.8,1.5,3.5,2.8,4.8c2.2,2.1,4.7,4.1,7.7,5.8
			c2.9,1.7,4.9,2.9,5.9,3.5c4.2,2.5,7.5,4.7,10,6.6c2.4,1.9,4.4,4,5.9,6.5c1.5,2.5,2.2,5.3,2.2,8.6c0,4-0.9,7.3-2.8,10.1
			c-1.9,2.7-4.4,4.8-7.7,6.2c-3.2,1.4-6.8,2.1-10.8,2.1c-3.2,0-5.8-0.3-7.9-1c-2-0.6-4-1.5-5.8-2.6c-1.5-0.9-2.6-1.4-3.4-1.4
			c-0.6,0-1.1,0.3-1.4,1s-0.6,1.8-0.8,3.2h-2.3C98.8-4.1,99-11.8,99-23.7h2.3c0.5,6.5,2.1,11.8,5,15.9c2.9,4,7.3,6.1,13.3,6.1
			c2.3,0,4.4-0.5,6.4-1.4c2-0.9,3.6-2.3,4.8-4.3c1.2-1.9,1.8-4.3,1.8-7.2c0-2.5-0.6-4.7-1.9-6.7c-1.3-2-3-3.8-5.1-5.4
			c-2.2-1.6-5-3.5-8.6-5.6c-4-2.3-7.2-4.3-9.6-6.2c-1.6-1.2-3-2.6-4.3-4.2L87.8,0.1"/>
	</g>
	<g id="Semibold-L" transform="matrix(1 0 0 1 1951.2 1556)">
		<path id="Ebene_2_23_" class="st11" d="M80.5,0.1L55.4-64.2v52.7c0,2.6,0.2,4.5,0.7,5.8c0.5,1.3,1.3,2.2,2.6,2.8
			c1.3,0.6,3.2,0.9,5.8,1v2c-2.4-0.2-5.8-0.3-10.2-0.3c-4,0-7.1,0.1-9.3,0.3v-2c2.3-0.1,4-0.4,5.2-1c1.1-0.6,1.9-1.5,2.3-2.8
			c0.4-1.3,0.6-3.2,0.6-5.8V-60c0-2.5-0.2-4.3-0.6-5.5c-0.4-1.1-1.2-1.9-2.3-2.3c-1.1-0.4-2.8-0.7-5.3-0.8v-2
			c2.2,0.2,5.3,0.3,9.3,0.3c3.5,0,6.4-0.1,8.6-0.3l22,57.9L105-69.1c0.2-0.5,0.6-0.8,1.1-0.9l0,0c1.7-0.5,5.5-0.6,7.3-0.6
			c2.1,0,3.8,0.2,5.3,0.5c1.5,0.3,2.7,0.7,3.7,1.2c1.1,0.6,2.2,1.2,3.2,1.9c1.5,0.9,2.6,1.4,3.4,1.4c0.6,0,1.1-0.3,1.4-1
			c0.3-0.7,0.6-1.8,0.8-3.2h2.3c-0.3,3.8-0.5,10.3-0.5,19.7h-2.3c-0.3-3.3-1-6.3-2.2-9.1s-3-5.1-5.4-6.8c-2.4-1.7-5.3-2.6-8.8-2.6
			c-2.3,0-6.8,0.7-7.2,2l0,0l-4.6,12.9c0.5,1.8,1.5,3.5,2.8,4.8c2.2,2.1,4.7,4.1,7.7,5.8c2.9,1.7,4.9,2.9,5.9,3.5
			c4.2,2.5,7.5,4.7,10,6.6c2.4,1.9,4.4,4,5.9,6.5c1.5,2.5,2.2,5.3,2.2,8.6c0,4-0.9,7.3-2.8,10.1s-4.4,4.8-7.7,6.2
			c-3.2,1.4-6.8,2.1-10.8,2.1c-3.2,0-5.8-0.3-7.9-1c-2-0.6-4-1.5-5.8-2.6c-1.5-0.9-2.6-1.4-3.4-1.4c-0.6,0-1.1,0.3-1.4,1
			c-0.3,0.7-0.6,1.8-0.8,3.2h-2.3c0.3-3.5,0.4-11.2,0.4-23.1h2.3c0.5,6.5,2.1,11.8,5,15.9c2.9,4,7.3,6.1,13.3,6.1
			c2.3,0,4.4-0.5,6.4-1.4c2-0.9,3.6-2.3,4.8-4.3c1.2-1.9,1.8-4.3,1.8-7.2c0-2.5-0.6-4.7-1.9-6.7s-3-3.8-5.1-5.4
			c-2.2-1.6-5-3.5-8.6-5.6c-4-2.3-7.2-4.3-9.6-6.2c-1.6-1.2-3-2.6-4.3-4.2L83.2,0.1"/>
	</g>
	<g id="Medium-L" transform="matrix(1 0 0 1 1656.15 1556)">
		<path id="Ebene_2_22_" class="st12" d="M81.8,0.1L56.7-64.2v52.7c0,2.6,0.2,4.5,0.7,5.8c0.5,1.3,1.3,2.2,2.6,2.8
			c1.3,0.6,3.2,0.9,5.8,1v2C63.4-0.1,60-0.2,55.6-0.2c-4,0-7.1,0.1-9.3,0.3v-2c2.3-0.1,4-0.4,5.2-1c1.1-0.6,1.9-1.5,2.3-2.8
			c0.4-1.3,0.6-3.2,0.6-5.8V-60c0-2.5-0.2-4.3-0.6-5.5c-0.4-1.1-1.2-1.9-2.3-2.3c-1.1-0.4-2.8-0.7-5.3-0.8v-2
			c2.2,0.2,5.3,0.3,9.3,0.3c3.5,0,6.4-0.1,8.6-0.3l22,57.9l20.1-56.4c0.2-0.5,0.6-0.8,1.1-0.9l0,0c1.7-0.5,5.5-0.6,7.3-0.6
			c2.1,0,3.8,0.2,5.3,0.5c1.5,0.3,2.7,0.7,3.7,1.2c1.1,0.6,2.2,1.2,3.2,1.9c1.5,0.9,2.6,1.4,3.4,1.4c0.6,0,1.1-0.3,1.4-1
			c0.3-0.7,0.6-1.8,0.8-3.2h2.3c-0.3,3.8-0.5,10.3-0.5,19.7h-2.3c-0.3-3.3-1-6.3-2.2-9.1s-3-5.1-5.4-6.8c-2.4-1.7-5.3-2.6-8.8-2.6
			c-2.3,0-6.8,0.7-7.2,2l0,0l-4.6,12.9c0.5,1.8,1.5,3.5,2.8,4.8c2.2,2.1,4.7,4.1,7.7,5.8c2.9,1.7,4.9,2.9,5.9,3.5
			c4.2,2.5,7.5,4.7,10,6.6c2.4,1.9,4.4,4,5.9,6.5c1.5,2.5,2.2,5.3,2.2,8.6c0,4-0.9,7.3-2.8,10.1s-4.4,4.8-7.7,6.2
			c-3.2,1.4-6.8,2.1-10.8,2.1c-3.2,0-5.8-0.3-7.9-1c-2-0.6-4-1.5-5.8-2.6c-1.5-0.9-2.6-1.4-3.4-1.4c-0.6,0-1.1,0.3-1.4,1
			c-0.3,0.7-0.6,1.8-0.8,3.2h-2.3c0.3-3.5,0.4-11.2,0.4-23.1h2.3c0.5,6.5,2.1,11.8,5,15.9c2.9,4,7.3,6.1,13.3,6.1
			c2.3,0,4.4-0.5,6.4-1.4c2-0.9,3.6-2.3,4.8-4.3c1.2-1.9,1.8-4.3,1.8-7.2c0-2.5-0.6-4.7-1.9-6.7s-3-3.8-5.1-5.4
			c-2.2-1.6-5-3.5-8.6-5.6c-4-2.3-7.2-4.3-9.6-6.2c-1.6-1.2-3-2.6-4.3-4.2L84.5,0.1"/>
	</g>
	<g id="Regular-L" transform="matrix(1 0 0 1 1361.64 1556)">
		<path id="Ebene_2_21_" class="st13" d="M79.8,0.1L54.7-64.2v52.7c0,2.6,0.2,4.5,0.7,5.8c0.5,1.3,1.3,2.2,2.6,2.8
			c1.3,0.6,3.2,0.9,5.8,1v2C61.4-0.1,58-0.2,53.6-0.2c-4,0-7.1,0.1-9.3,0.3v-2c2.3-0.1,4-0.4,5.2-1c1.1-0.6,1.9-1.5,2.3-2.8
			c0.4-1.3,0.6-3.2,0.6-5.8V-60c0-2.5-0.2-4.3-0.6-5.5c-0.4-1.1-1.2-1.9-2.3-2.3c-1.1-0.4-2.8-0.7-5.3-0.8v-2
			c2.2,0.2,5.3,0.3,9.3,0.3c3.5,0,6.4-0.1,8.6-0.3l22,57.9l20.1-56.4c0.2-0.5,0.6-0.8,1.1-0.9l0,0c1.7-0.5,5.5-0.6,7.3-0.6
			c2.1,0,3.8,0.2,5.3,0.5c1.5,0.3,2.7,0.7,3.7,1.2c1.1,0.6,2.2,1.2,3.2,1.9c1.5,0.9,2.6,1.4,3.4,1.4c0.6,0,1.1-0.3,1.4-1
			c0.3-0.7,0.6-1.8,0.8-3.2h2.3c-0.3,3.8-0.5,10.3-0.5,19.7h-2.3c-0.3-3.3-1-6.3-2.2-9.1s-3-5.1-5.4-6.8c-2.4-1.7-5.3-2.6-8.8-2.6
			c-2.3,0-6.8,0.7-7.2,2l0,0l-4.6,12.9c0.5,1.8,1.5,3.5,2.8,4.8c2.2,2.1,4.7,4.1,7.7,5.8s4.9,2.9,5.9,3.5c4.2,2.5,7.5,4.7,10,6.6
			c2.4,1.9,4.4,4,5.9,6.5c1.5,2.5,2.2,5.3,2.2,8.6c0,4-0.9,7.3-2.8,10.1c-1.9,2.7-4.4,4.8-7.7,6.2c-3.2,1.4-6.8,2.1-10.8,2.1
			c-3.2,0-5.8-0.3-7.9-1c-2-0.6-4-1.5-5.8-2.6c-1.5-0.9-2.6-1.4-3.4-1.4c-0.6,0-1.1,0.3-1.4,1s-0.6,1.8-0.8,3.2h-2.3
			c0.3-3.5,0.4-11.2,0.4-23.1h2.3c0.5,6.5,2.1,11.8,5,15.9c2.9,4,7.3,6.1,13.3,6.1c2.3,0,4.4-0.5,6.4-1.4c2-0.9,3.6-2.3,4.8-4.3
			c1.2-1.9,1.8-4.3,1.8-7.2c0-2.5-0.6-4.7-1.9-6.7c-1.3-2-3-3.8-5.1-5.4c-2.2-1.6-5-3.5-8.6-5.6c-4-2.3-7.2-4.3-9.6-6.2
			c-1.6-1.2-3-2.6-4.3-4.2L82.5,0.1"/>
	</g>
	<g id="Light-L" transform="matrix(1 0 0 1 1067.42 1556)">
		<path id="Ebene_2_20_" class="st14" d="M96.5,0.1L71.4-64.2v52.7c0,2.6,0.2,4.5,0.7,5.8c0.5,1.3,1.3,2.2,2.6,2.8
			c1.3,0.6,3.2,0.9,5.8,1v2c-2.4-0.2-5.8-0.3-10.2-0.3c-4,0-7.1,0.1-9.3,0.3v-2c2.3-0.1,4-0.4,5.2-1c1.1-0.6,1.9-1.5,2.3-2.8
			c0.4-1.3,0.6-3.2,0.6-5.8V-60c0-2.5-0.2-4.3-0.6-5.5c-0.4-1.1-1.2-1.9-2.3-2.3c-1.1-0.4-2.8-0.7-5.3-0.8v-2
			c2.2,0.2,5.3,0.3,9.3,0.3c3.5,0,6.4-0.1,8.6-0.3l22,57.9l20.1-56.4c0.2-0.5,0.6-0.8,1.1-0.9l0,0c1.7-0.5,5.5-0.6,7.3-0.6
			c2.1,0,3.8,0.2,5.3,0.5c1.5,0.3,2.7,0.7,3.7,1.2c1.1,0.6,2.2,1.2,3.2,1.9c1.5,0.9,2.6,1.4,3.4,1.4c0.6,0,1.1-0.3,1.4-1
			c0.3-0.7,0.6-1.8,0.8-3.2h2.3c-0.3,3.8-0.5,10.3-0.5,19.7h-2.3c-0.3-3.3-1-6.3-2.2-9.1c-1.2-2.8-3-5.1-5.4-6.8
			c-2.4-1.7-5.3-2.6-8.8-2.6c-2.3,0-6.8,0.7-7.2,2l0,0l-4.6,12.9c0.5,1.8,1.5,3.5,2.8,4.8c2.2,2.1,4.7,4.1,7.7,5.8s4.9,2.9,5.9,3.5
			c4.2,2.5,7.5,4.7,10,6.6c2.4,1.9,4.4,4,5.9,6.5c1.5,2.5,2.2,5.3,2.2,8.6c0,4-0.9,7.3-2.8,10.1c-1.9,2.7-4.4,4.8-7.7,6.2
			c-3.2,1.4-6.8,2.1-10.8,2.1c-3.2,0-5.8-0.3-7.9-1c-2-0.6-4-1.5-5.8-2.6c-1.5-0.9-2.6-1.4-3.4-1.4c-0.6,0-1.1,0.3-1.4,1
			s-0.6,1.8-0.8,3.2h-2.3c0.3-3.5,0.4-11.2,0.4-23.1h2.3c0.5,6.5,2.1,11.8,5,15.9c2.9,4,7.3,6.1,13.3,6.1c2.3,0,4.4-0.5,6.4-1.4
			c2-0.9,3.6-2.3,4.8-4.3c1.2-1.9,1.8-4.3,1.8-7.2c0-2.5-0.6-4.7-1.9-6.7s-3-3.8-5.1-5.4c-2.2-1.6-5-3.5-8.6-5.6
			c-4-2.3-7.2-4.3-9.6-6.2c-1.6-1.2-3-2.6-4.3-4.2L99.2,0.1"/>
	</g>
	<g id="Thin-L" transform="matrix(1 0 0 1 774 1556)">
		<path id="Ebene_2_19_" class="st15" d="M73.6,0.1L48.6-64.2v52.7c0,2.6,0.2,4.5,0.7,5.8c0.5,1.3,1.3,2.2,2.6,2.8
			c1.3,0.6,3.2,0.9,5.8,1v2c-2.4-0.2-5.8-0.3-10.2-0.3c-4,0-7.1,0.1-9.3,0.3v-2c2.3-0.1,4-0.4,5.2-1c1.1-0.6,1.9-1.5,2.3-2.8
			c0.4-1.3,0.6-3.2,0.6-5.8V-60c0-2.5-0.2-4.3-0.6-5.5c-0.4-1.1-1.2-1.9-2.3-2.3c-1.1-0.4-2.8-0.7-5.3-0.8v-2
			c2.2,0.2,5.3,0.3,9.3,0.3c3.5,0,6.4-0.1,8.6-0.3l22,57.9l20.1-56.4c0.2-0.5,0.6-0.8,1.1-0.9l0,0c1.7-0.5,5.5-0.6,7.3-0.6
			c2.1,0,3.8,0.2,5.3,0.5c1.5,0.3,2.7,0.7,3.7,1.2c1.1,0.6,2.2,1.2,3.2,1.9c1.5,0.9,2.6,1.4,3.4,1.4c0.6,0,1.1-0.3,1.4-1
			c0.3-0.7,0.6-1.8,0.8-3.2h2.3c-0.3,3.8-0.5,10.3-0.5,19.7h-2.3c-0.3-3.3-1-6.3-2.2-9.1s-3-5.1-5.4-6.8c-2.4-1.7-5.3-2.6-8.8-2.6
			c-2.3,0-6.8,0.7-7.2,2l0,0l-4.6,12.9c0.5,1.8,1.5,3.5,2.8,4.8c2.2,2.1,4.7,4.1,7.7,5.8c2.9,1.7,4.9,2.9,5.9,3.5
			c4.2,2.5,7.5,4.7,10,6.6c2.4,1.9,4.4,4,5.9,6.5c1.5,2.5,2.2,5.3,2.2,8.6c0,4-0.9,7.3-2.8,10.1s-4.4,4.8-7.7,6.2
			c-3.2,1.4-6.8,2.1-10.8,2.1c-3.2,0-5.8-0.3-7.9-1c-2-0.6-4-1.5-5.8-2.6c-1.5-0.9-2.6-1.4-3.4-1.4c-0.6,0-1.1,0.3-1.4,1
			s-0.6,1.8-0.8,3.2h-2.3c0.3-3.5,0.4-11.2,0.4-23.1h2.3c0.5,6.5,2.1,11.8,5,15.9c2.9,4,7.3,6.1,13.3,6.1c2.3,0,4.4-0.5,6.4-1.4
			c2-0.9,3.6-2.3,4.8-4.3c1.2-1.9,1.8-4.3,1.8-7.2c0-2.5-0.6-4.7-1.9-6.7s-3-3.8-5.1-5.4c-2.2-1.6-5-3.5-8.6-5.6
			c-4-2.3-7.2-4.3-9.6-6.2c-1.6-1.2-3-2.6-4.3-4.2L76.3,0.1"/>
	</g>
	<g id="Ultralight-L" transform="matrix(1 0 0 1 478.974 1556)">
		<path id="Ebene_2_18_" d="M71.4,0.1L46.4-64.2v52.7c0,2.6,0.2,4.5,0.7,5.8c0.5,1.3,1.3,2.2,2.6,2.8c1.3,0.6,3.2,0.9,5.8,1v2
			c-2.4-0.2-5.8-0.3-10.2-0.3c-4,0-7.1,0.1-9.3,0.3v-2c2.3-0.1,4-0.4,5.2-1c1.1-0.6,1.9-1.5,2.3-2.8c0.4-1.3,0.6-3.2,0.6-5.8V-60
			c0-2.5-0.2-4.3-0.6-5.5c-0.4-1.1-1.2-1.9-2.3-2.3c-1.1-0.4-2.8-0.7-5.3-0.8v-2c2.2,0.2,5.3,0.3,9.3,0.3c3.5,0,6.4-0.1,8.6-0.3
			l22,57.9l20.1-56.4c0.2-0.5,0.6-0.8,1.1-0.9l0,0c1.7-0.5,5.5-0.6,7.3-0.6c2.1,0,3.8,0.2,5.3,0.5c1.5,0.3,2.7,0.7,3.7,1.2
			c1.1,0.6,2.2,1.2,3.2,1.9c1.5,0.9,2.6,1.4,3.4,1.4c0.6,0,1.1-0.3,1.4-1c0.3-0.7,0.6-1.8,0.8-3.2h2.3c-0.3,3.8-0.5,10.3-0.5,19.7
			h-2.3c-0.3-3.3-1-6.3-2.2-9.1c-1.2-2.8-3-5.1-5.4-6.8c-2.4-1.7-5.3-2.6-8.8-2.6c-2.3,0-6.8,0.7-7.2,2l0,0l-4.6,12.9
			c0.5,1.8,1.5,3.5,2.8,4.8c2.2,2.1,4.7,4.1,7.7,5.8s4.9,2.9,5.9,3.5c4.2,2.5,7.5,4.7,10,6.6c2.4,1.9,4.4,4,5.9,6.5
			c1.5,2.5,2.2,5.3,2.2,8.6c0,4-0.9,7.3-2.8,10.1c-1.9,2.7-4.4,4.8-7.7,6.2c-3.2,1.4-6.8,2.1-10.8,2.1c-3.2,0-5.8-0.3-7.9-1
			c-2-0.6-4-1.5-5.8-2.6c-1.5-0.9-2.6-1.4-3.4-1.4c-0.6,0-1.1,0.3-1.4,1s-0.6,1.8-0.8,3.2h-2.3c0.3-3.5,0.4-11.2,0.4-23.1h2.3
			c0.5,6.5,2.1,11.8,5,15.9c2.9,4,7.3,6.1,13.3,6.1c2.3,0,4.4-0.5,6.4-1.4c2-0.9,3.6-2.3,4.8-4.3c1.2-1.9,1.8-4.3,1.8-7.2
			c0-2.5-0.6-4.7-1.9-6.7s-3-3.8-5.1-5.4c-2.2-1.6-5-3.5-8.6-5.6c-4-2.3-7.2-4.3-9.6-6.2c-1.6-1.2-3-2.6-4.3-4.2L74.1,0.1"/>
	</g>
	<g id="Black-M" transform="matrix(1 0 0 1 2853.1 1126)">
		<path id="Ebene_2_17_" class="st8" d="M71.5,0.1L46.5-64.2v52.7c0,2.6,0.2,4.5,0.7,5.8c0.5,1.3,1.3,2.2,2.6,2.8
			c1.3,0.6,3.2,0.9,5.8,1v2c-2.4-0.2-5.8-0.3-10.2-0.3c-4,0-7.1,0.1-9.3,0.3v-2c2.3-0.1,4-0.4,5.2-1c1.1-0.6,1.9-1.5,2.3-2.8
			c0.4-1.3,0.6-3.2,0.6-5.8V-60c0-2.5-0.2-4.3-0.6-5.5c-0.4-1.1-1.2-1.9-2.3-2.3c-1.1-0.4-2.8-0.7-5.3-0.8v-2
			c2.2,0.2,5.3,0.3,9.3,0.3c3.5,0,6.4-0.1,8.6-0.3l22,57.9L96-69.1c0.2-0.5,0.6-0.8,1.1-0.9l0,0c1.7-0.5,5.5-0.6,7.3-0.6
			c2.1,0,3.8,0.2,5.3,0.5c1.5,0.3,2.7,0.7,3.7,1.2c1.1,0.6,2.2,1.2,3.2,1.9c1.5,0.9,2.6,1.4,3.4,1.4c0.6,0,1.1-0.3,1.4-1
			c0.3-0.7,0.6-1.8,0.8-3.2h2.3c-0.3,3.8-0.5,10.3-0.5,19.7h-2.3c-0.3-3.3-1-6.3-2.2-9.1c-1.2-2.8-3-5.1-5.4-6.8
			c-2.4-1.7-5.3-2.6-8.8-2.6c-2.3,0-6.8,0.7-7.2,2l0,0l-4.6,12.9c0.5,1.8,1.5,3.5,2.8,4.8c2.2,2.1,4.7,4.1,7.7,5.8s4.9,2.9,5.9,3.5
			c4.2,2.5,7.5,4.7,10,6.6c2.4,1.9,4.4,4,5.9,6.5c1.5,2.5,2.2,5.3,2.2,8.6c0,4-0.9,7.3-2.8,10.1c-1.9,2.7-4.4,4.8-7.7,6.2
			c-3.2,1.4-6.8,2.1-10.8,2.1c-3.2,0-5.8-0.3-7.9-1c-2-0.6-4-1.5-5.8-2.6c-1.5-0.9-2.6-1.4-3.4-1.4c-0.6,0-1.1,0.3-1.4,1
			s-0.6,1.8-0.8,3.2H85c0.3-3.5,0.4-11.2,0.4-23.1h2.3c0.5,6.5,2.1,11.8,5,15.9c2.9,4,7.3,6.1,13.3,6.1c2.3,0,4.4-0.5,6.4-1.4
			c2-0.9,3.6-2.3,4.8-4.3c1.2-1.9,1.8-4.3,1.8-7.2c0-2.5-0.6-4.7-1.9-6.7c-1.3-2-3-3.8-5.1-5.4c-2.2-1.6-5-3.5-8.6-5.6
			c-4-2.3-7.2-4.3-9.6-6.2c-1.6-1.2-3-2.6-4.3-4.2L74.2,0.1"/>
	</g>
	<g id="Heavy-M" transform="matrix(1 0 0 1 2558.88 1126)">
		<path id="Ebene_2_16_" class="st9" d="M68.7,0.1L43.6-64.2v52.7c0,2.6,0.2,4.5,0.7,5.8c0.5,1.3,1.3,2.2,2.6,2.8
			c1.3,0.6,3.2,0.9,5.8,1v2c-2.4-0.2-5.8-0.3-10.2-0.3c-4,0-7.1,0.1-9.3,0.3v-2c2.3-0.1,4-0.4,5.2-1c1.1-0.6,1.9-1.5,2.3-2.8
			c0.4-1.3,0.6-3.2,0.6-5.8V-60c0-2.5-0.2-4.3-0.6-5.5c-0.4-1.1-1.2-1.9-2.3-2.3c-1.1-0.4-2.8-0.7-5.3-0.8v-2
			c2.2,0.2,5.3,0.3,9.3,0.3c3.5,0,6.4-0.1,8.6-0.3l22,57.9l20.1-56.4c0.2-0.5,0.6-0.8,1.1-0.9l0,0c1.7-0.5,5.5-0.6,7.3-0.6
			c2.1,0,3.8,0.2,5.3,0.5c1.5,0.3,2.7,0.7,3.7,1.2c1.1,0.6,2.2,1.2,3.2,1.9c1.5,0.9,2.6,1.4,3.4,1.4c0.6,0,1.1-0.3,1.4-1
			c0.3-0.7,0.6-1.8,0.8-3.2h2.3c-0.3,3.8-0.5,10.3-0.5,19.7h-2.3c-0.3-3.3-1-6.3-2.2-9.1c-1.2-2.8-3-5.1-5.4-6.8
			c-2.4-1.7-5.3-2.6-8.8-2.6c-2.3,0-6.8,0.7-7.2,2l0,0l-4.6,12.9c0.5,1.8,1.5,3.5,2.8,4.8c2.2,2.1,4.7,4.1,7.7,5.8
			c2.9,1.7,4.9,2.9,5.9,3.5c4.2,2.5,7.5,4.7,10,6.6c2.4,1.9,4.4,4,5.9,6.5c1.5,2.5,2.2,5.3,2.2,8.6c0,4-0.9,7.3-2.8,10.1
			s-4.4,4.8-7.7,6.2c-3.2,1.4-6.8,2.1-10.8,2.1c-3.2,0-5.8-0.3-7.9-1c-2-0.6-4-1.5-5.8-2.6c-1.5-0.9-2.6-1.4-3.4-1.4
			c-0.6,0-1.1,0.3-1.4,1c-0.3,0.7-0.6,1.8-0.8,3.2h-2.3c0.3-3.5,0.4-11.2,0.4-23.1h2.3c0.5,6.5,2.1,11.8,5,15.9
			c2.9,4,7.3,6.1,13.3,6.1c2.3,0,4.4-0.5,6.4-1.4c2-0.9,3.6-2.3,4.8-4.3c1.2-1.9,1.8-4.3,1.8-7.2c0-2.5-0.6-4.7-1.9-6.7
			s-3-3.8-5.1-5.4c-2.2-1.6-5-3.5-8.6-5.6c-4-2.3-7.2-4.3-9.6-6.2c-1.6-1.2-3-2.6-4.3-4.2L71.4,0.1"/>
	</g>
	<g id="Bold-M" transform="matrix(1 0 0 1 2264.93 1126)">
		<path id="Ebene_2_15_" class="st10" d="M65.9,0.1L40.8-64.2v52.7c0,2.6,0.2,4.5,0.7,5.8c0.5,1.3,1.3,2.2,2.6,2.8
			c1.3,0.6,3.2,0.9,5.8,1v2c-2.4-0.2-5.8-0.3-10.2-0.3c-4,0-7.1,0.1-9.3,0.3v-2c2.3-0.1,4-0.4,5.2-1c1.1-0.6,1.9-1.5,2.3-2.8
			c0.4-1.3,0.6-3.2,0.6-5.8V-60c0-2.5-0.2-4.3-0.6-5.5c-0.4-1.1-1.2-1.9-2.3-2.3c-1.1-0.4-2.8-0.7-5.3-0.8v-2
			c2.2,0.2,5.3,0.3,9.3,0.3c3.5,0,6.4-0.1,8.6-0.3l22,57.9l20.1-56.4c0.2-0.5,0.6-0.8,1.1-0.9l0,0c1.7-0.5,5.5-0.6,7.3-0.6
			c2.1,0,3.8,0.2,5.3,0.5c1.5,0.3,2.7,0.7,3.7,1.2c1.1,0.6,2.2,1.2,3.2,1.9c1.5,0.9,2.6,1.4,3.4,1.4c0.6,0,1.1-0.3,1.4-1
			c0.3-0.7,0.6-1.8,0.8-3.2h2.3c-0.3,3.8-0.5,10.3-0.5,19.7H116c-0.3-3.3-1-6.3-2.2-9.1c-1.2-2.8-3-5.1-5.4-6.8
			c-2.4-1.7-5.3-2.6-8.8-2.6c-2.3,0-6.8,0.7-7.2,2l0,0l-4.6,12.9c0.5,1.8,1.5,3.5,2.8,4.8c2.2,2.1,4.7,4.1,7.7,5.8
			c2.9,1.7,4.9,2.9,5.9,3.5c4.2,2.5,7.5,4.7,10,6.6c2.4,1.9,4.4,4,5.9,6.5c1.5,2.5,2.2,5.3,2.2,8.6c0,4-0.9,7.3-2.8,10.1
			c-1.9,2.7-4.4,4.8-7.7,6.2c-3.2,1.4-6.8,2.1-10.8,2.1c-3.2,0-5.8-0.3-7.9-1c-2-0.6-4-1.5-5.8-2.6c-1.5-0.9-2.6-1.4-3.4-1.4
			c-0.6,0-1.1,0.3-1.4,1c-0.3,0.7-0.6,1.8-0.8,3.2h-2.3c0.3-3.5,0.4-11.2,0.4-23.1H82c0.5,6.5,2.1,11.8,5,15.9
			c2.9,4,7.3,6.1,13.3,6.1c2.3,0,4.4-0.5,6.4-1.4c2-0.9,3.6-2.3,4.8-4.3c1.2-1.9,1.8-4.3,1.8-7.2c0-2.5-0.6-4.7-1.9-6.7
			s-3-3.8-5.1-5.4c-2.2-1.6-5-3.5-8.6-5.6c-4-2.3-7.2-4.3-9.6-6.2c-1.6-1.2-3-2.6-4.3-4.2L68.6,0.1"/>
	</g>
	<g id="Semibold-M" transform="matrix(1 0 0 1 1970.15 1126)">
		<path id="Ebene_2_14_" class="st11" d="M61.5,0.1L36.5-64.2v52.7c0,2.6,0.2,4.5,0.7,5.8c0.5,1.3,1.3,2.2,2.6,2.8
			c1.3,0.6,3.2,0.9,5.8,1v2c-2.4-0.2-5.8-0.3-10.2-0.3c-4,0-7.1,0.1-9.3,0.3v-2c2.3-0.1,4-0.4,5.2-1c1.1-0.6,1.9-1.5,2.3-2.8
			c0.4-1.3,0.6-3.2,0.6-5.8V-60c0-2.5-0.2-4.3-0.6-5.5c-0.4-1.1-1.2-1.9-2.3-2.3c-1.1-0.4-2.8-0.7-5.3-0.8v-2
			c2.2,0.2,5.3,0.3,9.3,0.3c3.5,0,6.4-0.1,8.6-0.3l22,57.9L86-69.1c0.2-0.5,0.6-0.8,1.1-0.9l0,0c1.7-0.5,5.5-0.6,7.3-0.6
			c2.1,0,3.8,0.2,5.3,0.5c1.5,0.3,2.7,0.7,3.7,1.2c1.1,0.6,2.2,1.2,3.2,1.9c1.5,0.9,2.6,1.4,3.4,1.4c0.6,0,1.1-0.3,1.4-1
			c0.3-0.7,0.6-1.8,0.8-3.2h2.3c-0.3,3.8-0.5,10.3-0.5,19.7h-2.3c-0.3-3.3-1-6.3-2.2-9.1c-1.2-2.8-3-5.1-5.4-6.8
			c-2.4-1.7-5.3-2.6-8.8-2.6c-2.3,0-6.8,0.7-7.2,2l0,0l-4.6,12.9c0.5,1.8,1.5,3.5,2.8,4.8c2.2,2.1,4.7,4.1,7.7,5.8
			c2.9,1.7,4.9,2.9,5.9,3.5c4.2,2.5,7.5,4.7,10,6.6c2.4,1.9,4.4,4,5.9,6.5c1.5,2.5,2.2,5.3,2.2,8.6c0,4-0.9,7.3-2.8,10.1
			s-4.4,4.8-7.7,6.2c-3.2,1.4-6.8,2.1-10.8,2.1c-3.2,0-5.8-0.3-7.9-1c-2-0.6-4-1.5-5.8-2.6c-1.5-0.9-2.6-1.4-3.4-1.4
			c-0.6,0-1.1,0.3-1.4,1s-0.6,1.8-0.8,3.2H75c0.3-3.5,0.4-11.2,0.4-23.1h2.3c0.5,6.5,2.1,11.8,5,15.9c2.9,4,7.3,6.1,13.3,6.1
			c2.3,0,4.4-0.5,6.4-1.4c2-0.9,3.6-2.3,4.8-4.3c1.2-1.9,1.8-4.3,1.8-7.2c0-2.5-0.6-4.7-1.9-6.7s-3-3.8-5.1-5.4
			c-2.2-1.6-5-3.5-8.6-5.6c-4-2.3-7.2-4.3-9.6-6.2c-1.6-1.2-3-2.6-4.3-4.2L64.2,0.1"/>
	</g>
	<g id="Medium-M" transform="matrix(1 0 0 1 1674.88 1126)">
		<path id="Ebene_2_13_" class="st12" d="M62.1,0.1L37-64.2v52.7c0,2.6,0.2,4.5,0.7,5.8c0.5,1.3,1.3,2.2,2.6,2.8
			c1.3,0.6,3.2,0.9,5.8,1v2c-2.4-0.2-5.8-0.3-10.2-0.3c-4,0-7.1,0.1-9.3,0.3v-2c2.3-0.1,4-0.4,5.2-1c1.1-0.6,1.9-1.5,2.3-2.8
			c0.4-1.3,0.6-3.2,0.6-5.8V-60c0-2.5-0.2-4.3-0.6-5.5c-0.4-1.1-1.2-1.9-2.3-2.3c-1.1-0.4-2.8-0.7-5.3-0.8v-2
			c2.2,0.2,5.3,0.3,9.3,0.3c3.5,0,6.4-0.1,8.6-0.3l22,57.9l20.1-56.4c0.2-0.5,0.6-0.8,1.1-0.9l0,0c1.7-0.5,5.5-0.6,7.3-0.6
			c2.1,0,3.8,0.2,5.3,0.5c1.5,0.3,2.7,0.7,3.7,1.2c1.1,0.6,2.2,1.2,3.2,1.9c1.5,0.9,2.6,1.4,3.4,1.4c0.6,0,1.1-0.3,1.4-1
			c0.3-0.7,0.6-1.8,0.8-3.2h2.3c-0.3,3.8-0.5,10.3-0.5,19.7h-2.3c-0.3-3.3-1-6.3-2.2-9.1c-1.2-2.8-3-5.1-5.4-6.8
			c-2.4-1.7-5.3-2.6-8.8-2.6c-2.3,0-6.8,0.7-7.2,2l0,0L84-53.9c0.5,1.8,1.5,3.5,2.8,4.8c2.2,2.1,4.7,4.1,7.7,5.8s4.9,2.9,5.9,3.5
			c4.2,2.5,7.5,4.7,10,6.6c2.4,1.9,4.4,4,5.9,6.5c1.5,2.5,2.2,5.3,2.2,8.6c0,4-0.9,7.3-2.8,10.1c-1.9,2.7-4.4,4.8-7.7,6.2
			c-3.2,1.4-6.8,2.1-10.8,2.1c-3.2,0-5.8-0.3-7.9-1c-2-0.6-4-1.5-5.8-2.6c-1.5-0.9-2.6-1.4-3.4-1.4c-0.6,0-1.1,0.3-1.4,1
			c-0.3,0.7-0.6,1.8-0.8,3.2h-2.3c0.3-3.5,0.4-11.2,0.4-23.1h2.3c0.5,6.5,2.1,11.8,5,15.9c2.9,4,7.3,6.1,13.3,6.1
			c2.3,0,4.4-0.5,6.4-1.4c2-0.9,3.6-2.3,4.8-4.3c1.2-1.9,1.8-4.3,1.8-7.2c0-2.5-0.6-4.7-1.9-6.7s-3-3.8-5.1-5.4
			c-2.2-1.6-5-3.5-8.6-5.6c-4-2.3-7.2-4.3-9.6-6.2c-1.6-1.2-3-2.6-4.3-4.2L64.8,0.1"/>
	</g>
	<g id="Regular-M" transform="matrix(1 0 0 1 1380.04 1126)">
		<path id="Ebene_2_12_" class="st13" d="M61.4,0.1L36.3-64.2v52.7c0,2.6,0.2,4.5,0.7,5.8c0.5,1.3,1.3,2.2,2.6,2.8
			c1.3,0.6,3.2,0.9,5.8,1v2C43-0.1,39.6-0.2,35.2-0.2c-4,0-7.1,0.1-9.3,0.3v-2c2.3-0.1,4-0.4,5.2-1c1.1-0.6,1.9-1.5,2.3-2.8
			C33.8-7,34-8.9,34-11.5V-60c0-2.5-0.2-4.3-0.6-5.5c-0.4-1.1-1.2-1.9-2.3-2.3c-1.1-0.4-2.8-0.7-5.3-0.8v-2c2.2,0.2,5.3,0.3,9.3,0.3
			c3.5,0,6.4-0.1,8.6-0.3l22,57.9l20.1-56.4c0.2-0.5,0.6-0.8,1.1-0.9l0,0c1.7-0.5,5.5-0.6,7.3-0.6c2.1,0,3.8,0.2,5.3,0.5
			c1.5,0.3,2.7,0.7,3.7,1.2c1.1,0.6,2.2,1.2,3.2,1.9c1.5,0.9,2.6,1.4,3.4,1.4c0.6,0,1.1-0.3,1.4-1c0.3-0.7,0.6-1.8,0.8-3.2h2.3
			c-0.3,3.8-0.5,10.3-0.5,19.7h-2.3c-0.3-3.3-1-6.3-2.2-9.1c-1.2-2.8-3-5.1-5.4-6.8c-2.4-1.7-5.3-2.6-8.8-2.6c-2.3,0-6.8,0.7-7.2,2
			l0,0l-4.6,12.9c0.5,1.8,1.5,3.5,2.8,4.8c2.2,2.1,4.7,4.1,7.7,5.8s4.9,2.9,5.9,3.5c4.2,2.5,7.5,4.7,10,6.6c2.4,1.9,4.4,4,5.9,6.5
			c1.5,2.5,2.2,5.3,2.2,8.6c0,4-0.9,7.3-2.8,10.1c-1.9,2.7-4.4,4.8-7.7,6.2c-3.2,1.4-6.8,2.1-10.8,2.1c-3.2,0-5.8-0.3-7.9-1
			c-2-0.6-4-1.5-5.8-2.6c-1.5-0.9-2.6-1.4-3.4-1.4c-0.6,0-1.1,0.3-1.4,1s-0.6,1.8-0.8,3.2h-2.3c0.3-3.5,0.4-11.2,0.4-23.1h2.3
			c0.5,6.5,2.1,11.8,5,15.9c2.9,4,7.3,6.1,13.3,6.1c2.3,0,4.4-0.5,6.4-1.4c2-0.9,3.6-2.3,4.8-4.3c1.2-1.9,1.8-4.3,1.8-7.2
			c0-2.5-0.6-4.7-1.9-6.7c-1.3-2-3-3.8-5.1-5.4c-2.2-1.6-5-3.5-8.6-5.6c-4-2.3-7.2-4.3-9.6-6.2c-1.6-1.2-3-2.6-4.3-4.2L64.1,0.1"/>
	</g>
	<g id="Light-M" transform="matrix(1 0 0 1 1085.58 1126)">
		<path id="Ebene_2_11_" class="st14" d="M78.3,0.1L53.2-64.2v52.7c0,2.6,0.2,4.5,0.7,5.8c0.5,1.3,1.3,2.2,2.6,2.8
			c1.3,0.6,3.2,0.9,5.8,1v2C60-0.1,56.6-0.2,52.1-0.2c-4,0-7.1,0.1-9.3,0.3v-2c2.3-0.1,4-0.4,5.2-1c1.1-0.6,1.9-1.5,2.3-2.8
			c0.4-1.3,0.6-3.2,0.6-5.8V-60c0-2.5-0.2-4.3-0.6-5.5c-0.4-1.1-1.2-1.9-2.3-2.3c-1.1-0.4-2.8-0.7-5.3-0.8v-2
			c2.2,0.2,5.3,0.3,9.3,0.3c3.5,0,6.4-0.1,8.6-0.3l22,57.9l20.1-56.4c0.2-0.5,0.6-0.8,1.1-0.9l0,0c1.7-0.5,5.5-0.6,7.3-0.6
			c2.1,0,3.8,0.2,5.3,0.5c1.5,0.3,2.7,0.7,3.7,1.2c1.1,0.6,2.2,1.2,3.2,1.9c1.5,0.9,2.6,1.4,3.4,1.4c0.6,0,1.1-0.3,1.4-1
			c0.3-0.7,0.6-1.8,0.8-3.2h2.3c-0.3,3.8-0.5,10.3-0.5,19.7h-2.3c-0.3-3.3-1-6.3-2.2-9.1c-1.2-2.8-3-5.1-5.4-6.8
			c-2.4-1.7-5.3-2.6-8.8-2.6c-2.3,0-6.8,0.7-7.2,2l0,0l-4.6,12.9c0.5,1.8,1.5,3.5,2.8,4.8c2.2,2.1,4.7,4.1,7.7,5.8s4.9,2.9,5.9,3.5
			c4.2,2.5,7.5,4.7,10,6.6c2.4,1.9,4.4,4,5.9,6.5c1.5,2.5,2.2,5.3,2.2,8.6c0,4-0.9,7.3-2.8,10.1c-1.9,2.7-4.4,4.8-7.7,6.2
			c-3.2,1.4-6.8,2.1-10.8,2.1c-3.2,0-5.8-0.3-7.9-1c-2-0.6-4-1.5-5.8-2.6c-1.5-0.9-2.6-1.4-3.4-1.4c-0.6,0-1.1,0.3-1.4,1
			s-0.6,1.8-0.8,3.2h-2.3c0.3-3.5,0.4-11.2,0.4-23.1h2.3c0.5,6.5,2.1,11.8,5,15.9c2.9,4,7.3,6.1,13.3,6.1c2.3,0,4.4-0.5,6.4-1.4
			c2-0.9,3.6-2.3,4.8-4.3c1.2-1.9,1.8-4.3,1.8-7.2c0-2.5-0.6-4.7-1.9-6.7c-1.3-2-3-3.8-5.1-5.4c-2.2-1.6-5-3.5-8.6-5.6
			c-4-2.3-7.2-4.3-9.6-6.2c-1.6-1.2-3-2.6-4.3-4.2L81,0.1"/>
	</g>
	<g id="Thin-M" transform="matrix(1 0 0 1 791.847 1126)">
		<path id="Ebene_2_10_" class="st15" d="M55.8,0.1L30.7-64.2v52.7c0,2.6,0.2,4.5,0.7,5.8c0.5,1.3,1.3,2.2,2.6,2.8
			c1.3,0.6,3.2,0.9,5.8,1v2C37.4-0.1,34-0.2,29.6-0.2c-4,0-7.1,0.1-9.3,0.3v-2c2.3-0.1,4-0.4,5.2-1c1.1-0.6,1.9-1.5,2.3-2.8
			c0.4-1.3,0.6-3.2,0.6-5.8V-60c0-2.5-0.2-4.3-0.6-5.5c-0.4-1.1-1.2-1.9-2.3-2.3c-1.1-0.4-2.8-0.7-5.3-0.8v-2
			c2.2,0.2,5.3,0.3,9.3,0.3c3.5,0,6.4-0.1,8.6-0.3l22,57.9l20.1-56.4c0.2-0.5,0.6-0.8,1.1-0.9l0,0c1.7-0.5,5.5-0.6,7.3-0.6
			c2.1,0,3.8,0.2,5.3,0.5c1.5,0.3,2.7,0.7,3.7,1.2c1.1,0.6,2.2,1.2,3.2,1.9c1.5,0.9,2.6,1.4,3.4,1.4c0.6,0,1.1-0.3,1.4-1
			c0.3-0.7,0.6-1.8,0.8-3.2h2.3c-0.3,3.8-0.5,10.3-0.5,19.7h-2.3c-0.3-3.3-1-6.3-2.2-9.1s-3-5.1-5.4-6.8c-2.4-1.7-5.3-2.6-8.8-2.6
			c-2.3,0-6.8,0.7-7.2,2l0,0l-4.6,12.9c0.5,1.8,1.5,3.5,2.8,4.8c2.2,2.1,4.7,4.1,7.7,5.8c2.9,1.7,4.9,2.9,5.9,3.5
			c4.2,2.5,7.5,4.7,10,6.6c2.4,1.9,4.4,4,5.9,6.5c1.5,2.5,2.2,5.3,2.2,8.6c0,4-0.9,7.3-2.8,10.1s-4.4,4.8-7.7,6.2
			c-3.2,1.4-6.8,2.1-10.8,2.1c-3.2,0-5.8-0.3-7.9-1c-2-0.6-4-1.5-5.8-2.6c-1.5-0.9-2.6-1.4-3.4-1.4c-0.6,0-1.1,0.3-1.4,1
			s-0.6,1.8-0.8,3.2h-2.3c0.3-3.5,0.4-11.2,0.4-23.1h2.3c0.5,6.5,2.1,11.8,5,15.9c2.9,4,7.3,6.1,13.3,6.1c2.3,0,4.4-0.5,6.4-1.4
			c2-0.9,3.6-2.3,4.8-4.3c1.2-1.9,1.8-4.3,1.8-7.2c0-2.5-0.6-4.7-1.9-6.7s-3-3.8-5.1-5.4c-2.2-1.6-5-3.5-8.6-5.6
			c-4-2.3-7.2-4.3-9.6-6.2c-1.6-1.2-3-2.6-4.3-4.2L58.5,0.1"/>
	</g>
	<g id="Ultralight-M" transform="matrix(1 0 0 1 496.65 1126)">
		<path id="Ebene_2_9_" d="M53.7,0.1L28.7-64.2v52.7c0,2.6,0.2,4.5,0.7,5.8c0.5,1.3,1.3,2.2,2.6,2.8c1.3,0.6,3.2,0.9,5.8,1v2
			C35.4-0.1,32-0.2,27.5-0.2c-4,0-7.1,0.1-9.3,0.3v-2c2.3-0.1,4-0.4,5.2-1c1.1-0.6,1.9-1.5,2.3-2.8c0.4-1.3,0.6-3.2,0.6-5.8V-60
			c0-2.5-0.2-4.3-0.6-5.5s-1.2-1.9-2.3-2.3c-1.1-0.4-2.8-0.7-5.3-0.8v-2c2.2,0.2,5.3,0.3,9.3,0.3c3.5,0,6.4-0.1,8.6-0.3l22,57.9
			l20.1-56.4c0.2-0.5,0.6-0.8,1.1-0.9l0,0c1.7-0.5,5.5-0.6,7.3-0.6c2.1,0,3.8,0.2,5.3,0.5c1.5,0.3,2.7,0.7,3.7,1.2
			c1.1,0.6,2.2,1.2,3.2,1.9c1.5,0.9,2.6,1.4,3.4,1.4c0.6,0,1.1-0.3,1.4-1c0.3-0.7,0.6-1.8,0.8-3.2h2.3c-0.3,3.8-0.5,10.3-0.5,19.7
			h-2.3c-0.3-3.3-1-6.3-2.2-9.1c-1.2-2.8-3-5.1-5.4-6.8c-2.4-1.7-5.3-2.6-8.8-2.6c-2.3,0-6.8,0.7-7.2,2l0,0l-4.6,12.9
			c0.5,1.8,1.5,3.5,2.8,4.8c2.2,2.1,4.7,4.1,7.7,5.8s4.9,2.9,5.9,3.5c4.2,2.5,7.5,4.7,10,6.6c2.4,1.9,4.4,4,5.9,6.5
			c1.5,2.5,2.2,5.3,2.2,8.6c0,4-0.9,7.3-2.8,10.1c-1.9,2.7-4.4,4.8-7.7,6.2c-3.2,1.4-6.8,2.1-10.8,2.1c-3.2,0-5.8-0.3-7.9-1
			c-2-0.6-4-1.5-5.8-2.6c-1.5-0.9-2.6-1.4-3.4-1.4c-0.6,0-1.1,0.3-1.4,1s-0.6,1.8-0.8,3.2h-2.3c0.3-3.5,0.4-11.2,0.4-23.1h2.3
			c0.5,6.5,2.1,11.8,5,15.9c2.9,4,7.3,6.1,13.3,6.1c2.3,0,4.4-0.5,6.4-1.4c2-0.9,3.6-2.3,4.8-4.3c1.2-1.9,1.8-4.3,1.8-7.2
			c0-2.5-0.6-4.7-1.9-6.7s-3-3.8-5.1-5.4c-2.2-1.6-5-3.5-8.6-5.6c-4-2.3-7.2-4.3-9.6-6.2c-1.6-1.2-3-2.6-4.3-4.2L56.4,0.1"/>
	</g>
	<g id="Black-S" transform="matrix(1 0 0 1 2870.66 696)">
		<path id="Ebene_2_8_" class="st8" d="M54,0L28.9-64.4v52.7c0,2.6,0.2,4.5,0.7,5.8c0.5,1.3,1.3,2.2,2.6,2.8c1.3,0.6,3.2,0.9,5.8,1
			v2c-2.4-0.2-5.8-0.3-10.2-0.3c-4,0-7.1,0.1-9.3,0.3v-2c2.3-0.1,4-0.4,5.2-1c1.1-0.6,1.9-1.5,2.3-2.8c0.4-1.3,0.6-3.2,0.6-5.8
			v-48.5c0-2.5-0.2-4.3-0.6-5.5c-0.4-1.1-1.2-1.9-2.3-2.3c-1.1-0.4-2.8-0.7-5.3-0.8v-2c2.2,0.2,5.3,0.3,9.3,0.3
			c3.5,0,6.4-0.1,8.6-0.3l22,57.9l20.1-56.4c0.2-0.5,0.6-0.8,1.1-0.9l0,0c1.7-0.5,5.5-0.6,7.3-0.6c2.1,0,3.8,0.2,5.3,0.5
			c1.5,0.3,2.7,0.7,3.7,1.2c1.1,0.6,2.2,1.2,3.2,1.9c1.5,0.9,2.6,1.4,3.4,1.4c0.6,0,1.1-0.3,1.4-1c0.3-0.7,0.6-1.8,0.8-3.2h2.3
			c-0.3,3.8-0.5,10.3-0.5,19.7h-2.3c-0.3-3.3-1-6.3-2.2-9.1c-1.2-2.8-3-5.1-5.4-6.8c-2.4-1.7-5.3-2.6-8.8-2.6c-2.3,0-6.8,0.7-7.2,2
			l0,0l-4.6,12.9c0.5,1.8,1.5,3.5,2.8,4.8c2.2,2.1,4.7,4.1,7.7,5.8s4.9,2.9,5.9,3.5c4.2,2.5,7.5,4.7,10,6.6c2.4,1.9,4.4,4,5.9,6.5
			c1.5,2.5,2.2,5.3,2.2,8.6c0,4-0.9,7.3-2.8,10.1c-1.9,2.7-4.4,4.8-7.7,6.2C96.6-0.7,93.1,0,89.1,0c-3.2,0-5.8-0.3-7.9-1
			c-2-0.6-4-1.5-5.8-2.6c-1.5-0.9-2.6-1.4-3.4-1.4c-0.6,0-1.1,0.3-1.4,1s-0.6,1.8-0.8,3.2h-2.3c0.3-3.5,0.4-11.2,0.4-23.1h2.3
			c0.5,6.5,2.1,11.8,5,15.9c2.9,4,7.3,6.1,13.3,6.1c2.3,0,4.4-0.5,6.4-1.4c2-0.9,3.6-2.3,4.8-4.3c1.2-1.9,1.8-4.3,1.8-7.2
			c0-2.5-0.6-4.7-1.9-6.7c-1.3-2-3-3.8-5.1-5.4c-2.2-1.6-5-3.5-8.6-5.6c-4-2.3-7.2-4.3-9.6-6.2c-1.6-1.2-3-2.6-4.3-4.2L56.7,0"/>
	</g>
	<g id="Heavy-S" transform="matrix(1 0 0 1 2575.58 696)">
		<path id="Ebene_2_7_" class="st9" d="M52,0L26.9-64.4v52.7c0,2.6,0.2,4.5,0.7,5.8c0.5,1.3,1.3,2.2,2.6,2.8c1.3,0.6,3.2,0.9,5.8,1
			v2c-2.4-0.2-5.8-0.3-10.2-0.3c-4,0-7.1,0.1-9.3,0.3v-2c2.3-0.1,4-0.4,5.2-1c1.1-0.6,1.9-1.5,2.3-2.8c0.4-1.3,0.6-3.2,0.6-5.8
			v-48.5c0-2.5-0.2-4.3-0.6-5.5c-0.4-1.1-1.2-1.9-2.3-2.3c-1.1-0.4-2.8-0.7-5.3-0.8v-2c2.2,0.2,5.3,0.3,9.3,0.3
			c3.5,0,6.4-0.1,8.6-0.3l22,57.9l20.1-56.4c0.2-0.5,0.6-0.8,1.1-0.9l0,0c1.7-0.5,5.5-0.6,7.3-0.6c2.1,0,3.8,0.2,5.3,0.5
			c1.5,0.3,2.7,0.7,3.7,1.2c1.1,0.6,2.2,1.2,3.2,1.9c1.5,0.9,2.6,1.4,3.4,1.4c0.6,0,1.1-0.3,1.4-1c0.3-0.7,0.6-1.8,0.8-3.2h2.3
			c-0.3,3.8-0.5,10.3-0.5,19.7h-2.3c-0.3-3.3-1-6.3-2.2-9.1c-1.2-2.8-3-5.1-5.4-6.8c-2.4-1.7-5.3-2.6-8.8-2.6c-2.3,0-6.8,0.7-7.2,2
			l0,0l-4.6,12.9c0.5,1.8,1.5,3.5,2.8,4.8c2.2,2.1,4.7,4.1,7.7,5.8c2.9,1.7,4.9,2.9,5.9,3.5c4.2,2.5,7.5,4.7,10,6.6
			c2.4,1.9,4.4,4,5.9,6.5c1.5,2.5,2.2,5.3,2.2,8.6c0,4-0.9,7.3-2.8,10.1s-4.4,4.8-7.7,6.2C94.7-0.7,91.1,0,87.1,0
			c-3.2,0-5.8-0.3-7.9-1c-2-0.6-4-1.5-5.8-2.6c-1.5-0.9-2.6-1.4-3.4-1.4c-0.6,0-1.1,0.3-1.4,1c-0.3,0.7-0.6,1.8-0.8,3.2h-2.3
			c0.3-3.5,0.4-11.2,0.4-23.1h2.3c0.5,6.5,2.1,11.8,5,15.9c2.9,4,7.3,6.1,13.3,6.1c2.3,0,4.4-0.5,6.4-1.4c2-0.9,3.6-2.3,4.8-4.3
			c1.2-1.9,1.8-4.3,1.8-7.2c0-2.5-0.6-4.7-1.9-6.7s-3-3.8-5.1-5.4c-2.2-1.6-5-3.5-8.6-5.6c-4-2.3-7.2-4.3-9.6-6.2
			c-1.6-1.2-3-2.6-4.3-4.2L54.7,0"/>
	</g>
	<g id="Bold-S" transform="matrix(1 0 0 1 2280.7 696)">
		<path id="Ebene_2_6_" class="st10" d="M50.1,0L25-64.4v52.7c0,2.6,0.2,4.5,0.7,5.8C26.2-4.5,27-3.6,28.3-3c1.3,0.6,3.2,0.9,5.8,1
			v2c-2.4-0.2-5.8-0.3-10.2-0.3c-4,0-7.1,0.1-9.3,0.3v-2c2.3-0.1,4-0.4,5.2-1c1.1-0.6,1.9-1.5,2.3-2.8c0.4-1.3,0.6-3.2,0.6-5.8
			v-48.5c0-2.5-0.2-4.3-0.6-5.5c-0.4-1.1-1.2-1.9-2.3-2.3c-1.1-0.4-2.8-0.7-5.3-0.8v-2c2.2,0.2,5.3,0.3,9.3,0.3
			c3.5,0,6.4-0.1,8.6-0.3l22,57.9l20.1-56.4c0.2-0.5,0.6-0.8,1.1-0.9l0,0c1.7-0.5,5.5-0.6,7.3-0.6c2.1,0,3.8,0.2,5.3,0.5
			c1.5,0.3,2.7,0.7,3.7,1.2c1.1,0.6,2.2,1.2,3.2,1.9c1.5,0.9,2.6,1.4,3.4,1.4c0.6,0,1.1-0.3,1.4-1c0.3-0.7,0.6-1.8,0.8-3.2h2.3
			c-0.3,3.8-0.5,10.3-0.5,19.7h-2.3c-0.3-3.3-1-6.3-2.2-9.1c-1.2-2.8-3-5.1-5.4-6.8c-2.4-1.7-5.3-2.6-8.8-2.6c-2.3,0-6.8,0.7-7.2,2
			l0,0L72-54.1c0.5,1.8,1.5,3.5,2.8,4.8c2.2,2.1,4.7,4.1,7.7,5.8c2.9,1.7,4.9,2.9,5.9,3.5c4.2,2.5,7.5,4.7,10,6.6
			c2.4,1.9,4.4,4,5.9,6.5c1.5,2.5,2.2,5.3,2.2,8.6c0,4-0.9,7.3-2.8,10.1S99.2-3.5,96-2.1C92.8-0.7,89.2,0,85.2,0
			c-3.2,0-5.8-0.3-7.9-1c-2-0.6-4-1.5-5.8-2.6c-1.5-0.9-2.6-1.4-3.4-1.4c-0.6,0-1.1,0.3-1.4,1S66-2.2,65.9-0.7h-2.3
			c0.3-3.5,0.4-11.2,0.4-23.1h2.3c0.5,6.5,2.1,11.8,5,15.9c2.9,4,7.3,6.1,13.3,6.1c2.3,0,4.4-0.5,6.4-1.4c2-0.9,3.6-2.3,4.8-4.3
			c1.2-1.9,1.8-4.3,1.8-7.2c0-2.5-0.6-4.7-1.9-6.7s-3-3.8-5.1-5.4c-2.2-1.6-5-3.5-8.6-5.6c-4-2.3-7.2-4.3-9.6-6.2
			c-1.6-1.2-3-2.6-4.3-4.2L52.8,0"/>
	</g>
	<g id="Semibold-S" transform="matrix(1 0 0 1 1985.26 696)">
		<path id="Ebene_2_5_" class="st11" d="M46.4,0L21.4-64.4v52.7c0,2.6,0.2,4.5,0.7,5.8c0.5,1.3,1.3,2.2,2.6,2.8
			c1.3,0.6,3.2,0.9,5.8,1v2c-2.4-0.2-5.8-0.3-10.2-0.3c-4,0-7.1,0.1-9.3,0.3v-2c2.3-0.1,4-0.4,5.2-1c1.1-0.6,1.9-1.5,2.3-2.8
			c0.4-1.3,0.6-3.2,0.6-5.8v-48.5c0-2.5-0.2-4.3-0.6-5.5c-0.4-1.1-1.2-1.9-2.3-2.3c-1.1-0.4-2.8-0.7-5.3-0.8v-2
			c2.2,0.2,5.3,0.3,9.3,0.3c3.5,0,6.4-0.1,8.6-0.3l22,57.9l20.1-56.4c0.2-0.5,0.6-0.8,1.1-0.9l0,0c1.7-0.5,5.5-0.6,7.3-0.6
			c2.1,0,3.8,0.2,5.3,0.5c1.5,0.3,2.7,0.7,3.7,1.2c1.1,0.6,2.2,1.2,3.2,1.9c1.5,0.9,2.6,1.4,3.4,1.4c0.6,0,1.1-0.3,1.4-1
			c0.3-0.7,0.6-1.8,0.8-3.2h2.3c-0.3,3.8-0.5,10.3-0.5,19.7h-2.3c-0.3-3.3-1-6.3-2.2-9.1c-1.2-2.8-3-5.1-5.4-6.8
			c-2.4-1.7-5.3-2.6-8.8-2.6c-2.3,0-6.8,0.7-7.2,2l0,0l-4.6,12.9c0.5,1.8,1.5,3.5,2.8,4.8c2.2,2.1,4.7,4.1,7.7,5.8
			c2.9,1.7,4.9,2.9,5.9,3.5c4.2,2.5,7.5,4.7,10,6.6c2.4,1.9,4.4,4,5.9,6.5c1.5,2.5,2.2,5.3,2.2,8.6c0,4-0.9,7.3-2.8,10.1
			c-1.9,2.7-4.4,4.8-7.7,6.2C89.1-0.7,85.5,0,81.5,0c-3.2,0-5.8-0.3-7.9-1c-2-0.6-4-1.5-5.8-2.6c-1.5-0.9-2.6-1.4-3.4-1.4
			c-0.6,0-1.1,0.3-1.4,1s-0.6,1.8-0.8,3.2h-2.3c0.3-3.5,0.4-11.2,0.4-23.1h2.3C63-17.3,64.7-12,67.6-8c2.9,4,7.3,6.1,13.3,6.1
			c2.3,0,4.4-0.5,6.4-1.4c2-0.9,3.6-2.3,4.8-4.3c1.2-1.9,1.8-4.3,1.8-7.2c0-2.5-0.6-4.7-1.9-6.7s-3-3.8-5.1-5.4
			c-2.2-1.6-5-3.5-8.6-5.6c-4-2.3-7.2-4.3-9.6-6.2c-1.6-1.2-3-2.6-4.3-4.2L49.1,0"/>
	</g>
	<g id="Medium-S" transform="matrix(1 0 0 1 1689.52 696)">
		<path id="Ebene_2_4_" class="st12" d="M47.4,0L22.4-64.4v52.7c0,2.6,0.2,4.5,0.7,5.8c0.5,1.3,1.3,2.2,2.6,2.8
			c1.3,0.6,3.2,0.9,5.8,1v2c-2.4-0.2-5.8-0.3-10.2-0.3c-4,0-7.1,0.1-9.3,0.3v-2c2.3-0.1,4-0.4,5.2-1c1.1-0.6,1.9-1.5,2.3-2.8
			c0.4-1.3,0.6-3.2,0.6-5.8v-48.5c0-2.5-0.2-4.3-0.6-5.5c-0.4-1.1-1.2-1.9-2.3-2.3c-1.1-0.4-2.8-0.7-5.3-0.8v-2
			c2.2,0.2,5.3,0.3,9.3,0.3c3.5,0,6.4-0.1,8.6-0.3l22,57.9l20.1-56.4c0.2-0.5,0.6-0.8,1.1-0.9l0,0c1.7-0.5,5.5-0.6,7.3-0.6
			c2.1,0,3.8,0.2,5.3,0.5c1.5,0.3,2.7,0.7,3.7,1.2c1.1,0.6,2.2,1.2,3.2,1.9c1.5,0.9,2.6,1.4,3.4,1.4c0.6,0,1.1-0.3,1.4-1
			c0.3-0.7,0.6-1.8,0.8-3.2h2.3c-0.3,3.8-0.5,10.3-0.5,19.7h-2.3c-0.3-3.3-1-6.3-2.2-9.1c-1.2-2.8-3-5.1-5.4-6.8
			c-2.4-1.7-5.3-2.6-8.8-2.6c-2.3,0-6.8,0.7-7.2,2l0,0l-4.6,12.9c0.5,1.8,1.5,3.5,2.8,4.8c2.2,2.1,4.7,4.1,7.7,5.8s4.9,2.9,5.9,3.5
			c4.2,2.5,7.5,4.7,10,6.6c2.4,1.9,4.4,4,5.9,6.5c1.5,2.5,2.2,5.3,2.2,8.6c0,4-0.9,7.3-2.8,10.1c-1.9,2.7-4.4,4.8-7.7,6.2
			C90.1-0.7,86.5,0,82.5,0c-3.2,0-5.8-0.3-7.9-1c-2-0.6-4-1.5-5.8-2.6c-1.5-0.9-2.6-1.4-3.4-1.4c-0.6,0-1.1,0.3-1.4,1
			c-0.3,0.7-0.6,1.8-0.8,3.2h-2.3c0.3-3.5,0.4-11.2,0.4-23.1h2.3C64-17.3,65.7-12,68.6-8c2.9,4,7.3,6.1,13.3,6.1
			c2.3,0,4.4-0.5,6.4-1.4c2-0.9,3.6-2.3,4.8-4.3c1.2-1.9,1.8-4.3,1.8-7.2c0-2.5-0.6-4.7-1.9-6.7s-3-3.8-5.1-5.4
			c-2.2-1.6-5-3.5-8.6-5.6c-4-2.3-7.2-4.3-9.6-6.2c-1.6-1.2-3-2.6-4.3-4.2L50.1,0"/>
	</g>
	<g id="Regular-S" transform="matrix(1 0 0 1 1394.06 696)">
		<path id="Ebene_2_3_" class="st13" d="M47.4,0L22.3-64.4v52.7c0,2.6,0.2,4.5,0.7,5.8c0.5,1.3,1.3,2.2,2.6,2.8
			c1.3,0.6,3.2,0.9,5.8,1v2C29-0.2,25.6-0.3,21.2-0.3c-4,0-7.1,0.1-9.3,0.3v-2c2.3-0.1,4-0.4,5.2-1c1.1-0.6,1.9-1.5,2.3-2.8
			c0.4-1.3,0.6-3.2,0.6-5.8v-48.5c0-2.5-0.2-4.3-0.6-5.5c-0.4-1.1-1.2-1.9-2.3-2.3c-1.1-0.4-2.8-0.7-5.3-0.8v-2
			c2.2,0.2,5.3,0.3,9.3,0.3c3.5,0,6.4-0.1,8.6-0.3l22,57.9l20.1-56.4c0.2-0.5,0.6-0.8,1.1-0.9l0,0c1.7-0.5,5.5-0.6,7.3-0.6
			c2.1,0,3.8,0.2,5.3,0.5c1.5,0.3,2.7,0.7,3.7,1.2c1.1,0.6,2.2,1.2,3.2,1.9c1.5,0.9,2.6,1.4,3.4,1.4c0.6,0,1.1-0.3,1.4-1
			c0.3-0.7,0.6-1.8,0.8-3.2h2.3c-0.3,3.8-0.5,10.3-0.5,19.7h-2.3c-0.3-3.3-1-6.3-2.2-9.1c-1.2-2.8-3-5.1-5.4-6.8
			c-2.4-1.7-5.3-2.6-8.8-2.6c-2.3,0-6.8,0.7-7.2,2l0,0l-4.6,12.9c0.5,1.8,1.5,3.5,2.8,4.8c2.2,2.1,4.7,4.1,7.7,5.8s4.9,2.9,5.9,3.5
			c4.2,2.5,7.5,4.7,10,6.6c2.4,1.9,4.4,4,5.9,6.5c1.5,2.5,2.2,5.3,2.2,8.6c0,4-0.9,7.3-2.8,10.1c-1.9,2.7-4.4,4.8-7.7,6.2
			C90-0.7,86.4,0,82.4,0c-3.2,0-5.8-0.3-7.9-1c-2-0.6-4-1.5-5.8-2.6c-1.5-0.9-2.6-1.4-3.4-1.4c-0.6,0-1.1,0.3-1.4,1
			s-0.6,1.8-0.8,3.2h-2.3c0.3-3.5,0.4-11.2,0.4-23.1h2.3C64-17.3,65.6-12,68.5-8c2.9,4,7.3,6.1,13.3,6.1c2.3,0,4.4-0.5,6.4-1.4
			c2-0.9,3.6-2.3,4.8-4.3c1.2-1.9,1.8-4.3,1.8-7.2c0-2.5-0.6-4.7-1.9-6.7c-1.3-2-3-3.8-5.1-5.4c-2.2-1.6-5-3.5-8.6-5.6
			c-4-2.3-7.2-4.3-9.6-6.2c-1.6-1.2-3-2.6-4.3-4.2L50.1,0"/>
	</g>
	<g id="Light-S" transform="matrix(1 0 0 1 1099.35 696)">
		<path id="Ebene_2_2_" class="st14" d="M63.5,0L38.5-64.4v52.7c0,2.6,0.2,4.5,0.7,5.8c0.5,1.3,1.3,2.2,2.6,2.8
			c1.3,0.6,3.2,0.9,5.8,1v2c-2.4-0.2-5.8-0.3-10.2-0.3c-4,0-7.1,0.1-9.3,0.3v-2c2.3-0.1,4-0.4,5.2-1c1.1-0.6,1.9-1.5,2.3-2.8
			c0.4-1.3,0.6-3.2,0.6-5.8v-48.5c0-2.5-0.2-4.3-0.6-5.5c-0.4-1.1-1.2-1.9-2.3-2.3c-1.1-0.4-2.8-0.7-5.3-0.8v-2
			c2.2,0.2,5.3,0.3,9.3,0.3c3.5,0,6.4-0.1,8.6-0.3l22,57.9L88-69.2c0.2-0.5,0.6-0.8,1.1-0.9l0,0c1.7-0.5,5.5-0.6,7.3-0.6
			c2.1,0,3.8,0.2,5.3,0.5c1.5,0.3,2.7,0.7,3.7,1.2c1.1,0.6,2.2,1.2,3.2,1.9c1.5,0.9,2.6,1.4,3.4,1.4c0.6,0,1.1-0.3,1.4-1
			c0.3-0.7,0.6-1.8,0.8-3.2h2.3c-0.3,3.8-0.5,10.3-0.5,19.7h-2.3c-0.3-3.3-1-6.3-2.2-9.1c-1.2-2.8-3-5.1-5.4-6.8
			c-2.4-1.7-5.3-2.6-8.8-2.6c-2.3,0-6.8,0.7-7.2,2l0,0l-4.6,12.9c0.5,1.8,1.5,3.5,2.8,4.8c2.2,2.1,4.7,4.1,7.7,5.8s4.9,2.9,5.9,3.5
			c4.2,2.5,7.5,4.7,10,6.6s4.4,4,5.9,6.5c1.5,2.5,2.2,5.3,2.2,8.6c0,4-0.9,7.3-2.8,10.1c-1.9,2.7-4.4,4.8-7.7,6.2
			C106.2-0.7,102.6,0,98.6,0c-3.2,0-5.8-0.3-7.9-1c-2-0.6-4-1.5-5.8-2.6c-1.5-0.9-2.6-1.4-3.4-1.4c-0.6,0-1.1,0.3-1.4,1
			s-0.6,1.8-0.8,3.2H77c0.3-3.5,0.4-11.2,0.4-23.1h2.3c0.5,6.5,2.1,11.8,5,15.9c2.9,4,7.3,6.1,13.3,6.1c2.3,0,4.4-0.5,6.4-1.4
			c2-0.9,3.6-2.3,4.8-4.3c1.2-1.9,1.8-4.3,1.8-7.2c0-2.5-0.6-4.7-1.9-6.7c-1.3-2-3-3.8-5.1-5.4c-2.2-1.6-5-3.5-8.6-5.6
			c-4-2.3-7.2-4.3-9.6-6.2c-1.6-1.2-3-2.6-4.3-4.2L66.2,0"/>
	</g>
	<g id="Thin-S" transform="matrix(1 0 0 1 805.25 696)">
		<path id="Ebene_2_1_" class="st15" d="M42.4,0L17.3-64.4v52.7c0,2.6,0.2,4.5,0.7,5.8c0.5,1.3,1.3,2.2,2.6,2.8
			c1.3,0.6,3.2,0.9,5.8,1v2C24-0.2,20.6-0.3,16.2-0.3c-4,0-7.1,0.1-9.3,0.3v-2c2.3-0.1,4-0.4,5.2-1c1.1-0.6,1.9-1.5,2.3-2.8
			c0.4-1.3,0.6-3.2,0.6-5.8v-48.5c0-2.5-0.2-4.3-0.6-5.5c-0.4-1.1-1.2-1.9-2.3-2.3c-1.1-0.4-2.8-0.7-5.3-0.8v-2
			c2.2,0.2,5.3,0.3,9.3,0.3c3.5,0,6.4-0.1,8.6-0.3l22,57.9l20.1-56.4c0.2-0.5,0.6-0.8,1.1-0.9l0,0c1.7-0.5,5.5-0.6,7.3-0.6
			c2.1,0,3.8,0.2,5.3,0.5s2.7,0.7,3.7,1.2c1.1,0.6,2.2,1.2,3.2,1.9c1.5,0.9,2.6,1.4,3.4,1.4c0.6,0,1.1-0.3,1.4-1
			c0.3-0.7,0.6-1.8,0.8-3.2h2.3c-0.3,3.8-0.5,10.3-0.5,19.7h-2.3c-0.3-3.3-1-6.3-2.2-9.1c-1.2-2.8-3-5.1-5.4-6.8
			c-2.4-1.7-5.3-2.6-8.8-2.6c-2.3,0-6.8,0.7-7.2,2l0,0l-4.6,12.9c0.5,1.8,1.5,3.5,2.8,4.8c2.2,2.1,4.7,4.1,7.7,5.8
			c2.9,1.7,4.9,2.9,5.9,3.5c4.2,2.5,7.5,4.7,10,6.6s4.4,4,5.9,6.5c1.5,2.5,2.2,5.3,2.2,8.6c0,4-0.9,7.3-2.8,10.1s-4.4,4.8-7.7,6.2
			C85-0.7,81.4,0,77.4,0c-3.2,0-5.8-0.3-7.9-1c-2-0.6-4-1.5-5.8-2.6c-1.5-0.9-2.6-1.4-3.4-1.4c-0.6,0-1.1,0.3-1.4,1
			s-0.6,1.8-0.8,3.2h-2.3c0.3-3.5,0.4-11.2,0.4-23.1h2.3C59-17.3,60.6-12,63.5-8c2.9,4,7.3,6.1,13.3,6.1c2.3,0,4.4-0.5,6.4-1.4
			c2-0.9,3.6-2.3,4.8-4.3c1.2-1.9,1.8-4.3,1.8-7.2c0-2.5-0.6-4.7-1.9-6.7s-3-3.8-5.1-5.4c-2.2-1.6-5-3.5-8.6-5.6
			c-4-2.3-7.2-4.3-9.6-6.2c-1.6-1.2-3-2.6-4.3-4.2L45.1,0"/>
	</g>
	<g id="Ultralight-S" transform="matrix(1 0 0 1 509.906 696)">
		<path id="Ebene_2" d="M40.5,0L15.4-64.4v52.7c0,2.6,0.2,4.5,0.7,5.8c0.5,1.3,1.3,2.2,2.6,2.8c1.3,0.6,3.2,0.9,5.8,1v2
			c-2.4-0.2-5.8-0.3-10.2-0.3c-4,0-7.1,0.1-9.3,0.3v-2c2.3-0.1,4-0.4,5.2-1c1.1-0.6,1.9-1.5,2.3-2.8c0.4-1.3,0.6-3.2,0.6-5.8v-48.5
			c0-2.5-0.2-4.3-0.6-5.5c-0.4-1.1-1.2-1.9-2.3-2.3c-1.1-0.4-2.8-0.7-5.3-0.8v-2c2.2,0.2,5.3,0.3,9.3,0.3c3.5,0,6.4-0.1,8.6-0.3
			l22,57.9L65-69.2c0.2-0.5,0.6-0.8,1.1-0.9l0,0c1.7-0.5,5.5-0.6,7.3-0.6c2.1,0,3.8,0.2,5.3,0.5c1.5,0.3,2.7,0.7,3.7,1.2
			c1.1,0.6,2.2,1.2,3.2,1.9c1.5,0.9,2.6,1.4,3.4,1.4c0.6,0,1.1-0.3,1.4-1c0.3-0.7,0.6-1.8,0.8-3.2h2.3c-0.3,3.8-0.5,10.3-0.5,19.7
			h-2.3c-0.3-3.3-1-6.3-2.2-9.1c-1.2-2.8-3-5.1-5.4-6.8c-2.4-1.7-5.3-2.6-8.8-2.6c-2.3,0-6.8,0.7-7.2,2l0,0l-4.6,12.9
			c0.5,1.8,1.5,3.5,2.8,4.8c2.2,2.1,4.7,4.1,7.7,5.8s4.9,2.9,5.9,3.5c4.2,2.5,7.5,4.7,10,6.6c2.4,1.9,4.4,4,5.9,6.5
			c1.5,2.5,2.2,5.3,2.2,8.6c0,4-0.9,7.3-2.8,10.1c-1.9,2.7-4.4,4.8-7.7,6.2C83.1-0.7,79.5,0,75.6,0c-3.2,0-5.8-0.3-7.9-1
			c-2-0.6-4-1.5-5.8-2.6c-1.5-0.9-2.6-1.4-3.4-1.4c-0.6,0-1.1,0.3-1.4,1s-0.6,1.8-0.8,3.2h-2.3c0.3-3.5,0.4-11.2,0.4-23.1h2.3
			c0.5,6.5,2.1,11.8,5,15.9c2.9,4,7.3,6.1,13.3,6.1c2.3,0,4.4-0.5,6.4-1.4c2-0.9,3.6-2.3,4.8-4.3c1.2-1.9,1.8-4.3,1.8-7.2
			c0-2.5-0.6-4.7-1.9-6.7s-3-3.8-5.1-5.4c-2.2-1.6-5-3.5-8.6-5.6c-4-2.3-7.2-4.3-9.6-6.2c-1.6-1.2-3-2.6-4.3-4.2L43.2,0"/>
	</g>
</g>
</svg>
